<?xml version="1.0" encoding="iso-8859-1"?>
<!-- Uploaded to: SVG Repo, www.svgrepo.com, Generator: SVG Repo Mixer Tools -->
<!DOCTYPE svg PUBLIC "-//W3C//DTD SVG 1.1//EN" "http://www.w3.org/Graphics/SVG/1.1/DTD/svg11.dtd">
<svg fill="#000000" height="800px" width="800px" version="1.1" id="Capa_1" xmlns="http://www.w3.org/2000/svg" xmlns:xlink="http://www.w3.org/1999/xlink" 
	 viewBox="0 0 372.054 372.054" xml:space="preserve">
<g>
	<path d="M335.31,75.09C305.679,35.211,262.29,9.259,213.139,2.014C111.672-12.934,16.961,57.441,2.004,158.904
		c-14.955,101.464,55.426,196.179,156.89,211.136c9.159,1.35,18.246,2.003,27.242,2.003c90.655,0,170.287-66.588,183.893-158.893
		C377.273,163.998,364.943,114.968,335.31,75.09z M185.91,20.012c8.022,0,16.144,0.585,24.313,1.789
		c43.866,6.466,82.589,29.627,109.035,65.218c23.713,31.912,35,70.392,32.42,109.628c-10.184-0.913-20.278-1.536-30.279-1.894
		v-20.242c0-5.522-4.478-10-10-10s-10,4.478-10,10v19.895c-2.146,0.003-4.287,0.021-6.423,0.051v-19.946c0-5.522-4.478-10-10-10
		s-10,4.478-10,10v20.61c-4.603,0.245-9.18,0.552-13.729,0.923c-39.241-24.227-92.831-37.842-159.325-40.458
		c-15.065-0.594-29.023-0.534-41.214-0.16V142.36c0-5.522-4.478-10-10-10s-10,4.478-10,10v14.015
		c-7.462,0.483-13.668,1.031-18.286,1.497C36.218,77.544,106.294,20.012,185.91,20.012z M181.083,230.706
		c21.977,11.594,70.053,42.775,86.4,99.872c-16.919,9.56-35.57,16.208-55.182,19.365c4.438-55.593-26-98.42-41.338-116.206
		C174.243,232.702,177.625,231.693,181.083,230.706z M122.473,230.879c-5.13,2.333-9.994,4.694-14.614,7.055
		c2.206-21.181,8.629-40.733,19.191-58.262c0.435-0.722,0.756-1.479,0.991-2.25c32.384,3.008,67.244,9.619,97.946,22.845
		c-1.459,0.232-2.924,0.453-4.377,0.7C186.302,206.955,152.946,217.02,122.473,230.879z M77.463,255.559
		c1.639-21.159,7.778-47.307,24.8-71.857c-9.437,20.122-14.53,42.184-15.191,65.802C83.668,251.564,80.461,253.589,77.463,255.559z
		 M20.196,178.239c9.433-1.036,33.313-3.241,63.636-2.99c-22.078,33.423-26.949,68.828-26.873,93.809
		c0.001,0.435,0.04,0.859,0.095,1.279c-3.853,3.095-6.866,5.725-9.079,7.744C28.801,249.356,18.46,214.622,20.196,178.239z
		 M161.809,350.252c-41.136-6.063-76.545-26.819-101.693-56.153c6.839-6.428,30.084-26.571,70.635-45.014
		c6.001-2.729,12.558-5.484,19.639-8.188c8.259,8.54,47.971,52.979,41.631,111.03C182.088,352.283,171.988,351.752,161.809,350.252z
		 M284.943,319.234c-15.648-47.745-50.538-78.38-76.238-95.358c19.815-4.166,41.919-7.288,66.27-8.668v4.11c0,5.522,4.478,10,10,10
		s10-4.478,10-10v-4.832c2.125-0.033,4.267-0.05,6.423-0.055v4.887c0,5.522,4.478,10,10,10s10-4.478,10-10v-4.552
		c9.012,0.328,18.275,0.9,27.784,1.739C341.254,259.061,317.494,295.059,284.943,319.234z"/>
	<path d="M244.541,140.828c1.848,0.271,3.693,0.406,5.527,0.406c7.97,0,15.699-2.543,22.213-7.383
		c8.014-5.955,13.228-14.673,14.684-24.548c3.005-20.388-11.136-39.419-31.524-42.426c-20.393-2.995-39.42,11.139-42.424,31.524
		c-1.457,9.877,1.021,19.729,6.976,27.741C225.946,134.157,234.664,139.372,244.541,140.828z M232.803,101.32
		c1.271-8.623,8.708-14.842,17.177-14.842c0.839,0,1.69,0.062,2.544,0.187c9.479,1.397,16.052,10.245,14.655,19.722
		c-0.001,0.001-0.001,0.001-0.001,0.001c-0.676,4.591-3.101,8.644-6.825,11.411c-3.724,2.769-8.299,3.92-12.895,3.244
		c-4.592-0.678-8.646-3.102-11.413-6.827C233.277,110.491,232.125,105.911,232.803,101.32z"/>
</g>
</svg>