<?xml version="1.0" encoding="UTF-8"?>
<svg xmlns="http://www.w3.org/2000/svg" xmlns:xlink="http://www.w3.org/1999/xlink" width="3000" height="2000" viewBox="0 0 3000 2000">
<defs>
<clipPath id="clip-0">

</clipPath>
<clipPath id="clip-1">
<path clip-rule="nonzero" d="M 2849.570312 1701.039062 C 2849.570312 1701.050781 2849.570312 1701.050781 2849.570312 1701.058594 C 2847.429688 1824.140625 2792.101562 1924.167969 2726.238281 2000 L 150.371094 2000 C 377.570312 1948.429688 1077.050781 1776.730469 1394.539062 1551.5 C 1448.039062 1513.550781 1475.078125 1482.648438 1483.140625 1456.101562 C 1517.179688 1344.019531 1213.128906 1309.308594 1134.539062 1147.5 C 1127.699219 1133.421875 1123.898438 1120.171875 1122.851562 1107.699219 C 1108.300781 934.308594 1625.960938 911.921875 1889.039062 883 C 2115.851562 858.070312 2312.480469 848.5 2345.871094 827.601562 C 2350.820312 824.519531 2352.179688 821.179688 2349.539062 817.5 C 2323.960938 781.941406 2042.019531 726.019531 2038.378906 651.988281 C 2038.148438 647.398438 2038.988281 642.730469 2041.039062 638 C 2046.671875 624.96875 2063.519531 612.398438 2088.480469 600.421875 C 2094.710938 597.421875 2101.441406 594.46875 2108.621094 591.558594 C 2154.320312 573.011719 2218.460938 555.980469 2288.578125 540.921875 C 2292.628906 540.050781 2296.691406 539.191406 2300.769531 538.328125 C 2299.621094 538.648438 2298.480469 538.960938 2297.339844 539.28125 C 2225.371094 559.320312 2160.171875 584.789062 2116.039062 617 C 2107.089844 623.53125 2102.988281 629.878906 2103.019531 636.078125 C 2103.398438 710.070312 2692.148438 763.210938 2661.769531 856.519531 C 2660.96875 858.980469 2659.730469 861.480469 2658.039062 864 C 2610.839844 934.46875 2431.039062 978 2137.039062 1014 C 1888.648438 1044.421875 1648.75 1053.789062 1679.929688 1096.558594 C 1681.878906 1099.230469 1684.898438 1102.039062 1689.039062 1105 C 1891.039062 1249 2788.019531 1271.171875 2844.039062 1624 C 2848.261719 1650.609375 2849.988281 1676.289062 2849.570312 1701.039062 Z M 2849.570312 1701.039062 "/>
</clipPath>
<clipPath id="clip-2">
<path clip-rule="nonzero" d="M 2849.570312 1701.039062 C 2849.570312 1701.050781 2849.570312 1701.050781 2849.570312 1701.058594 C 2847.429688 1824.140625 2792.101562 1924.167969 2726.238281 2000 L 150.371094 2000 C 377.570312 1948.429688 1077.050781 1776.730469 1394.539062 1551.5 C 1448.039062 1513.550781 1475.078125 1482.648438 1483.140625 1456.101562 C 1517.179688 1344.019531 1213.128906 1309.308594 1134.539062 1147.5 C 1127.699219 1133.421875 1123.898438 1120.171875 1122.851562 1107.699219 C 1108.300781 934.308594 1625.960938 911.921875 1889.039062 883 C 2115.851562 858.070312 2312.480469 848.5 2345.871094 827.601562 C 2350.820312 824.519531 2352.179688 821.179688 2349.539062 817.5 C 2323.960938 781.941406 2042.019531 726.019531 2038.378906 651.988281 C 2038.148438 647.398438 2038.988281 642.730469 2041.039062 638 C 2046.671875 624.96875 2063.519531 612.398438 2088.480469 600.421875 C 2094.710938 597.421875 2101.441406 594.46875 2108.621094 591.558594 C 2154.320312 573.011719 2218.460938 555.980469 2288.578125 540.921875 C 2292.628906 540.050781 2296.691406 539.191406 2300.769531 538.328125 C 2299.621094 538.648438 2298.480469 538.960938 2297.339844 539.28125 C 2225.371094 559.320312 2160.171875 584.789062 2116.039062 617 C 2107.089844 623.53125 2102.988281 629.878906 2103.019531 636.078125 C 2103.398438 710.070312 2692.148438 763.210938 2661.769531 856.519531 C 2660.96875 858.980469 2659.730469 861.480469 2658.039062 864 C 2610.839844 934.46875 2431.039062 978 2137.039062 1014 C 1888.648438 1044.421875 1648.75 1053.789062 1679.929688 1096.558594 C 1681.878906 1099.230469 1684.898438 1102.039062 1689.039062 1105 C 1891.039062 1249 2788.019531 1271.171875 2844.039062 1624 C 2848.261719 1650.609375 2849.988281 1676.289062 2849.570312 1701.039062 "/>
</clipPath>
<linearGradient id="linear-pattern-0" gradientUnits="userSpaceOnUse" x1="-0.161238" y1="0" x2="1.796166" y2="0" gradientTransform="matrix(-733.699, 1156.31, -1156.31, -733.699, 2389.27, 507.5)">
<stop offset="0" stop-color="rgb(54.901123%, 55.685425%, 58.03833%)" stop-opacity="1"/>
<stop offset="0.0625" stop-color="rgb(54.901123%, 55.685425%, 58.03833%)" stop-opacity="1"/>
<stop offset="0.078125" stop-color="rgb(54.901123%, 55.685425%, 58.03833%)" stop-opacity="1"/>
<stop offset="0.0859375" stop-color="rgb(54.824829%, 55.607605%, 57.96814%)" stop-opacity="1"/>
<stop offset="0.09375" stop-color="rgb(54.585266%, 55.358887%, 57.745361%)" stop-opacity="1"/>
<stop offset="0.101563" stop-color="rgb(54.255676%, 55.01709%, 57.440186%)" stop-opacity="1"/>
<stop offset="0.109375" stop-color="rgb(53.926086%, 54.675293%, 57.133484%)" stop-opacity="1"/>
<stop offset="0.117188" stop-color="rgb(53.596497%, 54.333496%, 56.828308%)" stop-opacity="1"/>
<stop offset="0.125" stop-color="rgb(53.266907%, 53.991699%, 56.521606%)" stop-opacity="1"/>
<stop offset="0.132812" stop-color="rgb(52.937317%, 53.649902%, 56.216431%)" stop-opacity="1"/>
<stop offset="0.140625" stop-color="rgb(52.606201%, 53.308105%, 55.911255%)" stop-opacity="1"/>
<stop offset="0.148438" stop-color="rgb(52.276611%, 52.966309%, 55.604553%)" stop-opacity="1"/>
<stop offset="0.15625" stop-color="rgb(51.947021%, 52.624512%, 55.299377%)" stop-opacity="1"/>
<stop offset="0.164062" stop-color="rgb(51.617432%, 52.282715%, 54.992676%)" stop-opacity="1"/>
<stop offset="0.171875" stop-color="rgb(51.287842%, 51.940918%, 54.6875%)" stop-opacity="1"/>
<stop offset="0.179688" stop-color="rgb(50.958252%, 51.599121%, 54.380798%)" stop-opacity="1"/>
<stop offset="0.1875" stop-color="rgb(50.627136%, 51.257324%, 54.075623%)" stop-opacity="1"/>
<stop offset="0.195313" stop-color="rgb(50.297546%, 50.915527%, 53.768921%)" stop-opacity="1"/>
<stop offset="0.203125" stop-color="rgb(49.967957%, 50.57373%, 53.463745%)" stop-opacity="1"/>
<stop offset="0.210938" stop-color="rgb(49.638367%, 50.231934%, 53.158569%)" stop-opacity="1"/>
<stop offset="0.21875" stop-color="rgb(49.308777%, 49.890137%, 52.851868%)" stop-opacity="1"/>
<stop offset="0.226563" stop-color="rgb(48.979187%, 49.54834%, 52.546692%)" stop-opacity="1"/>
<stop offset="0.234375" stop-color="rgb(48.648071%, 49.206543%, 52.23999%)" stop-opacity="1"/>
<stop offset="0.242188" stop-color="rgb(48.318481%, 48.86322%, 51.934814%)" stop-opacity="1"/>
<stop offset="0.25" stop-color="rgb(47.988892%, 48.521423%, 51.628113%)" stop-opacity="1"/>
<stop offset="0.257813" stop-color="rgb(47.659302%, 48.179626%, 51.322937%)" stop-opacity="1"/>
<stop offset="0.265625" stop-color="rgb(47.329712%, 47.83783%, 51.017761%)" stop-opacity="1"/>
<stop offset="0.273438" stop-color="rgb(47.000122%, 47.496033%, 50.71106%)" stop-opacity="1"/>
<stop offset="0.28125" stop-color="rgb(46.669006%, 47.154236%, 50.405884%)" stop-opacity="1"/>
<stop offset="0.289063" stop-color="rgb(46.339417%, 46.812439%, 50.099182%)" stop-opacity="1"/>
<stop offset="0.296875" stop-color="rgb(46.009827%, 46.470642%, 49.794006%)" stop-opacity="1"/>
<stop offset="0.304688" stop-color="rgb(45.680237%, 46.128845%, 49.487305%)" stop-opacity="1"/>
<stop offset="0.3125" stop-color="rgb(45.350647%, 45.787048%, 49.182129%)" stop-opacity="1"/>
<stop offset="0.320313" stop-color="rgb(45.021057%, 45.445251%, 48.875427%)" stop-opacity="1"/>
<stop offset="0.328125" stop-color="rgb(44.691467%, 45.103455%, 48.570251%)" stop-opacity="1"/>
<stop offset="0.335938" stop-color="rgb(44.360352%, 44.761658%, 48.265076%)" stop-opacity="1"/>
<stop offset="0.34375" stop-color="rgb(44.030762%, 44.419861%, 47.958374%)" stop-opacity="1"/>
<stop offset="0.351562" stop-color="rgb(43.701172%, 44.078064%, 47.653198%)" stop-opacity="1"/>
<stop offset="0.359375" stop-color="rgb(43.371582%, 43.736267%, 47.346497%)" stop-opacity="1"/>
<stop offset="0.367188" stop-color="rgb(43.041992%, 43.39447%, 47.041321%)" stop-opacity="1"/>
<stop offset="0.375" stop-color="rgb(42.712402%, 43.052673%, 46.734619%)" stop-opacity="1"/>
<stop offset="0.382812" stop-color="rgb(42.381287%, 42.710876%, 46.429443%)" stop-opacity="1"/>
<stop offset="0.390625" stop-color="rgb(42.051697%, 42.36908%, 46.124268%)" stop-opacity="1"/>
<stop offset="0.398438" stop-color="rgb(41.722107%, 42.027283%, 45.817566%)" stop-opacity="1"/>
<stop offset="0.40625" stop-color="rgb(41.392517%, 41.685486%, 45.51239%)" stop-opacity="1"/>
<stop offset="0.414062" stop-color="rgb(41.062927%, 41.343689%, 45.205688%)" stop-opacity="1"/>
<stop offset="0.421875" stop-color="rgb(40.733337%, 41.001892%, 44.900513%)" stop-opacity="1"/>
<stop offset="0.429688" stop-color="rgb(40.402222%, 40.660095%, 44.593811%)" stop-opacity="1"/>
<stop offset="0.4375" stop-color="rgb(40.072632%, 40.318298%, 44.288635%)" stop-opacity="1"/>
<stop offset="0.445312" stop-color="rgb(39.743042%, 39.976501%, 43.981934%)" stop-opacity="1"/>
<stop offset="0.453125" stop-color="rgb(39.413452%, 39.634705%, 43.676758%)" stop-opacity="1"/>
<stop offset="0.460938" stop-color="rgb(39.083862%, 39.292908%, 43.371582%)" stop-opacity="1"/>
<stop offset="0.46875" stop-color="rgb(38.754272%, 38.951111%, 43.06488%)" stop-opacity="1"/>
<stop offset="0.476562" stop-color="rgb(38.423157%, 38.609314%, 42.759705%)" stop-opacity="1"/>
<stop offset="0.484375" stop-color="rgb(38.093567%, 38.267517%, 42.453003%)" stop-opacity="1"/>
<stop offset="0.492188" stop-color="rgb(37.763977%, 37.92572%, 42.147827%)" stop-opacity="1"/>
<stop offset="0.5" stop-color="rgb(37.434387%, 37.583923%, 41.841125%)" stop-opacity="1"/>
<stop offset="0.507812" stop-color="rgb(37.104797%, 37.242126%, 41.53595%)" stop-opacity="1"/>
<stop offset="0.515625" stop-color="rgb(36.775208%, 36.90033%, 41.230774%)" stop-opacity="1"/>
<stop offset="0.523438" stop-color="rgb(36.445618%, 36.558533%, 40.924072%)" stop-opacity="1"/>
<stop offset="0.53125" stop-color="rgb(36.114502%, 36.216736%, 40.618896%)" stop-opacity="1"/>
<stop offset="0.539062" stop-color="rgb(35.784912%, 35.874939%, 40.312195%)" stop-opacity="1"/>
<stop offset="0.546875" stop-color="rgb(35.455322%, 35.533142%, 40.007019%)" stop-opacity="1"/>
<stop offset="0.554687" stop-color="rgb(35.125732%, 35.191345%, 39.700317%)" stop-opacity="1"/>
<stop offset="0.5625" stop-color="rgb(34.796143%, 34.849548%, 39.395142%)" stop-opacity="1"/>
<stop offset="0.570313" stop-color="rgb(34.466553%, 34.507751%, 39.08844%)" stop-opacity="1"/>
<stop offset="0.578125" stop-color="rgb(34.135437%, 34.165955%, 38.783264%)" stop-opacity="1"/>
<stop offset="0.585938" stop-color="rgb(33.805847%, 33.824158%, 38.478088%)" stop-opacity="1"/>
<stop offset="0.59375" stop-color="rgb(33.486938%, 33.493042%, 38.182068%)" stop-opacity="1"/>
<stop offset="0.625" stop-color="rgb(33.332825%, 33.332825%, 38.038635%)" stop-opacity="1"/>
<stop offset="0.75" stop-color="rgb(33.332825%, 33.332825%, 38.038635%)" stop-opacity="1"/>
<stop offset="1" stop-color="rgb(33.332825%, 33.332825%, 38.038635%)" stop-opacity="1"/>
</linearGradient>
</defs>

<path fill-rule="nonzero" fill="rgb(16.088867%, 15.696716%, 17.651367%)" fill-opacity="1" d="M 2749.910156 2000 L 226.398438 2000 C 496.738281 1942.058594 1067.839844 1803.210938 1365.230469 1609.570312 C 1375.320312 1603 1385.101562 1596.371094 1394.539062 1589.671875 C 1472.230469 1534.550781 1494.109375 1492.460938 1483.140625 1456.101562 C 1454.628906 1361.71875 1204.710938 1305.980469 1134.539062 1161.5 C 1125.070312 1142.011719 1121.429688 1124.128906 1122.851562 1107.699219 C 1125.628906 1075.320312 1148.019531 1048.578125 1184.101562 1026.300781 C 1243.351562 989.679688 1339.519531 965.058594 1446.359375 947.191406 C 1446.589844 947.148438 1446.820312 947.109375 1447.050781 947.070312 C 1597.78125 921.910156 1769.628906 910.128906 1889.039062 897 C 2128.21875 870.710938 2333.839844 861.5 2349.859375 838.078125 C 2350.511719 837.128906 2350.839844 836.160156 2350.859375 835.160156 C 2350.878906 833.980469 2350.449219 832.761719 2349.539062 831.5 C 2348.628906 830.238281 2347.398438 828.941406 2345.871094 827.601562 C 2303.75 790.769531 2034.789062 725.71875 2038.378906 651.988281 C 2038.558594 648.289062 2039.421875 644.570312 2041.039062 640.820312 C 2043.25 635.699219 2047.191406 630.601562 2052.679688 625.539062 C 2054.210938 624.140625 2055.851562 622.730469 2057.621094 621.328125 C 2057.628906 621.308594 2057.648438 621.289062 2057.671875 621.289062 C 2095.308594 591.410156 2185.46875 563.210938 2288.578125 540.921875 C 2292.628906 540.050781 2296.691406 539.191406 2300.769531 538.328125 C 2299.621094 538.648438 2298.480469 538.960938 2297.339844 539.28125 C 2225.359375 559.441406 2159.609375 588.671875 2115.480469 620.878906 C 2108.441406 626.019531 2104.398438 631.078125 2103.019531 636.078125 C 2096.75 658.75 2145.121094 680.109375 2215.769531 701.390625 C 2215.800781 701.398438 2215.839844 701.410156 2215.878906 701.421875 C 2234.78125 707.109375 2255.261719 712.789062 2276.71875 718.5 C 2276.878906 718.539062 2277.050781 718.578125 2277.230469 718.628906 C 2405.210938 752.609375 2567.539062 787.238281 2633.269531 827.539062 C 2637.058594 829.859375 2640.53125 832.199219 2643.648438 834.570312 C 2653.070312 841.691406 2659.351562 849 2661.769531 856.519531 C 2664.03125 863.488281 2662.96875 870.648438 2658.039062 878 C 2610.839844 948.46875 2431.039062 992 2137.039062 1028 C 1918.339844 1054.78125 1706.21875 1065.25 1679.929688 1096.558594 C 1674.789062 1102.671875 1676.730469 1109.558594 1687.050781 1117.519531 C 1687.679688 1118.011719 1688.351562 1118.5 1689.039062 1119 C 1820.460938 1212.679688 2246.039062 1254.800781 2542.820312 1369.960938 C 2702.21875 1431.800781 2824.46875 1514.71875 2844.039062 1638 C 2847.449219 1659.46875 2849.230469 1680.488281 2849.570312 1701.039062 C 2849.570312 1701.050781 2849.570312 1701.050781 2849.570312 1701.058594 C 2851.460938 1817.101562 2807.300781 1918.148438 2749.910156 2000 "/>
<g clip-path="url(#clip-0)">
<g clip-path="url(#clip-1)">
<g clip-path="url(#clip-2)">
<path fill-rule="nonzero" fill="url(#linear-pattern-0)" d="M 3511.222656 957.894531 L 925.28125 -682.929688 L -510.863281 1580.433594 L 2075.078125 3221.261719 Z M 3511.222656 957.894531 "/>
</g>
</g>
</g>
<path fill-rule="nonzero" fill="rgb(92.96875%, 89.451599%, 89.451599%)" fill-opacity="1" d="M 2785.101562 1725.761719 C 2779.308594 1767.230469 2767.058594 1807.71875 2749.71875 1845.710938 C 2732.398438 1883.75 2710.050781 1919.261719 2684.539062 1952.050781 C 2671.550781 1968.710938 2657.761719 1984.679688 2643.300781 2000 L 2602.988281 2000 C 2609.96875 1993.371094 2616.820312 1986.609375 2623.53125 1979.71875 C 2637.390625 1965.429688 2650.609375 1950.550781 2663.039062 1935.058594 C 2687.859375 1904.078125 2709.570312 1870.640625 2726.460938 1834.910156 C 2734.910156 1817.058594 2742.171875 1798.660156 2748.050781 1779.839844 C 2753.921875 1761.019531 2758.398438 1741.769531 2761.378906 1722.289062 C 2764.371094 1702.800781 2765.871094 1683.078125 2765.871094 1663.339844 C 2765.878906 1653.46875 2765.511719 1643.589844 2764.789062 1633.730469 L 2764.53125 1630.039062 L 2764.191406 1626.339844 C 2763.960938 1623.878906 2763.738281 1621.398438 2763.460938 1619.039062 C 2762.910156 1614.269531 2762.179688 1609.53125 2761.269531 1604.820312 C 2757.648438 1585.960938 2751.121094 1567.699219 2742.078125 1550.621094 C 2733.050781 1533.53125 2721.589844 1517.628906 2708.550781 1503 C 2695.480469 1488.390625 2680.828125 1475.039062 2665.261719 1462.761719 C 2649.671875 1450.5 2633.160156 1439.269531 2616.078125 1428.878906 C 2581.878906 1408.128906 2545.558594 1390.609375 2508.410156 1374.988281 C 2471.230469 1359.390625 2433.160156 1345.710938 2394.699219 1333.160156 C 2317.691406 1308.191406 2239.128906 1287.730469 2160.300781 1268.339844 C 2081.441406 1248.960938 2002.179688 1230.910156 1923.300781 1210.800781 C 1883.878906 1200.691406 1844.539062 1190.039062 1805.648438 1177.660156 C 1786.210938 1171.449219 1766.890625 1164.800781 1747.828125 1157.328125 C 1728.78125 1149.839844 1709.960938 1141.578125 1691.859375 1131.671875 C 1682.828125 1126.691406 1673.96875 1121.300781 1665.519531 1115.210938 C 1663.398438 1113.691406 1661.339844 1112.140625 1659.261719 1110.5 C 1657.140625 1108.828125 1655.070312 1107.03125 1653.109375 1105.019531 C 1651.160156 1103.011719 1649.300781 1100.789062 1647.71875 1098.191406 C 1646.160156 1095.601562 1644.871094 1092.539062 1644.511719 1089.121094 C 1644.339844 1087.421875 1644.410156 1085.660156 1644.71875 1083.96875 C 1645.019531 1082.261719 1645.621094 1080.660156 1646.320312 1079.191406 C 1647.75 1076.210938 1649.75 1073.851562 1651.828125 1071.800781 C 1656.050781 1067.78125 1660.730469 1064.929688 1665.449219 1062.449219 C 1670.179688 1059.980469 1675.019531 1057.941406 1679.890625 1056.089844 C 1684.761719 1054.25 1689.671875 1052.621094 1694.609375 1051.121094 C 1714.359375 1045.179688 1734.378906 1040.980469 1754.441406 1037.25 C 1774.511719 1033.570312 1794.648438 1030.449219 1814.808594 1027.621094 C 1855.140625 1021.988281 1895.570312 1017.46875 1936.019531 1013.320312 C 1976.480469 1009.199219 2016.960938 1005.488281 2057.449219 1001.941406 L 2118.191406 996.71875 C 2138.429688 995.03125 2158.648438 993.179688 2178.851562 991.171875 C 2219.261719 987.160156 2259.589844 982.460938 2299.800781 976.808594 C 2339.988281 971.140625 2380.070312 964.539062 2419.808594 956.328125 C 2439.679688 952.230469 2459.460938 947.699219 2479.078125 942.578125 C 2498.699219 937.460938 2518.179688 931.761719 2537.300781 925.058594 C 2556.398438 918.339844 2575.21875 910.699219 2593.039062 901.171875 C 2597.5 898.808594 2601.851562 896.25 2606.140625 893.609375 C 2610.410156 890.921875 2614.578125 888.089844 2618.609375 885.078125 C 2626.589844 878.988281 2634.078125 872.171875 2640 864.121094 L 2642.121094 861.050781 C 2642.769531 860.03125 2643.398438 858.988281 2643.910156 857.898438 C 2644.96875 855.738281 2645.691406 853.441406 2645.960938 851.089844 C 2646.230469 848.75 2646.011719 846.371094 2645.378906 844.078125 C 2644.738281 841.789062 2643.691406 839.601562 2642.378906 837.550781 C 2639.96875 833.789062 2636.75 830.5 2633.269531 827.539062 C 2632.960938 827.269531 2632.648438 827.011719 2632.328125 826.75 C 2628.46875 823.578125 2624.289062 820.78125 2619.980469 818.179688 C 2611.328125 813.011719 2602.179688 808.660156 2592.878906 804.660156 C 2583.570312 800.679688 2574.089844 797.101562 2564.53125 793.71875 C 2545.390625 787 2525.949219 781.121094 2506.410156 775.601562 C 2486.871094 770.089844 2467.210938 764.949219 2447.519531 759.988281 C 2408.121094 750.058594 2368.550781 740.820312 2329.03125 731.320312 C 2311.75 727.140625 2294.46875 722.960938 2277.230469 718.628906 C 2277.050781 718.578125 2276.878906 718.539062 2276.71875 718.5 C 2254.710938 712.96875 2232.769531 707.191406 2210.96875 700.871094 C 2191.46875 695.171875 2172.050781 689.070312 2153.109375 681.660156 C 2143.648438 677.929688 2134.308594 673.878906 2125.351562 669.03125 C 2120.890625 666.589844 2116.519531 663.949219 2112.421875 660.921875 C 2108.339844 657.878906 2104.460938 654.460938 2101.53125 650.238281 C 2100.078125 648.128906 2098.890625 645.808594 2098.269531 643.308594 C 2097.640625 640.808594 2097.609375 638.160156 2098.199219 635.648438 C 2098.78125 633.140625 2099.941406 630.800781 2101.359375 628.679688 C 2102.800781 626.558594 2104.5 624.628906 2106.339844 622.871094 C 2110.019531 619.320312 2114.25 616.460938 2118.398438 613.539062 C 2122.570312 610.628906 2126.851562 607.878906 2131.171875 605.210938 C 2139.828125 599.878906 2148.730469 594.960938 2157.800781 590.378906 C 2166.859375 585.78125 2176.089844 581.511719 2185.421875 577.480469 C 2204.070312 569.410156 2223.128906 562.300781 2242.390625 555.851562 C 2259.25 550.210938 2276.28125 545.078125 2293.421875 540.339844 C 2276.289062 545.101562 2259.269531 550.261719 2242.410156 555.921875 C 2223.160156 562.398438 2204.101562 569.5 2185.480469 577.621094 C 2176.160156 581.671875 2166.949219 585.96875 2157.910156 590.589844 C 2148.859375 595.199219 2139.980469 600.140625 2131.339844 605.480469 C 2127.03125 608.160156 2122.761719 610.921875 2118.609375 613.839844 C 2114.46875 616.769531 2110.25 619.628906 2106.621094 623.160156 C 2103.019531 626.660156 2099.800781 630.828125 2098.640625 635.75 C 2098.070312 638.199219 2098.101562 640.761719 2098.730469 643.191406 C 2099.328125 645.628906 2100.5 647.898438 2101.929688 649.96875 C 2104.820312 654.109375 2108.679688 657.488281 2112.730469 660.488281 C 2116.820312 663.488281 2121.171875 666.109375 2125.628906 668.519531 C 2134.558594 673.328125 2143.898438 677.359375 2153.351562 681.050781 C 2172.28125 688.398438 2191.691406 694.441406 2211.199219 700.089844 C 2212.71875 700.53125 2214.238281 700.960938 2215.769531 701.390625 C 2215.800781 701.398438 2215.839844 701.410156 2215.878906 701.421875 C 2253.410156 712.039062 2291.351562 721.160156 2329.320312 730.128906 C 2368.871094 739.460938 2408.480469 748.519531 2447.949219 758.269531 C 2467.679688 763.148438 2487.371094 768.199219 2506.960938 773.628906 C 2526.550781 779.070312 2546.058594 784.871094 2565.289062 791.53125 C 2574.898438 794.878906 2584.449219 798.441406 2593.839844 802.398438 C 2603.230469 806.378906 2612.488281 810.730469 2621.308594 815.960938 C 2625.710938 818.578125 2630.011719 821.421875 2634.019531 824.691406 C 2637.550781 827.578125 2640.921875 830.78125 2643.648438 834.570312 C 2644.011719 835.058594 2644.351562 835.558594 2644.679688 836.070312 C 2646.121094 838.300781 2647.300781 840.730469 2648.039062 843.328125 C 2648.78125 845.929688 2649.039062 848.699219 2648.738281 851.398438 C 2648.449219 854.109375 2647.628906 856.730469 2646.46875 859.128906 C 2645.898438 860.339844 2645.21875 861.488281 2644.511719 862.609375 L 2642.320312 865.808594 C 2636.199219 874.199219 2628.539062 881.230469 2620.421875 887.480469 C 2616.328125 890.558594 2612.101562 893.460938 2607.78125 896.210938 C 2603.429688 898.910156 2599.03125 901.53125 2594.53125 903.941406 C 2576.539062 913.660156 2557.621094 921.429688 2538.441406 928.289062 C 2519.230469 935.101562 2499.710938 940.96875 2480.050781 946.230469 C 2460.378906 951.488281 2440.570312 956.171875 2420.671875 960.410156 C 2380.859375 968.890625 2340.738281 975.761719 2300.5 981.710938 C 2260.261719 987.621094 2219.878906 992.589844 2179.441406 996.871094 C 2159.21875 999.011719 2138.96875 1000.988281 2118.730469 1002.820312 L 2058.039062 1008.421875 C 2017.589844 1012.230469 1977.160156 1016.191406 1936.78125 1020.558594 C 1896.410156 1024.960938 1856.089844 1029.730469 1815.949219 1035.589844 C 1795.890625 1038.539062 1775.878906 1041.761719 1756.011719 1045.578125 C 1736.171875 1049.441406 1716.378906 1053.761719 1697.25 1059.699219 C 1692.480469 1061.191406 1687.761719 1062.800781 1683.140625 1064.589844 C 1678.519531 1066.378906 1674 1068.339844 1669.75 1070.601562 C 1665.5 1072.859375 1661.46875 1075.449219 1658.359375 1078.488281 C 1656.839844 1080 1655.550781 1081.621094 1654.800781 1083.261719 C 1654.011719 1084.890625 1653.75 1086.46875 1653.921875 1088.109375 C 1654.109375 1089.761719 1654.800781 1091.511719 1655.859375 1093.25 C 1656.941406 1094.988281 1658.351562 1096.691406 1659.949219 1098.308594 C 1661.550781 1099.921875 1663.339844 1101.449219 1665.210938 1102.910156 C 1667.140625 1104.398438 1669.148438 1105.890625 1671.171875 1107.308594 C 1676.289062 1110.941406 1681.609375 1114.320312 1687.050781 1117.519531 C 1690.199219 1119.378906 1693.398438 1121.171875 1696.621094 1122.921875 C 1714.25 1132.390625 1732.789062 1140.359375 1751.609375 1147.578125 C 1770.441406 1154.789062 1789.621094 1161.210938 1808.941406 1167.210938 C 1847.601562 1179.171875 1886.839844 1189.460938 1926.210938 1199.210938 C 1965.601562 1208.960938 2005.179688 1218.058594 2044.78125 1227.121094 C 2084.390625 1236.179688 2124.03125 1245.171875 2163.628906 1254.480469 C 2242.800781 1273.128906 2321.859375 1292.910156 2399.761719 1317.300781 C 2438.699219 1329.511719 2477.351562 1342.898438 2515.300781 1358.320312 C 2524.519531 1362.070312 2533.699219 1365.941406 2542.820312 1369.960938 C 2571.25 1382.449219 2599.160156 1396.320312 2626.070312 1412.230469 C 2643.828125 1422.761719 2661.128906 1434.210938 2677.621094 1446.890625 C 2694.101562 1459.578125 2709.769531 1473.519531 2723.988281 1489.039062 C 2738.179688 1504.550781 2750.910156 1521.671875 2761.109375 1540.398438 C 2771.328125 1559.101562 2778.921875 1579.421875 2783.230469 1600.429688 C 2784.308594 1605.679688 2785.191406 1610.96875 2785.878906 1616.289062 C 2786.238281 1618.96875 2786.5 1621.550781 2786.769531 1624.140625 L 2787.171875 1628.03125 L 2787.511719 1631.929688 C 2788.398438 1642.320312 2788.921875 1652.761719 2789.050781 1663.199219 C 2789.320312 1684.101562 2788.011719 1705.039062 2785.101562 1725.761719 "/>
<path fill-rule="nonzero" fill="rgb(92.96875%, 89.451599%, 89.451599%)" fill-opacity="1" d="M 2367.929688 824.339844 C 2367.519531 825.769531 2366.769531 827.050781 2365.890625 828.148438 C 2365.011719 829.261719 2364 830.21875 2362.941406 831.078125 C 2360.800781 832.789062 2358.46875 834.140625 2356.089844 835.339844 C 2354.050781 836.351562 2351.96875 837.261719 2349.859375 838.078125 C 2347.050781 839.191406 2344.179688 840.148438 2341.308594 841.050781 C 2336.289062 842.609375 2331.210938 843.941406 2326.101562 845.140625 C 2315.890625 847.539062 2305.601562 849.46875 2295.28125 851.210938 C 2274.640625 854.671875 2253.898438 857.378906 2233.148438 859.878906 C 2212.390625 862.359375 2191.621094 864.621094 2170.828125 866.78125 C 2129.261719 871.089844 2087.660156 875.058594 2046.089844 879.199219 C 2004.511719 883.328125 1962.949219 887.578125 1921.441406 892.210938 C 1879.929688 897.03125 1838.300781 901.109375 1796.710938 905.089844 C 1713.53125 913.070312 1630.328125 920.820312 1547.570312 931.800781 C 1513.960938 936.269531 1480.421875 941.230469 1447.050781 947.070312 C 1446.820312 947.109375 1446.589844 947.148438 1446.359375 947.191406 C 1438.890625 948.5 1431.429688 949.859375 1423.980469 951.269531 C 1403.5 955.140625 1383.101562 959.378906 1362.851562 964.171875 C 1342.601562 968.96875 1322.488281 974.308594 1302.679688 980.5 C 1282.878906 986.691406 1263.351562 993.71875 1244.550781 1002.199219 C 1239.839844 1004.300781 1235.210938 1006.550781 1230.621094 1008.851562 C 1226.050781 1011.210938 1221.511719 1013.609375 1217.089844 1016.191406 C 1208.230469 1021.320312 1199.730469 1026.988281 1191.851562 1033.328125 C 1184.019531 1039.710938 1176.820312 1046.789062 1170.941406 1054.738281 C 1165.058594 1062.679688 1160.609375 1071.519531 1158.25 1080.898438 C 1155.859375 1090.269531 1155.640625 1100.109375 1157.261719 1109.761719 C 1158.859375 1119.421875 1162.171875 1128.878906 1166.539062 1137.898438 C 1175.351562 1156.058594 1187.519531 1172.648438 1201.488281 1187.488281 C 1215.480469 1202.371094 1231.289062 1215.601562 1247.96875 1227.671875 C 1264.648438 1239.761719 1282.230469 1250.691406 1300.230469 1260.949219 C 1318.230469 1271.21875 1336.679688 1280.800781 1355.289062 1290.128906 C 1373.910156 1299.449219 1392.71875 1308.5 1411.511719 1317.730469 C 1430.289062 1326.96875 1449.078125 1336.371094 1467.511719 1346.738281 C 1476.71875 1351.941406 1485.851562 1357.371094 1494.75 1363.300781 C 1503.648438 1369.21875 1512.359375 1375.589844 1520.539062 1382.859375 C 1528.699219 1390.109375 1536.390625 1398.308594 1542.519531 1408.03125 C 1545.578125 1412.871094 1548.199219 1418.128906 1550.101562 1423.71875 C 1551.089844 1426.5 1551.800781 1429.390625 1552.421875 1432.300781 C 1552.949219 1435.230469 1553.390625 1438.191406 1553.519531 1441.160156 C 1553.839844 1447.109375 1553.359375 1453.078125 1552.128906 1458.800781 C 1550.929688 1464.519531 1549.078125 1470.019531 1546.820312 1475.230469 C 1542.261719 1485.648438 1536.199219 1495.039062 1529.5 1503.660156 C 1516.039062 1520.898438 1500.289062 1535.539062 1483.980469 1549.171875 C 1475.808594 1556 1467.421875 1562.460938 1459 1568.789062 C 1450.570312 1575.148438 1441.980469 1581.28125 1433.339844 1587.320312 C 1424.699219 1593.351562 1415.929688 1599.199219 1407.121094 1604.980469 C 1398.28125 1610.691406 1389.410156 1616.371094 1380.429688 1621.851562 C 1344.558594 1643.878906 1307.679688 1664.109375 1270.25 1683.148438 C 1232.820312 1702.191406 1194.800781 1719.980469 1156.441406 1736.960938 C 1079.699219 1770.851562 1001.539062 1801.289062 922.679688 1829.609375 C 843.800781 1857.859375 764.210938 1884.03125 684.140625 1908.589844 C 604.058594 1933.128906 523.507812 1956.058594 442.589844 1977.621094 C 413.910156 1985.261719 385.167969 1992.710938 356.398438 2000 L 216.238281 2000 C 228.351562 1997.410156 240.480469 1994.75 252.578125 1992.070312 C 272.910156 1987.550781 293.230469 1982.917969 313.527344 1978.191406 C 354.128906 1968.761719 394.640625 1958.871094 435.070312 1948.660156 C 515.917969 1928.210938 596.429688 1906.398438 676.460938 1882.96875 C 756.488281 1859.539062 836.050781 1834.53125 914.808594 1807.261719 C 993.558594 1779.980469 1071.570312 1750.578125 1148.101562 1717.800781 C 1186.351562 1701.378906 1224.210938 1684.101562 1261.460938 1665.628906 C 1296.71875 1648.140625 1331.449219 1629.609375 1365.230469 1609.570312 C 1367.128906 1608.449219 1369.019531 1607.320312 1370.910156 1606.179688 C 1379.820312 1600.871094 1388.609375 1595.378906 1397.371094 1589.839844 C 1406.078125 1584.238281 1414.761719 1578.589844 1423.300781 1572.75 C 1431.839844 1566.898438 1440.328125 1560.980469 1448.640625 1554.839844 C 1456.980469 1548.710938 1465.210938 1542.488281 1473.140625 1536.011719 C 1488.988281 1523.039062 1504.140625 1509.160156 1516.558594 1493.539062 C 1522.761719 1485.75 1528.171875 1477.460938 1532.058594 1468.761719 C 1535.921875 1460.070312 1538.171875 1450.941406 1537.699219 1441.96875 C 1537.640625 1439.730469 1537.308594 1437.5 1536.949219 1435.289062 C 1536.480469 1433.089844 1535.980469 1430.890625 1535.230469 1428.738281 C 1533.808594 1424.429688 1531.800781 1420.238281 1529.308594 1416.238281 C 1524.359375 1408.210938 1517.730469 1400.890625 1510.351562 1394.230469 C 1502.96875 1387.539062 1494.828125 1381.46875 1486.398438 1375.738281 C 1477.960938 1370.019531 1469.171875 1364.671875 1460.238281 1359.519531 C 1442.339844 1349.238281 1423.828125 1339.761719 1405.210938 1330.390625 C 1386.578125 1321.019531 1367.820312 1311.789062 1349.160156 1302.230469 C 1330.5 1292.671875 1311.941406 1282.820312 1293.738281 1272.21875 C 1275.539062 1261.628906 1257.679688 1250.300781 1240.628906 1237.71875 C 1223.589844 1225.140625 1207.320312 1211.300781 1192.808594 1195.589844 C 1178.320312 1179.898438 1165.609375 1162.320312 1156.308594 1142.78125 C 1151.648438 1132.980469 1148.039062 1122.5 1146.308594 1111.519531 C 1144.558594 1100.558594 1144.878906 1089.078125 1147.75 1078.199219 C 1150.570312 1067.308594 1155.820312 1057.199219 1162.441406 1048.421875 C 1168.730469 1040.058594 1176.171875 1032.78125 1184.101562 1026.300781 C 1184.519531 1025.949219 1184.941406 1025.601562 1185.371094 1025.261719 C 1193.820312 1018.570312 1202.800781 1012.699219 1212.058594 1007.429688 C 1216.679688 1004.78125 1221.398438 1002.328125 1226.140625 999.941406 C 1230.890625 997.601562 1235.679688 995.328125 1240.53125 993.199219 C 1259.890625 984.660156 1279.808594 977.671875 1299.929688 971.550781 C 1320.050781 965.441406 1340.398438 960.210938 1360.839844 955.539062 C 1381.289062 950.871094 1401.851562 946.769531 1422.460938 943.039062 C 1463.679688 935.601562 1505.121094 929.671875 1546.628906 924.488281 C 1629.660156 914.191406 1712.960938 906.839844 1796.191406 899.441406 C 1837.808594 895.71875 1879.378906 891.921875 1920.921875 887.371094 C 1962.488281 883 2004.089844 879.011719 2045.699219 875.148438 C 2087.308594 871.28125 2128.921875 867.570312 2170.5 863.53125 C 2191.289062 861.5 2212.070312 859.398438 2232.808594 857.019531 C 2253.550781 854.621094 2274.269531 852.011719 2294.859375 848.648438 C 2305.148438 846.960938 2315.410156 845.089844 2325.550781 842.75 C 2330.621094 841.589844 2335.648438 840.289062 2340.609375 838.78125 C 2344.078125 837.710938 2347.53125 836.550781 2350.859375 835.160156 C 2352.28125 834.578125 2353.691406 833.949219 2355.058594 833.28125 C 2357.351562 832.140625 2359.558594 830.859375 2361.511719 829.308594 C 2363.429688 827.761719 2365.148438 825.890625 2365.789062 823.699219 C 2366.480469 821.539062 2365.898438 819.160156 2364.640625 817.101562 C 2363.390625 815.03125 2361.578125 813.21875 2359.660156 811.570312 C 2355.761719 808.289062 2351.300781 805.589844 2346.769531 803.089844 C 2342.21875 800.601562 2337.539062 798.328125 2332.800781 796.179688 C 2323.320312 791.878906 2313.621094 788.019531 2303.871094 784.300781 C 2294.121094 780.589844 2284.300781 777.039062 2274.460938 773.539062 L 2215.308594 752.828125 C 2195.609375 745.871094 2175.960938 738.738281 2156.519531 731.03125 C 2137.109375 723.300781 2117.859375 715.058594 2099.351562 705.300781 C 2090.121094 700.390625 2081.050781 695.121094 2072.519531 689.050781 C 2068.261719 686 2064.128906 682.761719 2060.28125 679.199219 C 2056.441406 675.640625 2052.839844 671.761719 2049.878906 667.410156 C 2046.921875 663.089844 2044.578125 658.21875 2043.660156 653.011719 C 2042.710938 647.800781 2043.328125 642.351562 2045.238281 637.449219 C 2046.898438 633.019531 2049.578125 629.058594 2052.679688 625.539062 C 2053.050781 625.121094 2053.421875 624.710938 2053.800781 624.300781 C 2057.398438 620.480469 2061.449219 617.121094 2065.679688 614.039062 C 2072.878906 608.859375 2080.578125 604.429688 2088.480469 600.421875 C 2089.898438 599.691406 2091.339844 598.980469 2092.769531 598.28125 C 2102.171875 593.710938 2111.820312 589.660156 2121.558594 585.878906 C 2141.058594 578.371094 2160.980469 571.980469 2181.039062 566.140625 C 2221.179688 554.53125 2261.890625 544.96875 2302.769531 536.328125 C 2282.328125 540.671875 2261.941406 545.25 2241.648438 550.191406 C 2221.351562 555.128906 2201.140625 560.441406 2181.089844 566.328125 C 2161.050781 572.21875 2141.160156 578.660156 2121.691406 586.230469 C 2117.308594 587.941406 2112.949219 589.710938 2108.621094 591.558594 C 2103.339844 593.800781 2098.121094 596.171875 2092.96875 598.691406 C 2083.601562 603.28125 2074.441406 608.359375 2065.988281 614.480469 C 2063.101562 616.589844 2060.289062 618.839844 2057.671875 621.289062 C 2057.648438 621.289062 2057.628906 621.308594 2057.621094 621.328125 C 2056.449219 622.410156 2055.308594 623.53125 2054.21875 624.699219 C 2050.699219 628.511719 2047.628906 632.800781 2045.820312 637.671875 C 2043.960938 642.488281 2043.371094 647.808594 2044.320312 652.890625 C 2045.230469 657.980469 2047.53125 662.75 2050.460938 667.011719 C 2053.398438 671.300781 2056.96875 675.121094 2060.789062 678.640625 C 2064.621094 682.171875 2068.738281 685.378906 2072.980469 688.398438 C 2081.488281 694.410156 2090.53125 699.660156 2099.761719 704.511719 C 2118.269531 714.160156 2137.53125 722.308594 2156.960938 729.941406 C 2176.398438 737.550781 2196.070312 744.589844 2215.789062 751.460938 L 2275.039062 771.898438 C 2284.910156 775.351562 2294.75 778.859375 2304.539062 782.539062 C 2314.328125 786.230469 2324.070312 790.050781 2333.628906 794.328125 C 2338.410156 796.480469 2343.148438 798.75 2347.78125 801.25 C 2352.390625 803.769531 2356.941406 806.488281 2361.058594 809.921875 C 2363.089844 811.660156 2365.050781 813.570312 2366.53125 815.96875 C 2367.25 817.171875 2367.839844 818.5 2368.128906 819.941406 C 2368.429688 821.378906 2368.351562 822.921875 2367.929688 824.339844 "/>
<path fill-rule="nonzero" fill="rgb(92.96875%, 89.451599%, 89.451599%)" fill-opacity="1" d="M 2208.078125 718.699219 C 2199.761719 716.171875 2191.460938 713.570312 2183.191406 710.878906 L 2173.789062 710.878906 C 2184.839844 714.71875 2195.949219 718.351562 2207.101562 721.878906 C 2219.558594 725.820312 2232.070312 729.609375 2244.589844 733.320312 L 2258.421875 733.320312 C 2241.589844 728.589844 2224.800781 723.769531 2208.078125 718.699219 "/>
<path fill-rule="nonzero" fill="rgb(92.96875%, 89.451599%, 89.451599%)" fill-opacity="1" d="M 2468.191406 798.789062 C 2458.949219 794.441406 2449.53125 790.648438 2440.039062 787.101562 C 2431.910156 784.078125 2423.730469 781.238281 2415.519531 778.519531 L 2396.078125 778.519531 C 2410.089844 783.109375 2424 787.929688 2437.691406 793.25 C 2447.011719 796.890625 2456.230469 800.75 2465.148438 805.109375 C 2465.511719 805.289062 2465.859375 805.46875 2466.21875 805.648438 L 2481.449219 805.648438 C 2477.101562 803.171875 2472.671875 800.910156 2468.191406 798.789062 "/>
<path fill-rule="nonzero" fill="rgb(92.96875%, 89.451599%, 89.451599%)" fill-opacity="1" d="M 2084.25 665.660156 C 2082.359375 664.039062 2080.601562 662.289062 2078.96875 660.441406 C 2077.339844 658.589844 2075.871094 656.589844 2074.699219 654.449219 C 2073.71875 652.691406 2072.960938 650.820312 2072.46875 648.878906 L 2070.808594 648.878906 C 2071.308594 651.121094 2072.148438 653.261719 2073.230469 655.25 C 2074.449219 657.539062 2075.980469 659.628906 2077.648438 661.570312 C 2079.320312 663.519531 2081.128906 665.339844 2083.039062 667.03125 C 2085 668.800781 2087.070312 670.441406 2089.191406 672 L 2092.53125 672 C 2089.648438 670.039062 2086.851562 667.960938 2084.25 665.660156 "/>
<path fill-rule="nonzero" fill="rgb(92.96875%, 89.451599%, 89.451599%)" fill-opacity="1" d="M 2500.03125 839.601562 C 2499.960938 839.839844 2499.859375 840.089844 2499.78125 840.328125 C 2499.578125 840.808594 2499.460938 841.308594 2499.230469 841.78125 C 2498.398438 843.710938 2497.171875 845.519531 2495.828125 847.28125 C 2494.359375 848.96875 2492.820312 850.648438 2491.019531 852.140625 C 2489.828125 853.160156 2488.570312 854.121094 2487.289062 855.058594 L 2499.628906 855.058594 C 2500.46875 854.160156 2501.28125 853.21875 2502.078125 852.25 C 2503.769531 850 2505.351562 847.601562 2506.480469 844.871094 C 2506.78125 844.210938 2506.980469 843.480469 2507.230469 842.78125 C 2507.351562 842.429688 2507.480469 842.089844 2507.578125 841.71875 L 2507.839844 840.570312 C 2508.191406 839.039062 2508.300781 837.441406 2508.25 835.851562 C 2508.140625 832.660156 2507.140625 829.628906 2505.78125 827.03125 C 2503.671875 823.058594 2500.851562 819.910156 2497.828125 817.160156 L 2485.941406 817.160156 C 2487.378906 818.191406 2488.800781 819.25 2490.148438 820.359375 C 2493.761719 823.390625 2497.089844 826.789062 2498.960938 830.53125 C 2499.898438 832.390625 2500.460938 834.28125 2500.480469 836.140625 C 2500.488281 837.058594 2500.429688 837.988281 2500.191406 838.910156 L 2500.03125 839.601562 "/>
<path fill-rule="nonzero" fill="rgb(92.96875%, 89.451599%, 89.451599%)" fill-opacity="1" d="M 2072.019531 642 C 2072.078125 641.480469 2072.160156 640.96875 2072.269531 640.460938 C 2072.761719 638.089844 2073.699219 635.808594 2074.910156 633.679688 C 2076.148438 631.558594 2077.671875 629.601562 2079.300781 627.738281 C 2081.480469 625.320312 2083.820312 623.050781 2086.25 620.878906 L 2084.199219 620.878906 C 2082.128906 622.761719 2080.128906 624.710938 2078.230469 626.769531 C 2076.539062 628.679688 2074.929688 630.699219 2073.621094 632.929688 C 2072.320312 635.160156 2071.289062 637.578125 2070.738281 640.128906 C 2070.609375 640.75 2070.5 641.371094 2070.429688 642 L 2072.019531 642 "/>
<path fill-rule="nonzero" fill="rgb(92.96875%, 89.451599%, 89.451599%)" fill-opacity="1" d="M 2150.839844 699.699219 C 2141.421875 696.210938 2132.078125 692.488281 2122.921875 688.390625 C 2116.410156 685.46875 2109.980469 682.351562 2103.761719 678.878906 L 2099.628906 678.878906 C 2106.839844 683.210938 2114.351562 686.988281 2121.960938 690.511719 C 2131.140625 694.738281 2140.46875 698.578125 2149.898438 702.191406 C 2151.488281 702.808594 2153.089844 703.398438 2154.679688 704 L 2162.78125 704 C 2158.789062 702.601562 2154.800781 701.171875 2150.839844 699.699219 "/>
<path fill-rule="nonzero" fill="rgb(92.96875%, 89.451599%, 89.451599%)" fill-opacity="1" d="M 2417.480469 892.328125 C 2420.429688 891.53125 2423.378906 890.710938 2426.320312 889.871094 C 2434.710938 887.449219 2443.058594 884.800781 2451.320312 881.828125 C 2455.21875 880.300781 2458.871094 878.910156 2462.269531 877.671875 C 2468.589844 875.089844 2474.839844 872.230469 2480.910156 868.878906 L 2460.679688 868.878906 C 2457.910156 869.980469 2455.121094 871.03125 2452.308594 872.03125 C 2442.96875 875.359375 2433.421875 878.230469 2423.789062 880.828125 C 2407.378906 885.261719 2390.730469 888.980469 2374 892.328125 L 2417.480469 892.328125 "/>
<path fill-rule="nonzero" fill="rgb(92.96875%, 89.451599%, 89.451599%)" fill-opacity="1" d="M 2058.570312 1733.128906 C 2067.441406 1723.449219 2076.050781 1713.441406 2084.328125 1703.101562 L 1992.191406 1703.101562 L 1991.289062 1703.96875 L 1988.628906 1706.390625 L 1978.011719 1716.078125 L 1967.121094 1725.53125 C 1952.449219 1738 1937.308594 1750 1921.738281 1761.550781 C 1906.109375 1773.050781 1890.128906 1784.140625 1873.859375 1794.878906 C 1857.519531 1805.53125 1840.921875 1815.839844 1824.070312 1825.808594 C 1809.339844 1834.429688 1794.449219 1842.820312 1779.421875 1851 L 1924.300781 1851 C 1938.449219 1840.671875 1952.429688 1830.039062 1966.171875 1819.050781 C 1998.660156 1792.769531 2029.960938 1764.550781 2058.570312 1733.128906 "/>
<path fill-rule="nonzero" fill="rgb(92.96875%, 89.451599%, 89.451599%)" fill-opacity="1" d="M 2152.238281 1472.539062 C 2151.628906 1471.070312 2150.898438 1469.679688 2150.230469 1468.25 C 2149.550781 1466.828125 2148.871094 1465.410156 2148.109375 1464.050781 L 2145.890625 1459.921875 L 2143.53125 1455.921875 C 2140.308594 1450.640625 2136.871094 1445.570312 2133.179688 1440.828125 C 2131.371094 1438.398438 2129.449219 1436.148438 2127.550781 1433.839844 C 2126.589844 1432.710938 2125.601562 1431.621094 2124.628906 1430.511719 C 2123.648438 1429.398438 2122.671875 1428.300781 2121.660156 1427.25 C 2113.660156 1418.691406 2105.160156 1411 2096.378906 1404.03125 C 2088.328125 1397.628906 2080.078125 1391.738281 2071.691406 1386.300781 L 1958.421875 1386.300781 C 1962.769531 1388.410156 1967.050781 1390.539062 1971.261719 1392.671875 C 1977.601562 1395.660156 1983.871094 1398.71875 1990.058594 1401.890625 C 2007.238281 1410.671875 2023.820312 1420.160156 2039.109375 1430.671875 C 2046.769531 1435.910156 2054.03125 1441.460938 2060.820312 1447.25 C 2067.628906 1453.039062 2073.871094 1459.148438 2079.410156 1465.5 C 2080.121094 1466.28125 2080.78125 1467.089844 2081.441406 1467.890625 C 2082.101562 1468.699219 2082.78125 1469.488281 2083.421875 1470.300781 C 2084.648438 1471.941406 2085.960938 1473.550781 2087.089844 1475.210938 C 2088.261719 1476.820312 2089.351562 1478.441406 2090.390625 1480.078125 C 2091.179688 1481.320312 2091.929688 1482.578125 2092.660156 1483.828125 L 2156.648438 1483.828125 C 2155.328125 1479.988281 2153.878906 1476.210938 2152.238281 1472.539062 "/>
<path fill-rule="nonzero" fill="rgb(92.96875%, 89.451599%, 89.451599%)" fill-opacity="1" d="M 1600.710938 1003.398438 C 1652.710938 993.03125 1712.210938 984.921875 1775.5 977.878906 L 1643.890625 977.878906 C 1624.300781 980.601562 1604.71875 983.578125 1585.160156 986.949219 C 1565.121094 990.390625 1545.101562 994.261719 1525.128906 998.859375 C 1518.949219 1000.289062 1512.78125 1001.800781 1506.621094 1003.398438 L 1600.710938 1003.398438 "/>
<path fill-rule="nonzero" fill="rgb(92.96875%, 89.451599%, 89.451599%)" fill-opacity="1" d="M 1414.820312 1095.171875 C 1414.421875 1092.25 1414.628906 1089.589844 1415.378906 1086.859375 C 1415.789062 1085.5 1416.339844 1084.121094 1417.03125 1082.710938 C 1417.78125 1081.308594 1418.640625 1079.878906 1419.679688 1078.460938 C 1420.128906 1077.851562 1420.621094 1077.238281 1421.121094 1076.640625 L 1384.679688 1076.640625 C 1384.609375 1076.851562 1384.53125 1077.050781 1384.460938 1077.261719 C 1383.359375 1080.710938 1382.621094 1084.328125 1382.238281 1087.96875 C 1381.839844 1091.621094 1381.929688 1095.261719 1382.261719 1098.808594 C 1382.601562 1102.378906 1383.351562 1105.769531 1384.238281 1109.050781 C 1384.738281 1110.648438 1385.210938 1112.289062 1385.808594 1113.808594 C 1386.359375 1115.371094 1386.988281 1116.859375 1387.640625 1118.328125 C 1390.230469 1124.230469 1393.429688 1129.421875 1396.828125 1134.25 C 1397.96875 1135.898438 1399.109375 1137.378906 1400.25 1138.851562 C 1402.261719 1141.070312 1404.429688 1143.289062 1406.738281 1145.5 L 1459.921875 1145.5 C 1434.53125 1128.839844 1418.300781 1112.050781 1414.820312 1095.171875 "/>
<path fill-rule="nonzero" fill="rgb(92.96875%, 89.451599%, 89.451599%)" fill-opacity="1" d="M 1437.828125 1062.5 C 1438.011719 1062.378906 1438.191406 1062.261719 1438.371094 1062.140625 C 1462.460938 1043.46875 1498.960938 1028.621094 1544.230469 1016.441406 L 1463.640625 1016.441406 C 1454.351562 1019.800781 1445.089844 1023.539062 1435.929688 1028.011719 C 1426.191406 1032.800781 1416.5 1038.359375 1407.28125 1045.859375 C 1402.691406 1049.621094 1398.230469 1053.960938 1394.210938 1059.101562 C 1393.371094 1060.191406 1392.550781 1061.328125 1391.761719 1062.5 L 1437.828125 1062.5 "/>
<path fill-rule="nonzero" fill="rgb(92.96875%, 89.451599%, 89.451599%)" fill-opacity="1" d="M 2094.78125 614 C 2097.269531 612.160156 2099.820312 610.390625 2102.410156 608.691406 C 2106.671875 605.941406 2111.039062 603.351562 2115.480469 600.878906 L 2113.25 600.878906 C 2109.359375 603.039062 2105.519531 605.300781 2101.761719 607.679688 C 2098.648438 609.691406 2095.589844 611.78125 2092.609375 614 L 2094.78125 614 "/>
<path fill-rule="nonzero" fill="rgb(92.96875%, 89.451599%, 89.451599%)" fill-opacity="1" d="M 1995.890625 1346.5 C 1982.601562 1340.699219 1969.25 1335.289062 1955.859375 1330.160156 C 1917.351562 1315.449219 1878.550781 1302.941406 1839.789062 1291.03125 C 1835.03125 1289.570312 1830.28125 1288.121094 1825.519531 1286.679688 C 1811.351562 1282.109375 1797.070312 1277.511719 1782.78125 1272.898438 L 1671.789062 1272.898438 C 1736.808594 1296.859375 1805.089844 1321.160156 1867.789062 1346.5 L 1995.890625 1346.5 "/>
<path fill-rule="nonzero" fill="rgb(92.96875%, 89.451599%, 89.451599%)" fill-opacity="1" d="M 2239.699219 554 C 2240.539062 553.761719 2241.390625 553.519531 2242.238281 553.28125 C 2251.941406 550.578125 2261.660156 547.980469 2271.421875 545.488281 C 2281.179688 543.019531 2290.960938 540.628906 2300.769531 538.328125 C 2280.050781 543.179688 2259.390625 548.320312 2238.878906 554 L 2239.699219 554 "/>
<path fill-rule="nonzero" fill="rgb(92.96875%, 89.451599%, 89.451599%)" fill-opacity="1" d="M 1671.410156 1236.171875 C 1604.058594 1213.140625 1541.96875 1189.710938 1495.660156 1166 L 1432.488281 1166 C 1467.328125 1189.839844 1517.679688 1213.019531 1575.410156 1236.171875 L 1671.410156 1236.171875 "/>
<path fill-rule="nonzero" fill="rgb(92.96875%, 89.451599%, 89.451599%)" fill-opacity="1" d="M 1851.96875 1900 C 1838.789062 1908.320312 1825.511719 1916.449219 1812.140625 1924.390625 C 1794.359375 1934.859375 1776.429688 1945.039062 1758.378906 1954.949219 C 1729.601562 1970.679688 1700.488281 1985.660156 1671.089844 2000 L 1425.621094 2000 C 1451.179688 1991.589844 1476.628906 1982.789062 1501.941406 1973.621094 C 1562.871094 1951.511719 1622.96875 1927.148438 1681.578125 1900 L 1851.96875 1900 "/>
<path fill-rule="nonzero" fill="rgb(92.96875%, 89.451599%, 89.451599%)" fill-opacity="1" d="M 2117.21875 1657.171875 C 2123.070312 1647.949219 2128.628906 1638.5 2133.859375 1628.820312 L 2137.660156 1621.578125 L 2139.550781 1617.949219 C 2140.199219 1616.75 2140.738281 1615.480469 2141.328125 1614.25 L 2144.820312 1606.808594 L 2146.550781 1603.089844 C 2147.128906 1601.851562 2147.710938 1600.640625 2148.269531 1599.261719 C 2152.871094 1588.621094 2156.789062 1577.390625 2159.640625 1565.578125 C 2160.03125 1564.121094 2160.300781 1562.589844 2160.628906 1561.101562 C 2160.929688 1559.601562 2161.289062 1558.128906 2161.539062 1556.601562 C 2162.039062 1553.539062 2162.609375 1550.519531 2162.941406 1547.410156 C 2163.769531 1541.238281 2164.089844 1534.910156 2164.128906 1528.558594 C 2164.140625 1527.941406 2164.109375 1527.320312 2164.101562 1526.699219 L 2103.988281 1526.699219 C 2103.980469 1527.058594 2103.988281 1527.421875 2103.96875 1527.78125 C 2103.78125 1531.488281 2103.488281 1535.230469 2102.808594 1539.019531 C 2102.558594 1540.910156 2102.089844 1542.820312 2101.71875 1544.71875 C 2101.539062 1545.679688 2101.25 1546.640625 2101.019531 1547.601562 C 2100.769531 1548.550781 2100.578125 1549.511719 2100.28125 1550.46875 C 2098.109375 1558.160156 2095.109375 1565.921875 2091.441406 1573.640625 C 2091.03125 1574.578125 2090.480469 1575.621094 2089.949219 1576.640625 L 2088.378906 1579.710938 L 2085.230469 1585.839844 C 2084.699219 1586.859375 2084.21875 1587.898438 2083.640625 1588.890625 L 2081.910156 1591.898438 L 2078.480469 1597.910156 C 2069.128906 1613.871094 2058.480469 1629.230469 2046.851562 1643.988281 C 2043.359375 1648.449219 2039.761719 1652.828125 2036.078125 1657.171875 L 2117.21875 1657.171875 "/>
<path fill-rule="nonzero" fill="rgb(92.96875%, 89.451599%, 89.451599%)" fill-opacity="1" d="M 2128.691406 594 C 2128.699219 594 2128.699219 594 2128.699219 593.988281 C 2138.460938 589.230469 2148.421875 584.910156 2158.511719 580.878906 L 2156.558594 580.878906 C 2147 584.648438 2137.550781 588.691406 2128.28125 593.128906 C 2127.691406 593.421875 2127.089844 593.710938 2126.5 594 L 2128.691406 594 "/>
<path fill-rule="nonzero" fill="rgb(92.96875%, 89.451599%, 89.451599%)" fill-opacity="1" d="M 2072.621094 949.578125 C 2085.300781 947.941406 2097.988281 946.28125 2110.679688 944.609375 L 1965.339844 944.609375 C 1958.988281 945.21875 1952.640625 945.828125 1946.289062 946.441406 L 1825.960938 957.621094 C 1807.660156 959.371094 1789.359375 961.148438 1771.058594 963 L 1926.890625 963 C 1975.449219 958.589844 2024.5 954.269531 2072.621094 949.578125 "/>
<path fill-rule="nonzero" fill="rgb(92.96875%, 89.451599%, 89.451599%)" fill-opacity="1" d="M 2176.640625 574 C 2179.269531 573.050781 2181.910156 572.101562 2184.558594 571.179688 C 2195.039062 567.550781 2205.601562 564.128906 2216.210938 560.878906 L 2215.058594 560.878906 C 2204.789062 563.980469 2194.558594 567.25 2184.398438 570.710938 C 2181.25 571.78125 2178.121094 572.890625 2174.988281 574 L 2176.640625 574 "/>
<path fill-rule="nonzero" fill="rgb(92.96875%, 89.451599%, 89.451599%)" fill-opacity="1" d="M 2218.519531 929.71875 C 2248.300781 925.371094 2278.058594 920.75 2307.738281 915.589844 C 2322.78125 912.980469 2337.789062 910.210938 2352.78125 907.21875 L 2286.078125 907.21875 C 2226.320312 915.988281 2166.25 923.050781 2106.128906 929.71875 L 2218.519531 929.71875 "/>
<path fill-rule="nonzero" fill="rgb(92.96875%, 89.451599%, 89.451599%)" fill-opacity="1" d="M 2386.371094 769.320312 C 2385.070312 768.929688 2383.769531 768.53125 2382.46875 768.140625 C 2352.269531 759.121094 2321.890625 750.859375 2291.550781 742.519531 L 2275.921875 742.519531 C 2306.320312 751.371094 2336.769531 760.050781 2367 769.320312 L 2386.371094 769.320312 "/>
</svg>
