<?xml version="1.0" standalone="no"?>
<!DOCTYPE svg PUBLIC "-//W3C//DTD SVG 20010904//EN"
 "http://www.w3.org/TR/2001/REC-SVG-20010904/DTD/svg10.dtd">
<svg version="1.0" xmlns="http://www.w3.org/2000/svg"
 width="1280.000000pt" height="946.000000pt" viewBox="0 0 1280.000000 946.000000"
 preserveAspectRatio="xMidYMid meet">
<metadata>
Created by potrace 1.15, written by Peter Selinger 2001-2017
</metadata>
<g transform="translate(0.000000,946.000000) scale(0.100000,-0.100000)"
fill="#000000" stroke="none">
<path d="M6663 9450 c-191 -24 -417 -87 -541 -149 -145 -73 -336 -230 -478
-392 -153 -174 -355 -450 -318 -435 122 51 169 60 314 61 125 0 155 -3 220
-23 223 -71 481 -260 579 -425 70 -118 111 -260 111 -383 l0 -64 88 0 c97 0
270 -14 405 -31 74 -10 87 -14 82 -29 -9 -28 -556 -1154 -565 -1164 -5 -5 -19
-2 -34 7 -43 29 -170 75 -249 91 -188 39 -418 2 -639 -104 -32 -15 -58 -25
-58 -23 0 3 16 24 36 49 44 53 80 76 170 109 73 26 119 63 139 110 35 80 -83
135 -192 90 -19 -8 -37 -15 -39 -15 -3 0 21 30 52 67 65 76 93 133 94 186 0
79 -79 104 -146 45 -41 -36 -102 -115 -128 -166 -10 -19 -19 -32 -21 -30 -2 2
28 102 66 223 38 121 72 235 75 253 8 40 -9 62 -47 62 -45 0 -94 -53 -155
-170 -54 -105 -54 -105 -48 -55 13 93 10 318 -4 343 -7 12 -17 22 -22 22 -19
0 -77 -60 -102 -107 -49 -90 -88 -318 -88 -523 -1 -122 -2 -132 -14 -104 -45
103 -171 160 -207 92 -13 -23 2 -124 26 -182 20 -48 78 -110 115 -126 21 -9
29 -18 26 -29 -3 -9 -35 -137 -72 -286 -73 -295 -94 -344 -130 -304 -21 23
-87 43 -115 34 -16 -6 -20 -3 -17 11 4 24 94 91 140 106 53 16 38 28 -35 28
l-62 1 43 39 c23 21 63 47 87 57 25 10 45 21 45 24 0 4 -21 12 -47 19 -103 26
-102 25 -33 40 36 7 69 16 74 21 14 13 -103 22 -203 16 -84 -5 -94 -4 -77 8
25 19 105 35 174 35 40 0 53 3 42 10 -8 5 -30 10 -47 10 -47 0 -41 15 13 30
52 15 49 21 -26 45 -30 9 -71 28 -90 41 -19 13 -59 28 -87 34 -29 7 -53 14
-53 17 0 3 15 26 34 52 18 25 41 61 51 80 38 74 -11 180 -120 259 -41 29 -65
54 -65 66 0 10 16 51 35 91 29 60 51 87 139 169 67 62 109 108 115 129 14 41
2 109 -35 201 -44 111 -79 140 -119 96 -23 -25 -35 -25 -35 -1 0 11 15 31 33
45 36 28 186 80 263 92 l49 7 -53 12 c-101 23 -87 42 65 85 107 30 105 37 -14
55 -24 4 -43 12 -43 19 0 7 38 33 85 59 46 26 87 52 91 59 12 19 -22 34 -136
58 -61 13 -113 27 -116 32 -7 11 35 26 157 54 59 13 114 27 123 30 27 11 13
28 -37 43 -50 15 -58 32 -36 72 15 29 -1 44 -77 69 -103 35 -96 44 56 74 105
21 120 25 120 35 0 27 -219 72 -350 73 -190 0 -460 -70 -503 -132 -13 -19 -15
-17 -21 34 -8 71 10 242 35 336 31 114 104 235 211 346 l40 42 -48 10 c-178
38 -172 37 -197 7 -104 -128 -186 -374 -232 -699 -8 -56 -15 -129 -15 -163 l0
-63 -43 6 c-36 5 -48 2 -70 -17 -24 -21 -29 -35 -37 -114 -6 -49 -17 -138 -26
-198 l-16 -107 -62 -50 c-67 -53 -146 -134 -146 -149 0 -12 72 -36 183 -60 49
-11 91 -22 95 -25 6 -6 -14 -536 -25 -642 l-6 -62 -121 -4 c-138 -5 -184 -20
-231 -72 l-30 -33 -110 10 c-60 5 -297 10 -525 11 -338 0 -440 -3 -550 -17
l-135 -17 -60 30 c-78 39 -192 57 -266 41 -67 -15 -125 -48 -172 -100 -43 -48
-47 -74 -13 -97 32 -20 121 -44 169 -44 42 0 47 -12 16 -34 -35 -24 -52 -55
-39 -71 7 -8 7 -16 1 -19 -5 -3 -14 -20 -20 -36 -9 -26 -7 -34 9 -50 16 -16
17 -23 8 -48 -14 -36 5 -72 55 -103 45 -28 75 -21 230 52 166 78 202 83 308
41 96 -39 177 -50 463 -63 296 -14 475 -7 634 27 l32 7 -15 -36 c-35 -85 -5
-113 116 -104 l80 5 -34 -37 c-74 -82 -147 -232 -193 -400 -13 -46 -25 -86
-28 -88 -2 -2 -37 -9 -78 -15 -50 -7 -80 -17 -96 -32 -39 -35 -121 -164 -128
-201 -5 -27 -15 -40 -48 -59 -106 -62 -371 -400 -753 -961 l-171 -250 -79 7
c-43 3 -242 10 -443 14 -483 9 -805 -12 -952 -64 -51 -18 -54 -18 -82 -1 -16
9 -35 15 -42 12 -11 -4 -14 6 -14 40 l0 44 45 5 c52 6 120 47 130 79 10 30
-22 59 -114 105 -53 26 -92 38 -136 42 -103 8 -225 -40 -225 -89 0 -11 19 -40
41 -64 38 -41 41 -48 30 -71 -15 -33 -14 -53 3 -86 14 -26 13 -27 -16 -33 -35
-8 -89 -54 -117 -98 -81 -133 -108 -420 -117 -1232 l-4 -430 -44 -32 c-61 -44
-94 -90 -121 -170 -80 -230 -10 -583 151 -762 86 -96 276 -184 467 -217 136
-23 278 -2 374 57 26 16 36 18 53 9 12 -6 49 -14 83 -18 l62 -7 6 -95 c10
-142 51 -247 194 -495 186 -322 306 -431 545 -492 181 -46 401 -41 546 11 213
78 430 282 598 563 22 38 44 63 54 63 9 0 107 -13 217 -29 439 -64 480 -66
1485 -66 827 0 927 2 1035 18 66 10 131 20 145 23 l25 5 0 -103 c0 -96 3 -107
34 -172 62 -128 224 -262 442 -365 167 -79 279 -108 454 -118 187 -10 341 32
479 131 64 46 196 176 266 261 84 104 149 265 150 372 l0 42 53 3 c133 8 365
-23 617 -82 134 -32 377 -99 449 -124 40 -15 43 -15 36 2 -44 114 -49 141 -50
242 0 95 3 110 28 158 15 30 27 55 27 56 0 2 -42 6 -92 10 -51 4 -112 10 -135
13 l-42 6 71 78 c39 43 84 97 100 121 113 167 208 457 195 598 -17 188 -194
292 -498 291 l-115 0 27 54 c43 85 53 171 46 412 l-5 212 38 25 c113 74 214
281 254 517 27 156 1 280 -73 357 -48 49 -113 72 -207 72 -53 0 -75 4 -85 16
-42 50 -181 89 -384 106 l-134 11 16 31 c10 18 17 56 17 88 1 52 -2 60 -33 92
-19 20 -42 38 -52 41 -14 5 -15 12 -7 53 5 26 6 81 3 123 l-7 76 52 7 c29 4
65 9 80 12 26 6 27 3 54 -78 41 -125 111 -210 196 -237 19 -6 79 -18 133 -26
112 -18 146 -30 351 -127 227 -106 337 -121 412 -56 46 41 55 59 104 223 52
172 65 198 127 256 54 50 235 151 303 169 77 19 80 21 95 44 12 18 13 29 4 54
-9 27 -14 30 -29 22 -10 -6 -30 -10 -44 -10 l-26 0 35 46 c19 25 35 52 35 60
0 7 -18 26 -41 41 -32 21 -39 31 -34 47 28 87 16 106 -69 106 l-61 0 -24 44
c-26 51 -84 113 -113 122 -31 9 -74 -14 -103 -56 -33 -48 -35 -127 -5 -214 11
-33 20 -63 20 -67 0 -12 -195 -184 -263 -231 -34 -24 -87 -58 -117 -75 l-55
-32 -70 29 c-75 30 -145 68 -185 100 l-25 20 50 -8 c66 -9 210 -9 257 1 21 4
51 19 68 34 59 49 64 69 70 288 6 178 9 206 29 249 27 61 192 233 271 284 30
19 58 40 62 46 12 18 9 50 -8 74 l-15 22 -26 -20 c-24 -18 -53 -27 -53 -15 0
2 7 22 16 44 25 62 17 83 -38 100 -48 14 -48 15 -42 52 5 29 2 41 -16 59 -23
23 -58 21 -111 -6 -24 -12 -28 -11 -55 17 -79 83 -161 110 -201 67 -65 -72
-56 -156 29 -274 l32 -45 -32 -62 c-54 -104 -147 -239 -217 -315 -66 -71 -68
-72 -116 -72 -62 0 -184 25 -258 52 -71 27 -329 181 -388 232 -53 47 -86 50
-154 16 -46 -24 -146 -97 -168 -124 -21 -25 -33 -19 -29 14 1 16 1 31 -2 32
-3 1 -88 -32 -190 -74 -245 -101 -226 -96 -234 -51 -12 78 -14 76 122 174 279
204 614 467 765 602 43 38 79 68 80 66 1 -2 12 -25 25 -52 52 -112 146 -174
276 -184 158 -12 290 41 405 163 82 86 173 218 237 346 24 48 44 90 44 93 0 3
-20 -10 -44 -29 -82 -63 -197 -106 -283 -106 -24 0 -43 2 -43 4 0 1 13 54 30
117 37 145 75 352 90 497 10 92 18 127 46 187 35 77 65 182 59 212 -15 72 -16
75 -58 93 l-43 19 -12 95 c-27 200 -98 428 -197 631 -175 359 -398 608 -752
839 -1 1 9 38 22 81 16 49 25 104 25 144 0 58 -2 65 -34 97 -41 41 -82 45
-113 12 -27 -30 -66 -109 -88 -179 l-18 -56 -84 64 c-148 112 -335 189 -550
228 -105 19 -370 27 -470 15z m722 -1938 c127 -63 300 -263 476 -550 l63 -104
-25 -19 c-13 -10 -166 -116 -339 -236 -173 -119 -396 -275 -495 -347 l-180
-131 -100 100 -100 100 309 607 c302 592 310 607 335 601 14 -3 40 -13 56 -21z
m1278 -992 c39 -35 107 -140 92 -140 -4 0 -26 14 -50 30 -56 38 -119 115 -111
135 9 23 23 18 69 -25z m-4922 -1453 c19 -14 19 -16 -11 -223 -17 -115 -33
-217 -36 -226 -4 -14 -11 -10 -40 21 -18 21 -34 46 -34 54 0 13 84 438 92 466
1 3 3 -13 5 -36 3 -28 11 -47 24 -56z m3234 -957 c-33 -4 -94 -8 -135 -7 l-75
0 60 7 c33 4 94 7 135 7 l75 0 -60 -7z"/>
<path d="M11070 7965 c-52 -16 -103 -62 -131 -118 -25 -48 -59 -178 -59 -226
0 -20 -3 -46 -6 -58 -6 -22 -9 -20 -60 25 -120 107 -299 182 -435 182 -81 0
-81 0 -105 -135 -40 -224 65 -378 295 -432 127 -29 226 -92 461 -292 74 -63
172 -138 216 -167 118 -78 346 -188 357 -173 2 2 35 45 74 94 215 273 310 464
289 577 -11 62 -124 238 -198 311 l-69 68 23 27 c41 49 63 109 50 137 -12 26
-78 65 -111 65 -32 0 -70 -41 -95 -103 l-23 -58 -43 48 c-47 54 -175 171 -234
214 -32 24 -49 29 -95 28 -31 0 -76 -7 -101 -14z"/>
<path d="M10595 6050 c-171 -12 -192 -23 -260 -135 -71 -119 -92 -246 -60
-370 23 -89 53 -143 88 -161 59 -31 195 -3 261 55 10 9 52 64 93 124 41 59 77
107 79 107 2 0 36 -16 73 -35 l69 -34 7 -58 c10 -87 33 -172 55 -203 28 -40
91 -54 203 -47 202 14 310 69 412 211 l20 27 135 -45 c196 -66 279 -110 308
-163 13 -24 28 -43 33 -43 16 0 39 46 42 85 2 38 1 38 -73 79 -41 22 -147 72
-234 111 l-159 71 -13 61 c-7 33 -20 76 -29 94 -25 46 -113 138 -155 159 -93
47 -341 90 -605 105 -55 3 -120 7 -145 9 -25 1 -90 0 -145 -4z m356 -271 c-1
-30 -5 -56 -6 -58 -5 -5 -75 39 -75 47 0 12 65 72 75 69 6 -2 9 -26 6 -58z"/>
<path d="M12490 4697 c-123 -44 -180 -99 -164 -160 5 -23 3 -27 -14 -27 -11 0
-25 -7 -32 -15 -7 -8 -23 -15 -35 -15 -26 0 -50 -24 -40 -40 3 -5 -6 -15 -20
-20 -22 -9 -32 -5 -65 21 -67 54 -171 56 -220 4 -22 -24 -45 -99 -35 -116 9
-13 -9 -11 -41 6 -46 24 -76 18 -133 -25 -29 -22 -61 -40 -71 -40 -20 0 -52
23 -133 97 -80 73 -157 112 -157 79 0 -17 92 -138 155 -203 61 -63 87 -71 174
-50 36 9 93 19 125 23 l59 7 -6 -66 c-12 -131 -70 -186 -182 -172 -133 17
-203 -93 -159 -250 12 -42 16 -91 15 -165 -2 -96 0 -108 21 -140 53 -79 184
-149 253 -136 37 7 131 67 183 116 18 17 59 71 92 120 69 103 133 154 281 224
l93 45 42 -39 c48 -44 100 -63 159 -58 l40 3 -51 33 c-60 38 -79 74 -79 148 1
47 5 55 66 125 165 191 195 259 170 394 -9 46 -8 62 4 85 8 16 15 37 15 48 0
32 -57 109 -106 143 -62 42 -117 47 -204 16z"/>
<path d="M10973 2501 c-45 -11 -93 -41 -117 -74 -17 -23 -21 -42 -20 -101 l1
-73 -50 34 c-54 36 -59 38 -88 23 -27 -15 -48 -72 -55 -151 l-7 -69 -51 -31
c-114 -71 -176 -139 -176 -194 0 -35 46 -78 108 -101 26 -10 49 -19 51 -20 2
-2 -6 -16 -18 -33 -44 -62 -74 -143 -75 -202 -1 -53 2 -61 33 -93 59 -61 173
-103 233 -85 38 10 82 51 110 100 13 23 32 40 56 49 80 28 153 94 194 173 25
51 47 170 48 263 0 40 7 91 16 115 9 24 18 83 21 130 5 71 2 100 -17 160 -23
77 -62 149 -90 166 -25 16 -72 22 -107 14z"/>
<path d="M9865 1620 c-46 -10 -86 -35 -124 -73 l-33 -35 -44 18 c-58 25 -131
37 -176 30 -68 -12 -138 -77 -138 -128 0 -27 40 -74 84 -97 35 -19 51 -40 22
-29 -25 9 -138 -17 -176 -41 -41 -26 -74 -84 -74 -132 0 -41 31 -75 95 -103
54 -23 54 -22 7 -81 -77 -100 -106 -198 -72 -247 38 -55 151 -78 302 -63 l94
10 60 -41 c213 -146 320 -107 335 120 l6 88 75 39 c130 69 186 153 199 297 5
62 4 68 -20 92 -14 14 -37 26 -50 26 -22 0 -89 -18 -129 -35 -11 -4 -1 17 27
59 53 79 69 133 62 203 -7 66 -25 103 -59 122 -25 14 -31 14 -79 -6 -45 -20
-55 -21 -78 -9 -36 18 -80 24 -116 16z"/>
<path d="M10900 1323 c-31 -11 -71 -58 -81 -96 -6 -21 -7 -62 -4 -90 l6 -52
-47 -29 c-26 -16 -71 -53 -100 -82 -45 -43 -54 -58 -54 -87 0 -20 7 -41 18
-50 26 -23 92 -45 163 -53 l61 -7 -6 -51 c-7 -65 8 -163 30 -187 22 -25 48
-24 110 5 107 50 163 126 164 221 l0 51 34 -4 c30 -3 37 0 49 24 40 78 63 271
41 344 -31 99 -117 145 -208 110 -20 -7 -34 -4 -68 15 -41 24 -76 30 -108 18z"/>
</g>
</svg>
