<?xml version="1.0" standalone="no"?>
<!DOCTYPE svg PUBLIC "-//W3C//DTD SVG 20010904//EN"
 "http://www.w3.org/TR/2001/REC-SVG-20010904/DTD/svg10.dtd">
<svg version="1.0" xmlns="http://www.w3.org/2000/svg"
 width="1280.000000pt" height="1280.000000pt" viewBox="0 0 1280.000000 1280.000000"
 preserveAspectRatio="xMidYMid meet">
<metadata>
Created by potrace 1.15, written by Peter Selinger 2001-2017
</metadata>
<g transform="translate(0.000000,1280.000000) scale(0.100000,-0.100000)"
fill="#000000" stroke="none">
<path d="M4060 12498 c-85 -11 -159 -23 -163 -27 -4 -4 -3 -19 2 -33 l9 -25
74 14 c42 9 175 18 313 22 210 6 236 8 210 20 -16 7 -58 15 -92 18 -34 3 -60
9 -58 13 5 8 -72 21 -114 19 -14 -1 -96 -10 -181 -21z"/>
<path d="M4599 12426 c-10 -10 -318 -56 -474 -71 -93 -9 -172 -18 -174 -20 -1
-2 5 -22 15 -44 17 -38 21 -41 58 -42 l41 -1 -32 -9 c-33 -10 -42 -22 -23 -34
5 -3 75 6 156 20 118 20 181 25 316 25 105 0 168 4 168 10 0 6 0 12 0 16 -1 3
9 13 22 24 13 10 20 21 16 25 -3 4 -64 2 -135 -4 -70 -5 -180 -12 -243 -15
-113 -5 -111 -5 135 34 138 21 255 39 260 40 6 1 -12 12 -40 25 -53 26 -59 28
-66 21z"/>
<path d="M3419 12317 c-116 -70 -117 -66 17 -69 l119 -3 -135 -19 c-145 -20
-184 -33 -221 -73 l-24 -25 40 6 c22 3 94 8 160 11 l120 5 -178 -34 c-144 -27
-182 -37 -202 -56 -14 -13 -25 -27 -25 -32 0 -4 24 -9 53 -9 44 -1 48 -2 22
-9 -16 -4 -47 -8 -67 -9 -44 -1 -51 -22 -13 -39 18 -8 40 -9 76 -2 50 10 287
14 278 6 -2 -2 -68 -12 -146 -22 -117 -14 -141 -20 -132 -31 6 -7 30 -14 53
-14 38 -1 39 -2 11 -8 l-30 -7 23 -13 c20 -10 64 -6 290 29 147 23 269 44 271
46 3 2 -5 17 -17 32 -12 15 -33 43 -46 63 l-24 35 -88 -12 c-49 -7 -163 -12
-254 -12 l-165 0 115 23 c63 13 166 31 228 41 61 10 112 22 112 26 0 16 -142
208 -154 208 -7 0 -37 -15 -67 -33z m-116 -414 c-7 -2 -21 -2 -30 0 -10 3 -4
5 12 5 17 0 24 -2 18 -5z"/>
<path d="M4515 12213 c-49 -8 -181 -16 -292 -19 -112 -3 -203 -7 -203 -9 0
-24 17 -35 59 -37 37 -1 40 -2 13 -5 -30 -4 -52 -26 -39 -39 2 -3 68 7 145 21
97 17 175 25 255 25 115 0 116 0 135 28 29 41 34 52 25 51 -4 -1 -48 -8 -98
-16z"/>
<path d="M4948 12117 c-25 -29 -46 -52 -45 -53 4 -2 202 19 205 21 7 6 -84 84
-98 84 -8 0 -36 -23 -62 -52z"/>
<path d="M4460 12115 c-41 -7 -142 -19 -223 -26 -81 -7 -152 -16 -158 -20 -16
-9 22 -79 46 -84 11 -2 39 -6 63 -10 23 -3 61 -12 84 -20 32 -11 53 -11 97 -3
50 9 91 30 91 47 0 3 -30 5 -67 4 -47 -2 -62 0 -48 6 11 5 43 10 72 10 42 1
57 6 76 26 28 31 61 85 50 84 -4 -1 -42 -7 -83 -14z"/>
<path d="M4992 12056 l-113 -13 -42 -41 c-22 -23 -38 -44 -35 -48 4 -3 55 -1
115 6 59 6 140 10 178 8 67 -3 60 -5 -140 -37 l-210 -35 -67 -65 c-38 -35 -68
-68 -68 -72 0 -4 11 -21 25 -37 23 -27 28 -29 67 -21 24 4 151 8 283 8 l240 0
-145 -40 c-114 -31 -167 -40 -248 -43 -57 -2 -106 -7 -110 -10 -3 -4 -2 -15 4
-24 6 -9 23 -39 38 -67 16 -27 29 -51 30 -52 1 -1 32 2 68 7 52 8 84 20 142
56 42 25 76 47 76 48 0 2 -42 1 -92 -2 -51 -2 -91 -2 -88 1 3 3 77 24 165 47
150 39 227 71 255 105 11 13 -9 15 -151 16 l-164 2 75 13 c41 7 101 13 133 13
42 1 59 5 63 16 4 8 12 15 20 15 11 0 11 5 2 25 -9 20 -17 25 -37 21 -63 -12
-212 -28 -217 -24 -2 3 37 11 88 17 110 14 138 20 138 31 0 28 -134 191 -155
189 -5 -1 -61 -7 -123 -13z"/>
<path d="M4360 11931 c0 -12 29 -23 41 -15 18 10 9 24 -16 24 -14 0 -25 -4
-25 -9z"/>
<path d="M3550 11870 c-294 -49 -270 -43 -242 -58 19 -11 59 -7 250 24 227 36
268 47 257 65 -8 12 -8 12 -265 -31z"/>
<path d="M3605 11829 c-66 -10 -151 -24 -190 -30 l-69 -12 29 -23 c26 -21 42
-24 115 -25 83 -2 82 -3 -8 -15 l-43 -5 48 -35 c26 -19 53 -34 59 -34 6 0 24
19 41 43 30 41 68 80 128 131 17 14 26 25 20 24 -5 0 -64 -9 -130 -19z"/>
<path d="M2804 11658 l-19 -21 40 6 c22 4 49 7 59 7 20 0 20 0 0 15 -27 21
-58 18 -80 -7z"/>
<path d="M2875 11625 c-5 -2 -31 -6 -56 -10 -44 -6 -49 -9 -84 -66 -20 -33
-34 -63 -31 -66 3 -3 39 0 81 6 42 6 86 10 98 10 32 -2 -101 -28 -145 -29 -25
0 -44 -7 -58 -22 -11 -12 -18 -23 -16 -26 2 -2 46 1 98 7 98 11 332 21 325 14
-14 -13 -251 -77 -353 -95 -120 -21 -121 -21 -133 -53 -6 -17 -11 -37 -11 -43
0 -21 78 -33 187 -27 71 3 101 2 88 -4 -11 -5 -37 -10 -57 -10 -50 -1 -55 -16
-10 -29 20 -6 55 -16 78 -22 45 -13 70 -12 253 15 118 18 125 20 140 47 9 16
35 58 57 93 23 34 39 67 35 72 -3 5 -21 17 -40 26 -28 14 -44 15 -100 7 -99
-14 -113 -10 -41 12 l65 20 -24 20 c-21 16 -35 18 -105 14 -72 -5 -76 -4 -36
5 86 21 94 9 -73 105 -53 30 -99 40 -132 29z"/>
<path d="M4089 11546 c-113 -13 -142 -32 -202 -129 -57 -93 -52 -104 63 -138
52 -16 103 -29 113 -29 10 0 29 -7 43 -16 19 -13 38 -15 89 -10 39 4 66 3 70
-4 4 -6 -7 -10 -26 -10 -26 0 -31 -2 -20 -12 8 -9 41 -12 104 -11 63 2 87 0
77 -7 -8 -5 -23 -10 -33 -10 -28 0 -11 -18 24 -25 38 -9 49 4 49 58 l0 37 -39
-6 c-24 -4 -41 -2 -45 5 -5 7 8 11 39 11 39 0 46 3 43 18 -3 15 -15 17 -103
15 -109 -3 -99 9 18 21 37 4 69 11 72 16 3 4 -2 24 -11 45 -14 35 -17 36 -52
31 -126 -19 -276 -37 -290 -34 -9 2 48 14 128 27 80 13 156 26 169 30 l24 7
-37 42 c-32 35 -42 41 -69 36 -30 -4 -31 -4 -7 6 l25 11 -25 19 c-28 22 -52
23 -191 6z m4 -43 c-13 -2 -33 -2 -45 0 -13 2 -3 4 22 4 25 0 35 -2 23 -4z"/>
<path d="M5430 11477 l-25 -11 28 -4 c32 -4 46 4 31 17 -5 5 -20 4 -34 -2z"/>
<path d="M4817 11451 c-16 -6 -17 -9 -5 -18 10 -9 19 -7 38 7 23 18 23 20 5
19 -11 0 -28 -4 -38 -8z"/>
<path d="M5372 11424 c-81 -21 -260 -100 -250 -110 4 -3 317 41 365 51 33 8
17 35 -21 36 l-31 1 27 9 c17 7 25 15 21 25 -6 17 1 18 -111 -12z"/>
<path d="M5375 11309 c-93 -22 -145 -29 -230 -29 -81 0 -115 -5 -129 -15 -19
-14 -18 -15 10 -16 18 -1 7 -6 -32 -13 -33 -7 -66 -16 -72 -20 -16 -10 -15
-46 2 -46 7 0 80 16 162 36 126 30 172 37 302 41 135 5 152 7 148 22 -2 9 -7
28 -10 44 -8 32 0 32 -151 -4z"/>
<path d="M5447 11183 c-147 -22 -435 -48 -476 -43 -51 6 -51 6 -51 -22 0 -24
4 -28 28 -29 24 -2 25 -2 4 -6 -16 -3 -22 -9 -18 -20 3 -8 6 -21 6 -28 0 -10
15 -12 63 -9 34 2 53 1 42 -2 -11 -3 -37 -10 -57 -15 -31 -8 -38 -14 -38 -34
0 -23 4 -25 44 -25 23 0 56 4 72 9 16 5 74 17 129 27 245 44 369 72 373 84 4
10 -6 12 -38 7 -23 -3 -39 -2 -34 3 5 5 23 10 39 12 21 2 29 8 26 18 -2 8 -6
30 -9 48 -4 30 -7 32 -41 31 -20 -1 -48 -4 -64 -6z m-64 -50 c-7 -2 -21 -2
-30 0 -10 3 -4 5 12 5 17 0 24 -2 18 -5z m-66 -9 c-3 -3 -12 -4 -19 -1 -8 3
-5 6 6 6 11 1 17 -2 13 -5z"/>
<path d="M3140 11101 l-24 -7 31 -13 c34 -14 53 -9 53 15 0 15 -19 17 -60 5z"/>
<path d="M3615 10992 c-68 -19 -135 -52 -156 -78 -15 -18 -13 -18 116 1 l30 5
-30 -14 c-16 -8 -58 -18 -93 -22 -57 -6 -64 -9 -73 -33 -5 -14 -13 -33 -17
-41 -12 -21 -37 -119 -31 -124 4 -4 182 11 434 35 66 6 135 18 153 25 32 13
32 13 32 82 l0 69 -52 -8 c-74 -10 -244 -22 -238 -16 3 3 57 12 120 21 63 9
126 19 140 22 l25 6 -24 13 c-14 7 -41 11 -60 10 -20 -1 -26 0 -13 2 30 6 28
18 -5 30 -108 39 -162 42 -258 15z"/>
<path d="M2462 10905 c-7 -14 -12 -27 -12 -29 0 -4 92 11 130 21 24 6 23 7
-10 13 -19 4 -49 11 -66 15 -26 6 -32 3 -42 -20z"/>
<path d="M2615 10820 c-104 -16 -191 -29 -192 -29 -5 -2 -33 -74 -33 -84 0 -6
23 -7 63 -3 34 3 87 9 117 11 l55 5 -35 -16 c-19 -9 -75 -22 -124 -30 -48 -7
-89 -14 -90 -16 -9 -13 -37 -100 -34 -104 3 -2 121 16 264 40 305 52 338 57
331 49 -4 -3 -62 -30 -129 -60 -106 -47 -139 -57 -236 -70 -186 -24 -247 -37
-247 -54 0 -10 20 -16 75 -21 100 -9 401 -8 420 2 8 4 44 10 80 13 44 4 57 3
40 -3 -23 -8 -22 -9 10 -7 34 2 35 3 44 56 7 47 6 57 -10 68 -19 14 -19 15 14
32 12 6 22 20 22 31 0 10 11 50 25 88 31 86 31 89 -2 95 -144 28 -192 37 -213
36 -14 -1 -110 -14 -215 -29z m404 -77 c-37 -10 -307 -38 -303 -32 2 4 18 10
34 14 60 13 314 31 269 18z"/>
<path d="M3573 10636 c-127 -22 -233 -43 -236 -46 -2 -3 -7 -44 -11 -92 l-6
-86 34 9 c19 5 103 48 188 95 84 48 181 102 216 121 57 32 74 45 55 42 -5 -1
-112 -20 -240 -43z"/>
<path d="M5455 10660 c-55 -4 -147 -10 -205 -14 -136 -10 -257 -34 -265 -54
-3 -8 -4 -16 -2 -18 2 -2 57 8 122 22 65 13 122 23 127 22 5 -2 -52 -23 -126
-48 -111 -36 -136 -48 -136 -63 0 -11 5 -17 13 -15 6 3 109 37 228 77 214 71
217 72 310 69 l94 -3 -80 -27 c-99 -33 -442 -124 -510 -135 l-50 -8 -5 -48
c-3 -26 -3 -51 0 -56 5 -9 129 -40 275 -70 28 -6 100 -23 160 -38 101 -24 246
-36 261 -20 6 6 6 278 1 284 -2 2 -28 -2 -56 -8 -29 -6 -55 -9 -57 -6 -3 3 20
11 50 18 45 10 56 16 56 32 0 15 -5 18 -22 13 -13 -3 -50 -8 -83 -11 l-60 -5
78 21 78 22 -3 36 c-3 35 -4 36 -48 37 -25 1 -90 -2 -145 -6z"/>
<path d="M4320 10614 c-34 -7 -107 -44 -123 -62 -10 -13 -5 -14 43 -9 69 9 48
-6 -32 -23 -63 -12 -75 -22 -53 -40 11 -9 32 -7 96 9 45 12 84 19 86 17 3 -2
-25 -21 -62 -41 l-67 -38 26 -25 25 -25 110 31 c126 37 139 39 121 17 -7 -8
-17 -12 -22 -9 -5 3 -22 -5 -36 -19 -20 -18 -43 -27 -84 -32 -32 -4 -58 -11
-58 -15 0 -10 269 -280 279 -280 16 0 59 58 73 100 19 54 32 186 19 194 -5 3
-7 15 -4 26 4 15 0 20 -15 20 -22 0 -35 32 -26 67 3 11 2 23 -3 26 -5 3 -82
-14 -171 -39 -90 -24 -166 -44 -170 -44 -4 0 38 25 93 55 61 33 118 57 148 61
51 7 56 13 30 36 -42 34 -152 55 -223 42z m260 -189 c0 -14 -6 -25 -12 -25 -7
0 -24 -3 -38 -7 l-25 -6 29 32 c36 38 46 39 46 6z"/>
<path d="M3700 10181 c-25 -9 -117 -45 -206 -80 l-161 -64 -12 -62 c-13 -71
-15 -145 -3 -145 4 0 23 4 42 9 19 6 96 15 170 21 74 5 155 13 180 16 82 11
33 -8 -72 -28 -79 -14 -306 -48 -325 -48 -2 0 -3 -7 -3 -15 0 -19 26 -19 155
0 217 31 238 38 309 95 36 28 75 63 86 77 37 47 21 135 -36 201 -40 47 -54 49
-124 23z m-12 -88 c-10 -2 -26 -2 -35 0 -10 3 -2 5 17 5 19 0 27 -2 18 -5z
m-58 -7 c0 -2 -18 -6 -39 -8 -22 -2 -37 0 -35 4 5 8 74 11 74 4z"/>
<path d="M2918 10135 c-5 -5 -243 -44 -398 -65 -77 -11 -177 -28 -232 -41 -42
-10 -48 -14 -48 -36 0 -21 4 -24 23 -20 12 3 54 8 92 11 l70 6 -88 -19 c-48
-10 -92 -22 -98 -28 -6 -6 -13 -48 -16 -93 l-6 -83 54 7 c30 3 154 21 277 40
122 18 225 29 228 25 9 -16 -37 -26 -295 -68 -140 -23 -257 -44 -261 -46 -12
-8 -12 -165 0 -165 6 0 73 7 148 16 121 14 287 55 309 78 3 3 -25 6 -63 7
-112 1 -5 27 177 43 49 4 155 38 169 53 3 3 -11 3 -30 -1 -34 -6 -22 4 21 17
14 5 17 24 18 131 1 144 12 133 -106 112 -40 -7 -73 -9 -73 -5 0 7 46 18 142
34 33 5 38 10 44 40 3 18 3 38 -1 44 -6 11 -48 15 -57 6z m-173 -134 c-10 -9
-175 -34 -182 -27 -4 4 138 33 172 35 11 1 15 -3 10 -8z m105 -151 c-20 -13
-43 -13 -35 0 3 6 16 10 28 10 18 0 19 -2 7 -10z m-205 -115 c-22 -8 -49 -13
-60 -13 -11 0 0 6 25 13 59 17 87 17 35 0z"/>
<path d="M4961 9871 c-7 -5 -16 -28 -18 -52 -3 -24 -9 -52 -14 -61 -5 -9 -9
-28 -9 -42 0 -14 -6 -43 -14 -63 -7 -21 -19 -58 -26 -83 -7 -25 -16 -55 -21
-68 -13 -32 -2 -44 24 -28 12 8 40 17 62 20 22 4 47 9 56 12 12 3 18 -3 21
-26 5 -35 -12 -50 -59 -50 l-28 0 25 -20 c17 -14 34 -19 53 -15 20 3 27 1 27
-12 0 -20 29 -42 57 -43 12 0 88 18 169 40 82 22 150 38 152 36 2 -2 -14 -22
-35 -44 -37 -38 -41 -39 -122 -46 -90 -7 -123 -17 -101 -31 7 -5 36 -7 64 -7
47 1 49 1 28 -11 -21 -12 -22 -15 -7 -27 13 -11 23 -8 66 19 47 29 109 42 109
22 0 -4 -5 -22 -11 -39 -8 -25 -18 -33 -46 -38 -40 -8 -38 -11 42 -54 33 -18
68 -38 77 -44 21 -13 33 -2 42 37 l7 29 -57 -8 c-38 -4 -55 -3 -51 4 4 5 31
13 61 16 35 5 56 13 60 23 5 12 -3 14 -49 11 -30 -1 -55 0 -55 3 0 3 5 20 11
38 10 27 16 31 50 32 61 2 64 3 67 22 3 14 -4 17 -43 17 -46 0 -47 0 -40 28
15 59 29 77 73 87 38 10 61 27 62 47 0 3 -18 4 -40 1 -45 -6 -48 -1 -20 45 13
21 27 32 43 32 24 0 53 42 42 60 -11 18 -116 50 -133 41 -19 -9 -102 -22 -102
-15 0 3 18 13 41 23 43 20 35 31 -21 31 -28 0 -334 -46 -376 -56 -16 -4 -23 0
-27 17 -4 13 -5 24 -3 26 1 1 69 10 151 19 150 16 205 28 175 37 -21 6 -105
36 -169 59 -42 16 -67 19 -112 14 -36 -3 -59 -2 -59 4 0 6 16 10 35 10 43 0
46 15 4 24 -43 8 -71 7 -88 -3z m29 -196 c0 -21 -5 -25 -30 -25 -16 0 -30 4
-30 9 0 25 14 41 36 41 19 0 24 -5 24 -25z m330 -14 c-19 -11 -271 -44 -278
-36 -3 3 1 5 9 6 8 0 64 9 124 19 127 21 168 24 145 11z m97 -37 c-3 -3 -12
-4 -19 -1 -8 3 -5 6 6 6 11 1 17 -2 13 -5z m-202 -23 c-10 -9 -124 -31 -160
-31 -42 0 2 16 73 26 42 6 81 12 87 13 6 0 6 -2 0 -8z m-215 -31 c0 -5 -21 -9
-47 -9 -47 2 -47 2 -13 9 52 11 60 11 60 0z m520 -7 c0 -17 -40 -73 -52 -73
-7 0 -74 -7 -148 -15 -74 -8 -136 -13 -137 -11 -2 2 18 11 44 21 27 10 71 29
98 43 28 14 64 29 80 33 41 10 115 11 115 2z m-241 -17 c-8 -8 -132 -56 -136
-53 -10 11 76 57 106 57 19 0 32 -2 30 -4z m-182 -41 c-29 -26 -47 -25 -47 0
0 12 21 21 60 23 9 1 4 -8 -13 -23z m123 -101 c-146 -40 -150 -40 -150 -14 0
21 10 24 135 39 137 17 142 10 15 -25z m229 -34 c-6 -16 -18 -30 -26 -30 -11
0 -10 7 7 30 12 17 23 30 25 30 2 0 -1 -13 -6 -30z"/>
<path d="M3473 9772 c-123 -20 -153 -28 -153 -41 1 -38 12 -39 147 -17 118 19
135 24 170 53 36 30 37 32 13 31 -14 0 -94 -12 -177 -26z"/>
<path d="M4065 9762 c-33 -23 -105 -165 -92 -179 3 -2 37 0 76 6 103 16 104
16 96 -16 -9 -39 -19 -43 -112 -43 -83 0 -83 0 -83 -26 l0 -27 91 7 c112 8
111 -7 -1 -24 -83 -13 -94 -18 -81 -38 5 -9 24 -8 81 2 41 8 76 13 78 11 2 -2
-1 -12 -7 -23 -8 -15 -26 -21 -76 -27 -42 -4 -65 -11 -65 -19 0 -10 44 -103
54 -113 4 -4 298 46 303 51 5 5 -13 115 -19 122 -2 1 -37 -4 -78 -11 -41 -7
-77 -12 -78 -10 -2 2 -1 13 3 24 5 16 21 22 80 32 l75 12 0 36 0 37 -66 -4
-65 -4 3 33 c3 32 5 34 56 43 l52 10 0 40 0 41 -52 -2 -53 -2 45 13 45 12 -44
22 c-45 22 -144 30 -166 14z m88 -69 c-7 -2 -21 -2 -30 0 -10 3 -4 5 12 5 17
0 24 -2 18 -5z m-56 -9 c-3 -3 -12 -4 -19 -1 -8 3 -5 6 6 6 11 1 17 -2 13 -5z
m116 -191 c-7 -2 -21 -2 -30 0 -10 3 -4 5 12 5 17 0 24 -2 18 -5z"/>
<path d="M3470 9675 c-30 -8 -72 -14 -92 -15 -42 0 -43 -3 -26 -60 15 -46 20
-48 55 -20 23 18 23 20 7 21 -12 1 -6 5 14 11 26 9 119 78 102 77 -3 -1 -30
-7 -60 -14z"/>
<path d="M2943 9343 c-8 -3 -11 -14 -7 -29 6 -24 5 -24 -64 -24 -56 0 -91 -8
-183 -41 -63 -23 -125 -45 -139 -49 -45 -15 -2 -10 143 14 188 32 287 41 287
27 0 -6 5 -11 10 -11 17 0 10 43 -13 81 -12 20 -28 34 -34 32z"/>
<path d="M4235 9268 c-49 -10 -114 -23 -144 -29 l-54 -11 39 -37 c21 -21 47
-42 56 -47 27 -15 195 5 203 24 3 8 4 16 2 18 -2 2 -52 7 -110 11 -59 3 -105
8 -103 10 3 3 48 13 102 24 53 10 99 20 101 23 3 2 3 11 1 18 -2 12 -18 11
-93 -4z"/>
<path d="M2750 9189 c-262 -24 -343 -37 -393 -60 l-42 -19 45 5 c174 19 334
34 337 31 3 -2 -29 -9 -69 -16 -40 -7 -154 -27 -253 -44 l-180 -32 -3 -42 -3
-42 127 0 c115 0 126 -2 108 -15 -14 -10 -47 -14 -121 -15 -96 0 -103 -1 -103
-20 0 -23 -42 -21 525 -20 323 1 356 4 339 32 -3 4 -49 8 -102 9 l-97 1 93 16
c74 12 92 19 90 31 -3 13 -23 17 -108 21 l-105 5 93 19 c96 19 106 24 94 43
-5 9 -57 1 -182 -27 -162 -36 -186 -39 -320 -39 l-145 1 100 14 c55 8 188 25
295 39 241 32 250 33 250 51 0 19 1 19 -258 -16 -124 -17 -229 -29 -235 -27
-5 1 89 20 209 41 282 48 264 44 264 72 0 29 16 28 -250 3z m-80 -235 c-47 -7
-103 -12 -125 -12 -39 0 -39 1 15 13 30 7 87 13 125 13 l70 -1 -85 -13z"/>
<path d="M4245 9123 c-41 -12 -46 -16 -31 -25 15 -9 86 -3 86 7 0 2 3 10 6 19
7 19 3 19 -61 -1z"/>
<path d="M4663 8973 c-7 -2 -13 -11 -13 -20 0 -24 -110 -234 -149 -283 -19
-25 -39 -50 -43 -56 -5 -7 19 -29 69 -61 122 -78 120 -77 162 -60 32 14 175
48 254 60 62 10 19 -11 -108 -53 -74 -24 -135 -47 -135 -50 0 -3 25 -21 55
-39 l54 -33 47 16 c60 20 266 51 288 43 11 -4 16 -18 16 -42 l0 -35 -157 0
-158 0 25 -20 c22 -17 41 -20 159 -20 74 0 131 -3 128 -7 -4 -3 -46 -14 -95
-23 -80 -15 -85 -18 -63 -29 19 -11 38 -11 103 0 69 11 82 17 100 42 12 16 26
57 32 91 9 52 14 61 34 64 15 2 27 15 37 39 20 46 20 45 -17 39 l-33 -5 35 11
c58 19 68 48 16 48 -29 0 -33 3 -29 19 3 14 17 21 49 26 58 8 57 28 -3 55 -38
17 -61 20 -110 17 -67 -6 -90 6 -58 29 23 17 23 16 -50 49 -49 21 -69 25 -110
20 -47 -5 -48 -5 -21 8 27 12 27 13 11 27 -14 11 -43 15 -114 14 l-96 -1 65 9
64 10 -28 15 c-20 10 -46 13 -90 9 -61 -5 -61 -5 -16 6 l45 11 -30 13 c-18 8
-47 11 -73 7 -42 -5 -43 -5 -36 21 3 14 5 26 3 25 -2 0 -10 -3 -16 -6z m203
-162 c-15 -24 -247 -53 -260 -32 -4 6 -1 11 6 12 20 1 253 26 256 28 2 0 1 -3
-2 -8z m234 -46 c0 -8 -19 -24 -42 -36 -38 -20 -60 -23 -200 -24 -87 -1 -158
1 -158 4 0 19 197 55 383 70 9 0 17 -6 17 -14z m-200 -114 c-36 -20 -367 -68
-379 -55 -3 3 12 21 34 40 l40 34 170 -1 170 0 -35 -18z m150 9 c-14 -4 -34
-8 -45 -9 -16 -1 -17 1 -5 9 8 5 29 9 45 9 29 -1 29 -1 5 -9z m190 -60 c0 -5
-12 -10 -27 -10 -22 0 -25 2 -13 10 20 13 40 13 40 0z m-110 -48 c0 -8 -132
-43 -138 -37 -4 3 114 43 131 44 4 1 7 -3 7 -7z m80 -32 c-8 -5 -19 -10 -25
-10 -5 0 -3 5 5 10 8 5 20 10 25 10 6 0 3 -5 -5 -10z m-103 -26 c-3 -3 -12 -4
-19 -1 -8 3 -5 6 6 6 11 1 17 -2 13 -5z m-62 -14 c-11 -5 -29 -8 -40 -8 -16 0
-15 2 5 8 34 11 60 11 35 0z m-85 -20 c-14 -4 -34 -8 -45 -8 -16 0 -15 2 5 8
14 4 34 8 45 8 16 0 15 -2 -5 -8z m242 -35 c-2 -14 -6 -25 -8 -25 -2 0 -4 11
-4 25 0 14 4 25 9 25 4 0 6 -11 3 -25z"/>
<path d="M8515 8861 c-23 -4 -57 -17 -77 -29 -24 -15 -77 -30 -155 -43 -185
-31 -271 -87 -153 -100 43 -4 47 -6 18 -7 -47 -2 -52 -12 -24 -45 20 -23 31
-27 73 -27 50 0 241 16 298 25 l30 5 -31 -28 c-25 -23 -51 -33 -145 -51 -156
-30 -154 -30 -137 -47 12 -13 24 -12 89 1 41 9 83 18 94 21 16 5 13 -1 -12
-27 -26 -27 -43 -35 -83 -39 l-51 -5 33 -47 c18 -26 38 -48 44 -48 7 0 11 -8
10 -17 -1 -15 7 -18 44 -17 45 2 45 1 13 -9 -38 -11 -39 -14 -14 -46 l18 -23
48 21 c26 11 56 21 66 21 11 0 19 4 19 8 0 7 94 42 113 42 4 0 4 -7 1 -15 -7
-16 13 -20 33 -7 11 7 93 182 93 198 0 2 -7 4 -16 4 -13 0 -12 7 7 40 13 22
26 40 30 40 11 0 39 30 39 40 0 5 -7 7 -16 3 -14 -5 -15 -3 -5 15 7 12 18 22
26 22 13 0 55 71 55 92 0 4 -17 8 -37 8 -47 1 -83 24 -65 42 17 17 15 28 -6
28 -11 0 -27 -9 -37 -20 -16 -18 -31 -20 -134 -20 l-116 0 33 21 c17 12 32 23
32 25 0 2 -1 3 -2 3 -2 -1 -21 -4 -43 -8z m85 -122 c-25 -4 -88 -7 -140 -7
-87 1 -90 2 -35 8 33 4 96 7 140 7 70 0 74 0 35 -8z m-41 -59 c-35 -10 -289
-33 -314 -28 -27 5 205 35 280 36 44 0 53 -2 34 -8z m211 -7 c-1 -22 -24 -33
-115 -51 -55 -11 -102 -18 -104 -16 -12 12 52 41 124 56 99 20 95 20 95 11z
m-47 -104 c-10 -17 -23 -34 -28 -39 -12 -10 -275 -54 -282 -47 -2 3 14 20 37
38 35 28 61 38 148 56 150 30 147 30 125 -8z m-133 -138 c0 -18 -65 -31 -153
-31 -50 0 -88 3 -85 6 4 3 57 12 120 19 62 7 114 13 116 14 1 0 2 -3 2 -8z"/>
<path d="M2840 8824 c-14 -3 -569 -54 -591 -54 -5 0 -9 -11 -9 -25 0 -32 -1
-32 287 1 271 30 310 37 360 64 l38 20 -35 -1 c-19 -1 -42 -3 -50 -5z"/>
<path d="M2343 8691 c-67 -5 -81 -9 -74 -20 7 -11 40 -13 165 -9 86 2 151 1
144 -2 -7 -4 -71 -20 -141 -36 -127 -28 -128 -29 -122 -54 10 -39 32 -57 53
-43 9 7 48 29 86 48 38 20 88 47 110 60 23 13 59 33 81 44 l40 21 -130 -2
c-72 -1 -167 -4 -212 -7z"/>
<path d="M9340 8652 c0 -28 -3 -30 -53 -36 -37 -5 -56 -13 -65 -27 -13 -20
-11 -20 35 -14 26 4 57 9 68 12 11 3 17 2 13 -2 -3 -3 -38 -15 -78 -25 -41
-10 -77 -26 -85 -37 -18 -24 -13 -26 29 -15 20 6 36 9 36 6 0 -6 -78 -44 -92
-44 -11 0 -85 -95 -97 -124 -2 -5 20 -7 55 -3 51 5 98 -4 84 -16 -3 -2 -49
-21 -103 -42 -54 -21 -100 -42 -103 -47 -3 -4 6 -12 19 -17 14 -6 28 -15 32
-20 9 -15 50 -14 112 3 28 8 53 12 55 10 2 -1 2 -21 0 -42 -3 -35 -7 -41 -35
-46 l-30 -6 23 -25 c13 -14 26 -23 28 -20 3 2 14 -13 24 -35 12 -23 27 -40 37
-40 9 0 68 37 131 83 63 45 139 98 167 117 64 42 68 55 11 31 -24 -11 -54 -22
-68 -26 l-25 -7 20 20 c24 25 194 102 224 102 24 0 27 12 7 29 -9 8 -28 8 -66
1 -29 -5 -57 -10 -62 -10 -12 0 9 39 38 71 l24 25 -34 33 c-30 29 -40 33 -70
28 -40 -6 -46 2 -15 21 16 11 18 16 9 28 -11 12 -20 8 -60 -26 -38 -32 -56
-40 -88 -40 l-40 0 11 35 c9 31 17 37 64 52 29 9 53 20 53 24 0 13 -49 39 -75
39 -15 0 -25 6 -25 15 0 8 -9 19 -20 25 -18 10 -20 8 -20 -18z m-22 -157 c-8
-19 -19 -25 -41 -25 -33 0 -32 4 10 31 38 24 44 23 31 -6z m242 -49 c0 -4
-163 -56 -175 -56 -18 0 50 44 78 50 35 9 97 12 97 6z m-230 -46 c-14 -10 -27
-17 -29 -15 -8 8 22 35 38 35 12 0 10 -5 -9 -20z m228 2 c-1 -5 -22 -25 -45
-46 -32 -28 -61 -43 -115 -57 -72 -18 -73 -18 -92 1 -16 16 -17 20 -5 25 10 4
231 76 257 84 2 1 2 -3 0 -7z m-298 -11 c0 -5 -7 -14 -15 -21 -11 -9 -19 -9
-35 3 -20 14 -21 15 -3 20 31 8 53 7 53 -2z m9 -105 c9 -11 7 -15 -9 -19 -15
-4 -20 0 -20 14 0 22 13 25 29 5z m-70 -31 c-2 -2 -18 -6 -34 -10 l-30 -7 30
20 c17 10 32 15 34 10 1 -5 1 -11 0 -13z m291 20 c0 -2 -15 -12 -32 -20 l-33
-16 25 20 c24 20 40 26 40 16z m-123 -32 c-9 -9 -20 -13 -24 -9 -4 4 -1 11 7
16 25 16 35 11 17 -7z m-57 -22 c0 -17 -47 -61 -64 -61 -3 0 -6 15 -6 34 0 28
4 35 23 39 42 8 47 7 47 -12z m-50 -131 c0 -5 -5 -10 -11 -10 -5 0 -7 5 -4 10
3 6 8 10 11 10 2 0 4 -4 4 -10z m60 -20 c0 -5 -7 -10 -16 -10 -8 0 -12 5 -9
10 3 6 10 10 16 10 5 0 9 -4 9 -10z"/>
<path d="M7699 8450 l-24 -19 25 -2 c21 -1 20 -3 -11 -13 -25 -7 -50 -28 -79
-64 -23 -30 -39 -56 -36 -59 3 -3 -8 -16 -25 -30 -16 -14 -29 -33 -29 -43 0
-10 -4 -20 -9 -22 -4 -1 -18 -25 -29 -51 -19 -43 -20 -48 -4 -43 107 32 197
54 242 60 87 10 41 -9 -107 -46 -75 -18 -132 -37 -130 -43 4 -11 52 -12 107
-1 33 6 33 6 -7 -11 -47 -19 -53 -28 -23 -38 14 -4 54 11 126 49 72 38 144 66
222 86 63 17 116 29 118 27 16 -16 -245 -182 -332 -212 l-36 -12 37 -22 c25
-14 45 -19 63 -15 26 6 26 6 8 -9 -19 -14 -19 -15 3 -22 14 -4 31 -1 47 10 33
21 42 13 15 -14 l-21 -21 63 -40 c34 -22 74 -40 90 -40 23 0 31 8 51 53 14 28
36 71 51 95 14 23 23 42 19 42 -3 0 -27 -15 -53 -34 -39 -28 -138 -62 -149
-51 -2 2 11 20 30 40 30 33 41 37 110 47 67 10 79 14 98 40 20 27 20 29 4 24
-71 -21 -77 -16 -21 17 79 47 81 50 55 75 l-23 21 -104 -75 c-79 -57 -115 -77
-154 -85 -28 -5 -52 -8 -54 -6 -2 2 30 23 69 47 74 43 198 145 198 161 0 5
-16 27 -36 49 -24 26 -45 40 -61 40 -20 0 -23 3 -14 13 12 15 -3 37 -27 37 -8
0 -82 -18 -164 -41 -169 -45 -207 -47 -138 -7 29 17 86 34 160 49 63 12 117
24 119 25 2 2 -2 10 -9 19 -10 12 -25 14 -64 10 -47 -6 -50 -5 -32 9 11 9 26
16 33 16 7 0 13 6 13 13 0 26 -25 37 -86 37 -47 0 -68 -5 -85 -20z m226 -160
c-3 -5 -18 -10 -33 -9 l-27 1 25 8 c35 11 42 11 35 0z"/>
<path d="M5122 8220 c-21 -11 -29 -21 -22 -25 7 -4 24 4 38 19 31 30 29 31
-16 6z"/>
<path d="M9887 8003 c-54 -29 -57 -37 -6 -23 34 10 89 5 89 -9 0 -15 -108 -52
-194 -67 -71 -12 -100 -23 -146 -53 -31 -21 -81 -50 -111 -65 -77 -39 -93 -52
-85 -71 5 -14 15 -16 54 -11 26 3 74 8 107 11 57 6 59 5 35 -9 -16 -10 -52
-15 -102 -16 l-76 0 54 -90 c30 -50 59 -101 64 -114 l8 -23 94 14 c51 8 179
33 283 55 105 21 202 42 218 45 15 3 29 9 32 13 9 15 -15 62 -35 67 -21 5 -28
23 -10 23 6 0 1 18 -10 41 -15 29 -26 39 -38 35 -33 -10 -187 -46 -197 -46
-24 1 27 19 113 40 85 21 92 25 86 44 -4 12 -8 23 -10 25 -3 3 -114 -12 -189
-26 -30 -5 -30 -5 10 24 22 16 46 37 54 46 8 10 28 17 47 17 19 0 34 4 34 8 0
22 -87 137 -105 139 -11 1 -42 -9 -68 -24z m43 -137 c0 -2 -30 -23 -67 -46
-58 -37 -79 -44 -162 -56 -52 -7 -97 -12 -98 -10 -6 6 292 116 315 116 6 0 12
-2 12 -4z m-110 -136 c-69 -20 -87 -24 -77 -14 12 12 83 33 112 33 21 0 12 -6
-35 -19z m270 -36 c-54 -18 -138 -30 -128 -19 8 8 120 32 153 33 11 0 0 -6
-25 -14z m-310 -86 c-58 -15 -136 -30 -175 -33 -67 -4 -63 -3 78 34 82 21 161
36 175 33 20 -4 1 -12 -78 -34z m270 5 c-69 -7 -129 -11 -135 -9 -27 9 121 31
186 27 l74 -4 -125 -14z"/>
<path d="M8613 7914 c-72 -13 -123 -32 -123 -46 0 -6 10 -8 23 -5 38 10 152
20 147 14 -4 -4 -49 -14 -100 -23 -101 -17 -117 -26 -150 -82 l-21 -35 43 7
c119 20 223 35 225 32 2 -2 1 -10 -2 -18 -11 -28 -55 -38 -164 -38 -88 0 -110
-3 -115 -15 -4 -12 6 -15 60 -15 36 0 63 -3 61 -7 -3 -5 -34 -19 -70 -32 -68
-26 -77 -36 -77 -93 l0 -28 84 0 c64 0 108 7 187 31 57 17 113 33 124 36 29 7
103 28 153 43 49 15 57 35 10 25 -25 -5 -29 -4 -18 4 8 6 23 11 33 11 10 0 17
8 17 19 0 17 -7 19 -57 16 -32 -1 -76 0 -98 3 l-40 5 54 23 c58 26 81 30 81
14 0 -5 7 -10 15 -10 22 0 18 19 -11 57 -18 24 -31 32 -47 29 -57 -12 -137
-17 -137 -8 0 5 27 15 60 21 65 13 67 21 17 48 -48 25 -96 30 -164 17z m47
-94 c0 -5 -12 -10 -27 -9 l-28 1 25 8 c14 4 26 8 28 9 1 1 2 -3 2 -9z m60 -45
c-14 -7 -27 -11 -30 -9 -6 7 22 24 40 23 9 0 5 -6 -10 -14z m15 -115 c-68 -25
-84 -25 -78 0 5 17 13 20 67 19 l61 -1 -50 -18z m-115 2 c0 -23 -30 -41 -80
-47 l-55 -6 60 30 c65 32 75 35 75 23z"/>
<path d="M7315 7793 c-9 -20 -14 -42 -11 -49 3 -7 -2 -15 -10 -18 -8 -3 -14
-13 -14 -22 0 -12 7 -15 29 -12 38 6 30 -8 -9 -17 -29 -6 -33 -12 -45 -72 -5
-24 -3 -33 7 -33 18 0 174 18 216 25 41 7 41 -4 -2 -33 -30 -21 -44 -23 -133
-21 -84 2 -98 -1 -101 -15 -3 -14 9 -16 89 -16 l93 0 -20 -21 c-15 -15 -42
-23 -95 -30 -40 -5 -77 -13 -82 -18 -16 -16 1 -41 30 -43 46 -2 51 -3 59 -11
11 -11 36 -8 53 6 9 8 105 25 231 41 308 39 280 31 280 78 l0 40 -180 -8
c-104 -4 -180 -3 -180 2 0 5 17 21 38 36 29 20 56 28 110 33 40 4 72 10 72 14
0 3 -23 16 -50 29 -45 20 -52 21 -73 8 -12 -8 -76 -21 -142 -30 -66 -9 -133
-19 -150 -21 -67 -11 3 13 134 45 78 19 141 37 141 40 0 6 -251 131 -262 130
-4 0 -15 -17 -23 -37z m333 -293 c-26 -5 -82 -11 -125 -15 -71 -7 -77 -6 -64
9 11 13 33 16 125 15 90 -1 102 -3 64 -9z"/>
<path d="M7700 7365 c-58 -8 -116 -14 -129 -14 -38 -1 -18 -12 41 -21 98 -17
153 -28 181 -39 32 -12 47 -7 47 15 0 8 -10 14 -22 15 -21 1 -20 2 5 11 16 6
27 17 27 29 0 22 -2 22 -150 4z"/>
<path d="M8965 7343 c-11 -3 -24 -9 -30 -15 -11 -11 40 -1 65 13 13 7 13 8 0
8 -8 -1 -24 -3 -35 -6z"/>
<path d="M8994 7301 c-88 -15 -166 -31 -172 -35 -7 -4 -12 -14 -12 -23 0 -11
7 -14 23 -10 12 3 85 15 162 27 270 40 277 42 267 52 -20 20 -108 16 -268 -11z"/>
<path d="M9050 7220 c-124 -33 -228 -60 -232 -60 -15 0 -8 -40 7 -40 8 0 70 9
137 20 68 11 188 29 266 39 79 11 147 22 150 25 3 4 -1 13 -10 22 -13 13 -24
13 -82 3 -85 -14 -97 -6 -16 11 61 13 77 33 29 37 -13 1 -125 -25 -249 -57z"/>
<path d="M10305 7200 c-23 -14 -95 -28 -294 -55 -145 -19 -266 -35 -268 -35
-7 0 -2 -29 6 -35 5 -3 90 6 188 20 98 14 182 25 188 24 5 0 -26 -14 -70 -30
-72 -28 -139 -45 -247 -63 -44 -8 -47 -21 -23 -95 8 -25 17 -68 21 -95 l6 -49
99 7 c67 4 98 3 94 -4 -10 -16 53 -11 135 10 41 11 130 25 198 31 119 12 132
17 114 47 -6 9 -21 10 -62 2 -72 -14 -394 -12 -360 1 14 6 93 15 175 20 206
14 237 18 232 32 -2 6 -14 14 -28 17 l-24 6 24 6 c24 7 25 34 0 32 -8 -1 -81
-15 -164 -32 -132 -26 -431 -55 -415 -39 3 3 46 21 96 40 50 19 110 45 134 57
24 12 104 32 184 47 77 13 143 27 145 29 3 2 0 9 -7 16 -8 8 -29 8 -83 -1 -39
-6 -74 -10 -76 -7 -6 6 104 46 128 46 16 0 19 4 14 18 -4 9 -10 25 -12 35 -7
21 -11 21 -48 -3z"/>
<path d="M9172 7065 c-199 -41 -203 -42 -178 -58 23 -16 40 -16 228 -1 112 9
207 19 211 23 12 12 -3 41 -22 42 -10 0 -11 2 -3 6 21 8 14 33 -10 32 -13 -1
-114 -21 -226 -44z"/>
<path d="M7209 6993 l-67 -15 -6 -46 c-3 -25 -4 -47 -2 -50 3 -2 47 3 99 12
106 18 147 20 147 7 0 -20 -31 -29 -142 -42 l-118 -13 0 -144 c0 -132 1 -143
18 -138 233 67 321 84 331 67 10 -15 41 -3 35 13 -5 13 118 38 254 52 43 5 66
12 69 22 5 13 -9 176 -19 224 -6 26 -14 30 -60 32 -24 2 -95 7 -158 14 -211
20 -310 21 -381 5z m491 -41 c0 -21 -54 -32 -118 -25 l-67 7 80 12 c107 15
105 15 105 6z m-220 -56 c0 -2 -16 -6 -35 -8 -19 -2 -35 0 -35 4 0 4 16 8 35
8 19 0 35 -2 35 -4z m253 -23 c-13 -2 -33 -2 -45 0 -13 2 -3 4 22 4 25 0 35
-2 23 -4z m-298 -41 c-21 -18 -124 -41 -212 -48 -81 -6 -93 -4 -93 9 0 11 13
18 43 22 23 3 67 9 97 14 74 12 176 13 165 3z m325 -2 c-8 -5 -26 -9 -40 -9
-23 1 -23 2 5 9 43 11 52 11 35 0z"/>
<path d="M9370 6954 c-41 -7 -106 -18 -143 -25 -67 -11 -68 -11 -45 -27 13
-10 54 -19 98 -23 71 -6 72 -6 20 -8 l-55 -2 38 -23 c21 -13 48 -22 60 -20 12
2 16 1 8 -2 -9 -4 4 -18 40 -40 76 -47 82 -46 75 24 -3 31 -5 69 -6 84 0 21
-6 28 -27 31 l-28 4 28 2 c16 0 27 7 27 15 0 23 -9 24 -90 10z"/>
<path d="M8475 6929 c-22 -4 -82 -8 -134 -8 l-94 -1 -39 -40 c-37 -39 -68 -97
-68 -126 0 -11 29 -14 150 -14 125 0 150 -2 150 -15 0 -17 -55 -34 -203 -65
-56 -12 -103 -23 -105 -25 -9 -8 12 -56 23 -52 6 3 71 11 142 18 l131 13 59
59 58 59 -37 -7 c-25 -5 -38 -4 -38 4 0 6 17 11 38 11 47 0 85 24 62 40 -12 8
-9 10 12 10 34 0 74 46 57 66 -6 8 -18 14 -26 14 -8 0 -12 4 -8 9 6 11 -63 62
-80 60 -5 -1 -28 -5 -50 -10z m35 -99 c-8 -5 -55 -9 -105 -9 -63 1 -81 4 -60
9 46 12 183 12 165 0z"/>
<path d="M8142 6533 c3 -15 17 -19 73 -23 l70 -5 -57 -15 c-44 -11 -55 -18
-49 -29 17 -26 90 -3 140 45 l46 44 -113 0 c-103 0 -113 -2 -110 -17z"/>
<path d="M8984 6523 l-29 -27 30 -6 30 -6 -42 -14 c-33 -10 -43 -18 -43 -34
l0 -21 185 14 c174 14 183 16 153 29 -24 10 -57 13 -118 9 -77 -5 -82 -4 -55
9 17 7 36 13 43 14 28 1 9 16 -46 38 -72 28 -73 28 -108 -5z"/>
<path d="M9827 6484 c-4 -4 -7 -22 -7 -39 l0 -32 85 20 c47 12 85 24 85 28 0
4 -26 10 -57 14 -32 3 -67 9 -78 11 -11 3 -24 2 -28 -2z"/>
<path d="M10060 6410 c11 -21 20 -42 20 -46 0 -3 -57 -5 -127 -3 l-128 4 -3
-34 -3 -34 68 7 c37 4 100 9 139 13 l71 6 5 -34 c3 -19 4 -37 1 -41 -2 -5 -65
-8 -139 -8 l-134 0 0 -35 0 -35 73 -1 c81 -1 59 -16 -26 -18 -47 -1 -48 -2
-45 -28 3 -30 -8 -26 242 -110 l109 -37 125 13 c69 7 139 15 156 18 l31 6 -34
-39 c-18 -21 -48 -44 -65 -51 l-31 -11 28 -11 c40 -16 187 31 187 59 0 18 -2
18 -41 5 -23 -8 -43 -15 -46 -15 -2 0 8 16 23 35 14 19 35 35 45 35 20 0 23
29 12 123 -4 43 -7 47 -31 48 -15 0 -36 4 -47 9 -15 6 -8 9 28 9 44 1 48 3 45
24 -2 13 -9 21 -18 19 -39 -9 -184 -14 -177 -6 5 5 47 20 95 34 79 24 87 28
87 51 0 23 -4 24 -75 29 -61 5 -67 7 -35 10 l40 5 -48 12 c-38 8 -74 8 -160
-3 -158 -20 -153 -20 -177 26 -14 27 -27 40 -40 40 -20 0 -20 0 0 -40z m365
-93 c35 -2 26 -6 -75 -36 -63 -19 -135 -35 -160 -35 -44 -1 -44 0 -51 36 -3
21 -5 39 -3 40 2 3 219 -1 289 -5z m-166 -147 c-25 -14 -119 -24 -119 -12 0
14 24 19 85 21 34 0 45 -2 34 -9z m-149 -10 c0 -5 -12 -10 -27 -10 -22 0 -25
2 -13 10 20 13 40 13 40 0z m-115 -50 c-11 -5 -36 -8 -55 -8 l-35 1 35 7 c19
4 44 8 55 8 l20 1 -20 -9z m88 -47 c-13 -2 -35 -2 -50 0 -16 2 -5 4 22 4 28 0
40 -2 28 -4z m404 0 c-20 -2 -52 -2 -70 0 -17 2 0 4 38 4 39 0 53 -2 32 -4z"/>
<path d="M8200 6431 c0 -16 28 -20 40 -5 10 12 8 14 -14 14 -14 0 -26 -4 -26
-9z"/>
<path d="M9210 6410 c-58 -15 -149 -31 -202 -35 -74 -5 -98 -10 -98 -21 0 -9
10 -14 27 -14 26 0 26 -1 7 -14 -13 -10 -16 -18 -9 -25 7 -7 40 -1 105 19 52
16 140 39 195 50 138 28 162 35 147 44 -37 23 -71 22 -172 -4z"/>
<path d="M9225 6324 c-115 -24 -223 -44 -240 -44 l-30 0 40 -32 c33 -28 50
-34 105 -38 l65 -5 -44 -13 c-38 -12 -41 -15 -26 -26 15 -11 36 -8 128 16 73
19 134 28 184 28 l76 0 -7 65 c-8 76 -14 95 -30 94 -6 -1 -105 -21 -221 -45z
m98 -81 c-7 -2 -21 -2 -30 0 -10 3 -4 5 12 5 17 0 24 -2 18 -5z"/>
<path d="M4910 6238 c-266 -26 -340 -37 -340 -50 0 -10 25 -8 125 7 43 7 6
-10 -67 -30 -62 -18 -63 -20 -47 -77 10 -37 11 -38 57 -39 51 -1 48 -4 -10
-14 -32 -5 -38 -10 -38 -30 0 -20 6 -24 38 -27 l37 -4 -35 -10 c-19 -6 -35
-16 -34 -22 1 -7 2 -37 3 -67 1 -45 4 -55 19 -55 13 0 14 -2 4 -9 -23 -14 25
-21 149 -20 63 1 145 -4 182 -11 79 -14 102 -7 33 11 -25 6 -46 14 -46 18 0
12 106 61 158 72 48 10 53 13 48 33 -3 11 -9 47 -13 79 -7 68 0 66 -159 37
-97 -18 -235 -27 -223 -16 2 3 76 14 164 26 217 28 207 25 203 58 -2 20 -8 27
-23 25 -11 -1 -76 -4 -145 -7 l-125 -6 100 25 c191 49 175 42 175 80 l0 35
-52 -1 c-29 -1 -91 -6 -138 -11z m139 -32 c-8 -8 -270 -68 -275 -63 -8 7 207
66 245 66 19 1 32 -1 30 -3z m-322 -82 c-3 -3 -12 -4 -19 -1 -8 3 -5 6 6 6 11
1 17 -2 13 -5z m308 -213 c-9 -16 -116 -34 -128 -22 -7 7 -2 11 14 15 13 3 33
7 44 9 38 8 76 7 70 -2z m-350 -81 c-3 -5 -16 -10 -28 -9 -20 1 -20 2 3 9 14
4 26 8 28 9 2 1 0 -3 -3 -9z"/>
<path d="M7755 6225 c-30 -13 -29 -13 28 -14 44 -1 57 2 57 14 0 19 -44 19
-85 0z"/>
<path d="M7639 6145 c-188 -38 -260 -59 -414 -125 -22 -9 -48 -20 -57 -23 -17
-6 -26 -37 -10 -37 6 0 295 69 357 86 17 4 17 3 4 -5 -39 -25 -192 -71 -268
-80 -46 -6 -85 -12 -87 -14 -1 -1 0 -14 3 -28 5 -27 5 -27 86 -23 l82 3 -79
-14 c-43 -8 -80 -16 -82 -18 -3 -2 1 -16 7 -30 11 -23 16 -26 53 -22 69 8 346
35 354 35 4 -1 -5 -7 -20 -16 -15 -8 -63 -19 -105 -24 -111 -14 -263 -52 -263
-66 0 -28 30 -37 110 -31 49 4 80 3 80 -3 0 -6 -10 -10 -22 -10 -55 0 -148
-23 -148 -36 0 -17 23 -17 107 -4 57 9 64 9 83 -10 12 -12 34 -20 58 -21 33
-1 34 -2 12 -9 -14 -4 -73 -8 -133 -9 l-107 -1 6 -27 c15 -64 15 -64 111 -37
49 13 99 24 111 24 13 0 61 19 105 43 l82 42 -107 5 c-59 3 -110 8 -113 12 -7
7 119 26 225 34 65 5 100 13 148 36 35 17 61 32 59 34 -2 2 -79 -3 -171 -12
-93 -8 -171 -12 -174 -9 -19 18 35 29 205 40 186 11 213 16 213 37 0 6 -47 8
-142 3 l-143 -6 43 20 c24 11 73 25 110 31 119 19 112 16 100 52 -6 18 -12 38
-14 44 -1 8 -21 7 -66 -2 -58 -12 -311 -35 -368 -33 -14 1 51 11 143 24 230
32 277 43 277 62 0 12 -8 14 -37 10 -21 -3 -100 -15 -177 -27 -76 -11 -143
-19 -149 -17 -20 6 198 85 266 95 38 6 71 12 73 14 2 3 0 22 -4 44 l-7 40
-206 -41z m84 -242 c-7 -2 -21 -2 -30 0 -10 3 -4 5 12 5 17 0 24 -2 18 -5z
m-60 -10 c-7 -2 -19 -2 -25 0 -7 3 -2 5 12 5 14 0 19 -2 13 -5z m-195 -129
c-8 -7 -124 -18 -117 -11 6 7 112 25 118 20 2 -2 2 -6 -1 -9z"/>
<path d="M4190 6163 c-14 -2 -75 -18 -137 -35 -80 -21 -123 -28 -148 -24 -20
4 -33 11 -29 17 4 6 -14 9 -48 7 -62 -4 -67 -19 -9 -31 51 -10 52 -22 4 -34
-35 -8 -38 -12 -41 -45 l-3 -37 53 4 53 4 -52 -10 c-52 -10 -53 -11 -53 -45 0
-40 -12 -38 153 -19 71 8 133 12 139 9 5 -3 50 2 100 11 l91 18 -7 86 c-4 47
-8 95 -9 106 -2 21 -16 25 -57 18z m-3 -98 c-26 -19 -92 -29 -113 -17 -15 8
-10 12 27 20 24 5 58 10 74 11 28 0 29 -1 12 -14z"/>
<path d="M9390 6149 c-47 -9 -120 -20 -162 -24 l-77 -7 27 -23 c27 -22 35 -23
163 -22 l134 2 6 43 c3 24 3 44 0 46 -3 2 -44 -5 -91 -15z"/>
<path d="M8623 6091 c-56 -9 -104 -18 -106 -21 -2 -3 -7 -25 -10 -49 l-5 -43
81 6 c45 4 109 9 142 12 39 3 53 1 40 -4 -11 -5 -67 -12 -125 -16 -58 -4 -115
-10 -127 -13 -36 -8 -28 -33 10 -34 l32 -1 -31 -10 c-28 -9 -32 -16 -38 -55
-3 -25 -6 -61 -6 -79 0 -40 -3 -40 140 -19 56 9 107 14 112 13 8 -3 -206 -97
-254 -112 -10 -3 -18 -15 -18 -26 0 -17 4 -20 21 -15 25 8 172 23 178 19 6 -6
-105 -53 -155 -66 -40 -11 -44 -15 -44 -43 1 -36 20 -65 45 -65 13 0 15 -3 6
-13 -12 -15 -5 -27 16 -27 22 0 135 57 168 85 36 30 35 30 -38 5 -51 -18 -139
-28 -125 -15 3 3 52 19 109 35 101 29 150 56 121 67 -10 4 -7 9 9 17 12 6 29
26 36 45 14 33 14 33 -9 27 -13 -3 -59 -8 -103 -11 -89 -6 -90 -7 50 54 l90
40 3 47 c2 26 -1 51 -6 56 -5 5 -63 10 -129 11 -67 1 -120 3 -118 5 8 8 183
52 207 52 32 0 34 9 13 50 -13 25 -22 30 -53 31 -30 2 -32 3 -9 6 29 5 33 14
17 42 -14 28 -26 29 -137 12z m96 -235 c-2 -2 -44 -6 -94 -9 -55 -4 -80 -3
-65 2 24 9 168 15 159 7z"/>
<path d="M2960 6048 c-52 -5 -98 -15 -102 -21 -12 -20 20 -18 162 7 144 26
119 32 -60 14z"/>
<path d="M9247 6045 c28 -20 214 -18 221 3 3 9 -25 12 -119 12 -114 0 -122 -1
-102 -15z"/>
<path d="M3076 5997 l-218 -52 -2 -53 c0 -31 3 -52 10 -52 6 0 69 15 140 34
71 18 176 39 232 46 98 13 102 14 102 38 0 22 -3 24 -37 19 l-38 -5 38 11 c31
9 37 15 37 39 0 37 0 37 -264 -25z"/>
<path d="M9393 5992 c-29 -8 -53 -18 -53 -23 0 -30 112 -8 118 24 4 20 4 20
-65 -1z"/>
<path d="M9400 5921 c0 -16 28 -20 34 -5 4 9 -1 14 -14 14 -11 0 -20 -4 -20
-9z"/>
<path d="M3215 5878 c-89 -29 -142 -41 -205 -44 -119 -7 -150 -13 -150 -29 0
-7 10 -16 23 -18 l22 -4 -22 -2 c-17 -1 -23 -7 -23 -24 l0 -24 83 24 c71 21
242 58 360 78 35 6 37 8 37 45 0 22 -1 40 -2 39 -2 -1 -57 -19 -123 -41z"/>
<path d="M4180 5888 c-89 -10 -346 -47 -377 -55 -19 -4 -23 -12 -23 -44 0 -37
1 -39 33 -39 17 1 127 15 242 33 l210 33 3 33 c2 19 0 37 -5 40 -4 4 -42 4
-83 -1z"/>
<path d="M10529 5854 c37 -17 62 -15 69 4 3 9 -11 12 -50 11 l-53 -1 34 -14z"/>
<path d="M3300 5762 c-54 -4 -403 -52 -422 -58 -13 -4 -18 -16 -18 -45 0 -36
2 -39 23 -35 12 3 60 8 107 11 47 4 141 13 210 21 69 8 131 14 137 14 14 0 16
40 5 75 -6 16 -14 19 -42 17z"/>
<path d="M9951 5616 c-17 -18 -37 -25 -86 -31 l-64 -6 -11 -51 c-8 -38 -8 -53
1 -59 8 -5 8 -8 0 -10 -10 -4 -45 -118 -38 -125 5 -6 311 90 402 126 85 33
175 50 175 33 0 -17 -19 -27 -125 -71 -71 -29 -148 -49 -265 -72 -91 -17 -172
-33 -182 -36 -14 -4 -33 -33 -26 -39 2 -2 43 6 92 16 49 11 90 18 93 16 2 -2
-18 -12 -44 -22 -27 -10 -64 -25 -83 -33 l-35 -14 36 -18 c33 -17 42 -18 135
-4 54 7 106 13 114 13 24 -1 -103 -59 -130 -59 l-25 -1 25 -14 c15 -9 55 -15
100 -15 l75 -1 -29 -23 c-15 -13 -24 -26 -20 -29 5 -3 29 -16 54 -29 25 -14
87 -48 139 -76 55 -31 107 -52 125 -52 21 0 27 -3 17 -9 -10 -6 -2 -15 30 -34
32 -19 47 -23 56 -15 20 17 16 37 -7 31 -31 -8 -24 7 9 18 22 8 35 24 54 67
14 31 29 70 33 86 7 28 6 29 -27 23 -51 -9 -225 -21 -219 -14 3 3 46 32 95 64
112 74 205 173 205 217 0 19 -3 26 -8 19 -7 -11 -229 -63 -265 -63 -6 0 6 18
27 39 35 36 45 40 123 52 92 14 100 32 14 33 -35 1 -47 4 -40 12 9 11 -5 16
-266 111 -38 14 -80 30 -92 36 -12 5 -40 7 -63 4 -32 -4 -39 -3 -31 7 6 7 8
16 4 19 -12 13 -30 7 -52 -17z m169 -130 c0 -4 -85 -33 -180 -64 -8 -2 -4 4 9
14 32 23 171 64 171 50z m271 -40 c-14 -17 -51 -28 -51 -15 0 5 10 14 23 19
32 13 41 12 28 -4z m-585 -51 c-11 -8 -24 -15 -30 -15 -5 0 -1 7 10 15 10 8
24 14 29 14 6 0 1 -6 -9 -14z m514 -18 c0 -2 -19 -21 -42 -42 l-42 -40 33 43
c27 34 51 53 51 39z m-80 -15 c0 -11 -49 -57 -75 -70 -23 -12 -238 -45 -262
-40 -21 4 186 88 256 104 71 15 81 16 81 6z m260 -87 c-64 -65 -166 -130 -183
-117 -7 6 -41 12 -75 13 -34 1 -62 5 -62 9 0 3 19 25 43 48 40 39 50 43 157
66 63 13 126 24 140 25 23 1 21 -2 -20 -44z m-347 -65 c-34 -32 -50 -40 -79
-40 -44 0 -42 3 33 46 79 45 97 42 46 -6z m37 -97 c-30 -14 -71 -27 -89 -31
l-35 -5 35 31 c30 27 41 31 89 31 l55 -1 -55 -25z m178 -100 c-32 -2 -86 -2
-120 0 -35 2 -9 3 57 3 66 0 94 -1 63 -3z"/>
<path d="M2865 5500 c-7 -12 2 -12 30 0 19 8 19 9 -2 9 -12 1 -25 -3 -28 -9z"/>
<path d="M7280 5471 c0 -18 17 -20 36 -6 18 14 18 14 -8 15 -16 0 -28 -4 -28
-9z"/>
<path d="M5162 5450 c-32 -14 -103 -26 -258 -42 -194 -20 -214 -23 -214 -40 0
-16 6 -18 48 -13 26 3 85 10 132 15 46 6 98 10 115 10 l30 -1 -38 -20 c-25
-13 -65 -21 -120 -25 -45 -3 -101 -7 -124 -10 -42 -5 -43 -6 -43 -41 l0 -35
60 4 c53 4 60 2 60 -14 0 -15 -9 -18 -60 -18 -47 0 -60 -3 -60 -15 0 -12 15
-15 78 -15 75 -1 76 -1 56 -18 -12 -10 -47 -24 -78 -31 -61 -14 -69 -31 -20
-42 16 -4 54 -14 84 -23 98 -29 124 -37 165 -47 22 -5 49 -14 60 -19 39 -18
178 -51 185 -43 5 4 11 53 15 107 l7 99 -38 -6 c-94 -15 -105 -15 -41 1 63 15
67 18 67 44 l0 28 -181 0 c-117 0 -178 3 -174 10 4 6 75 10 181 10 148 0 174
2 174 15 0 12 -21 15 -122 16 -68 0 -118 3 -112 5 6 3 59 13 118 23 58 10 109
21 112 24 4 3 4 12 1 20 -4 12 -18 12 -89 2 -45 -7 -85 -11 -87 -9 -10 9 89
44 126 44 47 0 58 10 49 46 -8 29 -9 29 -64 4z m-158 -255 c-112 -27 -123 -28
-117 -5 5 18 13 20 87 19 l81 -1 -51 -13z m79 -172 c-7 -2 -19 -2 -25 0 -7 3
-2 5 12 5 14 0 19 -2 13 -5z"/>
<path d="M4185 5444 c-27 -8 -72 -13 -100 -13 -27 1 -103 -4 -167 -11 -122
-14 -134 -20 -109 -59 7 -11 19 -11 73 3 35 9 71 16 79 16 26 -1 -12 -16 -73
-29 -40 -9 -58 -17 -58 -28 0 -22 65 -11 220 38 73 24 138 39 159 37 31 -3 17
-10 -109 -60 -80 -32 -169 -62 -197 -69 -45 -9 -51 -13 -44 -27 5 -9 18 -39
30 -65 16 -35 26 -47 39 -43 78 21 222 43 345 51 93 7 95 9 77 62 -11 29 -13
30 -63 26 -29 -3 -99 -11 -157 -18 -57 -8 -106 -12 -108 -10 -5 4 120 31 223
48 77 12 80 14 83 41 3 28 2 29 -30 23 -92 -18 -93 -18 -40 7 50 24 53 27 50
58 -3 30 -6 33 -38 35 -19 1 -57 -5 -85 -13z"/>
<path d="M3383 5310 c-13 -5 -23 -11 -23 -14 0 -5 72 13 79 20 8 7 -34 3 -56
-6z"/>
<path d="M8085 5308 c-19 -11 -19 -11 0 -18 14 -5 4 -10 -35 -15 -63 -8 -181
-58 -122 -52 17 2 32 2 32 1 0 -10 -122 -55 -173 -64 -55 -10 -132 -40 -261
-101 -22 -11 -45 -19 -52 -19 -6 0 -22 -8 -35 -19 -18 -14 -21 -22 -12 -32 6
-8 14 -25 18 -39 4 -14 19 -49 32 -78 l24 -54 52 7 52 7 -43 -31 -42 -31 48
-78 c54 -87 57 -89 178 -77 49 4 83 14 110 31 l39 24 -75 -5 c-99 -8 -73 9 37
24 78 10 184 50 138 52 -11 0 0 8 25 16 37 13 173 93 256 151 17 12 17 12 -6
7 -51 -11 -207 -27 -231 -23 -24 3 -23 3 10 27 49 36 142 52 220 40 35 -5 66
-8 68 -5 3 3 -10 24 -29 48 -19 24 -42 56 -52 72 -13 20 -21 25 -29 17 -6 -6
-18 -11 -26 -11 -12 1 -11 4 4 12 11 6 21 12 23 13 2 2 -11 31 -28 64 l-31 62
-37 -7 c-20 -3 -52 -10 -71 -15 -19 -4 -37 -6 -39 -4 -7 7 86 45 109 45 12 0
19 7 19 19 0 49 -24 63 -65 39z m-42 -145 c-7 -2 -19 -2 -25 0 -7 3 -2 5 12 5
14 0 19 -2 13 -5z m-68 -13 c-16 -4 -41 -8 -55 -8 -22 0 -22 1 5 8 17 4 41 8
55 8 22 0 22 -1 -5 -8z m141 -62 c-29 -15 -63 -21 -125 -24 -78 -3 -82 -2 -41
7 187 44 222 47 166 17z m-287 -112 c-6 -7 -321 -48 -326 -43 -2 3 11 14 29
26 29 18 48 21 167 21 74 0 132 -2 130 -4z m149 -63 c-17 -17 -89 -31 -162
-32 -22 -1 -36 2 -32 6 6 6 116 29 201 42 5 0 2 -7 -7 -16z m99 -60 c-4 -4
-41 -12 -82 -18 -62 -10 -73 -10 -64 1 6 7 34 15 62 17 29 2 61 4 71 5 11 1
16 -1 13 -5z m-217 -23 c-14 -11 -35 -20 -46 -20 -12 0 -66 -9 -119 -20 -54
-11 -100 -19 -102 -17 -6 6 78 59 106 67 14 5 62 9 106 9 l80 1 -25 -20z
m-106 -70 c-11 -11 -123 -34 -131 -27 -2 3 22 10 54 17 32 6 63 13 68 15 18 6
19 5 9 -5z"/>
<path d="M3380 5284 c-25 -8 -74 -21 -110 -29 -36 -8 -135 -43 -220 -77 l-155
-63 -3 -47 c-2 -38 0 -47 15 -51 17 -4 17 -5 1 -6 -14 -1 -18 -10 -18 -46 0
-32 4 -45 14 -45 8 0 63 12 123 26 81 19 112 23 125 15 19 -12 430 -16 441 -5
3 3 3 12 0 20 -4 11 -40 14 -182 15 l-176 1 90 24 c50 13 122 28 162 32 l72 7
-36 70 c-19 39 -36 71 -37 72 0 0 -35 -5 -76 -13 -108 -21 -118 -12 -22 20 45
15 82 32 82 37 0 13 -31 59 -39 58 -3 -1 -26 -7 -51 -15z m-154 -110 c-46 -24
-212 -65 -259 -63 -12 0 39 17 113 38 74 21 142 40 150 43 42 17 39 4 -4 -18z
m139 -45 c-33 -11 -78 -19 -100 -17 -35 3 -31 5 40 19 108 22 133 21 60 -2z
m-308 -95 c-3 -3 -12 -4 -19 -1 -8 3 -5 6 6 6 11 1 17 -2 13 -5z"/>
<path d="M3936 5065 c4 -10 22 -15 58 -16 l51 -1 -42 -11 c-49 -11 -59 -37
-14 -37 50 0 193 30 261 55 l65 24 -192 0 c-167 1 -192 -1 -187 -14z"/>
<path d="M3240 4900 c-298 -4 -345 -7 -345 -20 0 -13 29 -16 180 -20 99 -3
173 -7 165 -8 -8 -1 -82 -9 -165 -18 -82 -9 -153 -20 -157 -23 -8 -7 37 -137
52 -154 4 -5 51 -3 104 3 53 7 99 10 102 7 3 -3 -30 -13 -73 -22 -122 -27
-118 -24 -88 -68 24 -35 29 -37 63 -32 35 5 35 4 10 -6 -30 -11 -36 -26 -15
-35 13 -4 218 64 262 88 11 6 47 30 80 55 113 83 228 163 237 163 14 0 9 28
-13 64 -12 21 -28 35 -37 34 -10 -2 -172 -5 -362 -8z m77 -256 c-3 -3 -12 -4
-19 -1 -8 3 -5 6 6 6 11 1 17 -2 13 -5z m-38 -8 c-7 -7 -202 -56 -219 -55 -8
0 32 14 90 29 102 27 138 34 129 26z"/>
<path d="M4330 4829 c-69 -22 -138 -47 -153 -55 -16 -9 -31 -13 -34 -10 -9 9
-43 -14 -43 -29 0 -20 10 -19 156 15 70 17 132 29 137 27 5 -1 -52 -22 -127
-46 -125 -40 -136 -46 -121 -60 14 -14 27 -13 148 18 165 41 367 102 367 111
0 3 -28 14 -62 24 -35 10 -80 24 -101 32 -20 8 -38 14 -40 13 -1 0 -58 -19
-127 -40z"/>
<path d="M4685 4734 c-134 -26 -495 -119 -495 -127 0 -13 43 -67 54 -67 23 -1
706 164 701 169 -13 12 -123 41 -155 40 -19 -1 -66 -7 -105 -15z"/>
<path d="M5050 4650 c-14 -5 -189 -37 -390 -70 -201 -33 -373 -64 -382 -68
-11 -5 -15 -12 -9 -20 6 -11 41 -8 182 17 95 16 175 28 177 26 6 -5 -150 -52
-240 -72 -43 -10 -78 -21 -78 -25 0 -3 12 -20 26 -37 l26 -31 121 -1 c130 -1
127 -6 -22 -31 l-73 -13 43 -54 c40 -50 44 -53 78 -48 20 4 77 9 126 13 l90 7
-24 -27 c-23 -24 -30 -26 -113 -26 -48 0 -88 -3 -88 -7 0 -4 10 -22 23 -40 18
-26 29 -33 57 -33 31 -1 33 -2 15 -12 -11 -6 -21 -12 -23 -14 -2 -1 4 -14 13
-28 17 -25 18 -25 34 -7 12 15 45 23 141 36 111 15 180 37 180 56 0 3 -53 -2
-117 -12 -133 -21 -172 -23 -158 -10 10 8 229 41 276 41 15 0 36 11 50 26 l24
27 -60 -6 c-68 -7 -63 -3 26 21 52 14 66 23 82 50 l19 33 -83 -6 c-46 -4 -95
-9 -109 -11 -20 -4 -22 -3 -13 7 7 7 59 17 116 22 l105 10 16 34 c20 43 20 43
-6 43 -20 0 -19 2 10 20 17 11 32 27 32 35 0 20 0 20 -80 -20 -67 -34 -74 -35
-177 -35 l-108 1 80 41 c44 23 127 61 185 85 152 64 174 90 95 111 -52 14 -60
14 -95 2z m-250 -104 c0 -15 -89 -51 -176 -72 -151 -35 -147 -29 16 26 151 50
160 53 160 46z m-10 -91 c-95 -49 -131 -58 -85 -20 29 24 125 63 155 64 8 0
-23 -20 -70 -44z m-140 -25 c-9 -17 -20 -20 -78 -19 l-67 1 75 18 c41 9 76 18
78 19 1 0 -2 -8 -8 -19z m130 -140 c-8 -5 -26 -9 -40 -9 l-25 1 25 8 c14 4 32
8 40 9 13 1 13 0 0 -9z m165 -35 c-56 -21 -196 -52 -193 -43 9 26 73 48 138
47 36 0 61 -2 55 -4z"/>
<path d="M3763 4575 c-40 -13 -107 -55 -99 -62 2 -3 33 5 69 16 43 13 79 18
103 14 l36 -6 -17 26 c-19 30 -30 31 -92 12z"/>
<path d="M7678 4563 c-10 -2 -18 -8 -18 -13 0 -18 17 -18 46 1 24 15 25 19 9
18 -11 -1 -28 -3 -37 -6z"/>
<path d="M3148 4493 c-50 -15 -60 -26 -31 -37 9 -4 32 4 55 19 58 38 53 42
-24 18z"/>
<path d="M3899 4466 c-2 -3 -78 -14 -169 -26 -151 -19 -230 -40 -230 -62 0 -4
110 -8 245 -8 241 0 245 0 233 20 -9 13 -26 20 -58 23 -45 3 -45 3 -12 11 35
9 39 15 20 34 -13 13 -22 15 -29 8z"/>
<path d="M3645 4299 c-165 -27 -306 -52 -314 -57 -8 -5 -17 -14 -19 -21 -3
-10 6 -12 39 -7 40 5 40 3 -1 -11 -13 -4 -12 -6 3 -17 14 -11 41 -8 158 15 78
16 194 33 258 39 64 6 132 12 151 14 92 11 -26 -17 -255 -59 -137 -26 -252
-49 -254 -51 -3 -2 4 -11 15 -19 13 -10 32 -14 59 -11 38 5 39 4 13 -7 -26
-12 -25 -13 55 -57 45 -24 123 -58 172 -75 l90 -31 190 28 c237 35 236 35 229
53 -4 8 -12 15 -20 15 -7 0 -11 6 -9 13 2 6 -6 25 -19 40 l-23 28 -84 -16
c-93 -17 -411 -57 -416 -51 -5 5 177 41 332 65 71 12 133 25 138 30 10 10 -38
81 -55 81 -5 0 -7 4 -4 8 3 5 -5 20 -17 34 l-22 26 -109 -9 c-152 -14 -163 -7
-23 15 76 12 117 23 114 30 -7 21 -71 15 -372 -35z m295 -145 c-66 -16 -191
-34 -228 -33 -26 1 -25 1 5 10 41 12 208 36 248 37 21 0 13 -4 -25 -14z m243
-121 c-7 -2 -19 -2 -25 0 -7 3 -2 5 12 5 14 0 19 -2 13 -5z"/>
<path d="M4645 4020 c-29 -7 -29 -8 10 -9 22 0 47 4 55 9 12 8 10 9 -10 9 -14
-1 -38 -5 -55 -9z"/>
<path d="M4070 3945 c-102 -14 -149 -25 -137 -30 17 -7 162 -2 277 9 l45 5
-47 -11 c-27 -6 -48 -16 -48 -21 0 -5 10 -6 23 -2 12 5 44 9 70 10 26 2 50 5
53 8 3 3 -2 17 -13 31 -22 30 -20 30 -223 1z"/>
<path d="M7694 2585 c-10 -25 1 -28 60 -14 31 7 55 13 54 14 -2 1 -27 5 -56 9
-43 5 -53 4 -58 -9z"/>
<path d="M8071 2544 c-17 -12 -68 -20 -200 -32 -97 -8 -179 -17 -183 -21 -4
-3 -10 -25 -14 -48 l-7 -43 104 -1 104 -2 -90 -12 c-49 -7 -98 -14 -107 -14
-10 -1 -18 -8 -18 -16 0 -17 39 -19 128 -6 28 4 52 4 52 0 0 -8 -38 -20 -128
-40 -57 -13 -72 -31 -72 -86 0 -23 2 -25 35 -19 19 4 35 3 35 -2 0 -14 -35
-42 -54 -42 -9 0 -21 -12 -26 -26 -14 -37 -12 -47 8 -39 42 16 201 35 367 42
l180 8 3 27 c3 25 2 26 -35 18 -21 -5 -39 -14 -41 -19 -2 -7 -71 -11 -200 -11
l-197 0 32 32 c29 28 42 33 105 39 40 4 135 8 211 8 l137 1 0 31 0 32 -57 -5
-58 -5 40 13 c22 7 48 13 58 13 10 1 17 9 17 20 0 13 -6 18 -17 15 -10 -2 -89
-20 -176 -40 -86 -19 -163 -33 -170 -31 -26 10 68 38 210 63 81 14 151 31 155
37 4 7 8 22 8 35 0 12 0 25 0 30 0 4 -44 9 -97 12 -97 5 -98 5 -68 21 17 9 53
20 80 23 78 11 95 17 95 32 0 8 -8 14 -19 14 -10 0 -38 3 -62 6 -32 4 -50 1
-68 -12z m-101 -74 c-8 -6 -67 -9 -130 -8 -121 1 -115 4 40 16 100 8 114 7 90
-8z m-185 -190 c-3 -5 -18 -10 -33 -9 -24 0 -25 1 -7 9 28 12 47 12 40 0z"/>
<path d="M8545 2500 c-7 -12 19 -12 55 0 22 7 21 8 -12 9 -20 1 -40 -3 -43 -9z"/>
<path d="M8638 2500 c-2 -6 -22 -14 -45 -17 -36 -5 -42 -9 -47 -35 -12 -58 -8
-68 23 -68 24 0 28 -3 24 -19 -3 -12 -15 -21 -32 -23 -32 -4 -36 -33 -3 -32
15 0 22 -5 22 -18 0 -13 -7 -18 -25 -18 -29 0 -35 -26 -7 -33 15 -4 15 -5 -2
-6 -14 -1 -17 -7 -14 -26 3 -14 1 -25 -4 -25 -5 0 -8 -10 -6 -22 3 -21 9 -23
98 -29 52 -4 144 -7 203 -8 60 0 106 -5 103 -10 -7 -11 76 -22 87 -12 5 5 7
24 5 42 l-3 34 -205 5 c-113 3 -198 8 -190 12 8 4 85 12 170 18 213 15 230 18
230 41 0 17 -10 19 -137 21 l-138 3 40 27 c33 23 56 29 135 35 74 6 95 11 95
23 0 12 -12 14 -65 12 l-65 -4 37 26 c20 14 49 26 63 26 28 0 44 25 27 42 -6
6 -77 16 -159 24 -81 7 -162 16 -179 19 -21 5 -33 3 -36 -5z m189 -26 c-3 -3
-12 -4 -19 -1 -8 3 -5 6 6 6 11 1 17 -2 13 -5z m-54 -11 c-7 -2 -19 -2 -25 0
-7 3 -2 5 12 5 14 0 19 -2 13 -5z m92 -63 c-14 -23 -65 -38 -148 -45 -84 -7
-89 -6 -85 11 3 16 17 20 98 26 52 4 102 9 110 12 27 7 31 6 25 -4z m-157
-105 c-34 -23 -98 -35 -98 -17 1 27 29 39 95 41 l40 1 -37 -25z"/>
<path d="M9480 2412 c-24 -3 -26 -7 -27 -60 l-2 -56 32 37 32 37 208 1 c121 0
207 4 207 10 0 5 -28 9 -63 9 -35 0 -88 4 -118 9 -58 10 -228 18 -269 13z"/>
<path d="M9690 2339 c-69 -10 -150 -27 -180 -37 -46 -16 -55 -23 -58 -45 l-3
-27 245 0 c239 0 246 1 246 20 0 19 -7 20 -197 21 -112 0 -189 4 -178 8 24 10
203 38 303 46 52 5 72 11 72 21 0 20 -93 17 -250 -7z"/>
<path d="M9450 2150 l0 -30 118 -1 c132 -1 131 -5 -12 -28 l-101 -17 -3 -32
c-6 -57 6 -62 152 -64 l131 -2 -100 -5 -100 -6 80 -23 c44 -13 91 -27 104 -33
18 -7 28 -6 41 6 12 11 39 15 98 15 75 0 82 2 82 19 0 16 -8 21 -47 24 l-48 3
47 2 47 2 -1 40 c0 22 -5 40 -11 40 -7 0 -7 4 1 12 7 7 12 31 12 54 l0 41 -46
7 c-26 3 -136 6 -245 6 l-199 0 0 -30z m425 -80 c-3 -5 -27 -10 -53 -9 -38 1
-42 2 -22 9 37 12 82 12 75 0z"/>
<path d="M9760 1896 c0 -9 109 -36 144 -36 29 0 36 4 36 20 0 19 -7 20 -90 20
-49 0 -90 -2 -90 -4z"/>
<path d="M7603 1833 c9 -2 23 -2 30 0 6 3 -1 5 -18 5 -16 0 -22 -2 -12 -5z"/>
<path d="M7638 1817 c-55 -8 -68 -14 -68 -28 0 -12 9 -19 28 -22 l27 -4 -27
-2 c-21 -1 -28 -6 -28 -21 0 -19 7 -20 192 -20 l192 0 -55 -50 -54 -49 -142
-1 c-120 0 -143 -2 -143 -15 0 -13 21 -15 125 -15 69 0 125 -4 125 -8 0 -25
-30 -32 -136 -32 l-112 0 -7 -31 c-4 -17 -3 -35 2 -40 4 -4 41 -9 81 -11 l72
-3 -30 -37 c-28 -34 -37 -38 -76 -38 -38 0 -45 -3 -42 -17 2 -11 14 -19 31
-21 23 -3 26 -6 16 -18 -6 -8 -18 -14 -25 -14 -8 0 -14 -5 -14 -11 0 -6 7 -8
16 -5 9 3 22 6 29 6 8 0 22 8 32 19 12 12 39 21 81 25 35 4 76 13 90 19 24 11
20 12 -48 17 l-74 5 33 38 c33 37 34 37 111 37 43 0 92 -3 109 -6 31 -6 31 -7
16 -30 -20 -31 -7 -30 40 2 25 17 46 23 60 20 34 -9 42 12 37 92 l-4 72 -102
0 -101 1 54 49 c51 47 58 50 108 50 46 0 53 3 53 19 0 14 -8 21 -27 24 -26 4
-26 4 5 6 17 0 32 6 32 11 0 22 -59 33 -180 35 -69 1 -150 4 -180 7 -30 3 -85
1 -122 -5z m329 -54 c-20 -2 -52 -2 -70 0 -17 2 0 4 38 4 39 0 53 -2 32 -4z
m121 -185 c-8 -22 -248 -39 -248 -18 0 21 41 29 143 30 83 0 108 -3 105 -12z"/>
<path d="M8490 1786 c0 -14 18 -16 138 -15 144 2 129 9 -51 24 -76 6 -87 5
-87 -9z"/>
<path d="M8475 1724 c-3 -20 -5 -37 -3 -39 2 -1 23 -16 47 -34 l44 -31 -55 0
c-39 0 -57 -4 -61 -14 -4 -9 1 -17 11 -19 16 -4 16 -5 0 -6 -11 -1 -20 -12
-23 -28 -3 -16 -10 -42 -15 -59 -6 -17 -10 -33 -10 -37 0 -4 46 -7 103 -8 102
0 110 -9 22 -25 l-40 -7 39 -10 c29 -7 69 -4 170 13 72 12 139 24 149 27 15 4
87 138 87 163 0 6 -61 10 -155 10 l-155 0 -72 48 -71 47 251 3 c244 2 252 3
252 22 0 19 -7 20 -254 20 l-254 0 -7 -36z"/>
<path d="M9339 1623 c-12 -27 -37 -81 -55 -121 -19 -41 -34 -75 -34 -78 0 -2
24 -4 53 -5 l52 -1 -35 -13 c-19 -7 -46 -14 -59 -14 -20 -1 -50 -25 -51 -41 0
-3 51 -4 113 -3 l112 2 -75 -10 c-132 -17 -163 -24 -168 -36 -5 -17 51 -16
193 1 61 8 111 13 113 11 9 -8 -153 -37 -235 -42 -84 -5 -92 -8 -102 -30 -6
-13 -11 -27 -11 -31 0 -4 107 -6 237 -5 l238 2 -70 -20 c-52 -16 -111 -22
-232 -26 -90 -3 -163 -9 -163 -13 0 -4 14 -13 31 -20 29 -12 218 -9 289 5 22
5 22 4 -5 -9 -20 -10 -64 -15 -138 -16 -71 0 -106 -4 -102 -10 4 -6 63 -51
133 -100 155 -109 193 -136 250 -178 l44 -33 25 23 c29 26 113 138 113 150 0
4 -9 8 -20 8 -10 0 -24 9 -30 20 -10 19 -8 20 33 20 42 0 45 2 62 43 49 120
49 120 -22 92 -43 -17 -83 -24 -155 -27 -53 -1 -94 0 -90 3 11 9 243 82 282
88 25 5 36 12 38 26 2 18 -2 20 -50 16 -46 -3 -51 -1 -39 12 7 9 31 17 54 19
l42 3 0 60 c0 58 -1 60 -27 60 -14 0 -30 3 -34 8 -4 4 7 7 24 7 27 0 32 4 32
25 0 14 -6 25 -13 25 -7 0 -46 14 -87 32 l-75 32 -195 -2 c-216 -1 -220 13 -6
25 l118 6 -73 30 c-41 16 -89 36 -107 44 -18 8 -39 12 -47 9 -7 -2 -16 2 -19
10 -11 28 -36 13 -57 -33z m469 -215 c-4 -10 -57 -13 -214 -15 -185 -1 -205 0
-174 12 48 19 394 21 388 3z m-53 -148 c-4 -6 -52 -9 -118 -8 -105 1 -108 2
-42 8 117 11 167 11 160 0z m-282 -217 c-18 -2 -48 -2 -65 0 -18 2 -4 4 32 4
36 0 50 -2 33 -4z m200 -48 c-19 -8 -48 -11 -73 -8 -59 8 -30 23 45 22 60 0
60 0 28 -14z"/>
<path d="M8805 1405 c-17 -8 -66 -15 -115 -15 -79 -1 -83 -2 -55 -14 56 -25
100 -35 128 -29 20 4 27 2 25 -8 -2 -7 4 -14 13 -16 11 -3 22 11 37 47 23 54
19 58 -33 35z"/>
<path d="M8280 1198 c-34 -11 -34 -11 -10 -18 25 -7 25 -7 -5 -13 -16 -3 -52
-9 -80 -13 -71 -9 -475 -131 -475 -144 0 -3 45 -3 100 -2 68 3 100 0 100 -7 0
-7 -43 -11 -132 -11 -73 0 -143 -3 -155 -6 -49 -13 -19 -24 70 -25 l92 -1 -83
-27 c-67 -21 -82 -29 -80 -44 3 -17 17 -19 203 -20 l200 -1 -192 -3 -193 -3 0
-35 0 -35 93 -1 92 -1 -79 -14 c-43 -7 -80 -14 -82 -16 -6 -7 43 -102 74 -144
30 -41 30 -41 79 -33 80 13 205 11 201 -3 -3 -8 -32 -16 -69 -20 -35 -4 -84
-10 -109 -14 l-45 -6 28 -24 c22 -19 41 -24 85 -26 l57 -1 -50 -6 -50 -6 50
-32 c48 -31 54 -32 125 -27 63 4 72 3 57 -8 -54 -37 -54 -40 -9 -35 23 3 40 1
37 -3 -3 -4 2 -10 9 -13 22 -8 58 25 115 103 l51 70 -62 1 c-68 1 -63 4 22 14
47 5 58 11 78 38 l22 32 -52 6 -53 6 58 1 c48 2 62 6 78 25 10 12 18 26 19 31
0 4 -44 6 -97 2 -121 -7 -82 11 45 20 45 4 82 10 82 14 0 6 28 45 102 142 15
20 28 39 28 41 0 2 -53 2 -117 -1 l-118 -4 29 31 30 31 112 0 c90 0 113 3 118
15 4 13 -9 15 -90 15 -64 0 -93 3 -89 11 4 6 43 9 100 8 51 -1 98 1 104 5 27
17 6 26 -61 28 l-73 2 84 5 c66 5 86 10 95 24 14 23 -6 37 -52 37 -18 0 -31 4
-28 8 6 10 -196 72 -232 72 -12 0 -22 5 -22 10 0 12 -34 11 -80 -2z m100 -58
c-8 -5 -31 -9 -50 -9 l-35 2 35 7 c19 4 42 8 50 9 13 1 13 0 0 -9z m-107 -17
c-7 -2 -21 -2 -30 0 -10 3 -4 5 12 5 17 0 24 -2 18 -5z m-245 -80 c-21 -2 -57
-2 -80 0 -24 2 -7 4 37 4 44 0 63 -2 43 -4z m350 0 c-32 -2 -86 -2 -120 0 -35
2 -9 3 57 3 66 0 94 -1 63 -3z m-28 -43 c0 -6 -59 -10 -157 -9 -95 1 -148 4
-133 9 37 12 290 12 290 0z m-145 -70 c-60 -29 -61 -29 -259 -30 -110 0 -197
2 -194 5 3 3 40 16 84 29 71 22 97 25 254 24 l175 0 -60 -28z m100 -10 c-10
-11 -30 -20 -44 -20 -25 1 -25 2 9 20 45 25 58 25 35 0z m145 -134 c0 -3 -36
-9 -208 -31 -28 -3 -32 -2 -22 10 6 8 26 16 43 18 45 5 187 8 187 3z m-285
-26 c-3 -5 -25 -9 -48 -9 l-42 2 35 7 c52 11 62 11 55 0z m-160 -76 c-38 -7
-81 -13 -95 -12 -40 1 81 26 125 26 32 0 25 -3 -30 -14z m263 -100 c-7 -7
-200 -25 -206 -20 -2 3 -1 9 3 15 4 7 46 11 107 11 56 0 99 -3 96 -6z m-115
-101 c-29 -2 -77 -2 -105 0 -29 2 -6 3 52 3 58 0 81 -1 53 -3z"/>
<path d="M8937 908 c-24 -35 -56 -81 -71 -103 -14 -22 -46 -67 -71 -100 -24
-33 -44 -63 -44 -67 -1 -4 50 -6 112 -3 81 3 101 2 72 -5 -22 -5 -76 -9 -120
-10 -78 0 -80 -1 -102 -32 -12 -18 -21 -33 -19 -35 1 -2 52 6 113 17 80 15
144 20 225 18 l113 -3 -65 -24 c-56 -21 -88 -25 -240 -30 -154 -5 -175 -8
-178 -23 -3 -15 8 -18 85 -21 l88 -3 -100 -2 c-100 -2 -101 -2 -118 -31 -13
-22 -14 -30 -5 -34 7 -3 4 -6 -7 -6 -18 -1 -52 -38 -43 -47 3 -2 89 7 193 21
104 13 191 22 193 21 4 -5 -123 -58 -268 -112 l-115 -43 52 -1 c51 0 197 52
387 139 63 28 77 31 174 31 l105 0 81 54 c45 30 90 64 101 76 19 21 19 22 -1
38 -12 9 -53 43 -93 75 -39 32 -75 56 -79 53 -15 -9 -400 -50 -391 -42 3 3 85
19 184 36 98 17 180 32 182 34 7 6 -184 156 -198 156 -7 0 -9 3 -6 6 6 7 -61
63 -75 64 -4 0 -27 -28 -51 -62z m-52 -198 c-16 -4 -39 -8 -50 -8 l-20 -1 20
9 c11 5 34 8 50 8 l30 0 -30 -8z m358 -87 c-13 -2 -33 -2 -45 0 -13 2 -3 4 22
4 25 0 35 -2 23 -4z m207 -40 c-1 -35 -15 -53 -40 -53 -35 0 -49 29 -24 47 19
14 64 18 64 6z m-200 -32 c0 -13 -26 -21 -63 -20 l-32 1 35 13 c42 16 60 18
60 6z m90 -11 c0 -5 -10 -10 -22 -10 -19 0 -20 2 -8 10 19 13 30 13 30 0z"/>
</g>
</svg>
