<?xml version="1.0" encoding="iso-8859-1"?>
<!-- Uploaded to: SVG Repo, www.svgrepo.com, Generator: SVG Repo Mixer Tools -->
<svg height="800px" width="800px" version="1.1" id="Layer_1" xmlns="http://www.w3.org/2000/svg" xmlns:xlink="http://www.w3.org/1999/xlink" 
	 viewBox="0 0 512 512" xml:space="preserve">
<path style="fill:#FFA850;" d="M256.544,8.695v130.446c36.022,0,65.223-29.201,65.223-65.223S292.565,8.695,256.544,8.695z"/>
<path style="fill:#FCDA49;" d="M289.155,73.918c0-36.022-14.6-65.223-32.611-65.223c-36.022,0-65.223,29.201-65.223,65.223
	s29.201,65.223,65.223,65.223C274.555,139.141,289.155,109.94,289.155,73.918z"/>
<polygon style="fill:#A3DC93;" points="471.236,255.999 449.495,379.65 471.236,503.302 503.847,503.302 503.847,255.999 "/>
<polygon style="fill:#CAED73;" points="310.896,255.999 256.544,320.406 202.191,255.999 9.24,255.999 9.24,503.302 
	126.098,503.302 256.544,438.895 386.989,503.302 471.236,503.302 471.236,255.999 "/>
<polygon style="fill:#AAC36D;" points="141.86,141.859 175.558,223.387 141.86,223.387 134.454,195.594 "/>
<polygon style="fill:#CAED73;" points="141.86,141.859 141.86,223.387 108.161,223.387 "/>
<polygon style="fill:#AAC36D;" points="41.851,141.859 75.55,223.387 41.851,223.387 34.445,195.594 "/>
<polygon style="fill:#CAED73;" points="41.851,141.859 41.851,223.387 8.153,223.387 "/>
<polygon style="fill:#AAC36D;" points="470.149,141.859 503.847,223.387 470.149,223.387 462.743,195.594 "/>
<polygon style="fill:#CAED73;" points="470.149,141.859 470.149,223.387 436.45,223.387 "/>
<polygon style="fill:#AAC36D;" points="370.14,141.859 403.839,223.387 370.14,223.387 362.734,195.594 "/>
<polygon style="fill:#CAED73;" points="370.14,141.859 370.14,223.387 336.442,223.387 "/>
<polygon style="fill:#59473C;" points="310.896,255.999 202.191,255.999 126.098,503.302 386.989,503.302 "/>
<g>
	<path style="fill:#FFFFFF;" d="M256.544,511.455c-4.503,0-8.153-3.649-8.153-8.153v-44.389c0-4.504,3.65-8.153,8.153-8.153
		c4.503,0,8.153,3.649,8.153,8.153v44.389C264.696,507.806,261.046,511.455,256.544,511.455z"/>
	<path style="fill:#FFFFFF;" d="M256.544,423.586c-4.503,0-8.153-3.649-8.153-8.153V376.48c0-4.504,3.65-8.153,8.153-8.153
		c4.503,0,8.153,3.649,8.153,8.153v38.953C264.696,419.937,261.046,423.586,256.544,423.586z"/>
	<path style="fill:#FFFFFF;" d="M256.544,341.15c-4.503,0-8.153-3.649-8.153-8.153V288.61c0-4.504,3.65-8.153,8.153-8.153
		c4.503,0,8.153,3.649,8.153,8.153v44.387C264.696,337.501,261.046,341.15,256.544,341.15z"/>
</g>
<path d="M256.544,147.294c40.46,0,73.376-32.916,73.376-73.376S297.004,0.542,256.544,0.542s-73.376,32.916-73.376,73.376
	S216.084,147.294,256.544,147.294z M256.544,16.848c31.469,0,57.07,25.602,57.07,57.07s-25.601,57.07-57.07,57.07
	s-57.07-25.602-57.07-57.07S225.075,16.848,256.544,16.848z"/>
<path d="M502.76,247.846h-24.459V231.54h25.546c2.722,0,5.265-1.358,6.777-3.621c1.513-2.262,1.797-5.131,0.758-7.646
	l-33.699-81.529c-1.261-3.049-4.235-5.038-7.534-5.038s-6.273,1.989-7.534,5.038l-33.699,81.529
	c-1.04,2.515-0.756,5.384,0.758,7.646c1.513,2.263,4.055,3.621,6.777,3.621h25.546v16.306h-83.703V231.54h25.546
	c2.722,0,5.265-1.358,6.777-3.621c1.513-2.262,1.797-5.131,0.758-7.646l-33.699-81.529c-1.261-3.049-4.235-5.038-7.534-5.038
	s-6.273,1.989-7.534,5.038l-33.699,81.529c-1.04,2.515-0.755,5.384,0.758,7.646c1.513,2.263,4.055,3.621,6.777,3.621h25.546v16.306
	h-51.012c-0.037,0-0.073,0-0.11,0H202.213c-0.032,0-0.063,0-0.093,0h-52.107V231.54h25.546c2.722,0,5.265-1.358,6.777-3.621
	c1.513-2.262,1.797-5.131,0.758-7.646l-33.699-81.529c-1.261-3.049-4.235-5.038-7.534-5.038s-6.273,1.989-7.534,5.038
	l-33.699,81.529c-1.04,2.515-0.756,5.384,0.758,7.646c1.513,2.263,4.055,3.621,6.777,3.621h25.546v16.306H50.004V231.54H75.55
	c2.722,0,5.265-1.358,6.777-3.621c1.513-2.262,1.797-5.131,0.758-7.646l-33.699-81.529c-1.261-3.049-4.235-5.038-7.534-5.038
	c-3.299,0-6.273,1.989-7.534,5.038L0.619,220.273c-1.04,2.515-0.755,5.384,0.758,7.646c1.513,2.263,4.055,3.621,6.777,3.621h25.546
	v16.306H8.153c-4.503,0-8.153,3.649-8.153,8.153c0,4.504,3.65,8.153,8.153,8.153h182.999l-72.847,236.753
	c-1.324,4.304,1.091,8.866,5.395,10.19c0.799,0.247,1.607,0.363,2.4,0.363c3.485,0,6.711-2.252,7.79-5.757l74.323-241.549h96.661
	L379.196,505.7c1.078,3.505,4.305,5.757,7.79,5.757c0.794,0,1.602-0.116,2.4-0.363c4.304-1.324,6.719-5.886,5.395-10.19
	l-72.848-236.753H502.76c4.503,0,8.153-3.649,8.153-8.153C510.913,251.495,507.263,247.846,502.76,247.846z M470.149,163.202
	l21.507,52.033h-43.013L470.149,163.202z M370.14,163.202l21.507,52.033h-43.013L370.14,163.202z M141.86,163.202l21.507,52.033
	h-43.013L141.86,163.202z M41.851,163.202l21.507,52.033H20.344L41.851,163.202z"/>
<path d="M438.624,356.551c-4.503,0-8.153,3.649-8.153,8.153v10.87c0,4.504,3.65,8.153,8.153,8.153c4.503,0,8.153-3.649,8.153-8.153
	v-10.87C446.777,360.2,443.127,356.551,438.624,356.551z"/>
<path d="M107.074,378.292c-4.503,0-8.153,3.649-8.153,8.153v10.87c0,4.504,3.65,8.153,8.153,8.153s8.153-3.649,8.153-8.153v-10.87
	C115.227,381.941,111.577,378.292,107.074,378.292z"/>
<path d="M74.463,345.68c-4.503,0-8.153,3.649-8.153,8.153v10.871c0,4.504,3.65,8.153,8.153,8.153c4.503,0,8.153-3.649,8.153-8.153
	v-10.871C82.616,349.329,78.965,345.68,74.463,345.68z"/>
<path d="M406.013,313.069c-4.503,0-8.153,3.649-8.153,8.153v10.87c0,4.504,3.65,8.153,8.153,8.153s8.153-3.649,8.153-8.153v-10.87
	C414.166,316.718,410.515,313.069,406.013,313.069z"/>
<path d="M41.851,451.667c-4.503,0-8.153,3.649-8.153,8.153v10.87c0,4.504,3.65,8.153,8.153,8.153s8.153-3.649,8.153-8.153v-10.87
	C50.004,455.317,46.354,451.667,41.851,451.667z"/>
</svg>