<?xml version="1.0" encoding="iso-8859-1"?>
<!-- Uploaded to: SVG Repo, www.svgrepo.com, Generator: SVG Repo Mixer Tools -->
<svg fill="#000000" height="800px" width="800px" version="1.1" id="Layer_1" xmlns="http://www.w3.org/2000/svg" xmlns:xlink="http://www.w3.org/1999/xlink" 
	 viewBox="0 0 511.995 511.995" xml:space="preserve">
<g>
	<g>
		<path d="M359.763,386.983L311.766,66.484c-0.833-5.571-6.033-9.41-11.598-8.576c-5.571,0.834-9.411,6.027-8.576,11.597
			l47.996,320.499c0.758,5.059,5.109,8.691,10.074,8.691c0.503,0,1.013-0.038,1.524-0.114
			C356.757,397.746,360.597,392.554,359.763,386.983z"/>
	</g>
</g>
<g>
	<g>
		<path d="M373.444,478.339l-6.878-45.93c-0.833-5.57-6.027-9.408-11.597-8.577c-5.571,0.834-9.411,6.027-8.577,11.598l6.878,45.93
			c0.758,5.059,5.109,8.691,10.074,8.691c0.503,0,1.012-0.038,1.524-0.114C370.438,489.103,374.278,483.91,373.444,478.339z"/>
	</g>
</g>
<g>
	<g>
		<path d="M203.627,111.917c-5.574-0.85-10.77,2.979-11.618,8.548l-54.468,357.849c-0.848,5.569,2.979,10.77,8.548,11.618
			c0.52,0.08,1.037,0.117,1.547,0.117c4.955,0,9.303-3.618,10.071-8.666l54.468-357.849
			C213.023,117.967,209.196,112.765,203.627,111.917z"/>
	</g>
</g>
<g>
	<g>
		<path d="M211.847,57.912c-5.572-0.845-10.77,2.979-11.618,8.548l-1.92,12.618c-0.848,5.569,2.979,10.77,8.548,11.618
			c0.52,0.08,1.037,0.117,1.547,0.117c4.955,0,9.303-3.618,10.071-8.666l1.92-12.618C221.243,63.961,217.416,58.759,211.847,57.912z
			"/>
	</g>
</g>
<g>
	<g>
		<path d="M255.49,425.415c-5.633,0-10.199,4.566-10.199,10.199v31.617c0,5.633,4.566,10.199,10.199,10.199
			c5.633,0,10.199-4.566,10.199-10.199v-31.617C265.69,429.981,261.123,425.415,255.49,425.415z"/>
	</g>
</g>
<g>
	<g>
		<path d="M255.49,178.821c-5.633,0-10.199,4.566-10.199,10.199v61.648c0,5.633,4.566,10.199,10.199,10.199
			c5.633,0,10.199-4.566,10.199-10.199V189.02C265.69,183.387,261.123,178.821,255.49,178.821z"/>
	</g>
</g>
<g>
	<g>
		<path d="M255.49,302.118c-5.633,0-10.199,4.566-10.199,10.199v61.648c0,5.633,4.566,10.199,10.199,10.199
			c5.633,0,10.199-4.566,10.199-10.199v-61.648C265.69,306.684,261.123,302.118,255.49,302.118z"/>
	</g>
</g>
<g>
	<g>
		<path d="M255.49,85.555c-5.633,0-10.199,4.566-10.199,10.199v31.617c0,5.633,4.566,10.199,10.199,10.199
			c5.633,0,10.199-4.566,10.199-10.199V95.755C265.69,90.122,261.123,85.555,255.49,85.555z"/>
	</g>
</g>
<g>
	<g>
		<path d="M426.446,93.979L400.17,67.703h5.73c3.865,0,7.398-2.185,9.125-5.643c1.727-3.458,1.35-7.595-0.972-10.685l-29.673-39.476
			c-1.923-2.558-4.935-4.065-8.136-4.07c-3.194,0.024-6.217,1.491-8.149,4.043L338.21,51.347c-2.337,3.086-2.724,7.23-1,10.697
			c1.724,3.467,5.261,5.659,9.132,5.659h5.941l-26.276,26.276c-2.917,2.917-3.789,7.304-2.21,11.115
			c1.579,3.811,5.296,6.296,9.422,6.296h17.056v21.761c0,5.633,4.566,10.199,10.199,10.199h30.283
			c5.633,0,10.199-4.566,10.199-10.199V111.39h18.277c4.125,0,7.844-2.486,9.423-6.296S429.362,96.896,426.446,93.979z
			 M376.197,34.964l9.276,12.341h-18.619L376.197,34.964z M380.558,122.952h-9.885V111.39h9.885V122.952z M357.841,90.992
			l18.384-18.384l18.384,18.384H357.841z"/>
	</g>
</g>
<g>
	<g>
		<path d="M467.947,262.529l-32.359-32.359h12.466c4.125,0,7.844-2.486,9.423-6.296c1.579-3.81,0.706-8.198-2.21-11.114
			l-19.654-19.654h5.614c4.125,0,7.844-2.486,9.423-6.296s0.706-8.198-2.21-11.114l-29.612-29.612
			c-1.916-1.915-4.51-2.989-7.215-2.989s-5.299,1.075-7.212,2.987l-29.612,29.612c-2.917,2.917-3.789,7.305-2.21,11.115
			c1.579,3.811,5.297,6.296,9.423,6.296h5.614l-19.654,19.654c-2.917,2.917-3.789,7.304-2.21,11.115
			c1.579,3.811,5.297,6.296,9.423,6.296h12.467l-32.359,32.359c-2.917,2.917-3.789,7.304-2.21,11.115
			c1.579,3.811,5.297,6.296,9.423,6.296h26.221v26.304c0,5.633,4.566,10.199,10.199,10.199h24.358
			c5.633,0,10.199-4.566,10.199-10.199V279.94h27.261c4.125,0,7.844-2.486,9.423-6.296
			C471.736,269.833,470.863,265.446,467.947,262.529z M411.612,167.717l4.989,4.989h-9.979L411.612,167.717z M411.612,197.955
			l11.817,11.817h-23.634L411.612,197.955z M413.072,296.044h-3.959V279.94h3.959V296.044z M387.115,259.541l24.497-24.497
			l24.497,24.497H387.115z"/>
	</g>
</g>
<g>
	<g>
		<path d="M509.008,445.733l-38.522-38.522h17.06c4.125,0,7.844-2.486,9.423-6.296c1.579-3.81,0.706-8.198-2.21-11.115
			l-24.243-24.243h9.358c4.125,0,7.844-2.486,9.423-6.296c1.579-3.81,0.706-8.198-2.21-11.115l-33.279-33.279
			c-3.983-3.983-10.441-3.983-14.425,0l-33.279,33.279c-2.917,2.917-3.789,7.304-2.21,11.115c1.579,3.811,5.297,6.296,9.423,6.296
			h9.358l-24.243,24.243c-2.917,2.917-3.789,7.305-2.21,11.115c1.579,3.811,5.297,6.296,9.423,6.296h17.06l-38.522,38.522
			c-2.917,2.917-3.789,7.304-2.21,11.115c1.579,3.811,5.297,6.296,9.423,6.296h30.732v30.824c0,5.633,4.566,10.199,10.199,10.199
			h27.375c5.633,0,10.199-4.566,10.199-10.199v-30.824h31.896c4.125,0,7.844-2.486,9.423-6.296
			C512.797,453.037,511.924,448.649,509.008,445.733z M446.592,336.5l8.656,8.656h-17.313L446.592,336.5z M446.593,370.482
			l16.33,16.33h-32.66L446.593,370.482z M449.497,483.768h-6.976v-20.625h6.976V483.768z M416.012,442.745l30.58-30.58l30.58,30.58
			H416.012z"/>
	</g>
</g>
<g>
	<g>
		<path d="M185.986,93.979L159.71,67.703h5.941c3.872,0,7.409-2.192,9.132-5.659c1.724-3.467,1.336-7.61-1-10.697l-29.885-39.476
			c-1.929-2.548-4.937-4.043-8.132-4.043c-0.005,0-0.012,0-0.017,0c-3.201,0.005-6.212,1.513-8.136,4.07L97.939,51.375
			c-2.322,3.089-2.699,7.226-0.972,10.685c1.727,3.459,5.26,5.643,9.125,5.643h5.73L85.546,93.978
			c-2.917,2.917-3.789,7.304-2.21,11.115c1.579,3.811,5.297,6.297,9.422,6.297h18.277v21.761c0,5.633,4.566,10.199,10.199,10.199
			h30.283c5.633,0,10.199-4.566,10.199-10.199V111.39h17.056c4.125,0,7.844-2.486,9.423-6.296
			C189.775,101.284,188.902,96.896,185.986,93.979z M135.795,34.964l9.342,12.341h-18.619L135.795,34.964z M141.319,122.952h-9.885
			V111.39h9.885V122.952z M117.381,90.992l18.384-18.384l18.384,18.384H117.381z"/>
	</g>
</g>
<g>
	<g>
		<path d="M156.71,262.529l-32.359-32.359h12.467c4.125,0,7.844-2.486,9.423-6.296s0.706-8.198-2.21-11.115l-19.654-19.654h5.614
			c4.125,0,7.844-2.486,9.423-6.296c1.579-3.81,0.706-8.198-2.21-11.115l-29.612-29.612c-1.912-1.912-4.507-2.987-7.212-2.987
			c-2.705,0-5.299,1.075-7.212,2.987l-29.612,29.612c-2.917,2.917-3.789,7.304-2.21,11.114c1.579,3.811,5.297,6.296,9.423,6.296
			h5.614l-19.654,19.654c-2.917,2.917-3.789,7.304-2.21,11.114c1.579,3.811,5.297,6.296,9.423,6.296h12.466l-32.359,32.359
			c-2.917,2.917-3.789,7.304-2.21,11.115c1.579,3.811,5.295,6.298,9.42,6.298H78.52v26.033c0,5.633,4.566,10.199,10.199,10.199
			h24.358c5.633,0,10.199-4.566,10.199-10.199V279.94h26.221c4.125,0,7.844-2.486,9.423-6.296S159.626,265.446,156.71,262.529z
			 M100.379,167.717l4.989,4.989H95.39L100.379,167.717z M100.379,197.955l11.817,11.817H88.562L100.379,197.955z M102.879,295.774
			H98.92V279.94h3.959V295.774z M75.882,259.541l24.497-24.497l24.497,24.497H75.882z"/>
	</g>
</g>
<g>
	<g>
		<path d="M127.819,445.733L89.292,407.21h17.06c4.125,0,7.844-2.486,9.423-6.296c1.579-3.81,0.706-8.198-2.21-11.115
			l-24.243-24.243h9.358c4.125,0,7.844-2.486,9.423-6.296c1.579-3.81,0.706-8.198-2.21-11.115l-33.279-33.279
			c-3.983-3.983-10.441-3.983-14.425,0l-33.279,33.279c-2.917,2.917-3.789,7.304-2.21,11.115c1.579,3.811,5.297,6.296,9.423,6.296
			h9.358l-24.243,24.243c-2.917,2.917-3.789,7.305-2.21,11.115c1.579,3.811,5.297,6.296,9.423,6.296h17.06L2.987,445.733
			c-2.917,2.917-3.789,7.304-2.21,11.115c1.579,3.811,5.297,6.296,9.423,6.296h31.901v30.824c0,5.633,4.566,10.199,10.199,10.199
			h27.375c5.633,0,10.199-4.566,10.199-10.199v-30.824h30.732c4.125,0,7.844-2.486,9.423-6.296
			C131.608,453.037,130.735,448.649,127.819,445.733z M65.398,336.5l8.656,8.656H56.742L65.398,336.5z M65.399,370.482l16.33,16.33
			h-32.66L65.399,370.482z M69.47,483.768h-6.976v-20.625h6.976V483.768z M34.818,442.745l30.58-30.58l30.58,30.58H34.818z"/>
	</g>
</g>
</svg>