<?xml version="1.0" encoding="UTF-8" standalone="no"?>
<!-- Created with Inkscape (http://www.inkscape.org/) -->

<svg
   version="1.1"
   id="svg1"
   width="527"
   height="425"
   viewBox="0 0 527 425"
   sodipodi:docname="background1.svg"
   inkscape:version="1.4.2 (f4327f4, 2025-05-13)"
   xmlns:inkscape="http://www.inkscape.org/namespaces/inkscape"
   xmlns:sodipodi="http://sodipodi.sourceforge.net/DTD/sodipodi-0.dtd"
   xmlns="http://www.w3.org/2000/svg"
   xmlns:svg="http://www.w3.org/2000/svg">
  <defs
     id="defs1" />
  <sodipodi:namedview
     id="namedview1"
     pagecolor="#ffffff"
     bordercolor="#000000"
     borderopacity="0.25"
     inkscape:showpageshadow="2"
     inkscape:pageopacity="0.0"
     inkscape:pagecheckerboard="0"
     inkscape:deskcolor="#d1d1d1"
     inkscape:zoom="1.8188235"
     inkscape:cx="263.35705"
     inkscape:cy="212.5"
     inkscape:window-width="1920"
     inkscape:window-height="991"
     inkscape:window-x="-9"
     inkscape:window-y="-9"
     inkscape:window-maximized="1"
     inkscape:current-layer="g1" />
  <g
     inkscape:groupmode="layer"
     inkscape:label="Image"
     id="g1">
    <path
       style="fill:#000000"
       d="m 217.90039,380.46963 c -25.62263,-1.55537 -48.19632,-5.24102 -70,-11.42902 l -8.5,-2.41235 6,-0.15737 c 6.45566,-0.16933 12.3211,-1.7462 7.5,-2.01631 -19.0545,-1.06755 -24.83564,-1.86402 -29.5,-4.06422 l -5,-2.35853 29.5,-0.69061 c 94.95447,-2.22291 160.15658,-15.68759 170.262,-35.16027 5.17795,-9.97767 0.14601,-14.6064 -34.98955,-32.18584 -22.49387,-11.2544 -28.70475,-15.43094 -29.8738,-20.08883 -1.87344,-7.46436 11.58641,-18.55957 33.72969,-27.80404 23.2323,-9.6991 37.17481,-12.68046 94.31406,-20.16739 51.56795,-6.75692 75.59837,-13.75513 100.0576,-29.13904 l 7,-4.40274 -4.91565,4.59289 c -20.68677,19.32846 -46.86819,30.08613 -85.08435,34.96027 -68.85074,8.7813 -94.88542,16.97332 -104.60672,32.91531 -7.32242,12.00807 -1.47487,15.85904 53.10672,34.97409 36.83679,12.90063 50.69928,21.8282 52.66051,33.91386 4.54475,28.00601 -95.534,55.94829 -181.66051,50.72014 z m -3,-17.01555 c 0,-1.15096 -14.34446,-1.17445 -23.5,-0.0385 -4.74898,0.58923 -2.92457,0.7751 8.75,0.89147 9.26468,0.0924 14.75,-0.22486 14.75,-0.85297 z m 50.5,-4.21754 c 1.14927,-1.16846 -12.76443,-0.23607 -18.5,1.23973 -2.38036,0.61248 -0.14108,0.72085 7,0.33877 5.775,-0.30899 10.95,-1.01932 11.5,-1.5785 z m 36.63953,-6.33254 c 12.00459,-2.22572 12.88375,-2.52724 10.23055,-3.50872 -1.34548,-0.49773 -5.81959,0.24448 -12.48358,2.0709 -11.54039,3.1629 -10.5298,3.80783 2.25303,1.43782 z m 34.51437,-12.99886 c 5.86395,-3.27931 7.9464,-5.45106 5.22691,-5.45106 -0.61555,0 -3.71192,1.575 -6.88081,3.5 -3.16889,1.925 -6.2387,3.5 -6.82179,3.5 -0.5831,0 -1.33829,0.45 -1.67821,1 -1.35264,2.18862 4.15436,0.80619 10.1539,-2.54894 z m 14.26025,-14.63464 c 0.85595,-2.45537 0.82114,-3.36683 -0.15217,-3.98469 -1.33835,-0.84959 -2.76198,-1.08352 -2.76198,-0.45385 0,0.20783 -0.68104,2.00783 -1.51342,4 -1.49618,3.58086 -1.4859,3.62212 0.90217,3.62212 1.81589,0 2.69113,-0.79038 3.5254,-3.18358 z m -3.58782,-13.00832 c -2.14005,-2.36474 -5.32633,-4.20906 -5.32633,-3.08307 0,1.53743 5.13255,6.31108 6.12566,5.69731 0.60735,-0.37537 0.29126,-1.40915 -0.79933,-2.61424 z m -14.64656,-10.91222 c -2.10113,-1.10865 -4.35113,-1.81476 -5,-1.56913 -0.64888,0.24562 0.39523,1.15497 2.32023,2.02078 5.07124,2.28088 7.18373,1.92484 2.67977,-0.45165 z m -18.17977,-8.43199 c -1.65,-0.75553 -3.9,-1.35743 -5,-1.33757 -1.54153,0.0278 -1.31229,0.35101 1,1.40979 1.65,0.75553 3.9,1.35743 5,1.33757 1.54153,-0.0278 1.31229,-0.35101 -1,-1.40979 z m -15.5,-6.01492 c 0,-0.8524 -7.14597,-3.63633 -7.7594,-3.0229 -0.29878,0.29878 0.98736,1.20752 2.85808,2.01944 3.70402,1.60758 4.90132,1.85271 4.90132,1.00346 z m -16.86078,-8.48224 c -1.29844,-1.0817 -2.87344,-1.95176 -3.5,-1.93346 -0.62657,0.0183 -0.0769,0.9183 1.22156,2 1.29844,1.0817 2.87344,1.95176 3.5,1.93346 0.62657,-0.0183 0.0769,-0.9183 -1.22156,-2 z m -9.72267,-8.3236 c -0.34679,-0.90372 -1.04822,-1.64313 -1.55872,-1.64313 -0.51083,0 -0.42629,0.93781 0.18801,2.08565 1.27334,2.37925 2.32344,2.04024 1.37071,-0.44252 z m 0.58345,-7.76116 c 0,-0.55 -0.45,-0.72189 -1,-0.38197 -0.55,0.33992 -1,1.06803 -1,1.61803 0,0.55 0.45,0.72189 1,0.38197 0.55,-0.33992 1,-1.06803 1,-1.61803 z m 7.56184,-7.65347 c -0.3352,-0.3352 -1.38624,0.20383 -2.33565,1.19784 -1.65022,1.72775 -1.6234,1.75457 0.60946,0.60945 1.2846,-0.6588 2.06139,-1.47209 1.72619,-1.80729 z m 11.35483,-6.86395 c 1.37232,-1.20066 -1.88254,-0.0856 -3.47554,1.19062 -1.83031,1.46637 -1.7984,1.48719 0.55887,0.36454 1.375,-0.65484 2.6875,-1.35466 2.91667,-1.55516 z m 10.57625,-5.3531 c 0.35034,-0.56686 -0.0511,-0.7345 -0.94098,-0.39301 -1.73242,0.66479 -2.04939,1.38156 -0.61096,1.38156 0.51754,0 1.21592,-0.44485 1.55194,-0.98855 z m 72.77611,-15.66739 c -0.67703,-0.27392 -2.02703,-0.29059 -3,-0.0371 -0.97297,0.25354 -0.41903,0.47766 1.23097,0.49804 1.65,0.0204 2.44606,-0.18706 1.76903,-0.46099 z m 16.48097,-2.03339 c -0.9625,-0.25152 -2.5375,-0.25152 -3.5,0 -0.9625,0.25153 -0.175,0.45733 1.75,0.45733 1.925,0 2.7125,-0.2058 1.75,-0.45733 z m 21.51903,-2.96661 c -0.67703,-0.27392 -2.02703,-0.29059 -3,-0.0371 -0.97297,0.25354 -0.41903,0.47766 1.23097,0.49804 1.65,0.0204 2.44606,-0.18706 1.76903,-0.46099 z m 15.46014,-1.94823 c -0.33229,-0.33229 -1.1948,-0.36781 -1.91667,-0.0789 -0.79773,0.31922 -0.56078,0.55618 0.60417,0.60416 1.05416,0.0434 1.64479,-0.19293 1.3125,-0.52522 z m 17.96056,-5.03943 c -0.49521,-0.49521 -5.68973,1.39173 -5.68973,2.06683 0,0.26 1.37297,-0.006 3.05105,-0.59087 1.67807,-0.58498 2.86548,-1.24916 2.63868,-1.47596 z M 99.89228,348.33799 C 56.235472,322.1327 25.800342,280.06863 15.986542,232.37278 c -3.87896,-18.85202 -6.3252797,-42.20011 -4.69192,-44.7805 0.53897,-0.85149 0.38685,-1.65546 -0.40594,-2.14544 -0.9852597,-0.60892 -0.79088,-1.76911 0.87188,-5.20392 2.70674,-5.59137 2.7406,-7.11429 0.13983,-6.28884 -2.5170197,0.79887 -2.5170197,-0.19944 0,-4 1.09275,-1.65 1.98978,-4.0125 1.99341,-5.25 0.009,-3.21392 1.64988,-2.78351 2.32879,0.611 0.40428,2.02142 1.62161,3.35899 4.14821,4.55794 4.06466,1.9288 3.82039,3.58106 -0.52943,3.58106 -3.37221,0 -4.0624,2.73573 -1.36955,5.42857 1.97877,1.97877 1.5989,2.02554 7.3922,-0.91014 7.20159,-3.64933 10.07156,-9.51843 4.65447,-9.51843 -0.62536,0 -1.69907,-0.9 -2.38603,-2 -1.159,-1.85586 -0.99869,-2 2.22427,-2 2.41048,0 3.79005,-0.59187 4.50847,-1.93426 1.27699,-2.38607 1.35971,-5.38434 0.12754,-4.62282 -3.18003,1.96537 -5.30789,-1.15325 -2.26517,-3.31986 1.93398,-1.37712 3.58064,-3.75222 4.32584,-6.23948 l 1.20322,-4.01597 1.1003,3.31619 c 1.68843,5.08874 10.45273,3.38381 12.47855,-2.42746 1.51416,-4.34352 1.43297,-8.5244 -0.13509,-6.95634 -2.31232,2.31232 -2.75212,1.16968 -0.78904,-2.05 1.08986,-1.7875 2.02192,-4.375 2.07125,-5.75 0.0871,-2.42705 0.11468,-2.41662 0.94599,0.35745 0.47097,1.5716 1.66979,3.7854 2.66405,4.91956 1.68298,1.9198 1.68696,2.01807 0.0577,1.42394 -1.44848,-0.52822 -1.75,-0.0529 -1.75,2.75901 0,3.59072 1.70965,5.99572 5.00592,7.04192 4.46034,1.41566 1.80719,4.00856 -3.83996,3.75276 -1.80693,-0.0819 -0.61492,4.81879 1.5799,6.49536 3.96078,3.02554 7.50977,1.14872 8.74556,-4.62492 0.46403,-2.16795 0.31742,-3.62519 -0.40995,-4.07473 -0.83101,-0.51359 -0.7811,-1.53509 0.18755,-3.83884 l 1.31986,-3.13903 1.10047,2.91546 c 0.79458,2.1051 0.79683,3.01667 0.008,3.27959 -0.75638,0.25212 -0.79864,1.38838 -0.13738,3.69406 0.94131,3.28215 2.00118,4.27024 5.93995,5.53768 2.47404,0.79612 -0.43141,3.50073 -3.7607,3.50073 -3.17068,0 -1.73996,4.25344 2.02753,6.02775 2.56603,1.20848 3.00581,1.79958 2.05,2.75539 -1.50622,1.50622 0.13739,3.48121 1.95978,2.35491 2.10839,-1.30306 3.39197,-7.13805 1.57023,-7.13805 -0.85493,0 -1.25998,-0.54393 -0.93084,-1.25 0.32048,-0.6875 0.86046,-2.0375 1.19996,-3 0.81914,-2.3223 1.53187,-2.17098 3.6807,0.78142 1.54273,2.11965 1.57807,2.46858 0.25,2.46858 -2.05193,0 -2.03511,4.36872 0.0247,6.42857 2.07849,2.07849 2.84092,1.99042 5.87388,-0.67857 3.10186,-2.72962 4.86684,-9.46749 2.21326,-8.44922 -2.06772,0.79346 -2.16614,-0.63464 -0.15856,-2.30078 0.825,-0.68469 1.5254,-2.42729 1.55644,-3.87244 0.0516,-2.40031 0.16272,-2.32486 1.28532,0.87244 0.67588,1.925 0.83945,3.77383 0.36348,4.10851 -2.08383,1.46525 -0.19481,6.39634 3.02311,7.89149 4.051568,1.88249 4.111598,2.88201 0.21983,3.66036 -3.97801,0.79561 -3.68533,4.14045 0.551818,6.30622 1.65,0.84338 3.16607,1.62449 3.36905,1.7358 0.20297,0.11131 -0.35607,0.9275 -1.24233,1.81376 -0.88626,0.88626 -2.03374,1.35034 -2.549948,1.03131 -0.51622,-0.31904 -1.18765,-0.17707 -1.49206,0.31549 -0.61805,1.00002 4.131468,6.13706 5.674098,6.13706 0.54234,0 0.42588,0.675 -0.25881,1.5 -0.68469,0.825 -1.86479,1.5 -2.62245,1.5 -2.152968,0 -1.620358,1.7948 1.05228,3.54598 2.59555,1.70067 6.17107,0.38974 9.32017,-3.41714 1.55469,-1.87944 1.64313,-6.12884 0.12756,-6.12884 -0.77254,0 -0.80609,-0.38967 -0.10761,-1.25 0.55816,-0.6875 1.17576,-1.96486 1.37244,-2.83858 0.27512,-1.22215 0.91788,-0.90517 2.7865,1.37416 2.38369,2.90762 2.38834,2.94988 0.25,2.2712 -4.4507,-1.4126 -1.5663,5.73487 2.9997,7.43316 l 3.32141,1.23538 -3.25,0.91593 c -3.71859,1.04799 -3.99733,1.87245 -1.42126,4.20376 4.70569,4.25859 21.17126,-2.42951 21.17126,-8.59949 0,-1.42676 -0.4836,-1.72681 -2.00493,-1.24396 -1.3306,0.42232 -2.20667,0.11058 -2.60478,-0.92687 -0.32992,-0.85976 -0.95555,-1.34337 -1.39029,-1.07469 -0.43474,0.26868 -1.04846,-0.1839 -1.36383,-1.00574 -0.31537,-0.82184 -1.2484,-1.49426 -2.0734,-1.49426 -0.92249,0 -1.27839,-0.57751 -0.9244,-1.5 0.40247,-1.04881 -0.13335,-1.55419 -1.78138,-1.68016 -1.29635,-0.0991 0.99531,-0.43659 5.09256,-0.75 7.11512,-0.54426 7.53491,-0.71643 9.35106,-3.83527 2.05817,-3.53446 1.6467,-7.26566 -0.59598,-5.4044 -0.76452,0.6345 -1.83753,0.70573 -2.69042,0.17861 -0.7803,-0.48225 -1.7777,-0.65495 -2.21646,-0.38378 -0.43876,0.27117 -1.28771,0.19022 -1.88655,-0.17988 -0.61718,-0.38144 1.0941,-1.91962 3.95083,-3.55116 4.03765,-2.306 5.24711,-3.62538 6.08322,-6.6361 1.32639,-4.77615 1.35309,-8.56028 0.0548,-7.75786 -1.30059,0.80381 -1.24415,0.0161 0.42987,-6 0.76521,-2.75 1.43153,-4.24703 1.48071,-3.32673 0.0492,0.92031 1.31717,3.13238 2.81775,4.91572 l 2.72834,3.24244 -2.72834,-0.68477 c -7.23108,-1.81488 0.32422,12.86578 8.27167,16.07262 4.3127,1.7402 4.91909,2.22591 2.80902,2.25 -1.48004,0.0169 -2.94585,0.4431 -3.25736,0.94713 -0.3115,0.50402 -2.14876,0.79085 -4.08279,0.63739 -6.21642,-0.49324 -0.91722,8.18333 6.44608,10.5544 5.18005,1.66804 5.26093,1.77493 3.33653,4.4095 -1.05987,1.451 -2.40927,2.20101 -3.41732,1.89939 -0.91622,-0.27415 -1.94313,-0.0498 -2.28203,0.49856 -0.3389,0.54835 -1.27677,0.74351 -2.08416,0.43369 -0.9438,-0.36217 -1.46797,0.0576 -1.46797,1.17559 0,2.43397 6.66558,8.45819 10.12401,9.14987 3.29049,0.6581 3.79599,2.27185 0.94516,3.01736 -1.06195,0.27771 -2.15942,1.10065 -2.43882,1.82876 -0.29902,0.77923 -1.35595,1.10209 -2.56918,0.78483 -4.95579,-1.29597 -0.31507,4.85456 5.49436,7.2819 3.89584,1.6278 10.44442,1.88634 10.44442,0.41235 0,-0.55 -0.74474,-1 -1.65499,-1 -1.53998,0 -1.53998,-0.12708 0,-1.82874 2.10123,-2.32183 2.09263,-3.17126 -0.0321,-3.17126 -1.37061,0 -1.20642,-0.51587 0.87524,-2.75 1.40928,-1.5125 2.35093,-3.32763 2.09255,-4.03362 -0.25838,-0.70599 0.13526,-2.01667 0.87476,-2.91262 0.92166,-1.11665 0.9964,-1.74632 0.23763,-2.00202 -0.71945,-0.24244 -0.36942,-1.84819 1,-4.58738 l 2.10691,-4.21436 0.32451,3.98732 c 0.17849,2.19303 0.82455,4.58982 1.4357,5.32622 0.82847,0.99824 0.76603,1.55221 -0.24544,2.17733 -1.12375,0.69452 -1.081,1.25911 0.24906,3.28903 1.11372,1.69975 1.28639,2.76988 0.56357,3.4927 -0.72282,0.72282 -0.40785,1.38157 1.028,2.15001 1.19275,0.63834 1.83706,1.71525 1.52022,2.54092 -0.30245,0.78817 0.40945,2.46277 1.58199,3.72135 2.22692,2.39031 3.81904,1.5503 4.1411,-2.18488 0.6752,-7.83096 2.71851,-12.9574 2.98936,-7.5 0.0819,1.65 0.0836,3.52857 0.004,4.17459 -0.0797,0.64603 0.29728,1.44794 0.83785,1.78203 0.54056,0.33409 0.74682,1.2225 0.45834,1.97425 -0.28847,0.75176 -0.0664,1.64995 0.4935,1.99599 1.18272,0.73095 3.47816,-3.03565 2.65836,-4.36212 -0.30386,-0.49165 -0.0311,-1.06772 0.6062,-1.28014 1.03625,-0.34542 1.29914,-1.31803 1.83384,-6.7846 0.21836,-2.23243 2.12782,2.96022 2.50726,6.81831 0.17949,1.82506 1.04425,4.11158 1.9217,5.08115 0.87744,0.96956 1.25687,2.16149 0.84317,2.64872 -0.4137,0.48724 0.0353,0.28312 0.99782,-0.45359 1.87562,-1.43563 2.16476,-0.74123 1.93846,4.65541 -0.058,1.38285 0.48836,2.25 1.41761,2.25 0.83158,0 1.23385,-0.45 0.89393,-1 -0.33992,-0.55 -0.1556,-1 0.4096,-1 0.5652,0 0.76861,-0.675 0.45203,-1.5 -0.69436,-1.80945 1.19902,-2.01527 2.29982,-0.25 0.73366,1.1765 0.97357,3.16486 1.23072,10.2 0.18954,5.18555 4.29037,-4.08515 4.25498,-9.6192 -0.0276,-4.31534 2.74856,-2.53306 3.53567,2.26989 0.8528,5.2037 2.74333,6.74928 2.91834,2.38584 0.12547,-3.12845 1.39884,-4.63335 1.39884,-1.6532 0,3.48357 2.03059,2.49839 3.72116,-1.80538 1.75639,-4.47135 3.36911,-4.49203 2.80517,-0.036 -0.42012,3.31955 1.4581,8.15987 2.97367,7.66342 0.98698,-0.3233 1.09186,-0.73167 1.45233,-5.65539 0.19535,-2.66829 0.77979,-1.86155 2.53556,3.5 0.62279,1.9018 0.71963,1.91217 1.97217,0.21117 1.21112,-1.64475 1.4103,-1.52393 2.47288,1.5 l 1.15566,3.28883 1.8355,-2.41638 1.83551,-2.41639 0.68758,2.16639 c 1.36787,4.30976 5.89563,-1.16774 6.85599,-8.29409 0.54485,-4.04307 1.67842,-5.98163 1.72862,-2.9562 0.0382,2.29991 2.24105,5.41667 3.82844,5.41667 0.62687,0 1.13976,-1.1625 1.13976,-2.58333 0,-2.38537 2.36472,-3.14657 2.5888,-0.83334 0.2644,2.72954 2.28651,5.89734 2.50013,3.91667 0.11863,-1.1 0.32025,-2.45 0.44803,-3 0.12779,-0.55 0.29793,-1.9 0.3781,-3 0.24206,-3.32139 2.05827,0.64674 2.37162,5.18162 0.37171,5.37946 3.52067,9.34403 3.62856,4.56838 0.0796,-3.52291 0.72888,-6.11627 1.87799,-7.50085 1.44112,-1.73645 2.44673,-8.74915 1.25461,-8.74915 -0.47335,0 -0.38744,-1.54182 0.19091,-3.42627 0.92548,-3.01547 1.22792,-3.24992 2.52248,-1.95536 2.10054,2.10055 3.71579,1.18441 3.88163,-2.2016 0.2465,-5.03305 0.46606,-6.03814 1.01942,-4.66677 0.75819,1.879 2.7984,1.50837 4.93273,-0.8961 1.3039,-1.46893 1.52772,-2.27834 0.70935,-2.56521 -0.84394,-0.29583 -0.62442,-1.35595 0.74626,-3.6039 2.38032,-3.90381 2.50345,-5.38928 0.29485,-3.55723 -1.53042,1.26949 -1.54071,1.1474 -0.1372,-1.62756 0.83452,-1.65 1.75042,-3.675 2.03533,-4.5 0.36176,-1.04756 0.86744,-0.6197 1.67652,1.4185 0.63718,1.60518 1.92832,3.55442 2.86919,4.33164 1.60916,1.32926 1.60683,1.38047 -0.0393,0.86288 -2.60212,-0.81818 -2.19486,2.03303 0.70455,4.93243 1.68939,1.6894 2.00112,2.45455 1,2.45455 -2.08276,0 -1.79393,2.38289 0.54545,4.5 2.43257,2.20145 2.56057,3.5 0.34501,3.5 -1.50626,0 -1.49746,0.17406 0.098,1.93699 0.96413,1.06534 1.48882,2.36435 1.166,2.88669 -0.32282,0.52234 0.043,1.47255 0.81301,2.11157 1.71668,1.42472 3.06473,-0.22451 2.14423,-2.6233 -0.37714,-0.98281 0.1888,-2.15248 1.47856,-3.05586 1.14927,-0.80498 1.88441,-1.99826 1.63365,-2.65174 -0.25076,-0.65347 0.16901,-2.04279 0.93282,-3.08737 1.61614,-2.2102 1.8353,-3.91099 0.38876,-3.01698 -1.3689,0.84603 -1.27962,0.432 0.85168,-3.94972 l 1.85168,-3.80685 0.66626,4.16655 c 0.36711,2.29579 1.34315,4.42631 2.17384,4.74507 1.23827,0.47517 1.27972,0.85467 0.23206,2.12435 -0.99475,1.20557 -1.00587,1.63661 -0.0505,1.95822 2.1075,0.70946 2.61646,0.34752 2.78425,-1.98004 0.62079,-8.61124 1.65285,-11.59366 3.42893,-9.90884 1.20738,1.14534 1.43985,2.04165 0.75876,2.92543 -1.33373,1.73064 -0.0798,2.78849 1.6266,1.37228 1.60793,-1.33446 2.08659,-7.51796 0.50636,-6.54132 -0.81938,0.5064 0.37948,-1.83153 2.7937,-5.44806 0.12591,-0.18861 0.94866,1.04889 1.82834,2.75 0.95244,1.84182 1.17029,3.09293 0.53856,3.09293 -0.74465,0 -0.74182,0.59614 0.01,2 0.5887,1.1 1.92798,2 2.97617,2 2.22257,0 3.51557,-1.57806 2.04014,-2.48992 -1.47619,-0.9119 -1.24619,-2.51006 0.36057,-2.51006 0.75765,0 1.93775,-0.675 2.62244,-1.5 1.01957,-1.22851 0.95124,-1.5 -0.37756,-1.5 -0.89234,0 -1.62244,-0.45 -1.62244,-1 0,-0.55 0.65917,-1 1.46482,-1 0.80565,0 1.93065,-0.87042 2.5,-1.93426 1.35589,-2.53351 1.30996,-3.3536 -0.1377,-2.4589 -0.64508,0.39869 -0.42008,-0.34988 0.5,-1.66348 1.83463,-2.6193 2.25933,-5.42384 0.67288,-4.44336 -1.3551,0.8375 -1.26791,0.34432 0.60171,-3.40343 0.88094,-1.76588 1.37307,-4.08502 1.09362,-5.15363 -0.65227,-2.49427 0.47432,-2.50219 2.02806,-0.0143 0.9409,1.50662 0.93884,2.02491 -0.009,2.3684 -0.77472,0.28061 -0.1291,1.59589 1.78437,3.63521 1.88739,2.01151 2.35054,2.94693 1.25,2.52461 -2.20248,-0.84517 -2.39383,1.76247 -0.25932,3.53395 0.81894,0.67967 1.2302,1.65448 0.91391,2.16625 -0.81784,1.3233 1.67046,4.02871 3.17456,3.45154 0.69136,-0.2653 1.50514,0.16422 1.8084,0.95449 0.67601,1.76165 3.76517,1.92474 3.53949,0.18686 -0.41002,-3.15754 0.11471,-4.28565 1.15918,-2.49208 0.56304,0.96686 0.73562,2.22407 0.3835,2.7938 -1.16346,1.88252 1.52652,4.02156 3.63698,2.89208 2.08583,-1.1163 2.5923,-3.9438 0.70643,-3.9438 -0.65371,0 -0.15956,-0.95866 1.0981,-2.13035 1.25767,-1.1717 1.88913,-2.4092 1.40324,-2.75 -0.49955,-0.3504 -0.39323,-2.08873 0.24468,-4.00056 1.19384,-3.57796 2.44254,-2.43271 2.44254,2.24019 0,1.20764 0.67439,3.15854 1.49865,4.33533 1.14996,1.6418 1.20813,2.24333 0.25,2.58533 -0.8543,0.30494 -0.48301,1.27858 1.17566,3.08288 1.43939,1.56578 1.90051,2.63718 1.13499,2.63718 -0.95559,0 -0.86053,0.65441 0.36725,2.52825 0.91111,1.39053 1.41782,2.91454 1.12602,3.38669 -0.63668,1.03018 1.87795,3.3212 2.72054,2.47862 0.324,-0.324 0.34695,-1.2201 0.051,-1.99133 -0.29595,-0.77122 -0.0134,-1.40223 0.62792,-1.40223 0.6413,0 0.90068,-0.42931 0.57639,-0.95401 -0.85188,-1.37837 0.51811,-6.13527 1.57825,-5.48006 0.49133,0.30366 0.89333,1.42555 0.89333,2.49309 0,1.06754 0.39752,1.94098 0.88337,1.94098 1.17821,0 2.0862,-3.61493 2.10298,-8.37244 0.0115,-3.27629 0.23783,-3.6864 1.46985,-2.66391 1.87204,1.55365 3.5438,0.50932 3.5438,-2.2138 0,-1.97424 0.0945,-2.00287 1.27638,-0.38655 1.45268,1.98665 5.15469,1.20244 4.34044,-0.91946 -0.51593,-1.34449 1.41551,-7.44981 2.35242,-7.43604 1.27816,0.0188 2.79041,4.90654 1.66548,5.38304 -0.69254,0.29335 -0.21476,1.28506 1.22606,2.54491 1.99949,1.74833 2.09055,2.06425 0.59502,2.06425 -1.64731,0 -1.65475,0.12269 -0.11079,1.82874 0.91025,1.00581 1.65499,2.53266 1.65499,3.39301 0,1.26007 1.89522,2.77825 3.46824,2.77825 0.16757,0 0.61367,-2.06052 0.99133,-4.57893 0.52285,-3.48664 1.04171,-4.44269 2.17508,-4.00777 0.99606,0.38222 1.42998,-0.005 1.31174,-1.17107 -0.47838,-4.71684 1.38672,-6.03547 2.46425,-1.74223 0.34511,1.375 1.12399,2.5 1.73086,2.5 0.77297,0 0.75299,0.42221 -0.0667,1.4099 -0.91794,1.10606 -0.78269,1.69872 0.62756,2.75 0.98872,0.73706 1.79767,1.9026 1.79767,2.5901 0,0.6875 0.45,1.25 1,1.25 0.55,0 1,-0.5175 1,-1.15 0,-0.6325 1.4625,-2.6125 3.25,-4.4 2.26882,-2.26882 3.25,-4.1859 3.25,-6.35 0,-1.705 0.45,-3.1 1,-3.1 0.55,0 1,0.69083 1,1.53518 0,2.37333 3.04735,6.46482 4.81501,6.46482 1.17684,0 1.29443,-0.29056 0.45666,-1.12833 -0.69082,-0.69082 -0.79668,-1.75713 -0.273,-2.75 0.47043,-0.89192 1.09906,-2.40917 1.39695,-3.37167 0.74004,-2.39264 2.6039,-2.21373 2.6039,0.25005 0,1.1 0.38812,2 0.86249,2 0.47436,0 0.73899,1.125 0.58805,2.5 -0.17475,1.59195 0.22702,2.5 1.10613,2.5 0.81632,0 1.14531,-0.61305 0.80496,-1.5 -0.31685,-0.82569 -0.0299,-1.5 0.63837,-1.5 0.66769,0 0.97174,-0.63126 0.67567,-1.4028 -0.29607,-0.77154 0.0334,-2.18468 0.73219,-3.1403 1.39451,-1.90711 3.3068,0.57774 2.032,2.6404 -0.86661,1.40221 2.5392,2.32364 3.82736,1.03548 0.84371,-0.84371 0.77844,-1.13278 -0.25578,-1.13278 -0.94538,0 -0.72261,-0.62043 0.69796,-1.9439 1.14759,-1.06914 2.3012,-2.53164 2.56357,-3.25 0.38208,-1.04614 0.74075,-1.05731 1.80203,-0.0561 2.00928,1.89555 2.6562,1.53481 3.13831,-1.75 0.24217,-1.65 0.11563,-3 -0.28119,-3 -0.76491,0 0.50567,-6.77112 1.44727,-7.71272 0.30485,-0.30486 0.84728,1.27801 1.20538,3.51749 0.54334,3.39782 3.41523,6.99731 3.41523,4.28048 0,-0.46859 0.9,-1.08734 2,-1.375 1.40313,-0.36693 2.00457,-1.37165 2.01531,-3.36663 0.008,-1.56399 0.45153,-3.51862 0.98469,-4.34362 1.08476,-1.67855 1.09378,-1.6643 1.57199,2.48268 0.18918,1.64048 1.08293,3.52304 1.98612,4.18347 0.90319,0.66043 1.40514,1.58429 1.11545,2.05303 -0.2897,0.46874 0.37427,0.85225 1.47547,0.85225 1.53331,0 1.90211,-0.52355 1.57483,-2.23562 -0.25576,-1.33791 0.14827,-2.4565 1.00618,-2.78571 2.0787,-0.79767 2.05136,-0.82184 2.76996,2.4499 0.37002,1.68469 1.30761,3 2.13847,3 0.81376,0 1.20063,-0.45132 0.85971,-1.00294 -0.34091,-0.55161 -0.29741,-3.13911 0.0967,-5.75 l 0.71653,-4.74706 1.2,3.5 c 0.66,1.925 0.9929,4.0596 0.73978,4.74356 -0.25312,0.68396 0.59932,1.66794 1.8943,2.18661 1.57585,0.63118 1.80673,0.96402 0.69814,1.00644 -1.15348,0.0442 -1.49759,0.67062 -1.13337,2.06339 1.11482,4.26309 3.00184,0.76348 3.23524,-6 0.0285,-0.825 0.70285,-5.325 1.49863,-10 2.45586,-14.4277 2.06656,-27.2712 -0.96552,-31.85297 -1.38677,-2.09555 -3.52427,-5.7984 -4.75,-8.22856 -1.97453,-3.91474 -2.90436,-4.64687 -8.15599,-6.42185 -4.31071,-1.45697 -6.21994,-2.684332 -7,-4.500002 -0.58994,-1.37314 -1.86011,-2.55912 -2.82261,-2.63551 -1.98482,-0.15752 -2.25131,0.73758 -0.68571,2.30318 1.10618,1.10618 -1.22951,4.335712 -3.13572,4.335712 -1.85345,0 -0.87161,-1.782752 1.32143,-2.399352 2.20914,-0.62113 2.21368,-0.65363 0.25,-1.78958 -1.1,-0.63633 -2.60919,-2.00936 -3.35375,-3.05119 -0.74457,-1.04183 -1.9991,-1.64659 -2.78786,-1.34391 -1.90526,0.73111 -2.9714,-2.22922 -1.34447,-3.73319 1.00409,-0.9282 1.10498,-0.87715 0.46874,0.23716 -0.59865,1.04846 -0.38379,1.2561 0.82127,0.79367 0.89761,-0.34444 1.92418,-0.15354 2.28126,0.42423 0.35709,0.57778 1.75696,0.83875 3.11084,0.57993 1.57582,-0.30123 2.66324,0.0549 3.02195,0.98968 0.40848,1.06449 0.75849,1.13963 1.29147,0.27727 0.46427,-0.75122 1.41718,0.22188 2.61083,2.66615 1.68161,3.44345 2.37505,3.91868 6.57944,4.50904 2.58485,0.36295 5.17235,0.952012 5.75,1.309022 2.10264,1.2995 0.97615,-1.483772 -1.9489,-4.815212 -2.05525,-2.34081 -4.49438,-3.78638 -7.75,-4.5931 -2.61295,-0.64748 -6.4187,-2.2694 -8.45723,-3.60427 -2.03853,-1.33487 -4.40613,-2.15853 -5.26134,-1.83035 -1.12653,0.43229 -1.38458,0.15274 -0.9366,-1.01466 0.4447,-1.1589 0.0426,-1.61134 -1.43197,-1.61134 -1.12765,0 -2.6383,-0.81505 -3.35699,-1.81121 -2.36035,-3.27166 -3.72744,-3.48209 -3.18492,-0.49023 0.5915,3.26192 1.91568,5.02832 4.20084,5.60376 0.92256,0.23231 0.66094,0.32097 -0.58136,0.19703 -1.92913,-0.19247 -2.07987,0.01 -1.03297,1.38765 0.67418,0.88715 0.83201,1.2794 0.35075,0.87168 -0.48126,-0.40773 -1.47737,-0.24142 -2.21358,0.36958 -0.9821,0.81507 -2.53745,0.80902 -5.84055,-0.0227 -3.67415,-0.92516 -5.17449,-0.85262 -8.15919,0.39447 -3.298,1.37799 -3.82768,1.37379 -5.39294,-0.0428 -1.77367,-1.60515 -4.56164,0.88977 -6.19377,5.54273 -0.52241,1.48931 -0.9486,0.79495 -2.35999,-3.84494 -0.22501,-0.73972 -1.30684,-1.5797 -2.40407,-1.86663 -1.09722,-0.28689 -1.99495,-0.95131 -1.99495,-1.47645 0,-0.52514 -0.71128,-0.24352 -1.58062,0.62582 -1.99039,1.99039 -3.49297,1.13716 -3.06098,-1.73815 0.59302,-3.94704 8.2543,-3.73948 9.12995,0.24734 0.36881,1.67918 1.29228,3.05305 2.05215,3.05305 2.02238,0 5.59755,-4.19786 4.96937,-5.83488 -0.61145,-1.5934 2.97771,-5.10669 5.39314,-5.27914 5.61059,-0.40058 7.70954,-1.00321 8.82967,-2.53508 0.75636,-1.03438 1.26732,-1.22912 1.26732,-0.48302 0,0.68759 0.45,0.97204 1,0.63212 1.65099,-1.02037 1.14482,-2.11299 -1.54705,-3.33949 -3.2688,-1.48936 -3.45295,-1.46811 -3.45295,0.3985 0,0.85746 -0.41891,1.30012 -0.9309,0.98369 -0.512,-0.31643 -1.22796,-0.0947 -1.59102,0.49277 -0.74928,1.21236 -6.65257,0.91047 -7.60091,-0.38872 -0.34255,-0.46928 -1.53882,-0.36302 -2.65837,0.23615 -1.68298,0.9007 -2.44113,0.66177 -4.37717,-1.37948 -1.2879,-1.35788 -2.94163,-2.47664 -3.67496,-2.48615 -2.20381,-0.0286 -0.70138,-2.41891 1.90747,-3.03477 3.31191,-0.78184 3.2494,-4.9825 -0.0741,-4.9825 -1.1,0 -2,-0.43875 -2,-0.975 0,-0.53625 1.35,-0.76125 3,-0.5 1.65,0.26125 4.30624,0.67999 5.90275,0.93055 2.42872,0.38115 3.00339,0.0546 3.51905,-2 0.6391,-2.54637 2.00564,-3.19099 3.07987,-1.45285 0.41211,0.6668 1.26937,0.65502 2.55902,-0.0352 1.06662,-0.57084 1.93931,-0.66849 1.93931,-0.21699 0,0.45149 0.86696,0.8209 1.92658,0.8209 1.05962,0 1.70806,-0.35358 1.44098,-0.78572 -0.26707,-0.43214 0.32846,-0.79235 1.32342,-0.80045 1.39849,-0.0114 1.24169,-0.30905 -0.69098,-1.3116 -1.73888,-0.90203 -2.74828,-0.97365 -3.31551,-0.23526 -0.44853,0.58388 -0.5307,0.0491 -0.18261,-1.1884 0.46286,-1.64552 0.2118,-2.25 -0.93449,-2.25 -2.03443,0 -2.02474,-1.61052 0.0144,-2.39301 2.65019,-1.01698 5.1983,-0.68405 6.76642,0.88408 1.05628,1.05628 1.60563,1.1474 1.88393,0.3125 0.53382,-1.60146 -2.63098,-4.61459 -5.64013,-5.36984 -1.55803,-0.39104 -2.26345,-1.12637 -1.92548,-2.00712 0.38999,-1.01629 1.02653,-1.12606 2.36769,-0.4083 2.59287,1.38766 3.96578,1.21909 3.96578,-0.48693 0,-0.91868 0.58321,-1.24481 1.55747,-0.87096 0.85661,0.32872 1.31176,1.23797 1.01146,2.02056 -0.30031,0.78259 -0.1349,1.1688 0.36759,0.85825 1.49747,-0.92549 6.18986,1.68903 5.6335,3.13889 -0.28272,0.73676 0.16222,1.32188 1.0052,1.32188 0.85713,0 1.38514,0.71428 1.21862,1.64853 -0.18662,1.04699 0.4448,1.70974 1.73039,1.81625 5.70743,0.47288 12.47577,6.73655 12.47577,11.54554 0,1.0294 0.45,2.14976 1,2.48968 0.60306,0.37271 1,-0.97103 1,-3.38522 0,-2.78715 0.68351,-4.71859 2.25,-6.35803 1.2375,-1.29512 1.6875,-1.62228 1,-0.72702 -1.95075,2.54027 -1.47617,3.16456 1.11502,1.46675 2.43618,-1.59624 7.63498,-0.66874 7.63498,1.36214 0,0.49946 0.90062,1.14363 2.00138,1.43149 1.10076,0.28785 1.76922,0.14773 1.48548,-0.31137 -0.73677,-1.19212 3.13999,-2.23195 5.51314,-1.47874 1.1,0.34912 2,1.30601 2,2.1264 0,0.8204 -0.36973,1.26313 -0.82162,0.98384 -0.85606,-0.52907 -4.17838,2.81844 -4.17838,4.21006 0,2.47872 -2.81738,4.57615 -4.39179,3.26951 -1.06303,-0.88224 -1.60821,-0.9542 -1.60821,-0.21226 0,0.61735 0.47656,1.12245 1.05902,1.12245 0.58246,0 0.7809,0.45 0.44098,1 -1.15832,1.8742 -7.12295,1.15622 -8.09719,-0.97468 -0.67067,-1.46693 -1.2885,-1.72406 -2.40281,-1 -1.24804,0.81096 -1.27103,1.12232 -0.13685,1.85363 0.9347,0.60268 1.00396,0.99868 0.22036,1.25988 -2.30724,0.76908 0.77222,15.9456 3.92857,19.36117 1.52478,1.65 3.77529,5.025 5.00114,7.500002 3.59924,7.26691 3.90455,7.45296 7.14149,4.35178 2.30604,-2.20933 2.84819,-3.59074 2.8606,-7.288872 0.01,-2.86767 0.32872,-4.06854 0.85887,-3.23225 0.59361,0.93638 1.03352,0.38082 1.48469,-1.875 1.00885,-5.04428 0.75212,-10.44468 -0.55887,-11.75566 -0.66,-0.66 -0.87344,-1.2 -0.47432,-1.2 0.39912,0 0.0135,-1.4625 -0.85702,-3.25 l -1.58271,-3.25 2.90461,3.40112 c 1.90186,2.22698 3.15021,3.00373 3.61604,2.25 1.27119,-2.05683 4.46836,-1.38896 3.8925,0.81312 -0.28251,1.08033 -0.80288,1.90889 -1.15638,1.84124 -2.55033,-0.48806 -4.14272,1.72026 -4.14272,5.74514 v 4.33664 l 3.19349,-2.91681 c 4.34171,-3.96553 4.98559,-2.78217 0.823,1.51254 -2.82935,2.91914 -3.08935,3.55182 -1.68165,4.09201 0.91584,0.35144 1.66516,1.29239 1.66516,2.09101 0,0.79861 -0.39901,1.20542 -0.88669,0.90402 -0.48768,-0.30141 -1.42774,0.10391 -2.08902,0.90071 -0.99372,1.19735 -0.83987,1.37891 0.88669,1.0464 2.19444,-0.42261 2.68609,0.99154 1.17463,3.378582 -0.48607,0.76764 -1.53106,1.14732 -2.3222,0.84373 -0.81018,-0.31089 -3.02696,0.9033 -5.07546,2.77997 l -3.63702,3.33195 1.35159,4.32432 c 0.74338,2.37837 1.85692,5.5911 2.47454,7.13941 0.61946,1.55293 1.12294,8.39038 1.12294,15.25 0,11.08045 1.00659,15.75822 2.29924,10.6849 0.33735,-1.324 0.77371,-0.95887 1.79256,1.5 2.1552,5.20126 3.97864,3.214 3.89965,-4.25 -0.0175,-1.65 0.006,-3.9 0.0528,-5 0.0465,-1.1 -0.22311,-3.24398 -0.59918,-4.76441 -0.55659,-2.25021 -0.39341,-2.65298 0.8773,-2.16536 0.85859,0.32947 1.70295,1.79845 1.87634,3.2644 l 0.31527,2.66537 1.38639,-2.4522 c 0.99524,-1.76035 1.0638,-2.55973 0.24299,-2.83333 -0.62887,-0.20963 -1.12722,-1.13114 -1.10744,-2.0478 0.0261,-1.21045 0.70596,-0.84661 2.48361,1.32919 l 2.44764,2.99586 -0.404,-3.19226 c -0.49074,-3.87758 0.33885,-7.47803 1.55048,-6.7292 0.48747,0.30128 0.88631,0.0712 0.88631,-0.51124 0,-0.58246 0.72314,-1.05902 1.60699,-1.05902 1.01759,0 1.39587,0.55016 1.03138,1.5 -0.31658,0.825 -0.0822,1.5 0.52082,1.5 2.76433,0 -2.22673,19.21407 -8.23212,31.69122 -16.21305,33.68515 -59.9738,53.28955 -137.92707,61.79 -53.35555,5.81817 -81.16645,13.04668 -114.43099,29.74246 -18.82896,9.45044 -24.193,15.95206 -19.86341,24.07598 0.93808,1.76019 1.61308,3.53784 1.5,3.95034 -0.11308,0.4125 0.43168,0.75 1.21058,0.75 0.7789,0 2.01154,1.34501 2.7392,2.98891 0.74472,1.68243 1.9834,2.88448 2.83382,2.75 0.9012,-0.14251 1.63974,0.66896 1.83035,2.01109 0.17575,1.2375 0.98981,2.25 1.80902,2.25 0.8192,0 1.24907,0.38897 0.95525,0.86438 -0.29382,0.4754 1.7112,2.75774 4.4556,5.07184 2.74439,2.31411 4.78231,4.54321 4.5287,4.95355 -0.2536,0.41035 0.55049,1.84052 1.78689,3.17816 2.99795,3.24346 3.73785,5.43725 2.31685,6.86946 -0.89909,0.90618 -0.72411,1.01052 0.75175,0.44825 2.30956,-0.8799 1.9272,0.51428 -1.72978,6.30732 -2.36546,3.74713 -5.87355,5.95351 -17.69383,11.12839 -7.49943,3.28323 -36.01634,10.61793 -51,13.11748 -3.575,0.59637 -10.325,1.76396 -15,2.59465 -11.51394,2.04586 -52.06551,8.16255 -59.5,8.97481 -3.3,0.36055 -6.67865,0.83945 -7.50811,1.06424 -0.82946,0.22478 -5.32946,-1.88509 -10,-4.68862 z m 25.62061,-124.97331 c 4.73999,-3.76688 4.92207,-5.35871 0.6375,-5.5736 -2.78928,-0.13989 -3.25,0.16951 -3.25,2.18261 0,1.46736 -0.74885,2.58329 -2,2.98039 -2.24287,0.71186 -2.75072,3.5 -0.6375,3.5 0.74937,0 3.11187,-1.39023 5.25,-3.0894 z m 42.08174,-0.47748 2.80576,-2.56688 -3.99771,0.65866 c -3.92523,0.64673 -5.85233,2.09971 -4.87729,3.67735 0.91929,1.48745 3.25322,0.80713 6.06924,-1.76913 z m 36.30576,-4.43312 c 0,-0.55 -0.45,-1 -1,-1 -0.55,0 -1,0.45 -1,1 0,0.55 0.45,1 1,1 0.55,0 1,-0.45 1,-1 z m 78.5,-3 c 0.33992,-0.55 0.14148,-1 -0.44098,-1 -0.58246,0 -1.05902,0.45 -1.05902,1 0,0.55 0.19844,1 0.44098,1 0.24254,0 0.7191,-0.45 1.05902,-1 z m -154.94252,-4.48082 c 4.40736,-2.58288 7.99523,-6.92742 5.25938,-6.36857 -0.72427,0.14795 -2.32936,-0.29125 -3.56686,-0.97599 -1.2375,-0.68474 -2.25,-1.05154 -2.25,-0.81511 0,0.23643 -1.48046,0.096 -3.2899,-0.31212 -2.35591,-0.53135 -4.21228,-0.24732 -6.53888,1.00045 l -3.24899,1.74245 3.71536,3.06251 3.71536,3.06251 -2.67648,1.0176 c -1.47206,0.55967 -2.67647,1.31261 -2.67647,1.67318 0,1.35307 7.31518,-0.60076 11.55748,-3.08691 z m 155.46258,-0.0434 c 0.69572,-0.83829 1.04022,-1.74888 0.76557,-2.02353 -0.90557,-0.90557 -3.78563,0.73369 -3.78563,2.15469 0,1.83458 1.44056,1.77202 3.02006,-0.13116 z m -176.43868,-1.60751 c 0.38468,-0.62242 -0.0165,-1.53235 -0.89162,-2.02206 -0.87507,-0.48972 -2.25955,-1.55891 -3.07664,-2.376 -2.36502,-2.36502 -2.79756,0.0255 -0.52691,2.9122 2.24084,2.84877 3.41332,3.23633 4.49517,1.48586 z m 175.41862,-1.86827 c 0,-0.55 -0.42344,-1 -0.94098,-1 -0.51754,0 -1.2191,0.45 -1.55902,1 -0.33992,0.55 0.0835,1 0.94098,1 0.85746,0 1.55902,-0.45 1.55902,-1 z m 6.5,-6 c 0.33992,-0.55 -0.33508,-1 -1.5,-1 -1.16492,0 -1.83992,0.45 -1.5,1 0.33992,0.55 1.01492,1 1.5,1 0.48508,0 1.16008,-0.45 1.5,-1 z M 108.2934,199.87229 c 1.03484,-2.69675 0.68798,-3.41824 -1.64301,-3.4175 -1.69448,5.3e-4 -2.28561,0.61777 -2.39421,2.5 -0.16566,2.87091 3.01063,3.59276 4.03722,0.9175 z m 225.37782,-2.23071 c 0.21771,-0.65313 -0.31666,-1.1875 -1.1875,-1.1875 -0.87083,0 -1.58333,0.7125 -1.58333,1.58333 0,1.76593 2.15276,1.45839 2.77083,-0.39583 z m -307.210668,-1.48559 2.67169,-2.29809 -2.36593,0.17491 c -4.21842,0.31188 -6.75414,1.54899 -6.18974,3.01981 0.78136,2.03617 2.83891,1.72263 5.88398,-0.89663 z m 307.439838,-2.09492 c 0,-1.40501 -2.87577,-3.06455 -3.76667,-2.17366 -0.26422,0.26423 -0.21394,1.17482 0.11175,2.02354 0.73778,1.92265 3.65492,2.04246 3.65492,0.15012 z m 27,-3.60699 c 0,-0.55 -0.675,-1 -1.5,-1 -0.825,0 -1.5,0.45 -1.5,1 0,0.55 0.675,1 1.5,1 0.825,0 1.5,-0.45 1.5,-1 z m 42.51216,-1.82118 c -0.79461,-0.79461 -2.51396,1.00926 -1.90347,1.99704 0.41524,0.67187 0.93059,0.56959 1.46194,-0.29014 0.45134,-0.73029 0.65003,-1.49839 0.44153,-1.7069 z M 29.371812,186.48565 c 3.02657,-3.34431 -0.70591,-4.6008 -7.72142,-2.59931 -3.42448,0.97698 -3.45304,1.86957 -0.14313,4.47315 2.85407,2.24501 4.48974,1.85529 7.86455,-1.87384 z m 332.352978,-0.0941 c 0.24718,-0.79063 0.0917,-1.1039 -0.34549,-0.69618 -0.43719,0.40773 -1.40967,0.23111 -2.16107,-0.3925 -1.87724,-1.55797 -2.90274,-0.2585 -1.31026,1.66032 1.47866,1.78167 3.15983,1.52988 3.81682,-0.57164 z M 88.865202,185.51979 c 1.46067,-2.72929 1.32589,-3.06772 -1.21481,-3.05043 -3.69906,0.0252 -5.37666,1.52469 -3.81326,3.40847 1.76614,2.12807 3.77407,1.98509 5.02807,-0.35804 z m 266.035188,0.49328 c 0,-1.61407 -1.4163,-2.80939 -2.29162,-1.93407 -0.78038,0.78038 0.29485,3.37505 1.39861,3.37505 0.49115,0 0.89301,-0.64844 0.89301,-1.44098 z m 47.1038,-0.85522 c -1.28349,-1.28349 -2.58505,-0.2915 -1.63484,1.24598 0.36808,0.59556 1.12735,0.79971 1.68727,0.45366 0.683,-0.42212 0.66575,-0.98146 -0.0524,-1.69964 z m -15.49034,-2.53663 c 0.0624,-1.19194 -0.44384,-2.16717 -1.125,-2.16717 -0.68115,0 -1.23846,1.14375 -1.23846,2.54167 0,3.07583 2.20108,2.72707 2.36346,-0.3745 z m 34.97724,0.0902 c -0.6935,-0.69349 -2.5907,0.71555 -2.5907,1.9241 0,0.6631 0.57378,0.58723 1.52417,-0.20152 0.83829,-0.69572 1.31823,-1.47088 1.06653,-1.72258 z m -71.5907,-0.25737 c 0,-0.55 -0.19844,-1 -0.44098,-1 -0.24254,0 -0.7191,0.45 -1.05902,1 -0.33992,0.55 -0.14148,1 0.44098,1 0.58246,0 1.05902,-0.45 1.05902,-1 z m 70.5907,-2.74264 c -0.6935,-0.69349 -2.5907,0.71555 -2.5907,1.9241 0,0.6631 0.57378,0.58723 1.52417,-0.20152 0.83829,-0.69572 1.31823,-1.47088 1.06653,-1.72258 z M 63.564552,178.88683 c 0.33077,-0.86197 0.0916,-2.07697 -0.53138,-2.7 -0.84371,-0.84371 -1.13278,-0.82655 -1.13278,0.0672 0,0.66 -0.7301,1.2 -1.62245,1.2 -1.32879,0 -1.39712,0.27149 -0.37755,1.5 1.60156,1.92976 2.90704,1.90581 3.66416,-0.0672 z m 14.85975,-0.50814 c 0.36229,-1.14145 0.39261,-2.34145 0.0674,-2.66667 -0.32522,-0.32522 -0.5913,-0.0759 -0.5913,0.55392 0,0.85867 -0.62557,0.86021 -2.5,0.006 -1.375,-0.62634 -2.5,-1.51669 -2.5,-1.97841 0,-0.46171 -0.675,-0.83948 -1.5,-0.83948 -2.15186,0 -1.86669,1.00783 1.18709,4.19528 3.19591,3.33582 4.94038,3.5538 5.83682,0.72936 z m 10.91938,-1.14715 c 1.39369,-1.98977 2.16141,-5.77749 1.17101,-5.77749 -0.21213,0 -1.67463,0.67223 -3.25,1.49384 -1.57537,0.82161 -3.6518,1.49661 -4.6143,1.5 -2.02936,0.007 -2.12805,0.43125 -0.71482,3.0719 1.40429,2.62394 5.4794,2.46538 7.40811,-0.28825 z m 302.056708,1.22251 c 0.33992,-0.55 -0.0835,-1 -0.94098,-1 -0.85746,0 -1.55902,0.45 -1.55902,1 0,0.55 0.42344,1 0.94098,1 0.51754,0 1.2191,-0.45 1.55902,-1 z m -340.999998,-2 c 0.33992,-0.55 0.14147,-1 -0.44099,-1 -0.58246,0 -1.05901,0.45 -1.05901,1 0,0.55 0.19844,1 0.44098,1 0.24254,0 0.7191,-0.45 1.05902,-1 z m 394.499998,-1 c 0,-0.55 -0.19844,-1 -0.44098,-1 -0.24254,0 -0.7191,0.45 -1.05902,1 -0.33992,0.55 -0.14148,1 0.44098,1 0.58246,0 1.05902,-0.45 1.05902,-1 z M 49.150392,169.37059 c 4.49745,-3.37178 3.45535,-5.05755 -2.5,-4.04416 -0.4125,0.0702 -0.75,1.02762 -0.75,2.12762 0,1.33333 -0.66667,2 -2,2 -2.23403,0 -2.5665,1.03351 -0.87621,2.72379 0.70936,0.70937 1.5391,0.77911 2.25,0.18912 0.61941,-0.51407 2.36371,-1.86244 3.87621,-2.99637 z m 15.71481,-1.8508 c 1.92373,-3.59452 1.32811,-6.29159 -1.21481,-5.50094 -1.2375,0.38476 -2.4,1.09009 -2.58334,1.56738 -0.18333,0.4773 -1.19583,0.86782 -2.25,0.86782 -2.3509,0 -2.41613,0.79061 -0.26168,3.17126 2.15301,2.37904 5.00567,2.33133 6.30983,-0.10552 z m 397.535188,-5.06571 c 0.33992,-0.55 0.14148,-1 -0.44098,-1 -0.58246,0 -1.05902,0.45 -1.05902,1 0,0.55 0.19844,1 0.44098,1 0.24254,0 0.7191,-0.45 1.05902,-1 z m -413.603598,-3.5348 c 4.42912,-5.04449 4.12961,-6.91549 -1.14787,-7.17047 -3.92202,-0.18948 -4.0564,-0.11674 -1.74853,0.94652 3.47398,1.6005 3.43279,1.53234 1.98228,3.28009 -0.71649,0.86332 -1.90561,1.33832 -2.6425,1.05555 -3.33792,-1.28088 -5.60051,1.76238 -3.13978,4.22311 1.93276,1.93276 3.39799,1.42189 6.6964,-2.3348 z m 448.103598,-7.4652 c 0,-0.55 -0.45,-1 -1,-1 -0.55,0 -1,0.45 -1,1 0,0.55 0.45,1 1,1 0.55,0 1,-0.45 1,-1 z M 473.50536,86.228918 c -0.89388,-4.46939 -5.45844,-10.77484 -7.79999,-10.77484 -1.05766,0 -1.66412,-0.41891 -1.34769,-0.9309 0.31644,-0.512 0.11799,-1.21356 -0.44098,-1.55902 -0.55897,-0.34546 -1.01631,-0.0766 -1.01631,0.59757 0,0.67412 -0.28913,0.93656 -0.6425,0.58318 -0.35338,-0.35338 -0.10959,-1.28461 0.54174,-2.06942 0.91953,-1.10797 0.89551,-1.53377 -0.1075,-1.90497 -0.75008,-0.27759 -0.066,-0.96459 1.63145,-1.63834 3.30458,-1.31168 2.3237,-3.18585 -2.41535,-4.61502 -2.23031,-0.67261 -2.34878,-0.57882 -1.12755,0.89267 1.20718,1.45457 1.06208,1.64425 -1.25785,1.64425 -1.44234,0 -2.62244,0.47656 -2.62244,1.05901 0,0.58246 -0.40313,0.80988 -0.89584,0.50536 -0.49271,-0.30451 -1.95521,0.32896 -3.25,1.40772 l -2.35416,1.96137 2.5,0.15169 c 1.375,0.0834 2.8375,0.0984 3.25,0.0333 1.49411,-0.23591 0.70689,4.19262 -0.96225,5.41312 -1.45904,1.06688 -1.51191,1.49344 -0.3575,2.88441 0.74511,0.89781 1.57537,1.41177 1.84501,1.14213 0.26964,-0.26964 1.34172,0.59222 2.38241,1.91524 1.04069,1.32302 4.24345,3.30932 7.11725,4.41398 7.41858,2.85166 8.10212,2.74792 7.33005,-1.11246 z m -39.60497,-2.33386 c 0,-0.85746 -0.45734,-1.27636 -1.01631,-0.9309 -0.55897,0.34546 -0.75742,1.04702 -0.44098,1.55902 0.85723,1.38704 1.45729,1.12841 1.45729,-0.62812 z m 38.53088,-9.30038 c -0.6762,-3.07871 -3.53088,-6.49938 -3.53088,-4.23093 0,1.95507 2.99076,8.4329 3.60829,7.81537 0.32012,-0.32012 0.28528,-1.93311 -0.0774,-3.58444 z m -34.07359,-3.0715 c 0.31644,-0.512 0.19299,-1.16721 -0.27431,-1.45602 -0.46731,-0.28881 -0.84965,0.1301 -0.84965,0.93091 0,1.68616 0.31534,1.83349 1.12396,0.52511 z m 11.04271,-14.0691 c -0.33992,-0.55 -1.23992,-1 -2,-1 -0.76008,0 -1.66008,0.45 -2,1 -0.35191,0.5694 0.50929,1 2,1 1.49071,0 2.35191,-0.4306 2,-1 z M 184.17028,208.92785 c 0.2766,-2.06549 1.73011,-3.72369 1.73011,-1.97377 0,0.275 0,1.4 0,2.5 0,1.1 -0.46539,2 -1.03421,2 -0.56882,0 -0.88197,-1.13681 -0.6959,-2.52623 z M 11.900392,159.3131 c 0,-0.40754 0.45,-1.0191 1,-1.35902 0.55,-0.33992 1.03654,-1.82898 1.08122,-3.30902 l 0.0812,-2.69098 1.16878,2.60441 c 0.64283,1.43243 1.71168,3.25493 2.37524,4.05 1.01373,1.21466 0.6543,1.44559 -2.25,1.44559 -1.90106,0 -3.45646,-0.33344 -3.45646,-0.74098 z m 374.057558,-3.89399 c -7.99214,-3.66926 -8.14614,-3.15398 4.58282,-15.33416 13.15726,-12.59 12.93732,-12.46826 17.49969,-9.68676 6.28789,3.83347 15.31774,0.77516 20.35993,-6.89569 2.65416,-4.03786 4.10943,-3.84264 4.83834,0.64907 0.71642,4.41478 0.0798,5.53089 -1.25347,2.19769 -0.83138,-2.07839 -0.96829,-1.8 -1.03514,2.10482 -0.0424,2.475 -0.36654,5.625 -0.72038,7 -0.62399,2.42482 -0.58362,2.44737 1.3424,0.75 2.47098,-2.17764 3.70717,-2.20328 5.44207,-0.11285 1.17364,1.41414 1.0541,1.8394 -0.87755,3.12197 -2.79424,1.8553 -2.83091,2.85211 -0.13091,3.55818 3.17172,0.82942 1.84782,2.91541 -3.48308,5.48807 l -4.77703,2.30537 -5.39511,-4.60919 c -2.96732,-2.53505 -7.32,-6.60254 -9.67263,-9.03885 -5.12767,-5.31007 -5.52744,-5.40515 -5.09897,-1.2127 l 0.33216,3.25 -1.93119,-4 -1.93118,-4 -0.11806,5.5 c -0.0649,3.025 -0.75303,7.28277 -1.52911,9.46172 -1.86525,5.23692 -1.36751,5.41021 2.41188,0.83973 3.75859,-4.54533 5.49964,-3.30289 4.48222,3.19855 -0.84017,5.3688 -0.68042,5.22583 -6.64638,5.94801 -2.88688,0.34945 -6.82388,0.84264 -8.74888,1.09597 -2.24778,0.29581 -5.0894,-0.2691 -7.94244,-1.57895 z m 41.91181,-27.46503 c 0,-0.55 -0.43621,-0.325 -0.96937,0.5 -0.53316,0.825 -0.96937,1.95 -0.96937,2.5 0,0.55 0.43621,0.325 0.96937,-0.5 0.53316,-0.825 0.96937,-1.95 0.96937,-2.5 z m -16.42666,26.5691 c -0.31644,-0.512 -0.13273,-1.20445 0.40822,-1.53878 0.54096,-0.33432 0.72036,-1.92386 0.39867,-3.5323 -0.88362,-4.41811 0.32659,-8.37565 2.06889,-6.76554 0.75437,0.69714 1.16477,1.60905 0.912,2.02647 -0.9197,1.51877 0.76739,4.46462 3.18873,5.56785 3.17405,1.4462 3.12082,2.36871 -0.22639,3.9232 -3.18956,1.48128 -5.95117,1.61183 -6.75012,0.3191 z M 243.2719,147.4168 c 3.22933,-2.93661 8.17933,-6.73122 11,-8.43246 2.82067,-1.70124 5.74789,-3.47824 6.50494,-3.94888 1.09058,-0.678 1.16633,-0.48024 0.36472,0.95216 -0.55646,0.99434 -3.30099,3.19357 -6.09894,4.88717 -2.79796,1.69361 -7.91208,5.05974 -11.36472,7.4803 l -6.27751,4.40101 z m 117.12849,3.51005 c -0.55,-0.20313 -5.05,-0.5051 -10,-0.67105 l -9,-0.30172 -0.52545,-5.22545 c -0.58489,-5.81666 -1.79304,-7.66517 -4.3648,-6.67829 -1.14401,0.439 -1.48251,1.20758 -1.00538,2.28278 0.39562,0.89153 0.91875,3.30846 1.16251,5.37096 l 0.44319,3.75 h -9.54602 c -5.25031,0 -9.79423,-0.40162 -10.0976,-0.89248 -0.70385,-1.13885 3.25943,-17.18855 4.6626,-18.88169 0.58077,-0.70079 0.73003,-1.60008 0.33169,-1.99842 -1.86716,-1.86716 -3.86087,3.74888 -6.02832,16.98103 l -0.60745,3.70844 -18.96359,0.29156 c -10.42998,0.16036 -18.9631,0.0401 -18.96249,-0.26731 6.1e-4,-0.30738 0.6618,-1.43238 1.46931,-2.5 2.96321,-3.91771 1.41665,-4.90504 -1.8658,-1.19113 l -3.31435,3.75 h -11.64403 c -6.62938,0 -11.64402,-0.40624 -11.64402,-0.9433 0,-1.63561 4.32965,-4.0567 7.25462,-4.0567 6.77408,0 17.6943,-7.92734 25.80224,-18.73068 2.38145,-3.17313 5.68115,-7.23182 7.33269,-9.01932 1.96448,-2.12622 2.50273,-3.25316 1.55662,-3.25915 -0.79539,-0.005 -7.07117,5.80718 -13.94617,12.91601 -6.875,7.10884 -13.84106,13.75045 -15.48012,14.75915 l -2.98013,1.83399 2.87108,-3.77919 c 1.57909,-2.07856 3.59515,-4.20237 4.48012,-4.71959 1.31447,-0.76823 1.15135,-0.948 -0.89095,-0.9819 -2.43175,-0.0404 -2.40445,-0.1161 1,-2.77418 1.925,-1.50297 7.40647,-6.22298 12.18104,-10.48891 5.6914,-5.08508 9.50326,-7.75623 11.0685,-7.75623 8.50097,0 17.26469,-5.77376 23.32618,-15.367872 3.49575,-5.53308 5.06331,-5.84986 5.6138,-1.13447 0.31858,2.7289 0.0702,3.44323 -1.12984,3.25 -1.62219,-0.26119 -1.88139,0.41736 -6.3993,16.752342 -2.70174,9.76841 -2.67062,10.72423 0.26269,8.06962 2.84413,-2.5739 5.28274,-8.20967 6.73702,-15.56962 l 1.28435,-6.5 -0.4637,7.80006 c -0.40982,6.89376 -0.17007,8.37951 2.06338,12.78701 3.0675,6.05341 4.45588,5.566 4.45588,-1.5643 0,-9.03929 2.0576,-11.40025 4.07299,-4.67349 0.80178,2.67609 0.85845,5.23162 0.18593,8.38482 -1.47895,6.93437 1.31863,9.61217 21.84991,20.91441 5.99014,3.2975 10.89117,6.18807 10.89117,6.42348 0,0.49642 -2.04415,0.43848 -3.5,-0.0992 z m -32.49464,-9.95866 c -0.55295,-1.45437 -1.01225,-4.07751 -1.02067,-5.82921 -0.008,-1.75169 -0.42751,-3.83643 -0.93129,-4.63275 -1.59589,-2.52253 -2.54067,3.85921 -1.09172,7.37421 0.69686,1.6905 1.50068,4.37277 1.78627,5.9606 0.40918,2.275 0.70404,2.55676 1.39101,1.32921 0.51147,-0.91394 0.45625,-2.65064 -0.1336,-4.20206 z m -24.99654,-7.53139 c 1.15942,-2.27267 1.94553,-4.61967 1.7469,-5.21556 -0.36031,-1.08092 -7.75907,13.05182 -7.75198,14.80743 0.004,1.08345 3.00002,-3.70147 6.00508,-9.59187 z m 1.13782,-20.48272 c 2.67938,-3.51921 2.48812,-3.41205 -1.59119,0.89157 -2.55014,2.69037 -5.09214,5.84037 -5.6489,7 -1.13156,2.35689 2.21239,-1.28796 7.24009,-7.89157 z M 36.974022,140.19732 c 1.01863,-3.55174 1.92637,-4.72587 1.92637,-2.49169 0,0.87168 0.25045,2.23754 0.55655,3.03524 0.34234,0.8921 -0.19481,1.64686 -1.3955,1.96084 -1.74412,0.4561 -1.85996,0.18931 -1.08742,-2.50439 z m 24.54782,-21.38257 c -1.83834,-0.99579 -4.00654,-1.33451 -6,-0.93732 -3.07301,0.61228 -3.0868,0.5976 -0.88806,-0.94578 1.59759,-1.12142 4.15973,-1.49969 9,-1.32874 4.1029,0.14491 8.02626,-0.30987 9.96651,-1.15525 2.88261,-1.25599 3.40378,-1.20972 5.25613,0.46663 2.47806,2.24261 2.00622,3.12514 -0.85279,1.59505 -1.66992,-0.89372 -3.02759,-0.62055 -7.0524,1.41898 -5.79061,2.93432 -5.66975,2.92296 -9.42939,0.88643 z m 277.957938,-5.95949 c -2.65584,-3.17723 -3.30996,-4.49099 -2.1161,-4.25 1.43108,0.28888 7.57379,8.84882 6.35001,8.84882 -0.21437,0 -2.11964,-2.06947 -4.23391,-4.59882 z m -181.47541,1.95909 c -2.27012,-1.59005 -5.5069,-1.54072 -16.44395,0.25062 -3.53433,0.57887 -4.18423,0.29106 -8.16516,-3.61593 -2.57453,-2.52671 -6.48452,-5.02568 -9.66003,-6.17398 l -5.33484,-1.92913 5.84061,0.49117 c 4.35987,0.36665 7.39211,1.4154 11.96037,4.1367 4.74887,2.82889 6.80067,3.51584 9.15939,3.06658 10.01844,-1.90818 9.88724,-1.92149 12.96673,1.31577 3.30128,3.47042 3.11755,4.86815 -0.32312,2.4582 z m 28.41537,-10.9056 c -2.18936,-1.29625 -5.78936,-2.63924 -8,-2.98444 -2.21064,-0.34519 -6.39559,-1.491042 -9.29989,-2.546322 -6.49795,-2.36104 -12.23203,-1.40183 -19.50748,3.263252 -5.775,3.70298 -6.4605,3.37865 -3.15145,-1.49105 5.34563,-7.866802 14.23294,-9.627292 24.02975,-4.760052 3.25034,1.61484 8.38472,3.87 11.40972,5.011482 3.025,1.14148 6.625,2.96024 8,4.0417 3.38635,2.66342 1.40741,2.35948 -3.48065,-0.53457 z m 266.99289,-2.43486 c -0.26936,-0.43584 0.40475,-1.02634 1.49801,-1.31224 1.09327,-0.285902 2.20814,-0.163222 2.47751,0.27262 0.26936,0.43584 -0.40475,1.02634 -1.49801,1.31224 -1.09327,0.2859 -2.20814,0.16322 -2.47751,-0.27262 z m 30.93497,-3.934402 c 0.31089,-0.50302 -5e-5,-1.10484 -0.69098,-1.33738 -0.99627,-0.3353 -0.98484,-0.75164 0.0553,-2.01196 1.82811,-2.21517 7.11614,-0.42533 6.90798,2.33814 -0.11213,1.48848 -0.90494,1.92579 -3.49128,1.92579 -1.84042,0 -3.09185,-0.41157 -2.78097,-0.91459 z m 27.19526,-0.59609 c 0.57028,-1.48611 -2.75023,-1.71489 -4.17731,-0.28782 -0.3225,0.32251 -1.6841,-0.51135 -3.02577,-1.85302 -2.42211,-2.42211 -3.24542,-3.96467 -1.56014,-2.92311 0.48358,0.29887 2.06605,-0.6434 3.51659,-2.09394 3.40944,-3.40944 8.07443,-2.05331 7.04506,2.04803 -0.33881,1.34993 -0.1081,2.70818 0.52663,3.10047 0.83451,0.51576 0.82369,1.06671 -0.0414,2.1091 -1.55105,1.86891 -3.01455,1.80501 -2.28364,-0.0997 z m -4.64247,-13.41247 c 0,-0.47458 0.69441,-1.12934 1.54312,-1.45503 1.22023,-0.46824 1.31518,-1.01808 0.45376,-2.62765 -0.59915,-1.11953 -0.84075,-2.43777 -0.53689,-2.92943 0.30386,-0.49166 -0.007,-1.08043 -0.69092,-1.30839 -0.68387,-0.22795 0.37435,-0.47528 2.35159,-0.54961 4.86961,-0.18307 8.23443,2.30981 5.50522,4.07863 -1.03077,0.66804 -3.39327,2.21357 -5.25,3.43449 -1.85674,1.22093 -3.37588,1.83157 -3.37588,1.35699 z M 62.265342,71.327198 c 5.61473,-8.47393 14.06239,-10.77132 21.83662,-5.9386 4.54587,2.82587 5.70668,3.12824 9.83164,2.56091 3.15965,-0.43456 5.820148,-0.16572 8.199908,0.82861 4.24405,1.77328 6.30412,4.21091 2.25893,2.67293 -1.44224,-0.54833 -6.43589,-0.99697 -11.096988,-0.99697 -6.5013,0 -9.38763,-0.46573 -12.39506,-2 -5.25158,-2.67915 -7.7776,-2.5238 -13.05422,0.80283 -7.50668,4.73257 -7.29208,4.65296 -5.58083,2.07029 z M 468.40039,60.454078 c -0.33992,-0.55 -0.14148,-1 0.44098,-1 0.58246,0 1.05902,0.45 1.05902,1 0,0.55 -0.19844,1 -0.44098,1 -0.24254,0 -0.7191,-0.45 -1.05902,-1 z m 17.92586,-2.69579 c 0.13689,-0.93269 0.73666,-1.85839 1.33283,-2.05711 0.64936,-0.21645 0.86826,0.46344 0.54599,1.69579 -0.64565,2.46897 -2.23296,2.77422 -1.87882,0.36132 z m 13.77414,0.49579 c -1.73801,-1.73801 -1.47517,-2.8 0.69301,-2.8 1.04116,0 2.16333,-0.70443 2.49371,-1.56539 0.46946,-1.2234 0.13776,-1.41846 -1.51824,-0.89287 -1.52435,0.48381 -1.90754,0.33048 -1.36559,-0.54641 0.41434,-0.67042 0.18012,-1.57321 -0.52049,-2.00621 -0.7229,-0.44678 -0.98736,-1.5338 -0.61148,-2.51335 1.18245,-3.0814 12.62908,-0.0576 12.62908,3.3362 0,2.07886 -2.7205,4.46418 -3.3407,2.9291 -0.39675,-0.98202 -0.51788,-0.98016 -0.58035,0.009 -0.0434,0.68753 -0.75395,1.25003 -1.57895,1.25003 -0.83333,0 -1.5,0.88889 -1.5,2 0,2.25504 -2.8671,2.73289 -4.8,0.8 z m -8.01462,-0.54 c -2.06003,-0.7361 -3.34458,-5.09402 -2.1561,-7.31471 1.10034,-2.05602 4.18576,-2.13025 6.16762,-0.14839 1.51074,1.51073 0.25317,2.80936 -1.42273,1.46918 -0.70695,-0.56533 -2.1645,-0.67654 -3.27417,-0.24983 -2.12857,0.81852 -1.19716,1.51303 2.91713,2.1752 1.05443,0.1697 2.09427,0.84058 2.31077,1.49084 0.47555,1.42834 -2.70621,3.23387 -4.54252,2.57771 z m -25.93538,-4.99334 c -0.6875,-0.23833 -1.26239,-0.95833 -1.27753,-1.6 -0.0151,-0.64166 -1.61702,-2.29166 -3.55973,-3.66666 -1.94272,-1.375 -4.10992,-3.02424 -4.81601,-3.66497 -0.70609,-0.64073 -2.1415,-1.09073 -3.18978,-1 -1.27949,0.11074 -2.01118,-0.5746 -2.22602,-2.08503 -0.38979,-2.74046 2.2252,-3.08903 3.75108,-0.5 0.70925,1.20341 1.27137,1.39881 1.79969,0.62563 1.0969,-1.60526 7.2683,-2.82255 7.2683,-1.43365 0,0.60549 1.125,1.61348 2.5,2.23997 1.375,0.62649 2.50689,1.85435 2.51531,2.72856 0.0111,1.14628 0.23297,1.24686 0.79592,0.36069 0.57668,-0.90781 1.23271,-0.70077 2.51133,0.79255 0.9519,1.11174 2.18593,1.74002 2.74228,1.39617 1.1946,-0.7383 10.93516,1.59738 10.93516,2.62214 0,0.91727 -2.65137,1.91794 -5.08179,1.91794 -1.05501,0 -1.91821,0.39966 -1.91821,0.88813 0,0.96205 -8.19894,0.72498 -9.83197,-0.28428 -0.54846,-0.33897 -1.14814,-0.23101 -1.33262,0.23992 -0.18448,0.47092 -0.89791,0.66123 -1.58541,0.42289 z m 11.20888,-9.33319 c -1.02606,-1.66021 -0.10511,-1.89043 1.33055,-0.33261 0.70918,0.76952 0.84824,1.39914 0.30901,1.39914 -0.53922,0 -1.27702,-0.47994 -1.63956,-1.06653 z m -3.25263,-2.61773 c -1.81857,-3.29304 -1.63668,-6.46734 0.22955,-4.0059 0.77052,1.01627 1.63626,1.38257 1.97443,0.83541 0.33123,-0.53594 0.041,-1.16153 -0.64507,-1.3902 -0.90187,-0.30062 -0.76512,-0.89795 0.49377,-2.15684 1.02051,-1.02051 1.74107,-1.25278 1.74107,-0.56123 0,0.76114 0.89285,0.95574 2.51598,0.54836 2.07153,-0.51992 2.68981,-0.17427 3.5,1.95669 1.28894,3.39018 1.30233,3.35397 -1.01598,2.74772 -1.58146,-0.41357 -2.0032,-0.0277 -2.01531,1.84362 -0.009,1.31839 -0.34073,1.8914 -0.75,1.29369 -1.38971,-2.02954 -4.09061,-2.40551 -4.46579,-0.62164 -0.30243,1.43799 -0.53903,1.36385 -1.56265,-0.48968 z"
       id="path1" />
  </g>
</svg>
