<?xml version="1.0" standalone="no"?>
<!DOCTYPE svg PUBLIC "-//W3C//DTD SVG 20010904//EN"
 "http://www.w3.org/TR/2001/REC-SVG-20010904/DTD/svg10.dtd">
<svg version="1.0" xmlns="http://www.w3.org/2000/svg"
 width="600.000000pt" height="335.000000pt" viewBox="0 0 600.000000 335.000000"
 preserveAspectRatio="xMidYMid meet">
<g transform="translate(200.000000,250.000000) scale(0.0500000,-0.0500000)"
fill="#FFFFFF" stroke="none">
<path d="M4980 3221 c-135 -32 -173 -56 -168 -105 3 -26 -1 -30 -37 -42 -154
-50 -211 -71 -290 -111 -49 -25 -102 -53 -116 -64 -38 -26 -47 -24 -19 5 24
26 22 56 -4 56 -9 0 -40 -9 -69 -20 -49 -19 -57 -19 -83 -5 -43 22 -116 19
-148 -6 -45 -35 -59 -75 -52 -143 4 -45 3 -57 -5 -46 -9 13 -10 13 -6 0 9 -35
80 -15 197 56 25 15 40 22 35 16 -6 -6 -46 -32 -90 -57 -44 -25 -74 -45 -68
-45 15 0 127 64 186 107 73 52 67 33 -7 -26 -36 -29 -76 -65 -90 -81 -28 -34
-51 -37 -85 -14 -21 15 -26 15 -78 -5 -102 -39 -115 -24 -35 42 73 61 11 62
-88 2 -125 -77 -200 -188 -208 -310 -7 -105 34 -175 112 -196 23 -6 44 -16 48
-22 4 -6 -13 -35 -38 -63 -109 -128 -111 -223 -7 -371 24 -35 51 -83 60 -107
15 -41 15 -47 -1 -90 -24 -62 -99 -127 -205 -178 -92 -43 -141 -81 -141 -109
0 -9 7 -33 15 -52 8 -20 15 -39 15 -42 0 -3 -26 -5 -57 -5 -61 0 -118 -25
-130 -56 -20 -53 119 -33 171 25 16 18 30 21 90 20 39 -1 63 -3 54 -6 -12 -3
-18 -17 -20 -46 -3 -47 -7 -48 -79 -21 -44 17 -48 17 -115 -4 -38 -11 -84 -24
-101 -27 l-33 -7 0 106 c0 60 -4 107 -10 111 -6 4 -7 12 -3 18 5 7 8 46 8 87
l0 74 55 8 c73 11 110 27 110 48 0 9 -2 19 -5 22 -3 3 -8 47 -10 99 -3 52 -9
157 -14 235 -5 77 -7 154 -5 170 2 16 1 23 -2 16 -4 -10 -9 -10 -20 -2 -7 7
-18 9 -24 5 -13 -8 -13 -215 0 -249 17 -47 30 -28 32 47 l1 72 8 -85 c4 -47 7
-130 8 -186 l1 -101 -102 2 c-97 1 -103 3 -106 23 -2 12 -8 22 -13 22 -5 0 -9
31 -9 68 0 38 -3 103 -6 145 -6 63 -10 78 -26 83 -12 3 -17 12 -14 22 3 10 8
49 10 87 l5 70 38 8 c37 8 146 4 211 -9 26 -5 32 -3 32 12 0 9 -6 25 -14 33
-9 11 -18 66 -26 166 -6 83 -16 167 -21 187 -13 52 -52 94 -104 114 -57 21
-57 34 -2 34 33 0 53 -8 86 -31 40 -30 45 -31 106 -25 48 5 74 2 101 -9 40
-17 53 -13 35 8 -8 11 -8 27 0 65 16 66 1 93 -56 98 -23 2 -56 16 -81 34 -33
23 -53 30 -91 30 -37 0 -58 7 -92 30 -24 17 -48 30 -54 30 -5 0 -4 6 2 14 8
10 9 16 1 21 -15 9 -31 -5 -26 -23 3 -10 6 -73 8 -142 3 -123 2 -125 -20 -128
-12 -2 -38 -18 -57 -36 -21 -20 -39 -30 -47 -25 -7 4 -39 10 -70 14 -71 9 -82
-6 -51 -69 12 -23 24 -50 29 -61 6 -17 8 -18 11 -3 2 10 -7 37 -21 61 -14 24
-26 47 -26 50 0 9 67 9 108 1 30 -6 30 -6 16 -40 -8 -18 -14 -42 -14 -52 0
-11 -14 -25 -35 -35 -46 -22 -47 -57 -3 -118 l32 -44 -32 29 c-17 16 -44 47
-58 68 -16 22 -38 41 -53 44 -14 3 -71 20 -125 37 l-99 32 -24 52 c-13 29 -29
83 -35 120 -13 89 -22 96 -15 12 7 -74 33 -152 72 -210 28 -44 26 -45 -36 -24
-24 9 -49 13 -57 10 -7 -2 -11 -1 -8 4 7 11 -41 24 -56 15 -7 -4 -8 -3 -4 5 6
8 0 10 -18 5 -36 -9 -33 -1 13 29 26 17 48 44 64 79 14 29 22 54 18 56 -4 1
-41 -14 -81 -34 l-73 -36 -60 17 c-34 10 -66 19 -72 21 -6 3 -50 -34 -98 -81
-47 -47 -91 -85 -97 -85 -6 0 -10 42 -10 110 0 61 3 110 8 110 4 0 45 -12 91
-25 47 -14 87 -23 89 -20 9 9 0 12 -99 37 -82 21 -99 23 -114 12 -16 -12 -22
-11 -40 6 -13 12 -29 18 -38 14 -24 -9 -22 36 3 86 30 59 19 108 -36 167 l-44
46 -25 -23 c-14 -13 -23 -26 -20 -28 3 -3 15 4 28 15 l22 21 23 -29 23 -29
-30 5 c-17 3 -44 7 -60 10 -23 3 -33 -1 -45 -20 -30 -45 -31 -80 -3 -127 30
-52 42 -153 32 -269 l-7 -82 -28 45 c-35 57 -71 82 -93 65 -26 -20 -48 -86
-48 -145 0 -64 12 -83 42 -63 28 17 41 3 37 -40 -2 -25 -11 -39 -34 -54 -17
-11 -35 -29 -40 -40 -7 -16 -4 -22 16 -32 20 -9 5 -11 -80 -6 -58 3 -106 7
-108 8 -2 2 1 20 7 41 8 29 8 40 -2 46 -19 12 -30 9 -19 -5 7 -8 9 -28 4 -53
l-7 -39 -5 50 c-3 28 -1 56 3 62 15 21 0 57 -33 76 -16 10 -30 26 -30 36 0 17
-27 49 -34 40 -1 -2 -10 -23 -19 -47 -29 -74 -18 -106 30 -81 19 10 28 11 44
1 11 -7 19 -8 19 -2 0 5 -11 12 -25 16 -16 4 -25 13 -25 26 0 19 1 19 30 1 18
-10 30 -26 30 -38 0 -18 -10 -23 -80 -36 l-80 -16 0 24 c0 27 -41 73 -65 73
-8 0 -15 5 -15 10 0 6 -9 10 -20 10 -28 0 -38 -61 -15 -96 16 -25 17 -25 36
-8 18 16 19 16 19 -7 0 -20 -9 -27 -49 -42 -66 -23 -89 -45 -93 -87 -2 -23
-12 -43 -31 -58 -21 -18 -27 -33 -27 -62 0 -26 6 -42 17 -48 15 -9 16 -32 10
-242 -4 -172 -9 -237 -19 -246 -10 -10 -12 -35 -7 -96 3 -46 4 -85 2 -87 -2
-2 -8 9 -13 26 -11 30 -13 30 -93 36 -93 6 -97 4 -97 -61 0 -55 14 -82 44 -82
22 0 23 3 22 65 l-1 65 52 0 c50 0 52 -1 63 -35 6 -19 9 -44 5 -55 -7 -21 -45
-28 -45 -9 0 8 -5 8 -15 -1 -12 -10 -15 -9 -15 6 -1 18 -1 18 -15 0 -17 -23
-20 -62 -5 -71 13 -8 13 -68 1 -81 -16 -16 -1 -62 22 -68 21 -5 21 -5 -3 -31
-23 -24 -23 -25 -5 -45 10 -11 24 -20 31 -20 19 0 47 47 41 69 -4 17 0 18 37
14 22 -3 43 -7 45 -9 9 -8 -42 -53 -77 -70 l-36 -17 29 -23 c16 -13 27 -25 25
-27 -19 -17 -244 -57 -490 -87 -315 -39 -444 -71 -470 -119 -18 -35 -11 -47 9
-15 11 18 36 38 60 47 49 20 218 49 441 77 180 22 411 64 441 81 11 5 24 7 29
4 5 -3 15 4 24 16 14 20 13 24 -4 46 -18 23 -18 24 8 52 l27 28 37 -41 c34
-37 56 -78 26 -48 -15 15 -28 15 -28 1 0 -5 4 -8 8 -5 5 3 22 -8 37 -24 22
-23 25 -30 12 -30 -9 0 -31 -12 -48 -28 l-30 -27 103 -19 c57 -10 109 -23 117
-30 12 -9 13 -8 8 6 -7 19 1 29 68 84 25 20 43 40 40 44 -2 4 6 17 20 30 21
20 22 24 9 37 -20 21 -17 40 7 46 19 5 21 2 17 -24 -3 -16 0 -29 5 -29 5 0 -1
-8 -14 -19 -19 -15 -23 -27 -21 -59 5 -60 -19 -109 -59 -117 -24 -6 -34 -3
-41 9 -5 9 -14 16 -20 16 -9 0 -9 -3 0 -12 7 -7 12 -33 12 -58 l0 -46 -33 4
c-28 3 -38 -2 -60 -28 -44 -52 -68 -157 -47 -205 7 -14 8 -10 4 17 -12 75 50
208 96 208 33 0 30 -17 -8 -41 -49 -32 -77 -89 -77 -159 l0 -55 -95 -31 c-52
-17 -110 -38 -127 -48 -18 -9 -33 -14 -33 -11 0 4 66 88 147 187 82 99 159
194 172 210 13 16 21 32 18 35 -7 7 -130 33 -181 38 -37 4 -48 -3 -185 -107
-215 -164 -250 -192 -250 -202 -1 -5 7 -1 18 8 10 9 23 16 28 14 6 -2 57 33
113 77 125 97 139 109 121 99 -9 -5 -12 -3 -7 5 4 6 11 9 15 7 11 -7 36 11 36
26 0 7 9 13 20 13 11 0 20 7 20 15 0 9 8 14 18 12 9 -2 17 1 16 5 -3 20 2 24
16 13 8 -7 15 -8 15 -3 0 5 37 1 83 -8 50 -10 81 -21 79 -28 -1 -7 -35 -51
-75 -99 -40 -48 -108 -130 -150 -183 -43 -53 -86 -99 -97 -102 -18 -5 -16 0
10 36 17 23 89 108 160 189 72 81 130 150 130 153 0 19 -38 -13 -178 -147
-172 -168 -169 -160 16 36 68 72 118 132 112 134 -12 4 -73 -48 -65 -56 2 -3
-53 -66 -122 -141 -112 -120 -157 -160 -170 -148 -1 2 54 61 124 132 71 70
110 114 88 97 -22 -17 -71 -63 -110 -102 -66 -67 -140 -118 -153 -106 -3 3 -3
8 -1 9 2 2 58 48 124 102 65 53 120 104 121 111 1 8 0 14 -2 14 -3 0 -51 -41
-107 -92 -122 -109 -177 -146 -177 -119 0 5 35 35 77 67 42 31 119 93 170 136
87 73 120 96 94 65 -6 -8 -7 -18 -3 -22 4 -5 1 -5 -7 0 -10 6 -12 4 -6 -5 5
-8 4 -11 -3 -6 -11 6 -25 -9 -28 -32 -3 -15 60 34 96 75 l25 28 -31 -27 c-41
-37 -55 -36 -19 2 20 21 24 30 14 30 -9 0 -19 -3 -23 -7 -4 -5 -12 -8 -16 -8
-5 0 -39 -25 -77 -56 -159 -131 -267 -210 -278 -205 -7 2 -21 -4 -30 -14 -15
-17 -14 -20 27 -48 53 -36 191 -112 204 -112 5 0 2 5 -6 10 -13 8 -13 10 1 10
9 0 19 -7 23 -15 3 -8 0 -15 -6 -15 -6 0 -9 -3 -6 -6 7 -6 150 43 158 55 3 4
25 13 50 20 25 7 52 19 61 27 14 12 17 11 28 -9 19 -36 50 -50 121 -54 56 -4
70 -2 100 19 73 49 91 155 40 229 -18 25 -19 30 -6 19 10 -8 29 -32 42 -52 66
-104 159 -78 156 42 -1 56 -20 47 156 74 82 13 98 13 137 -1 44 -15 45 -16 45
-59 0 -30 -5 -46 -15 -50 -8 -4 -15 -12 -15 -18 0 -17 61 -49 85 -45 27 6 31
29 6 36 -19 5 -21 11 -19 69 3 55 6 64 26 74 13 5 30 10 39 10 9 0 27 12 40
26 26 28 39 28 173 2 l55 -11 -3 -52 c-5 -67 15 -107 64 -130 51 -24 108 -15
146 23 24 23 31 42 37 90 8 66 15 82 25 57 3 -9 2 -13 -4 -10 -17 10 -11 -10
13 -46 31 -46 78 -76 143 -90 50 -11 62 -10 126 10 110 36 264 119 317 170 25
25 59 73 75 106 67 140 94 150 98 38 l3 -76 59 -20 59 -20 64 32 63 31 0 57
c0 32 -4 64 -8 70 -4 7 -35 22 -67 33 l-60 21 -57 -22 c-44 -16 -60 -18 -75
-9 -16 10 -15 10 5 5 13 -4 32 -1 45 8 21 13 362 132 381 132 5 0 10 -21 11
-47 l2 -46 -46 -18 c-86 -32 -134 -54 -129 -59 3 -3 22 2 42 10 20 9 58 24 85
34 l47 19 0 -21 c-1 -18 10 -25 63 -43 l64 -20 -49 -21 c-27 -12 -119 -51
-204 -88 -229 -99 -617 -252 -914 -361 -336 -123 -484 -183 -609 -246 -112
-55 -113 -56 -105 -63 7 -8 154 45 368 132 102 42 208 82 235 90 90 25 167 18
308 -26 70 -22 162 -45 205 -52 126 -19 318 3 405 46 16 8 42 11 62 8 23 -4
43 0 59 11 14 9 27 12 30 7 14 -22 70 -19 178 9 62 16 132 30 156 30 24 0 42
5 42 11 0 15 -71 6 -191 -26 -52 -14 -110 -25 -130 -25 -37 0 -69 22 -49 35 5
3 10 19 10 36 0 22 -5 29 -20 29 -13 0 -20 7 -20 20 0 25 17 26 23 3 4 -14 5
-13 6 4 1 28 -19 41 -34 20 -10 -14 -14 -14 -43 3 -39 24 -62 68 -62 118 0 53
27 84 105 123 94 46 157 44 295 -8 134 -51 201 -67 256 -60 30 3 44 1 43 -7
-3 -28 1 -40 12 -29 14 14 -16 119 -36 127 -23 8 -45 -4 -45 -26 0 -12 11 -23
32 -30 31 -11 31 -11 8 -20 -34 -13 -127 8 -261 58 -135 50 -197 56 -279 25
-141 -53 -183 -145 -115 -245 18 -27 21 -36 10 -36 -18 0 -45 -50 -45 -83 0
-14 7 -30 15 -37 22 -18 12 -26 -63 -52 -60 -21 -84 -23 -237 -23 l-170 1
-130 42 c-71 24 -158 45 -191 49 -79 7 -136 -10 -427 -128 -223 -90 -293 -112
-149 -46 113 51 239 101 562 220 770 283 1423 571 1672 736 133 88 232 184
249 240 18 61 -1 112 -64 175 -70 69 -176 122 -382 191 -248 82 -301 120 -241
172 56 48 371 124 721 173 241 34 364 60 433 90 54 24 56 24 48 4 -6 -17 35
-64 56 -64 22 0 76 38 89 62 6 13 13 24 14 26 8 10 103 -48 141 -86 59 -59 84
-109 84 -171 0 -63 -7 -81 -28 -73 -15 5 -15 4 1 -12 9 -9 17 -20 17 -23 0 -4
-3 -3 -6 0 -4 3 -20 -11 -35 -33 -40 -55 -101 -95 -127 -81 -15 8 -32 4 -78
-19 -32 -16 -54 -29 -49 -29 6 0 28 8 50 19 42 20 80 26 71 11 -3 -5 -34 -16
-68 -26 -58 -15 -69 -15 -137 -1 -67 14 -111 37 -111 56 0 5 17 -1 38 -12 119
-62 391 76 409 208 6 47 -17 80 -62 89 l-30 6 32 -15 c17 -8 37 -24 43 -36 45
-84 -133 -235 -292 -247 -107 -8 -150 23 -108 79 13 18 17 29 9 26 -24 -8 -53
-72 -45 -101 8 -32 33 -47 111 -64 l60 -13 -75 4 c-110 4 -160 34 -147 88 8
29 50 74 90 95 36 18 43 12 23 -19 -14 -21 -13 -25 4 -48 16 -21 26 -25 77
-24 73 0 132 30 173 86 37 50 38 82 5 112 -40 37 -124 46 -227 25 -64 -13
-194 -73 -267 -123 -29 -20 -57 -36 -62 -36 -5 0 -14 -11 -19 -25 -14 -36 -33
-32 -25 4 10 46 -8 68 -67 80 -47 11 -55 10 -80 -9 -22 -16 -28 -17 -28 -6 0
8 -6 16 -12 19 -9 3 -7 9 7 20 17 13 21 13 28 1 4 -8 13 -14 19 -14 9 0 9 3 0
12 -7 7 -12 34 -12 61 0 29 -4 46 -10 42 -5 -3 -10 -21 -10 -40 0 -40 -28 -64
-75 -66 -29 -1 -29 -1 9 -13 45 -14 57 -35 49 -88 -4 -25 -2 -38 6 -38 6 0 11
15 11 33 0 67 46 93 117 66 36 -14 43 -26 32 -61 -5 -20 -4 -34 4 -43 10 -10
23 -2 70 41 95 88 239 144 371 144 68 0 119 -17 129 -43 3 -7 -1 -30 -8 -50
-7 -22 -8 -34 -2 -30 6 3 7 1 3 -6 -4 -6 -12 -9 -17 -6 -5 4 -21 -3 -35 -14
-15 -12 -36 -21 -48 -21 -17 1 -14 4 11 15 56 24 69 90 22 116 -59 31 -224
-16 -308 -87 -83 -69 -116 -159 -73 -196 34 -31 63 -41 76 -27 8 9 8 10 -1 5
-7 -4 -23 3 -36 16 -13 13 -27 23 -32 23 -15 0 -18 44 -5 76 31 74 185 174
286 185 70 8 99 -6 101 -47 0 -19 -1 -26 -4 -17 -6 22 -51 37 -85 27 -16 -4
-30 -3 -34 2 -5 9 26 14 86 11 l35 -1 -30 9 c-72 23 -206 -35 -239 -104 -25
-53 -9 -89 50 -112 58 -22 205 -15 288 15 32 11 62 18 67 15 5 -3 9 -18 9 -35
0 -22 -16 -46 -68 -102 -45 -49 -72 -88 -81 -116 -23 -78 5 -151 62 -157 12
-1 25 -3 29 -3 15 -2 36 -58 31 -84 -3 -16 -1 -27 6 -27 6 0 11 15 11 33 0 38
21 72 49 80 29 7 45 -18 45 -72 0 -98 -77 -180 -216 -227 -131 -44 -168 -88
-40 -48 92 29 196 40 235 25 35 -13 50 -51 36 -88 -22 -59 -157 -176 -266
-232 -53 -26 -55 -26 -39 4 7 13 40 43 74 65 69 47 139 121 149 158 10 41 -29
66 -92 58 -46 -5 -150 -38 -163 -51 -9 -9 7 -5 69 15 80 27 163 24 167 -5 5
-33 -38 -86 -113 -143 -56 -42 -71 -49 -74 -35 -2 9 5 23 15 30 108 76 108
145 1 129 -65 -10 -59 -26 7 -19 75 8 80 -8 22 -65 -44 -45 -46 -46 -46 -21 0
56 -77 132 -146 145 -77 14 -139 -17 -175 -89 -31 -60 -24 -160 14 -211 l28
-36 -55 0 c-44 0 -56 3 -56 16 0 25 21 56 34 51 7 -3 13 1 13 9 0 22 -13 17
-41 -17 -32 -37 -33 -55 -5 -70 23 -12 159 -4 169 10 7 12 190 90 190 82 0
-26 -38 -52 -103 -72 -39 -12 -79 -25 -87 -29 -24 -12 -121 -37 -167 -44 -104
-15 -123 36 -42 115 28 27 55 49 60 49 5 0 9 4 9 10 0 5 -8 7 -17 3 -17 -6
-17 -5 0 14 24 27 22 33 -11 33 -45 0 -140 -54 -221 -124 -79 -70 -115 -85
-158 -64 -44 21 -55 53 -49 137 7 90 22 111 78 111 25 0 37 4 33 11 -4 5 -17
9 -28 8 -30 -4 -64 9 -71 26 -3 8 0 28 5 45 12 33 5 65 -11 55 -5 -3 -10 -25
-10 -49 0 -59 -29 -86 -94 -86 -29 0 -45 -4 -41 -10 3 -5 24 -10 45 -10 46 0
70 -8 70 -24 0 -15 -82 -96 -98 -96 -7 0 -12 -5 -12 -10 0 -18 57 18 89 57
l32 38 -3 -40 c-5 -94 1 -126 31 -156 22 -22 39 -29 68 -29 41 0 65 14 155 91
62 54 109 82 161 99 52 16 55 8 10 -22 -98 -65 -193 -174 -193 -222 0 -8 15
-26 32 -41 31 -26 37 -27 103 -22 129 10 332 94 395 164 18 19 51 43 75 53
117 50 285 193 301 255 24 95 -79 132 -240 85 -88 -25 -98 -19 -14 9 97 33
161 74 196 126 36 54 50 124 33 162 -6 13 -9 29 -6 34 4 5 -6 9 -20 9 -36 0
-74 40 -68 72 3 14 0 29 -6 32 -11 7 -14 -3 -12 -39 2 -28 -34 -65 -64 -65
-33 0 -55 36 -55 88 0 56 20 94 86 164 63 66 78 97 63 135 -9 25 0 42 24 43 4
0 31 24 60 53 107 107 100 233 -20 352 -57 58 -138 97 -210 103 -29 3 -53 9
-53 15 0 5 27 35 59 66 33 31 66 70 75 88 22 44 20 116 -3 162 -25 48 -85 101
-114 101 -19 -1 -18 -3 8 -14 85 -38 137 -154 103 -233 -15 -35 -78 -103 -95
-103 -7 0 -13 -6 -13 -12 0 -7 -8 2 -17 20 -9 19 -27 38 -40 43 -13 5 -21 14
-18 20 4 6 13 8 21 5 16 -6 19 10 4 19 -22 14 -41 -16 -34 -54 8 -44 21 -61
45 -61 59 0 -32 -60 -145 -96 -73 -23 -307 -64 -591 -104 -275 -39 -585 -104
-648 -136 -74 -39 -88 -92 -36 -144 41 -41 122 -81 283 -140 188 -69 278 -113
309 -150 33 -39 34 -57 4 -101 -19 -30 -149 -128 -169 -129 -5 0 -8 17 -8 39
0 33 5 42 40 66 45 31 56 55 39 83 -15 24 -69 57 -69 43 0 -6 5 -11 10 -11 6
0 22 -11 36 -25 30 -30 22 -52 -31 -85 -30 -18 -44 -21 -86 -15 -37 5 -50 4
-45 -4 4 -6 20 -11 36 -11 48 0 60 -9 60 -46 0 -37 5 -36 -77 -18 -28 6 -27 7
16 25 24 11 41 22 38 25 -3 3 -28 -6 -55 -20 -36 -18 -60 -24 -80 -20 l-30 6
49 47 c39 38 49 54 49 80 0 79 -72 143 -266 236 -136 66 -228 129 -239 165
-11 34 22 69 98 106 118 55 224 77 673 139 341 47 453 112 348 205 -46 40 -68
48 -151 56 -41 4 -94 18 -132 35 -35 16 -74 29 -87 29 -13 0 -51 -21 -86 -48
-83 -62 -147 -69 -148 -15 0 17 35 34 54 27 9 -3 16 -16 16 -27 0 -16 3 -18
12 -9 10 10 7 17 -10 34 -18 18 -26 20 -49 12 -22 -8 -28 -16 -28 -41 0 -29
-2 -31 -36 -31 -19 0 -59 -10 -89 -21 -77 -29 -81 -15 -8 30 111 69 202 94
249 69 11 -6 19 -7 19 -1 0 28 -91 28 -165 0 -30 -11 -78 -36 -105 -54 -28
-19 -50 -31 -50 -29 0 3 -12 -3 -27 -14 -42 -30 -135 -60 -140 -45 -3 7 -17
10 -38 6 -39 -6 -45 1 -49 66 -3 49 -16 68 -16 23 0 -53 -22 -88 -52 -83 -5 0
-8 -4 -8 -9 0 -20 -31 -9 -65 23 -89 83 -64 254 55 373 45 46 162 124 184 124
6 0 -10 -21 -36 -46 -27 -26 -48 -50 -48 -54 0 -19 38 -19 96 0 58 20 65 20
93 6 16 -9 38 -16 48 -16 10 0 24 -9 31 -21 24 -38 89 -59 187 -59 85 -1 89
-2 63 -16 -40 -21 -52 -49 -32 -69 19 -18 59 -13 83 10 12 11 12 19 3 40 l-12
25 63 0 c34 1 81 5 104 9 50 10 63 0 63 -46 0 -18 5 -33 10 -33 6 0 10 14 10
31 0 45 17 69 48 70 26 0 25 1 -7 12 -27 10 -37 20 -47 52 -10 33 -12 35 -13
14 -1 -35 -20 -58 -56 -68 -29 -9 -29 -9 -5 -12 63 -7 -186 -13 -276 -7 -73 4
-113 12 -143 27 -22 12 -41 25 -41 29 0 4 16 14 35 20 41 15 84 64 92 104 11
54 77 106 234 184 78 39 223 94 246 94 5 0 10 -10 10 -22 3 -34 32 -51 57 -34
28 18 26 48 -4 63 -23 12 -20 13 35 13 76 0 169 -24 218 -56 20 -13 37 -20 37
-15 0 24 -100 66 -204 85 -153 28 -62 104 165 137 96 14 278 7 382 -16 195
-41 332 -186 357 -376 39 -300 -34 -504 -206 -574 -32 -13 -60 -29 -62 -35 -3
-8 1 -9 14 -2 11 6 38 18 62 28 126 52 189 154 211 345 10 77 9 116 -4 212
-21 162 -61 240 -161 318 -75 58 -142 87 -240 104 -119 21 -337 19 -434 -4z
m-162 -184 c15 -17 -1 -40 -24 -35 -27 5 -32 48 -6 48 11 0 24 -6 30 -13z
m-458 -93 c0 -3 -9 -18 -20 -34 -11 -15 -17 -29 -14 -32 2 -3 -4 -11 -13 -19
-16 -13 -17 -12 -4 4 21 26 3 20 -40 -14 -21 -17 -43 -28 -48 -25 -5 4 -36 -9
-68 -28 -32 -20 -75 -42 -95 -51 l-37 -15 -10 38 c-15 50 -14 57 9 102 39 76
133 92 193 32 25 -25 27 -32 17 -51 -10 -21 -10 -21 10 -9 20 12 21 22 6 59
-5 12 5 19 41 31 53 18 73 21 73 12z m-2353 -90 c19 -27 17 -48 -4 -38 -23 11
-123 11 -145 0 -25 -11 -12 30 16 50 29 21 114 14 133 -12z m1280 -42 c23 -17
48 -24 88 -27 39 -2 63 -9 78 -23 32 -29 62 -42 96 -42 16 0 33 -5 36 -11 4
-6 4 -39 0 -74 l-6 -64 -27 10 c-16 6 -52 7 -85 4 -56 -7 -61 -5 -105 26 -33
23 -58 34 -83 34 l-37 0 5 75 c3 42 0 86 -6 100 -8 19 -9 9 -5 -45 3 -39 1
-81 -4 -95 -9 -20 -11 -6 -11 66 -1 50 2 94 5 97 8 7 16 3 61 -31z m-1274 -14
c10 -5 17 -12 15 -16 -2 -4 -10 -19 -17 -34 -13 -25 -18 -27 -52 -22 -23 4
-44 2 -53 -5 -10 -9 -19 -3 -39 28 -28 42 -26 47 21 61 30 10 97 3 125 -12z
m2240 -25 c-13 -36 -43 -71 -73 -83 -49 -20 -46 -5 12 49 56 54 71 62 61 34z
m-2288 -63 c-3 -6 1 -13 9 -16 22 -8 20 -50 -3 -82 -10 -15 -26 -44 -34 -64
-26 -63 -37 -46 -37 57 l0 94 33 10 c17 5 33 10 35 10 2 1 0 -4 -3 -9z m2725
-100 c6 0 4 -7 -4 -16 -14 -13 -18 -13 -36 -1 -18 12 -18 15 -5 20 8 4 15 14
16 24 0 14 2 13 9 -4 5 -13 14 -23 20 -23z m-2674 -88 c-33 -99 -76 -125 -76
-47 0 50 38 137 67 154 16 8 18 5 21 -25 2 -19 -4 -56 -12 -82z m64 64 c10
-22 19 -35 19 -28 1 7 -3 22 -9 32 -7 13 -6 21 5 30 12 10 15 9 15 -8 0 -53
-23 -228 -31 -237 -12 -13 -11 -43 2 -47 6 -2 13 -57 16 -141 7 -151 9 -146
-57 -128 l-25 7 -5 166 c-3 99 -9 171 -16 178 -7 7 -2 27 19 69 19 39 29 76
30 109 2 57 11 57 37 -2z m1162 -8 c8 -13 22 -42 31 -65 l17 -43 -50 0 c-27 0
-72 -8 -98 -18 l-49 -19 13 44 c7 23 10 43 7 43 -14 0 44 54 72 66 40 18 40
17 57 -8z m-663 -28 c-23 -40 -77 -90 -98 -90 -6 0 -26 -9 -46 -20 l-35 -20
15 30 c8 16 15 36 15 44 0 14 138 94 163 96 5 0 -2 -18 -14 -40z m721 17 c34
-22 62 -62 74 -104 7 -22 7 -22 -33 -6 -32 13 -42 23 -56 62 -10 25 -22 52
-28 59 -15 20 6 14 43 -11z m-1003 -34 c-28 -64 -52 -91 -108 -122 -35 -19
-56 -37 -53 -43 4 -7 2 -8 -4 -4 -7 4 -19 3 -28 -2 -12 -7 -13 -11 -5 -17 7
-3 47 10 89 31 42 20 82 36 87 34 75 -23 91 -22 143 4 l52 27 112 -36 c61 -19
117 -35 125 -35 19 0 16 -9 -9 -30 -22 -18 -23 -22 -23 -255 l0 -237 -45 7
c-25 3 -71 11 -102 17 l-58 11 0 244 c0 244 0 244 21 238 64 -21 156 -45 168
-45 35 0 -11 18 -99 40 l-95 23 -52 -26 c-50 -26 -53 -26 -94 -12 -23 9 -46
12 -51 7 -4 -4 -10 -82 -12 -172 -2 -93 -1 -128 3 -80 l6 85 8 -94 c4 -52 7
-110 6 -130 -1 -33 -2 -34 -9 -11 -5 14 -6 -18 -2 -75 4 -55 7 -167 6 -250 -1
-82 2 -141 7 -130 4 11 8 37 8 59 1 32 4 37 19 31 40 -17 94 -24 217 -31 l131
-7 -7 -56 c-4 -31 -8 -86 -8 -123 -1 -61 -3 -68 -21 -68 -17 0 -20 7 -20 53
-1 93 -35 157 -97 183 -24 10 -39 11 -60 3 -34 -13 -83 -58 -83 -76 0 -9 -8
-12 -22 -9 -67 14 -110 17 -221 16 -67 0 -139 -4 -159 -9 l-38 -9 0 142 c0 77
3 192 7 254 l6 112 36 0 c32 0 59 -5 147 -25 19 -4 21 -9 13 -47 -11 -58 -11
-398 0 -398 5 0 8 71 7 158 0 86 1 189 4 227 l5 70 -75 17 c-41 9 -91 17 -111
17 -34 1 -37 -1 -43 -36 -3 -21 -6 -140 -6 -265 0 -143 -4 -228 -10 -228 -6 0
-11 105 -12 282 -2 218 -6 282 -16 284 -7 1 -8 0 -2 -3 6 -3 10 -103 10 -284
l0 -279 -82 7 c-46 5 -201 8 -346 8 -145 0 -253 2 -240 5 29 7 32 37 43 339
l8 214 -64 -34 c-35 -19 -67 -38 -71 -44 -5 -6 -8 -6 -8 1 0 17 31 41 83 64
38 17 51 19 63 9 30 -25 317 2 291 28 -3 2 -15 -1 -27 -7 -29 -16 -245 -26
-253 -12 -12 18 112 32 264 30 82 0 125 -4 99 -7 -38 -5 -26 -8 78 -19 67 -7
126 -11 131 -8 4 3 90 -10 190 -29 148 -28 186 -32 202 -22 10 6 19 15 19 18
0 9 -39 24 -97 39 -48 12 -51 15 -47 39 8 43 -13 260 -27 277 -10 13 -10 17 2
24 7 5 13 22 13 37 -1 20 0 22 3 6 2 -13 8 -23 13 -23 15 0 117 88 150 130 37
47 43 50 27 13z m83 11 l48 -16 -10 -36 c-12 -43 -44 -82 -69 -82 -9 0 -33 7
-53 15 l-37 16 20 25 c11 14 25 41 31 60 6 19 14 34 16 34 3 0 27 -7 54 -16z
m2050 -20 c0 -28 -8 -31 -26 -7 -8 13 -9 22 -2 30 14 18 28 6 28 -23z m-42
-23 c-14 -5 -31 15 -23 29 5 8 11 6 20 -7 9 -11 10 -19 3 -22z m-2606 -67 c-3
-60 -29 -131 -47 -126 -16 4 -10 113 8 155 25 57 43 43 39 -29z m138 30 c0
-30 4 -37 34 -49 30 -13 34 -19 39 -67 4 -29 7 -104 7 -166 l0 -113 -37 7
c-21 4 -39 7 -39 8 -1 0 -4 43 -6 94 -4 92 -4 92 20 92 28 0 25 23 -4 28 -16
3 -16 1 -4 -7 13 -9 13 -11 -2 -11 -16 0 -18 11 -20 83 l-2 82 -3 -82 c-4 -87
-23 -117 -23 -36 0 62 20 173 31 173 5 0 9 -16 9 -36z m1170 -1 c-11 -17 -11
-17 -6 0 3 10 6 24 7 30 0 9 2 9 5 0 3 -7 0 -20 -6 -30z m-1250 -30 c31 -49
42 -120 17 -110 -7 3 -24 -1 -37 -8 -39 -21 -51 -3 -34 52 8 25 14 61 14 80 0
18 2 33 5 33 3 0 19 -21 35 -47z m1450 25 c0 -2 4 -29 10 -61 11 -67 1 -102
-30 -112 -56 -18 -96 25 -66 70 18 27 44 32 65 13 11 -11 13 -10 9 2 -7 22
-56 25 -79 4 -42 -38 -12 -104 47 -104 37 0 61 19 70 56 6 25 0 87 -12 118 -5
14 -2 14 31 3 35 -12 37 -15 40 -62 1 -28 6 -88 10 -135 l7 -85 -112 2 c-62 1
-116 5 -119 10 -3 4 -25 21 -48 37 -41 28 -43 31 -43 80 0 28 3 67 6 87 6 35
10 38 63 54 31 9 61 18 66 20 12 4 85 6 85 3z m-369 -88 c8 0 30 -20 47 -44
34 -47 108 -113 157 -139 17 -9 26 -16 22 -17 -10 0 -450 139 -455 145 -3 2 9
12 27 22 28 16 43 43 23 43 -4 0 -12 12 -18 28 l-10 27 95 -32 c53 -18 103
-33 112 -33z m-671 55 c0 -2 -18 -14 -40 -25 -22 -11 -40 -18 -40 -15 0 2 17
13 38 24 42 23 42 23 42 16z m812 -82 l-4 -68 -24 30 c-32 40 -31 71 4 89 15
8 27 15 27 16 0 0 -2 -30 -3 -67z m1566 20 c37 -17 84 -29 134 -33 128 -11
201 -79 147 -136 -45 -48 -189 -80 -569 -125 -204 -24 -372 -65 -472 -115
-165 -83 -131 -150 153 -294 199 -102 249 -145 249 -214 0 -38 -5 -48 -35 -75
-99 -87 -366 -166 -602 -178 -100 -5 -113 -4 -113 10 0 9 -8 32 -17 52 -16 34
-16 35 8 61 13 14 66 47 117 71 108 53 172 106 201 166 36 74 29 103 -53 226
-100 151 -98 225 13 363 l46 58 6 -35 c7 -44 19 -57 19 -22 0 39 10 57 34 57
21 1 21 1 1 16 -19 14 -21 13 -32 -13 -7 -17 -12 -21 -13 -11 0 9 -10 24 -22
33 -15 10 -19 18 -12 23 6 4 16 16 22 27 11 20 11 19 12 -2 0 -12 8 -27 18
-32 32 -17 133 -7 181 18 34 18 45 20 52 10 6 -10 21 -9 71 9 48 17 81 22 138
20 l75 -3 69 53 c77 59 77 60 174 15z m-3185 -3 c3 -12 0 -20 -8 -20 -8 0 -11
8 -8 20 3 11 7 20 8 20 1 0 5 -9 8 -20z m1017 -233 l0 -243 -45 -16 -45 -17 0
237 1 237 42 21 c23 12 43 22 45 23 1 0 2 -108 2 -242z m-136 202 l38 -11 -3
-236 c-1 -130 0 -244 4 -252 3 -8 8 -26 10 -40 3 -18 5 -15 6 12 1 31 5 38 32
47 43 15 43 15 15 -22 -29 -38 -67 -123 -59 -131 4 -3 20 -6 37 -6 17 -1 65
-7 106 -14 85 -15 100 -12 100 16 0 12 10 41 23 66 l22 45 6 -84 c7 -94 4
-101 -51 -94 -178 24 -292 35 -302 28 -10 -6 243 -40 315 -42 12 -1 17 -9 17
-27 l0 -27 -101 8 c-138 9 -220 22 -233 35 -7 7 -14 110 -19 293 -4 155 -9
319 -12 365 -2 45 -1 82 3 82 4 0 24 -5 46 -11z m-886 -26 c-4 -34 -28 -43
-28 -10 0 25 7 37 22 37 5 0 8 -12 6 -27z m3960 7 c12 -20 6 -25 -22 -14 -19
7 -21 34 -3 34 7 0 18 -9 25 -20z m-4138 1 c0 -5 11 -12 25 -15 32 -8 56 -45
48 -74 -7 -28 -29 -29 -29 -2 0 13 5 19 14 15 7 -2 10 0 7 5 -3 6 -15 10 -25
10 -11 0 -20 9 -23 23 -3 16 -5 13 -6 -10 -1 -37 -15 -43 -31 -13 -11 21 -4
70 11 70 5 0 9 -4 9 -9z m610 -80 c0 -43 3 -92 6 -109 6 -29 6 -30 -27 -23
l-34 7 -5 89 c-6 95 1 115 42 115 16 0 18 -9 18 -79z m905 34 c44 -14 143 -44
220 -67 77 -22 147 -44 155 -48 8 -4 43 -3 78 2 71 11 155 -2 184 -29 29 -26
21 -35 -14 -16 -38 20 -185 23 -230 5 -29 -12 -36 -4 -16 16 8 8 9 12 1 12 -6
0 -13 -6 -15 -12 -3 -9 -66 6 -224 53 -192 58 -219 69 -222 87 -2 12 -2 22 0
22 2 0 39 -11 83 -25z m-866 -112 c1 -35 -3 -63 -8 -63 -5 0 -9 39 -9 88 0 58
2 79 8 62 4 -14 8 -53 9 -87z m3493 85 c-16 -16 -15 -31 1 -22 7 4 9 3 4 -2
-5 -5 -12 -9 -15 -9 -4 0 -36 -12 -72 -27 -93 -39 -158 -53 -400 -88 -467 -66
-742 -138 -785 -204 -16 -24 -16 -28 -1 -51 26 -40 91 -71 282 -133 197 -65
220 -75 307 -134 109 -74 144 -159 97 -236 -65 -106 -292 -258 -605 -405 -65
-31 -122 -54 -125 -50 -3 3 0 7 5 10 6 2 28 14 50 26 35 20 40 27 43 64 l3 41
56 -19 c30 -11 60 -18 66 -16 6 2 10 28 8 65 l-2 61 40 21 41 20 0 -50 c0 -47
-2 -52 -35 -72 -20 -11 -34 -23 -31 -25 3 -3 21 5 40 17 35 21 36 24 36 79 l0
58 88 53 c94 58 212 167 212 197 0 13 -5 10 -18 -12 -29 -47 -121 -125 -209
-178 l-81 -48 -54 16 c-30 8 -64 13 -74 9 -10 -3 33 23 97 58 133 73 193 118
214 159 49 94 -8 140 -323 260 -238 91 -312 137 -312 195 0 26 36 55 96 78 78
30 365 87 634 126 477 70 614 100 690 154 38 27 51 33 32 14z m-2517 -63 c227
-67 234 -69 249 -91 10 -14 12 -37 7 -86 -4 -37 -10 -70 -13 -74 -6 -6 -214
32 -230 43 -5 2 -8 39 -8 82 0 69 -3 81 -25 105 -28 30 -75 35 -96 9 -9 -10
-16 -52 -19 -111 -5 -94 -5 -96 -32 -103 l-28 -7 0 149 c0 139 1 149 18 141 9
-6 89 -31 177 -57z m-1384 1 l4 -43 -80 -7 c-88 -7 -170 -25 -227 -49 -37 -15
-38 -15 -38 4 0 11 4 28 10 38 12 24 127 70 215 86 114 21 112 21 116 -29z
m299 29 c0 -2 -15 -12 -32 -20 l-33 -16 24 21 c22 19 41 26 41 15z m3688 -1
c29 -8 28 -20 -8 -55 -23 -24 -37 -30 -62 -27 -28 3 -33 8 -39 36 -4 18 -4 31
-2 28 3 -3 15 1 27 9 22 16 47 18 84 9z m-3688 -59 c0 -41 -13 -44 -46 -13
l-23 23 22 12 c37 20 47 16 47 -22z m1050 7 c18 -15 23 -31 27 -100 l6 -83
-25 6 c-14 4 -42 2 -62 -3 l-37 -11 7 92 c4 51 11 98 17 105 14 17 41 15 67
-6z m-1175 -42 c165 -18 539 -100 560 -122 7 -7 1 -8 -20 -4 -16 3 -142 24
-280 47 -217 37 -271 42 -410 43 -124 1 -175 -3 -225 -17 -90 -24 -173 -67
-187 -97 l-13 -25 0 32 c0 25 7 37 33 56 107 78 317 112 542 87z m1718 -203
c-6 -95 -8 -105 -14 -67 -10 60 -11 205 -2 214 16 16 22 -41 16 -147z m-1640
136 c-13 -2 -33 -2 -45 0 -13 2 -3 4 22 4 25 0 35 -2 23 -4z m70 -10 c-7 -2
-21 -2 -30 0 -10 3 -4 5 12 5 17 0 24 -2 18 -5z m-577 -115 c-3 -46 -9 -163
-12 -260 -5 -156 -8 -178 -23 -178 -9 0 -25 -3 -36 -6 -21 -5 -21 -3 -17 213
l3 218 26 23 c21 19 28 21 41 10 13 -11 14 -11 10 2 -8 25 -36 23 -63 -4 -24
-24 -25 -29 -25 -159 0 -74 -3 -175 -6 -225 -7 -86 -6 -92 12 -93 15 -1 14 -3
-6 -10 -19 -7 -16 -8 15 -3 22 2 90 6 150 8 61 2 90 2 65 0 -118 -10 -245 -26
-267 -35 -16 -6 -22 -5 -18 1 3 6 13 10 21 10 8 0 13 4 10 8 -3 5 0 120 6 256
l12 248 37 19 c21 10 40 23 44 29 18 30 26 4 21 -72z m1759 7 c44 -9 99 -21
123 -27 l42 -11 0 -133 c0 -74 -3 -134 -7 -134 -5 0 -68 9 -141 20 -74 11
-147 20 -163 20 l-29 0 0 155 0 154 48 -14 c26 -8 83 -22 127 -30z m-185 -113
l0 -147 -69 -16 -68 -15 -6 90 c-4 53 -2 95 3 100 6 6 10 31 10 56 l0 45 53
16 c28 9 58 17 65 18 9 1 12 -35 12 -147z m2700 132 c53 -21 65 -44 47 -86 -8
-18 -21 -39 -30 -47 -20 -16 -22 -8 -6 21 24 45 -22 98 -85 98 -13 0 -26 6
-29 13 -3 9 -8 9 -18 1 -8 -5 -31 -11 -52 -13 -21 -1 -52 -7 -69 -12 -18 -5
-34 -7 -36 -4 -4 3 69 26 123 38 45 10 117 6 155 -9z m-2898 -109 l37 -6 -25
-36 c-13 -20 -29 -54 -36 -75 -10 -33 -15 -38 -32 -33 -12 3 -58 9 -103 12
-46 3 -83 8 -83 10 0 15 36 84 62 118 l32 42 56 -13 c30 -7 72 -16 92 -19z
m2814 -20 c9 -22 -13 -44 -51 -51 -66 -12 -98 19 -53 50 29 21 97 21 104 1z
m-2616 -194 c0 -32 -1 -33 -94 -51 -62 -13 -81 -6 -74 26 2 13 22 22 78 35 41
9 78 17 83 18 4 1 7 -12 7 -28z m182 9 c188 -27 188 -27 188 -50 0 -24 18 -29
113 -29 119 0 157 -12 124 -39 -19 -16 -126 -31 -156 -21 -14 5 -39 11 -54 14
-17 3 -25 10 -21 17 5 7 43 9 121 6 62 -3 111 -3 108 1 -4 3 -57 9 -118 13
-62 3 -184 16 -272 27 -88 11 -167 20 -176 21 -20 0 -33 60 -13 60 7 0 77 -9
156 -20z m63 -80 c55 -6 101 -13 103 -15 2 -2 -10 -11 -27 -19 -49 -26 -80
-66 -101 -131 l-19 -60 0 87 c-1 51 -5 90 -12 94 -6 3 -49 9 -95 12 -47 2 -87
9 -90 13 -3 5 0 9 5 9 6 0 11 8 11 18 0 17 6 18 63 11 34 -5 107 -13 162 -19z
m-246 11 c11 -7 9 -12 -10 -22 -22 -11 -23 -11 -10 4 26 33 -5 17 -41 -20 -49
-50 -68 -99 -68 -173 0 -54 -2 -60 -21 -60 -21 0 -21 3 -15 103 11 159 8 152
74 164 78 14 75 14 91 4z m-295 -52 c38 -30 56 -71 63 -144 5 -56 4 -65 -10
-65 -12 0 -18 13 -23 49 -8 58 -17 76 -37 68 -11 -4 -14 -24 -14 -89 1 -54 3
-73 8 -53 7 30 7 30 8 3 3 -63 -11 -60 -63 18 -28 42 -55 82 -61 90 -13 19 19
82 49 95 39 18 73 3 96 -41 11 -21 20 -52 21 -67 0 -15 5 -37 10 -48 11 -26 0
70 -13 105 -15 41 -49 70 -80 70 -70 0 -98 -45 -98 -156 0 -43 -2 -75 -4 -73
-2 2 -6 43 -9 92 l-6 87 38 40 c44 46 83 52 125 19z m296 10 c0 -4 41 -10 91
-14 53 -4 92 -12 94 -19 2 -6 6 -86 9 -178 l5 -168 -119 0 c-83 0 -120 -4
-120 -11 0 -8 19 -10 63 -6 34 4 55 4 47 0 -32 -13 -73 -47 -91 -77 -16 -25
-19 -27 -20 -11 0 11 -4 54 -8 95 -4 41 -4 80 1 86 12 16 -20 166 -39 181 -17
13 -10 32 35 93 24 32 24 34 3 15 -13 -11 -31 -36 -42 -55 -10 -19 -18 -30
-19 -24 0 5 13 31 29 56 23 37 35 46 55 44 14 0 26 -4 26 -7z m383 -33 c12 -3
35 -6 51 -6 23 0 26 -3 17 -14 -6 -7 -14 -34 -17 -60 -4 -26 -11 -49 -15 -52
-17 -10 -10 -56 9 -61 17 -4 20 -20 25 -146 9 -192 9 -305 -1 -311 -5 -3 -9
57 -11 132 -2 92 -6 139 -14 144 -20 13 -129 10 -121 -3 4 -7 26 -10 60 -6
l53 5 6 -41 c10 -71 2 -240 -12 -245 -9 -2 -13 8 -13 35 0 98 -55 216 -115
249 l-36 19 93 5 93 5 1 75 1 75 -4 -68 c-2 -41 -9 -70 -16 -72 -7 -2 -56 -5
-110 -7 l-97 -3 0 80 c0 93 21 185 53 233 26 39 90 78 95 57 2 -7 13 -16 25
-19z m-1628 -37 c-42 -5 -20 -6 75 -5 84 2 114 1 80 -4 -47 -6 -40 -7 50 -8
58 -1 120 2 138 7 24 7 32 7 32 -4 0 -7 -11 -16 -25 -19 -15 -4 -25 -14 -25
-24 0 -170 -8 -311 -18 -330 -13 -22 -16 -22 -155 -20 l-142 3 -7 105 c-11
147 -24 239 -38 256 -22 26 -279 13 -288 -14 -3 -11 0 -12 15 -4 10 6 73 14
140 18 113 6 121 5 127 -12 8 -26 36 -271 36 -317 0 -50 24 -58 155 -57 147 2
157 1 150 -10 -3 -5 -34 -10 -68 -11 -34 0 -82 -4 -107 -9 -32 -6 -16 -7 55
-4 121 7 138 11 131 31 -4 9 -1 22 6 31 9 10 14 63 16 167 4 151 4 152 26 148
16 -3 25 2 34 21 8 19 21 26 58 32 70 10 302 0 317 -15 14 -14 22 -188 12
-267 -5 -43 -10 -53 -27 -56 -31 -4 -33 -26 -4 -39 14 -7 26 -16 26 -21 0 -9
-142 -14 -317 -9 -98 3 -125 1 -137 -12 -19 -18 -163 -32 -245 -22 -39 4 -61
3 -65 -4 -4 -6 0 -11 10 -11 14 0 14 -2 3 -16 -12 -14 -14 -14 -20 3 -3 10 -2
26 3 37 7 12 6 22 -1 29 -8 8 -11 5 -11 -11 0 -31 -32 -44 -101 -41 -33 1 -64
-2 -70 -8 -13 -13 -17 -103 -5 -121 11 -18 56 -15 63 4 3 9 -4 36 -16 60 -11
25 -21 47 -21 49 0 3 20 5 45 5 36 0 46 -4 55 -22 11 -22 10 -22 -4 -4 -13 16
-16 17 -16 4 0 -20 24 -40 36 -30 5 4 -3 -7 -19 -24 -15 -17 -25 -33 -22 -35
3 -3 -10 -19 -27 -35 -18 -16 -26 -21 -19 -11 19 24 -2 22 -24 -3 -10 -11 -15
-20 -10 -20 4 0 2 -7 -5 -15 -13 -16 -29 -16 -45 1 -5 6 -37 38 -70 72 -43 45
-56 65 -48 73 8 8 20 -2 43 -35 19 -25 35 -46 37 -46 5 0 -16 40 -39 73 -17
24 -18 29 -4 42 37 37 51 16 63 -95 9 -93 23 -82 23 18 0 67 4 93 15 102 8 7
12 17 8 23 -4 7 0 8 11 4 14 -5 17 -3 12 8 -4 10 1 15 17 16 49 2 121 10 126
14 2 3 -33 5 -78 5 l-83 0 6 44 c5 28 3 47 -4 51 -7 4 -8 11 -2 18 5 7 12 29
16 49 4 21 11 40 15 42 13 8 0 -88 -13 -96 -7 -5 -4 -8 6 -8 19 0 33 39 25 70
-4 15 1 19 27 22 29 3 31 6 34 44 2 29 -3 47 -18 66 -20 26 -23 27 -122 25
-113 -3 -116 -4 -117 -82 -1 -51 18 -89 46 -93 14 -2 23 -12 25 -25 2 -17 9
-22 30 -20 25 1 26 0 15 -17 -8 -14 -8 -23 -1 -30 6 -6 9 -22 6 -35 -5 -26 -3
-26 -117 -10 l-30 5 3 151 c4 176 -4 214 -47 204 -14 -3 -36 -9 -48 -12 -13
-3 -23 -1 -23 5 0 14 31 20 170 33 69 6 145 14 170 19 25 4 77 7 115 7 l70 0
-60 -8z m665 0 c-26 -6 -19 -7 32 -6 45 1 71 -3 80 -12 11 -11 3 -12 -47 -6
-65 8 -286 8 -322 1 -13 -3 -23 -1 -23 5 0 5 17 9 38 10 23 0 31 3 20 7 -9 4
45 7 120 8 82 0 123 -3 102 -7z m-280 -46 c0 -5 -4 -14 -9 -22 -8 -13 -12 -13
-27 -1 -15 14 -15 15 7 21 13 4 25 7 27 8 1 1 2 -2 2 -6z m589 -97 c10 -73 9
-98 -4 -84 -9 9 -33 172 -27 182 9 15 19 -17 31 -98z m202 -6 c9 -50 9 -75 2
-77 -7 -3 -7 -20 0 -52 6 -32 6 -59 0 -78 l-10 -28 -13 45 c-7 25 -16 48 -19
52 -4 4 -41 9 -84 11 -114 6 -106 17 11 17 98 0 101 1 100 23 0 43 -21 158
-30 163 -4 3 -8 12 -8 20 0 12 4 11 20 -3 12 -12 23 -44 31 -93z m-1538 -94
c-1 -81 -4 -151 -7 -154 -3 -3 -27 -1 -54 4 l-47 9 0 157 0 158 25 1 c14 0 34
4 45 8 33 13 40 -21 38 -183z m1510 47 l5 -53 -82 0 -82 0 1 45 c0 41 2 45 20
41 11 -3 41 -6 66 -6 40 0 47 -3 57 -27 11 -26 11 -26 6 -3 -3 14 -7 48 -9 75
-4 46 -4 47 5 15 5 -19 11 -59 13 -87z m-307 52 c-4 -17 -6 -111 -7 -208 0
-97 -4 -179 -9 -182 -4 -3 -22 -2 -39 1 -26 6 -31 11 -31 35 0 29 22 40 35 19
19 -30 25 19 25 197 0 177 2 194 16 182 11 -9 14 -22 10 -44z m864 31 c0 -8
-6 -18 -13 -25 -11 -8 -13 -5 -9 19 4 29 22 33 22 6z m-1798 -16 c24 -30 21
-83 -5 -88 -10 -2 -24 4 -31 14 -12 16 -14 16 -30 -8 -12 -19 -23 -25 -39 -21
-18 4 -19 3 -7 -7 12 -9 11 -10 -7 -5 -12 3 -32 1 -44 -5 -17 -10 -24 -9 -36
2 -17 18 -28 78 -19 112 11 45 23 28 19 -26 -3 -37 0 -59 10 -73 14 -18 15
-16 5 21 -6 23 -8 53 -3 70 l8 29 14 -35 c8 -18 12 -46 9 -62 -4 -21 -2 -26 9
-21 19 7 20 65 1 101 l-14 27 70 -1 c62 0 73 -3 90 -24z m4123 -66 c-19 -20
-21 -20 -39 -3 -18 16 -18 18 0 41 l18 24 21 -21 21 -20 -21 -21z m-4670 -5
c0 -30 -4 -56 -10 -59 -5 -3 -9 18 -8 50 l1 55 -8 -45 c-7 -45 -7 -45 -8 -8
-2 44 7 70 22 65 6 -2 11 -27 11 -58z m1527 19 c23 -41 24 -47 17 -163 -8
-110 -3 -310 7 -327 7 -11 34 3 34 18 0 7 -7 17 -16 22 -14 8 -15 27 -11 138
2 71 8 140 12 154 5 20 5 22 -5 10 -10 -12 -11 -10 -6 10 3 14 6 36 6 50 l1
25 10 -23 c5 -13 6 -29 2 -34 -3 -7 -1 -8 5 -4 9 5 12 -8 12 -44 0 -42 -3 -51
-15 -46 -18 6 -20 -5 -3 -22 7 -7 13 -63 16 -150 l4 -139 -23 -6 c-47 -13 -51
-9 -47 35 3 40 1 42 -29 50 -29 8 -33 13 -33 43 0 18 5 37 10 40 6 3 10 -3 10
-14 0 -30 14 -32 27 -5 8 18 8 27 0 37 -8 8 -12 71 -12 199 0 104 1 188 2 188
0 0 12 -19 25 -42z m1766 27 c2 -2 -50 -24 -116 -49 -97 -38 -128 -46 -163
-42 -31 4 -35 3 -14 -2 37 -9 30 -13 -65 -42 -97 -29 -99 -29 -129 -13 -15 7
-39 13 -55 13 -56 0 -16 13 112 35 123 22 282 68 340 99 22 12 76 12 90 1z
m127 -22 c14 -4 -8 -19 -86 -58 l-105 -53 -72 17 -72 17 113 46 c112 46 150
51 222 31z m-1928 -205 c-1 -40 -3 -8 -3 72 0 80 2 112 3 73 2 -40 2 -106 0
-145z m111 131 c-6 -4 -8 -14 -5 -24 4 -9 3 -14 -3 -10 -6 3 -10 23 -10 43 0
33 1 34 14 16 10 -13 11 -21 4 -25z m-160 -101 c0 -68 -3 -118 -5 -112 -3 9
-16 9 -46 2 -50 -12 -279 -16 -357 -6 l-55 7 45 -15 c50 -16 203 -21 295 -10
l60 7 0 -31 c0 -28 -2 -31 -25 -26 -27 5 -59 -7 -43 -17 5 -3 29 -6 53 -6 86
-1 90 -3 83 -30 -4 -17 0 -28 13 -39 18 -14 18 -14 -6 -8 -14 3 -30 6 -35 6
-6 0 -17 16 -24 35 -7 19 -17 35 -23 35 -7 0 -7 -4 0 -12 5 -7 13 -23 16 -35
6 -18 4 -22 -8 -17 -9 3 -16 1 -16 -5 0 -6 11 -11 25 -11 19 0 29 -9 44 -39
l20 -39 -21 6 c-18 4 -20 2 -15 -17 7 -27 5 -28 -105 -35 -76 -5 -88 -4 -88
10 0 8 4 13 9 9 13 -8 154 16 166 28 14 13 -152 2 -169 -12 -7 -6 -16 -8 -19
-4 -4 3 -14 0 -23 -8 -12 -10 -15 -23 -10 -56 l6 -43 -41 16 c-42 17 -41 17
-368 -38 -30 -5 -64 -7 -75 -5 -13 2 -6 6 19 10 22 4 92 16 155 27 63 11 134
23 158 26 23 4 41 8 40 10 -2 1 -51 12 -108 24 -58 12 -109 25 -113 30 -5 4
11 20 36 34 60 36 68 47 76 108 7 63 28 73 66 32 25 -27 76 -125 110 -208 8
-22 18 -37 20 -34 7 7 -46 136 -78 190 -29 50 -63 88 -78 88 -6 0 -7 6 -3 13
4 6 4 9 -1 5 -12 -11 -35 11 -35 32 0 27 24 31 130 24 53 -4 149 -3 213 1 104
6 117 9 117 25 0 10 -9 22 -20 25 -11 3 -20 11 -20 16 0 6 8 8 19 4 21 -6 31
26 31 106 0 27 2 49 5 49 3 0 4 -55 3 -122z m-1298 -12 c-7 -20 -16 -27 -33
-24 -20 3 -22 9 -22 58 0 50 2 55 23 58 13 2 26 11 30 20 12 28 14 -82 2 -112z
m318 92 c-2 -18 -11 -24 -35 -26 -27 -3 -33 0 -33 17 0 14 8 21 28 24 15 2 31
5 35 6 5 0 7 -9 5 -21z m2671 -7 l74 -18 -87 -36 c-49 -20 -93 -37 -99 -37 -7
0 -5 -5 3 -10 29 -19 0 -10 -76 24 l-76 33 82 27 c45 14 84 26 87 26 3 0 3
-18 -1 -40 -4 -25 -2 -40 4 -40 5 0 10 20 10 45 0 25 1 45 3 45 1 -1 35 -9 76
-19z m291 -3 l25 -10 -37 -19 c-33 -17 -39 -17 -72 -4 -20 8 -47 16 -61 17
-14 1 -25 5 -25 9 0 11 29 19 44 13 8 -3 23 -1 33 5 18 10 45 7 93 -11z
m-3348 -48 c1 -33 0 -60 -4 -60 -5 0 -8 18 -8 39 0 22 -4 42 -10 46 -5 3 -7
12 -3 20 11 31 21 13 25 -45z m2467 41 c-41 -31 -66 -41 -108 -41 -30 0 -39 4
-35 13 8 23 67 46 118 46 l49 1 -24 -19z m-766 -46 l16 -45 -42 0 c-23 0 -59
-3 -79 -6 -37 -6 -38 -6 -38 22 0 16 -4 35 -9 43 -6 9 -7 -28 -4 -95 5 -117 4
-276 -3 -283 -11 -11 -13 16 -13 159 0 85 0 166 0 180 -1 67 3 70 83 70 l74 0
15 -45z m995 30 c23 -4 42 -10 42 -14 0 -4 -19 -12 -42 -18 -24 -7 -51 -15
-60 -18 -15 -6 -18 -1 -18 30 0 30 3 35 18 31 9 -2 36 -8 60 -11z m476 -36 c4
-23 5 -43 3 -45 -2 -2 -27 6 -57 17 -29 11 -65 18 -79 15 -18 -4 -15 -1 9 10
19 8 49 21 65 29 46 21 52 18 59 -26z m73 19 l46 -11 -44 -23 c-24 -13 -47
-23 -51 -24 -5 0 -8 16 -8 35 0 19 3 35 6 35 3 0 26 -5 51 -12z m-1230 -8 c14
0 21 -4 18 -10 -3 -5 -4 -10 -1 -10 2 0 13 -3 23 -6 15 -5 15 -4 3 5 -10 7
-11 11 -3 11 24 0 92 -70 86 -87 -4 -11 -2 -14 5 -9 8 5 10 1 5 -10 -5 -13 -3
-15 7 -9 8 5 11 4 6 -3 -3 -6 3 -34 15 -64 17 -42 20 -66 16 -118 -7 -83 -39
-175 -78 -222 -16 -21 -26 -38 -21 -38 27 0 102 144 102 194 0 19 4 24 15 20
8 -4 36 -3 61 1 35 5 44 10 42 23 -2 11 -15 18 -35 20 -31 3 -32 3 -12 23 10
10 19 25 19 32 0 7 28 20 68 30 108 28 154 20 111 -19 -12 -11 -37 -52 -56
-92 -24 -49 -50 -85 -82 -112 -60 -52 -264 -160 -246 -130 3 6 2 10 -4 10 -5
0 -13 -5 -16 -11 -18 -29 -138 -46 -185 -26 -14 6 -40 25 -58 41 -18 17 -36
30 -40 29 -4 -1 -6 5 -4 14 2 8 -1 12 -6 9 -5 -3 -9 0 -9 7 3 30 -16 87 -29
87 -8 0 -14 -7 -14 -16 0 -14 -3 -14 -15 -4 -12 10 -19 10 -27 2 -8 -8 -15 -9
-25 -1 -21 18 -69 -8 -88 -48 -30 -63 3 -161 54 -164 9 0 11 -3 4 -5 -6 -3
-30 0 -53 6 -52 14 -80 56 -80 123 0 38 3 47 18 48 9 1 24 2 32 3 8 0 16 11
18 22 3 23 18 28 147 40 74 7 109 19 100 34 -3 5 14 14 37 20 24 6 53 15 66
20 25 11 27 4 10 -37 -24 -58 -103 -122 -92 -75 5 20 -12 50 -22 39 -17 -17
60 -177 85 -177 14 0 7 26 -12 47 -15 18 -15 22 9 68 30 60 74 109 87 96 5 -5
2 -48 -10 -105 -17 -90 -19 -96 -40 -91 -16 4 -21 1 -19 -12 2 -9 9 -19 17
-21 11 -3 11 -1 -1 7 -11 8 -4 10 31 9 31 -2 55 4 75 17 16 11 32 18 37 17 4
-1 7 5 7 13 0 17 44 83 67 100 13 10 14 16 7 26 -18 23 -5 101 17 106 25 7 24
23 -1 23 -17 0 -20 7 -20 44 0 25 5 48 10 51 16 10 12 28 -5 21 -15 -5 -44 47
-59 107 -3 15 -12 27 -19 25 -7 -1 -34 8 -60 21 -26 13 -50 21 -53 18 -3 -3
14 -14 39 -25 24 -11 47 -24 51 -30 7 -11 -23 -151 -35 -165 -10 -12 -39 93
-39 140 0 22 -6 48 -14 58 -13 18 -14 18 -49 -3 -19 -13 -42 -34 -52 -48 -15
-24 -15 -27 2 -54 60 -97 76 -126 79 -146 2 -20 0 -21 -27 -12 -37 13 -38 20
-1 13 23 -5 22 -4 -8 10 -62 30 -80 35 -80 25 0 -12 75 -60 94 -60 8 0 17 -4
21 -10 3 -5 -20 -16 -52 -25 -32 -9 -67 -20 -78 -25 -11 -5 -69 -14 -128 -21
-59 -7 -110 -16 -113 -20 -4 -8 25 -5 125 12 61 10 107 12 99 4 -12 -12 -235
-33 -273 -25 -37 7 -24 15 18 11 9 -1 17 4 17 12 0 12 20 17 88 22 48 4 104
11 125 16 35 9 37 12 37 52 0 39 17 119 36 172 5 14 4 17 -4 10 -14 -14 -42
-112 -42 -149 0 -58 -16 -62 -36 -10 -9 27 -19 51 -21 54 -2 2 -41 3 -86 1
-108 -3 -94 8 22 17 l90 8 7 -46 c10 -77 14 -69 10 20 -3 68 0 92 15 122 32
62 115 112 173 103 16 -3 39 -5 53 -5z m-1627 -14 c0 -8 -4 -17 -9 -21 -12 -7
-24 12 -16 25 9 15 25 12 25 -4z m2470 -19 l54 -24 -69 -23 c-39 -13 -74 -25
-80 -27 -6 -2 -10 20 -10 53 0 54 1 55 25 50 14 -2 50 -16 80 -29z m-326 4
l39 -17 -42 -13 c-33 -9 -50 -10 -79 0 -56 18 -58 21 -21 34 46 17 57 16 103
-4z m206 -36 c0 -30 -3 -55 -6 -55 -3 0 -30 7 -60 16 -45 13 -54 19 -54 38 0
18 9 26 48 38 73 24 72 24 72 -37z m560 -11 c0 -41 -3 -54 -12 -50 -7 3 -32
11 -55 18 -57 16 -55 37 5 65 26 11 50 22 55 22 4 1 7 -24 7 -55z m-1355 26
c15 -46 23 -185 12 -192 -7 -4 -10 -8 -7 -9 3 0 13 -2 22 -4 15 -3 17 2 12 23
-5 24 -4 25 6 8 9 -14 9 -23 0 -40 -6 -13 -10 -38 -8 -57 3 -31 6 -34 33 -33
21 0 37 -8 54 -28 13 -16 30 -27 37 -24 10 4 11 -1 3 -22 -19 -53 -34 -78 -70
-115 -46 -45 -79 -50 -78 -9 0 23 2 24 8 7 6 -14 9 -7 14 29 4 27 7 64 7 82 0
72 26 41 45 -55 6 -29 9 -32 17 -17 7 13 6 29 -5 55 -9 20 -19 46 -22 59 -4
12 -12 22 -19 22 -7 0 -25 9 -39 20 -22 18 -24 24 -16 52 6 23 5 34 -3 39 -7
5 -9 11 -6 15 4 3 -3 21 -16 38 -13 17 -34 49 -46 70 l-21 39 32 33 c38 39 45
41 54 14z m1179 -2 l38 -14 -40 -18 c-37 -17 -42 -17 -94 -1 -30 10 -55 23
-55 30 0 7 8 10 20 7 12 -3 18 -1 14 4 -8 14 71 9 117 -8z m-642 -84 c-4 -52
-5 -54 -32 -54 -41 0 -78 16 -83 37 -4 14 -5 13 -6 -5 -1 -15 7 -26 22 -31 17
-7 18 -10 7 -14 -27 -10 -94 -26 -97 -24 -1 2 -5 39 -9 83 l-7 80 44 9 c35 8
56 6 104 -9 l60 -18 -3 -54z m-2100 52 c2 -19 0 -32 -4 -30 -8 5 -12 64 -4 64
2 0 6 -15 8 -34z m1693 14 c-3 -4 7 -34 21 -65 l27 -58 -37 -34 c-25 -24 -42
-33 -56 -28 -18 6 -18 8 -5 38 15 33 40 145 37 160 -2 5 2 6 8 2 6 -3 8 -10 5
-15z m535 -4 c0 -21 7 -27 48 -38 l47 -14 -54 -17 c-29 -10 -55 -17 -56 -15
-4 4 -7 56 -6 86 1 30 21 28 21 -2z m-2410 -7 c52 -6 97 -13 100 -16 3 -3 -20
-3 -50 1 -30 3 -88 8 -127 12 -42 4 -70 11 -67 16 4 5 16 7 28 4 11 -4 64 -11
116 -17z m1543 -39 c2 -30 3 -57 1 -59 -1 -2 -9 19 -17 45 l-14 49 -82 -2
c-58 -2 -81 1 -81 10 0 9 27 12 94 12 l94 0 5 -55z m14 -2 c-2 -13 -4 -3 -4
22 0 25 2 35 4 23 2 -13 2 -33 0 -45z m813 4 c0 -54 -2 -60 -26 -71 -15 -6
-29 -9 -33 -5 -3 3 -6 30 -6 60 0 48 3 55 25 63 39 15 40 14 40 -47z m-2330
10 c120 -7 125 -8 128 -29 4 -28 10 -27 -173 -8 -210 22 -215 23 -215 49 0 23
0 23 67 9 37 -8 124 -17 193 -21z m2805 2 c29 -13 30 -16 27 -75 -3 -45 -7
-59 -17 -55 -7 2 -31 10 -54 17 -31 9 -41 17 -41 34 0 16 11 25 52 40 29 10
47 20 41 22 -6 2 -28 -3 -48 -11 -21 -9 -39 -16 -41 -16 -2 0 -4 16 -4 36 0
34 1 36 28 29 15 -3 41 -13 57 -21z m115 -23 c0 -45 -3 -51 -35 -70 l-35 -20
0 53 c0 49 2 53 33 69 17 8 33 16 35 16 1 1 2 -21 2 -48z m-1443 -13 c6 -24
11 -44 10 -44 -1 -1 -38 -3 -82 -5 l-80 -4 -3 48 -3 47 73 0 74 0 11 -42z
m-1669 -20 c2 -8 -5 -25 -15 -37 l-18 -23 -20 24 c-19 21 -19 22 -1 8 17 -13
19 -13 14 0 -7 20 10 52 25 47 7 -2 13 -10 15 -19z m842 -22 c5 -5 5 -16 0
-25 -4 -9 -12 -38 -17 -66 -7 -44 -13 -53 -53 -79 -25 -16 -49 -36 -53 -43 -4
-7 -22 -14 -40 -14 -30 -2 -30 -2 -4 -6 24 -4 27 -9 27 -42 0 -35 -3 -39 -31
-45 -17 -3 -45 -6 -61 -6 -32 0 -68 -16 -68 -30 0 -17 35 -19 103 -6 l67 13 0
-44 c0 -51 -12 -78 -41 -93 -27 -15 -57 4 -98 63 -41 57 -79 78 -145 80 -53 2
-53 2 -43 27 15 37 58 70 92 71 54 1 163 24 166 34 2 6 -15 14 -37 19 -40 8
-42 10 -53 62 -21 90 -20 107 2 132 19 20 29 22 138 22 83 0 120 4 126 13 5 8
9 6 11 -8 2 -11 8 -24 12 -29z m-662 3 c23 -36 -2 -43 -31 -9 -27 30 -27 30
-4 30 12 0 28 -10 35 -21z m26 15 c9 -3 13 -10 10 -15 -8 -14 -21 -11 -28 6
-6 17 -4 18 18 9z m95 -51 c-1 -53 -6 -49 -11 10 -2 20 0 37 4 37 4 0 8 -21 7
-47z m1628 25 c-3 -8 -6 -5 -6 6 -1 11 2 17 5 13 3 -3 4 -12 1 -19z m-1562
-24 c20 -50 20 -76 -2 -72 -14 2 -19 15 -21 56 -2 28 -1 52 2 52 3 0 13 -16
21 -36z m2323 -17 c7 -5 12 -33 12 -66 0 -56 -1 -58 -35 -74 -20 -9 -38 -17
-40 -17 -3 0 -5 25 -5 55 0 54 1 55 37 70 20 8 34 18 30 21 -3 3 -19 -2 -36
-10 -28 -15 -35 -15 -86 2 -30 11 -58 21 -61 24 -3 3 14 12 38 20 38 13 49 13
88 0 25 -8 51 -19 58 -25z m-1303 24 c3 -5 1 -12 -5 -16 -5 -3 -10 1 -10 9 0
18 6 21 15 7z m-78 -7 c-3 -3 -12 -4 -19 -1 -8 3 -5 6 6 6 11 1 17 -2 13 -5z
m-1252 -34 c-3 -5 0 -10 7 -12 7 -3 9 -11 4 -24 -8 -18 -8 -18 -17 4 -5 12
-19 27 -31 32 -20 9 -20 10 6 5 27 -6 28 -5 15 12 -13 16 -12 17 3 4 10 -7 16
-17 13 -21z m2025 -11 c0 -25 -4 -29 -29 -29 -16 0 -31 -6 -35 -15 -4 -11 2
-15 27 -14 27 0 29 2 12 9 -19 8 -19 9 3 9 18 1 22 -4 22 -31 0 -55 -13 -64
-49 -37 -27 20 -31 28 -28 62 3 30 11 46 32 63 34 27 45 23 45 -17z m-400 16
c0 -9 9 -33 20 -54 l19 -39 -67 -6 c-37 -4 -84 -9 -104 -12 l-38 -6 0 60 c0
69 -2 68 113 71 45 1 57 -2 57 -14z m-1150 -20 c0 -8 5 -37 11 -64 10 -48 12
-50 52 -59 l42 -8 -65 -8 c-36 -4 -75 -10 -88 -13 l-23 -5 25 37 c19 27 26 50
25 79 l-2 41 -7 -40 c-7 -39 -7 -39 -9 -7 0 18 4 42 10 53 11 21 29 17 29 -6z
m2017 8 l53 -18 0 -67 c0 -38 -3 -68 -7 -68 -5 0 -30 9 -58 19 l-49 19 -1 66
c0 36 2 66 4 66 2 0 28 -8 58 -17z m1693 -12 c19 -10 47 -34 63 -54 l29 -35
-33 -33 c-64 -62 -245 -131 -264 -99 -13 22 -9 124 7 155 17 32 54 69 78 78
32 12 87 6 120 -12z m-2256 0 c3 -5 -1 -11 -9 -15 -18 -7 -20 -37 -2 -55 10
-10 8 -12 -8 -9 -13 2 -21 12 -23 31 -5 39 26 74 42 48z m2 -48 c-10 -10 -19
5 -10 18 6 11 8 11 12 0 2 -7 1 -15 -2 -18z m-599 1 c-3 -3 -12 -4 -19 -1 -8
3 -5 6 6 6 11 1 17 -2 13 -5z m63 -4 c0 -5 -5 -10 -11 -10 -5 0 -7 5 -4 10 3
6 8 10 11 10 2 0 4 -4 4 -10z m807 -13 c3 -4 -8 -7 -25 -7 -16 0 -37 -3 -45
-6 -9 -3 -16 2 -19 14 -5 17 -1 18 39 12 24 -4 46 -10 50 -13z m1287 -29 c-18
-22 -20 -22 -35 -7 -16 16 -15 18 4 38 18 18 23 19 36 7 12 -12 11 -18 -5 -38z
m-3284 12 c39 -33 33 -35 -55 -17 l-59 13 24 17 c34 23 49 21 90 -13z m1105
22 c14 -5 20 -17 21 -38 1 -27 -1 -30 -21 -26 -13 2 -29 18 -38 38 -16 32 -16
34 1 33 9 -1 26 -4 37 -7z m534 -48 c-14 -18 -24 -11 -15 11 3 9 11 13 16 10
8 -5 7 -11 -1 -21z m2439 -20 c-3 -19 -128 -90 -173 -99 -17 -3 0 9 40 28 39
19 81 46 95 60 29 29 43 33 38 11z m-2895 -24 c37 -8 57 -16 57 -26 0 -17 -30
-18 -119 -2 -78 14 -67 9 -75 34 -6 21 -5 21 36 13 24 -4 69 -13 101 -19z
m-296 14 c-3 -3 -12 -4 -19 -1 -8 3 -5 6 6 6 11 1 17 -2 13 -5z m-60 -24 c-3
-11 -1 -20 5 -20 5 0 6 -5 2 -12 -7 -11 12 -9 82 8 26 7 28 6 15 -9 -7 -10
-23 -17 -35 -17 -12 0 -31 -7 -42 -15 -34 -26 -44 -18 -44 35 0 30 4 50 11 50
6 0 9 -9 6 -20z m2273 1 c14 -27 13 -30 -10 -24 -24 6 -34 19 -25 33 10 16 23
12 35 -9z m-2945 -11 c-3 -5 -11 -10 -16 -10 -6 0 -7 5 -4 10 3 6 11 10 16 10
6 0 7 -4 4 -10z m390 -7 l80 -18 -70 -12 c-104 -18 -105 -17 -105 17 0 35 -6
34 95 13z m3533 5 c-5 -16 -58 -44 -161 -87 l-78 -32 -29 21 c-17 12 -30 22
-30 23 0 1 30 2 66 3 56 1 76 7 142 41 86 45 95 49 90 31z m-2738 -8 c0 -5
-12 -21 -26 -35 -32 -32 -31 -90 3 -112 20 -14 24 -13 49 12 27 27 29 54 8
123 -11 38 14 25 26 -14 38 -113 -60 -217 -123 -133 -35 49 -16 150 31 162 28
8 32 7 32 -3z m233 -10 c-7 -25 -33 -49 -33 -30 0 11 28 50 36 50 1 0 0 -9 -3
-20z m-1633 6 c0 -2 -8 -10 -17 -17 -16 -13 -17 -12 -4 4 13 16 21 21 21 13z
m3728 -37 c-82 -67 -99 -141 -37 -154 41 -9 128 2 196 26 31 10 71 19 90 19
19 0 32 4 29 9 -4 5 4 7 16 4 19 -4 20 -3 8 7 -12 9 -11 10 9 5 17 -5 22 -4
16 5 -6 9 -4 11 5 5 17 -10 -2 -25 -94 -72 -130 -66 -278 -101 -346 -83 -84
23 -71 80 46 189 42 39 81 71 88 71 6 -1 -6 -14 -26 -31z m-3805 -119 c-107
-119 -166 -193 -175 -222 -2 -5 -40 11 -83 37 -95 56 -90 51 -70 59 9 3 13 2
10 -4 -10 -16 21 -23 45 -10 20 11 21 10 10 -11 -12 -21 -11 -22 18 -16 26 5
30 4 25 -11 -5 -13 1 -11 20 7 15 13 24 28 20 34 -4 6 -1 7 6 3 8 -5 60 40
149 128 75 75 138 136 140 136 1 0 -51 -59 -115 -130z m1502 114 c19 -19 13
-59 -11 -84 -35 -36 -73 43 -38 81 21 23 28 24 49 3z m-1655 -8 c0 -2 -8 -10
-17 -17 -16 -13 -17 -12 -4 4 13 16 21 21 21 13z m1120 -83 c0 -41 5 -59 18
-69 25 -19 -2 -18 -40 2 -27 14 -29 18 -15 26 12 6 17 23 17 59 0 31 4 48 10
44 6 -3 10 -31 10 -62z m-675 40 c-77 -8 -135 -75 -135 -155 0 -45 30 -108 52
-108 6 0 2 11 -11 24 -28 29 -37 83 -22 129 12 34 71 97 91 97 14 0 0 -32 -28
-62 -15 -17 -26 -43 -29 -71 -5 -39 -2 -49 20 -71 70 -70 196 20 157 113 -13
33 -51 56 -86 53 -26 -2 -31 7 -12 26 18 18 62 14 91 -8 55 -43 59 -144 8
-199 -33 -36 -98 -55 -135 -41 -14 5 -32 7 -39 4 -8 -3 -28 11 -46 31 -80 92
-5 248 118 243 l46 -1 -40 -4z m-525 -17 c0 -2 -8 -10 -17 -17 -16 -13 -17
-12 -4 4 13 16 21 21 21 13z m-40 -29 c0 -2 -10 -12 -22 -23 l-23 -19 19 23
c18 21 26 27 26 19z m624 -38 c35 -27 35 -76 1 -113 -43 -47 -110 -27 -89 28
4 11 13 14 29 10 13 -3 26 -1 30 6 9 15 -13 40 -31 33 -10 -4 -14 3 -14 26 0
26 4 31 24 31 13 0 35 -9 50 -21z m-674 -2 c0 -2 -10 -12 -22 -23 l-23 -19 19
23 c18 21 26 27 26 19z m580 -57 c-7 -21 -10 -48 -7 -60 4 -17 3 -19 -8 -10
-21 17 -27 63 -14 96 l12 29 7 -25 c8 -25 8 -24 10 5 1 17 4 24 7 16 3 -7 0
-30 -7 -51z m60 0 c0 -5 -7 -10 -15 -10 -8 0 -15 5 -15 10 0 6 7 10 15 10 8 0
15 -4 15 -10z m-665 -20 c-10 -11 -22 -17 -26 -14 -16 10 -9 23 14 27 12 2 24
5 26 6 2 0 -4 -8 -14 -19z m2995 0 c13 -24 1 -50 -36 -79 -35 -27 -39 -27 -54
8 -17 43 9 91 50 91 19 0 33 -7 40 -20z m50 -32 c0 -7 -5 -20 -10 -28 -8 -12
-10 -9 -10 13 0 15 5 27 10 27 6 0 10 -6 10 -12z m-42 -70 c-19 -17 -58 -25
-58 -12 0 3 15 20 33 37 30 30 32 31 38 12 4 -13 0 -26 -13 -37z"/>
<path d="M2495 2114 c-4 -107 -5 -198 -1 -201 6 -6 128 -32 154 -33 9 0 11 45
10 198 l-3 197 -2 -193 c-3 -177 -5 -193 -21 -188 -9 2 -35 7 -57 11 -79 12
-75 7 -75 107 l0 91 38 -6 c20 -4 52 -9 70 -13 l32 -6 0 99 0 100 -58 17 c-32
9 -63 16 -69 16 -7 0 -13 -69 -18 -196z m91 165 l44 -11 0 -89 0 -88 -32 6
c-89 17 -83 9 -83 111 0 74 3 91 14 87 7 -3 33 -10 57 -16z"/>
<path d="M1349 1975 c-35 -23 -37 -27 -43 -97 -3 -40 -9 -144 -12 -230 l-7
-158 120 0 120 0 6 68 c4 37 7 147 7 244 0 204 3 198 -97 198 -45 0 -66 -5
-94 -25z m159 9 c21 -6 22 -11 22 -109 l0 -103 -30 -7 c-17 -4 -35 -15 -40
-25 -6 -10 -10 -68 -10 -129 0 -67 -4 -111 -10 -111 -6 0 -10 49 -10 128 0
147 -7 167 -68 200 -39 22 -42 26 -42 67 0 36 5 47 28 63 15 10 34 22 42 25
21 8 90 8 118 1z m-144 -171 c19 -9 38 -23 42 -32 4 -9 9 -76 12 -148 l4 -133
-62 0 -62 0 6 108 c8 132 17 222 22 222 2 0 19 -7 38 -17z m162 -105 c-3 -29
-6 -88 -6 -130 l0 -78 -31 0 -32 0 6 117 c5 96 9 120 23 130 37 27 47 17 40
-39z"/>
<path d="M1608 1994 c-5 -4 -8 -58 -8 -120 0 -133 -15 -120 153 -127 l107 -5
0 47 c0 25 3 76 6 113 7 66 6 68 -19 77 -34 13 -230 26 -239 15z m207 -23 l39
-6 -3 -100 c-1 -55 -4 -102 -6 -105 -2 -3 -53 -1 -114 4 l-111 9 0 109 0 110
78 -7 c42 -4 95 -10 117 -14z"/>
<path d="M1602 1618 c-1 -70 1 -129 6 -131 4 -3 62 -2 130 1 l122 5 0 119 c0
68 -4 117 -9 114 -5 -3 -7 -55 -4 -116 l5 -110 -121 0 -120 0 -4 123 -3 122
-2 -127z"/>
<path d="M3983 1517 c-8 -18 -20 -27 -35 -27 -22 -1 -22 -1 5 -21 19 -14 27
-30 27 -50 0 -16 5 -29 10 -29 6 0 10 13 10 29 0 33 20 54 43 45 8 -3 18 -1
22 5 4 7 -3 11 -17 11 -32 0 -45 11 -49 40 l-4 24 -12 -27z m22 -36 c7 -12
-12 -24 -25 -16 -11 7 -4 25 10 25 5 0 11 -4 15 -9z"/>
<path d="M3131 1814 c1 -43 5 -104 9 -134 6 -40 7 -21 5 73 -1 70 -5 131 -9
134 -3 4 -6 -29 -5 -73z"/>
<path d="M3095 1426 c-33 -34 -41 -70 -22 -109 9 -18 18 -39 21 -49 2 -9 20
-19 38 -24 18 -4 28 -9 21 -11 -6 -2 -28 3 -49 12 -48 20 -62 6 -28 -28 40
-40 97 -41 132 -1 22 25 31 71 12 59 -6 -4 -8 7 -5 27 4 30 4 31 -5 8 -8 -21
-9 -17 -5 17 12 97 -87 115 -124 23 l-10 -25 0 26 c-2 83 112 111 145 35 11
-25 13 -27 14 -9 0 27 -54 73 -86 73 -14 0 -36 -11 -49 -24z m85 -42 c19 -22
19 -123 1 -137 -12 -9 -13 -9 -7 1 6 10 2 11 -17 7 -39 -10 -59 18 -55 79 l3
51 35 -2 c31 -2 32 -1 10 6 -23 8 -23 9 -4 10 12 1 27 -6 34 -15z m20 -159
c-27 -29 -74 -33 -108 -9 -31 22 -27 36 6 18 37 -19 65 -18 93 5 32 26 38 17
9 -14z"/>
<path d="M3170 1371 c0 -5 5 -13 10 -16 6 -3 10 -2 10 4 0 5 -4 13 -10 16 -5
3 -10 2 -10 -4z"/>
<path d="M1469 823 c-13 -16 -12 -17 4 -4 16 13 21 21 13 21 -2 0 -10 -8 -17
-17z"/>
<path d="M2738 1130 c2 -16 6 -30 8 -30 2 0 4 14 4 30 0 17 -4 30 -8 30 -5 0
-7 -13 -4 -30z"/>
<path d="M1126 1338 c-8 -32 -7 -181 2 -194 4 -6 17 -14 29 -18 26 -8 29 0 38
117 7 96 0 117 -40 117 -15 0 -25 -8 -29 -22z m56 -5 c2 -10 1 -56 -2 -103 -4
-77 -7 -85 -25 -85 -18 0 -20 8 -23 70 -4 95 4 135 27 135 10 0 20 -8 23 -17z"/>
<path d="M2834 733 c4 -25 30 -23 34 2 3 16 1 17 -7 5 -7 -10 -11 -11 -11 -2
0 6 -4 12 -9 12 -5 0 -8 -8 -7 -17z"/>
<path d="M3063 951 c-10 -33 -16 -58 -12 -55 10 6 42 104 36 110 -2 2 -13 -22
-24 -55z"/>
<path d="M1615 930 c-10 -11 -14 -20 -8 -20 5 0 18 9 28 20 10 11 14 20 8 20
-5 0 -18 -9 -28 -20z"/>
<path d="M3830 3130 c0 -5 5 -10 10 -10 6 0 10 5 10 10 0 6 -4 10 -10 10 -5 0
-10 -4 -10 -10z"/>
<path d="M5571 3066 c-14 -17 -7 -36 14 -36 22 0 29 20 13 36 -13 13 -16 13
-27 0z m24 -16 c-3 -5 -10 -10 -16 -10 -5 0 -9 5 -9 10 0 6 7 10 16 10 8 0 12
-4 9 -10z"/>
<path d="M5155 3015 c-22 -8 -57 -32 -77 -54 l-37 -39 -91 20 c-73 16 -93 18
-106 7 -13 -11 -12 -15 11 -39 14 -14 56 -41 94 -59 l69 -34 4 -49 c6 -55 43
-110 97 -142 52 -30 146 -33 211 -6 30 13 64 32 75 44 18 19 29 21 116 18 78
-3 97 -1 108 12 20 24 -16 59 -89 86 -80 30 -95 21 -24 -15 77 -40 81 -55 12
-55 -80 0 -100 8 -91 34 4 11 8 46 8 76 0 78 -39 143 -103 172 -26 11 -54 24
-62 27 -27 13 -84 11 -125 -4z m160 -28 c51 -24 73 -44 93 -82 26 -51 31 -92
17 -145 l-13 -50 26 -1 c27 -2 27 -2 2 -6 -13 -3 -30 -12 -37 -21 -7 -10 -13
-12 -13 -6 0 6 -31 16 -69 23 -38 7 -95 26 -127 42 -33 16 -50 26 -39 23 76
-26 222 -64 239 -63 12 0 -4 7 -34 15 -87 24 -272 85 -303 101 -19 9 -26 20
-23 31 15 53 18 62 26 62 4 0 11 -11 14 -25 12 -47 191 -142 301 -160 23 -3 0
8 -55 27 -133 47 -240 114 -240 152 0 3 7 6 15 6 18 0 37 34 29 54 -16 43 115
59 191 23z m-214 -60 c-17 -17 -24 -1 -10 25 12 21 14 21 17 4 2 -10 -1 -23
-7 -29z m-171 3 c0 -5 -7 -10 -15 -10 -8 0 -15 -7 -15 -15 0 -14 -3 -13 -25 1
-36 23 -31 34 15 34 22 0 40 -4 40 -10z m78 -16 c28 -6 29 -7 18 -38 -6 -17
-12 -33 -13 -34 -3 -7 -103 51 -103 59 0 15 52 22 98 13z m262 -218 c30 -8 69
-16 85 -18 l30 -3 -40 -25 c-80 -50 -191 -22 -264 67 -17 21 -31 33 -31 26 0
-17 81 -94 115 -109 17 -7 24 -13 17 -14 -46 -1 -131 74 -138 124 -2 11 -6 32
-10 45 -7 23 -1 21 87 -27 52 -27 119 -57 149 -66z m330 38 c36 -31 27 -45
-30 -42 -30 1 -31 2 -7 5 33 5 35 26 5 47 -12 9 -17 16 -11 16 6 0 26 -12 43
-26z m-82 -41 c-10 -2 -26 -2 -35 0 -10 3 -2 5 17 5 19 0 27 -2 18 -5z"/>
<path d="M3610 3010 c-10 -6 -11 -13 -5 -19 6 -6 16 -7 25 -1 10 6 11 13 5 19
-6 6 -16 7 -25 1z"/>
<path d="M5623 1969 c7 -11 18 -18 25 -17 21 5 14 22 -13 29 -22 6 -23 5 -12
-12z"/>
<path d="M4430 1884 c0 -9 5 -14 12 -12 18 6 21 28 4 28 -9 0 -16 -7 -16 -16z"/>
<path d="M3710 1705 c-6 -8 -10 -22 -8 -32 4 -23 51 -29 68 -8 11 13 10 19 -5
35 -21 24 -38 25 -55 5z m44 -11 c13 -5 14 -9 5 -20 -20 -25 -60 -10 -44 16 7
12 17 12 39 4z"/>
<path d="M5187 1605 c-4 -8 -1 -18 6 -22 8 -5 3 -10 -13 -14 -23 -6 -23 -7 -3
-8 31 -1 57 27 42 45 -15 18 -25 18 -32 -1z"/>
<path d="M5270 1578 c-25 -6 -39 -13 -32 -15 19 -7 82 6 82 17 0 6 -1 10 -2 9
-2 -1 -23 -6 -48 -11z"/>
<path d="M4810 1134 c-11 -12 -11 -18 1 -30 13 -12 18 -12 34 -1 11 9 16 20
12 31 -8 20 -31 21 -47 0z m35 -14 c-3 -5 -10 -10 -16 -10 -5 0 -9 5 -9 10 0
6 7 10 16 10 8 0 12 -4 9 -10z"/>
<path d="M1168 853 c7 -3 16 -2 19 1 4 3 -2 6 -13 5 -11 0 -14 -3 -6 -6z"/>
<path d="M4297 783 c-24 -23 12 -55 38 -33 12 10 13 16 4 26 -12 15 -31 18
-42 7z m33 -18 c0 -8 -7 -15 -15 -15 -16 0 -20 12 -8 23 11 12 23 8 23 -8z"/>
<path d="M1190 625 c-7 -8 -8 -15 -2 -15 5 0 15 7 22 15 7 8 8 15 2 15 -5 0
-15 -7 -22 -15z"/>
<path d="M4419 552 c-8 -9 -26 -25 -39 -34 -14 -9 -19 -17 -13 -17 16 -1 80
55 72 63 -3 3 -12 -2 -20 -12z"/>
<path d="M5534 439 c-8 -28 -15 -34 -37 -34 -35 1 -35 -13 1 -17 20 -2 28 -9
30 -28 6 -47 15 -56 21 -20 5 31 10 36 41 41 l35 6 -33 8 c-24 6 -34 14 -38
34 -3 14 -7 30 -8 35 -1 5 -7 -6 -12 -25z m19 -56 c-4 -10 -9 -11 -16 -4 -5 5
-7 18 -3 28 6 14 9 15 16 4 4 -8 6 -21 3 -28z"/>
</g>
</svg>
