<?xml version="1.0" encoding="UTF-8" standalone="no"?>
<!-- Created with Inkscape (http://www.inkscape.org/) -->

<svg
   version="1.1"
   id="svg1"
   width="1024"
   height="1536"
   viewBox="0 0 1024 1536"
   sodipodi:docname="backgroundClass.svg"
   inkscape:version="1.4.2 (f4327f4, 2025-05-13)"
   xmlns:inkscape="http://www.inkscape.org/namespaces/inkscape"
   xmlns:sodipodi="http://sodipodi.sourceforge.net/DTD/sodipodi-0.dtd"
   xmlns="http://www.w3.org/2000/svg"
   xmlns:svg="http://www.w3.org/2000/svg">
  <defs
     id="defs1" />
  <sodipodi:namedview
     id="namedview1"
     pagecolor="#ffffff"
     bordercolor="#000000"
     borderopacity="0.25"
     inkscape:showpageshadow="2"
     inkscape:pageopacity="0.0"
     inkscape:pagecheckerboard="0"
     inkscape:deskcolor="#d1d1d1"
     inkscape:zoom="0.50325521"
     inkscape:cx="512.66235"
     inkscape:cy="768"
     inkscape:window-width="1920"
     inkscape:window-height="991"
     inkscape:window-x="-9"
     inkscape:window-y="-9"
     inkscape:window-maximized="1"
     inkscape:current-layer="g1" />
  <g
     inkscape:groupmode="layer"
     inkscape:label="Image"
     id="g1">
	 
	 
    <path
       style="fill:#141412;stroke:none"
       d="m 464.20698,90.323416 15,8 c 8.49,9.363404 19.8009,15.741704 28.6737,24.867074 16.7799,17.25781 29.5445,37.72888 40.3263,59.13293 -29.9401,-37.17126 -69.9508,-73.40344 -120,-77 v 1 c 32.9863,14.49146 61.2004,37.42712 88,61 -65.0122,-31.88538 -145.379,-38.93005 -215,-18.08069 -18.01827,5.39588 -35.31609,13.62146 -50.98278,24.00537 -3.39035,2.24719 -13.84344,7.93225 -12.87277,13.12195 0.6994,3.73938 8.2753,2.96057 10.8707,2.96692 12.18594,0.0298 23.83944,-0.12036 35.98486,0.98645 v 1 c -41.51199,10.29395 -80.64764,32.48462 -109.71375,64.0039 -7.87554,8.54028 -16.09326,18.88842 -19.98617,29.98974 -1.75638,5.00867 -1.99451,12.16333 4.18741,14.12818 8.42804,2.67871 17.76674,-7.33326 23.68362,-11.94483 16.07611,-12.52954 33.58428,-24.16162 52.82889,-31.177 v 1 c -22.936,13.63525 -45.53827,36.43396 -61.15353,58.0033 -4.2724,5.90149 -8.17723,12.66272 -9.55033,19.90625 -0.35556,1.87573 -1.24315,7.27417 1.80876,7.62268 4.97872,0.56848 10.66538,-10.30689 13.0853,-13.53687 10.63652,-14.19726 23.44406,-26.62073 37.8098,-36.99536 -13.55276,15.43042 -24.09349,32.3446 -30.2744,52 -1.99,6.32825 -5.27757,15.70105 -2.12039,22.14258 2.87831,5.87256 9.13687,1.70971 12.19258,-1.60571 7.42096,-8.05176 13.6716,-18.61243 18.20221,-28.53687 h 1 c -8.32573,42.95752 -0.21854,79.88953 8,122 -4.99956,-3.63672 -10.03368,-6.78418 -16.00287,-8.58032 -18.52083,-5.573 -35.76906,4.89966 -42.24939,22.58038 -7.74669,21.1358 -5.25464,45.76898 0.9784,67.0033 4.38435,14.93634 12.56486,28.35333 22.95648,39.88904 5.6103,6.22802 13.71896,11.1604 17.93921,18.48718 3.8094,6.61346 4.38275,15.36706 6.61901,22.62042 3.6005,11.67834 8.7963,22.75348 15.46537,32.99811 31.05295,47.70172 89.85288,77.44684 144.29378,90.00189 -7.6768,8.72168 -11.128,25.11017 -19.7689,31.81409 -4.3277,3.3576 -11.1146,3.32971 -16.237,4.74408 -8.0137,2.2127 -15.7109,5.9035 -22.9941,9.86779 -12.8136,6.97461 -20.6128,17.09284 -31.29107,26.48047 -9.40225,8.26587 -19.8537,14.9701 -28.43277,24.21717 -16.44058,17.72076 -24.62072,42.68316 -33.09668,64.8764 -9.05026,23.69702 -19.46778,47.1552 -30.48973,70 -8.63789,17.9036 -17.92344,35.59639 -27.52681,52.99999 -4.75374,8.615 -11.93023,17.3752 -14.41142,27 -5.52122,21.4174 26.34695,31.7838 33.53786,47.6189 2.30728,5.0808 -0.0112,11.311 -1.34902,16.3589 -3.20204,12.0821 -6.80346,24.1105 -10.58848,36.0222 -18.12078,57.0273 -36.47275,111.9194 -47.15512,171 -3.01796,16.6914 -14.03,46.3315 -5.19675,62 l 2,-11 3,1 31.27487,-140 38.72513,-110 19,13 v 1 h -3 v 1 l 39,5 -12,4 v 1 l 13,-1 v 1 c -6.77881,12.7515 -6.60089,29.9645 -9.37003,44 -4.66003,23.6194 -14.66729,48.8145 -14.66976,73 -0.001,10.7026 9.05044,19.8657 7.78945,30.1306 -4.13595,33.6687 -25.41214,63.0298 -26.74966,97.8694 8.54248,-8.0876 12.2411,-20.3293 16.64334,-31 8.15979,-19.7786 16.40134,-39.4248 22.35666,-60 6.03806,6.6619 5.44382,14.5674 5.59964,23.1201 0.31775,17.4392 -3.47971,34.7056 -3.04654,52.1528 0.0953,3.8361 -0.96472,24.9012 5.62058,24.1183 6.7875,-0.8068 5.11749,-16.7569 6.23492,-21.2871 2.77228,-11.239 17.27295,-22.7674 28.59139,-22.1041 l -24.99999,25 v 1 l 27.99999,-19 1,-2 v -1 l -3,-2 6,2 v 1 l -25.99999,28 h 1 l 3,-2 -2,4 6,-8 20.99999,-23 -1,2 h 1 l 6,1 -15,14 2,2 -5,7 h 1 l 8,-6 -2,-2 c 5.9978,-6.1809 9.9516,-13.5369 19,-15 l -4,8 c 5.9084,-4.4561 10.5335,-6.54 18,-6 v 1 c -11.2659,4.3053 -27.4874,18.8835 -34,29 l -3,-1 -3,5 47,-35 2,9 -3,-1 -4,7 c -7.6534,3.8947 -15.2787,9.0363 -19,17 l -3,1 v 1 l 7,-4 -1,-3 3,1 c 2.5907,-2.8591 19.9109,-13.7317 17,-17 v -1 l 7,4 v 3 l -14,10 -3,6 24,-17 -12,17 h 1 l 4,-3 3,-3 c 5.6377,-8.2461 11.5459,-8.9169 21,-8 l -8,13 -2,-1 -6,7 10,-8 4,-3 h 1 c 0.01,10.9553 -0.3758,21.5935 6,31 v -20 l 24,-14 -18,19 c 6.3564,-4.228 13.9401,-13.868 21.3858,-15.4988 9.8181,-2.1504 0.5417,14.2468 -2.3858,16.4988 l 3,-5 -5,8 8,-5 h 1 c 0.2011,7.0588 0.6182,13.2185 5,19 l 1,-17 c 7.8983,-4.4677 12.7396,-12.1875 17,-20 l -17,18 v -18 c 10.7137,-0.105 21.2106,-0.3302 25,-12 l 9,1 c -6.6407,10.6019 -15.8268,21.176 -27,27 v 1 l 13,-6 c 4.4198,-6.7832 11.0209,-16.0471 18.9528,-18.8987 9.324,-3.3519 21.2177,-0.668 31.0472,-2.1013 l -26,28 c 17.5257,-9.6954 27.8159,-31.7468 50,-28 l 17,-4 c 1.6009,5.9448 4.3033,6.791 10,5 v -1 l 6,-11 -2,-2 3,-5 h -1 l -1,3 -2,-2 -1,1 2,1 v 1 l -4,3 h -1 l 3,-18 v -6 h 1 l -1,4 h 1 l 6,-10 h 5 v 3 l -6,7 h 1 l 5,-6 -4,12 3,-6 h 1 l -5,25 -3,-1 v 1 l -6,13 -1,1 -2,-1 -15,10 v 1 l 4,-1 v 1 l -3,1 v 1 l 5,-2 -1,-2 v -1 h 5 l -6,7 9,-10 c 7.5043,-3.9349 12.6331,-9.8315 17,-17 l 30,-9 -22,18 9,-13 h -1 l -8,14 -5,2 -17,16 c 18.4355,-10.5862 35.7557,-24.2567 51,-39 l -12,19 2,-4 -2,4 v 1 l -14,6 -28,24 39,-28 -8,10 16,-13 c -0.1149,-3.2152 3.6386,-5.3352 6,-7.3334 5.6444,-4.776 14.327,-15.2723 22,-14.6666 l 4,-3 v 1 l -14,14 v 3 l -2,-1 v 2 l -2,-1 -7,9 5,-4 -8,9 -5,6 v 1 c 14.0476,-9.0791 29.6528,-26.9912 37,-42 l 11,-4 -7,17 -15,15 12,-16 -40,40 v 1 l 15,-12 -3,3 v 1 l 24,-22 -6,17 -8,11 h 1 c 6.76,-9.9412 14.8153,-21.3087 18,-33 h 2 l -1,-2 5,-7 12,-25 v -1 -8 h -1 l -1,4 h -1 l 3,-13 c 1.7305,12.8668 1.8471,25.5485 -2,38 l 3,-7 17,51 -1,-6 h 1 l 4,8 c 11.9219,-10.1715 1.9076,-34.7709 0,-48 30.1677,-0.175 66.5665,-5.2516 91.9999,-22.5564 11.4338,-7.7794 18.5159,-19.2305 28.918,-27.8669 13.4942,-11.2038 30.2,-15.4579 41.5743,-29.882 14.7115,-18.656 16.391,-42.9758 17.8378,-65.7003 1.3438,-21.1074 2.7882,-43.4835 -3.33,-63.9944 17.6171,9.3463 38.2479,22.178 59,20.6956 37.3664,-2.6695 44.458,-52.5418 46.6762,-81.6956 5.4516,-71.6521 -24.1835,-143.17302 -43.1463,-210.99999 -4.9313,-17.63837 -10.2736,-35.12927 -14.3408,-53 -1.6031,-7.04364 -4.6285,-14.70465 -4.2604,-22 0.6914,-13.70264 14.6955,-29.40686 21.4361,-41 10.3128,-17.73706 19.5111,-36.3222 27.9836,-55 4.7521,-10.4762 10.335,-21.34021 11.221,-33 0.7883,-10.37347 -2.4802,-20.2558 -5.5694,-30 16.5537,10.25024 29.4288,-9.03516 23.1661,-24.87756 -4.7113,-11.91797 -20.858,-16.03345 -32.1661,-18.12244 -1.1127,-18.27539 -4.3145,-51.6236 -20.341,-63.18481 -15.1685,-10.94233 -38.1946,-10.80811 -55.659,-16.22785 -9.3082,-2.88867 -20.0507,-7.57446 -29.9803,-5.51764 -9.4687,1.96137 -14.5362,9.98548 -16.0197,18.9303 l -75,-28 c 14.1898,-34.80499 22.9554,-91.80859 -24,-105.94202 -6.4381,-1.93786 -13.3321,-2.35559 -20,-1.60339 -9.3877,1.05908 -18.4148,4.78845 -27,8.54541 16.1879,-34.73376 10.5288,-73.22937 10,-110 h 1 l 7,47 c 6.4534,-8.84619 7.6956,-20.26892 7.9388,-31 0.7414,-32.71313 -13.799,-52.6626 -28.9388,-80 l 22.9894,22.53845 18.0106,20.46155 c -3.5399,-34.43262 -27.1019,-64.96715 -61,-74.99999 v -1 c 20.5791,2.21802 35.1146,12.3429 54,19 l 1,2.99999 4,-0.99999 c -11.945,-32.97192 -54.7938,-35.19287 -84,-30 v -1 l 40,-18.06799 32,-12.93201 c -30.1141,-14.12952 -61.5345,0.56348 -88,16 1.0313,-13.32227 0.17,-28.89807 -6.1893,-40.95068 -1.6435,-3.11487 -8.6644,-13.17163 -12.8977,-7.81726 -3.49,4.4143 -0.1167,13.04504 0.9976,17.77124 3.131,13.27856 0.6309,24.677 0.089,37.9967 h -1 c -15.8326,-46.82581 -51.9701,-83.39563 -100,-95.000004 m 18,9 -1,1.000004 1,-1.000004 m 28,21.000004 -1,1 1,-1 m -32,46 v 1 c -54.6897,-15.3783 -109.974,-16.64539 -165.4036,-3.82214 -18.7784,4.34423 -36.25645,12.1333 -54.59639,17.82214 44.89839,-32.57239 112.95989,-35.3158 165.99999,-28.26709 18.5751,2.46851 36.7577,5.56274 54,13.26709 m -92,-7 h 1 l 14,-2 v 1 h -3 v 1 h 2 v 1 l -12,-2 v 1 l 4,1 v 1 c -16.0694,-2.09741 -33.027,-0.48621 -49,2 8.0484,-3.86194 18.2843,-4.66028 27,-3 5.4701,-2.5083 10.3103,-3.21692 16,-1 m 34,3 -19,-2 c 6.9173,-1.62573 12.6392,-1.30493 19,2 m 15,0 v 1 h -8 l -6,-2 14,1 m -93,-1 -1,1 1,-1 m -2,1 v 1 h -3 l 3,-1 m -7,1.33337 c 0.7734,0 0.1603,0.49768 -0.3333,0.33326 l 0.3333,-0.33326 m 3,-0.33337 2,1 v 1 l -2,-2 m 109,1 v 1 l -9,-1 h 9 m 61,9 v 1 l -27,-10 27,9 m -177,-8 -45.99999,12 40.99999,-13 5,1 m 2,-1 -1,1 1,-1 m 9,0.33337 c 0.7734,0 0.1601,0.49768 -0.3333,0.33326 l 0.3333,-0.33326 m -6,0.66663 -1,1 1,-1 m 118,0 v 1 h -3 l 3,-1 m 5,0 6,3 -7,-2 1,-1 m -79,1 -1,1 1,-1 m -27,1 -1,1 1,-1 m 11,0 v 1 h -4 l 4,-1 m 3,0 -1,1 1,-1 m 115,0.33337 0.3333,0.33326 c -0.4935,0.16442 -1.1065,-0.33326 -0.3333,-0.33326 m 3,-0.33337 -1,1 1,-1 m 34,0 1,2 -1,-2 m 108,0 -1,1 1,-1 m -276,1 v 1 l -4,1 4,-2 m 7,0 v 1 h -3 l 3,-1 m 265,0 v 1 l -23,11 23,-12 m -277,1 v 1 l -34,7 34,-8 m 302,1 -1,1 1,-1 m -272,1 -1,1 1,-1 m 100,2 -1,3 -9,-1 1,-3 9,1 m 1.6667,0.66663 -0.3334,0.66674 0.3334,-0.66674 m -50.6667,1.33337 v 1 l -5,1 1,-3 4,1 m 83,-1 -1,1 1,-1 m -103,1 v 1 l -8,1 h -1 c -9.8364,5.24255 -23.0725,5.59705 -34,7 13.3522,-5.41602 28.715,-7.62939 43,-9 m 7,0.33337 c 0.7734,0 0.1602,0.49768 -0.3333,0.33326 l 0.3333,-0.33326 m 7,-0.33337 -5,3 v -1 l 5,-2 m 98,1 -1,1 1,-1 m 2,1 -1,1 1,-1 m -108,1.33337 0.3333,0.33326 c -0.4934,0.16442 -1.1067,-0.33326 -0.3333,-0.33326 m 111,-0.33337 16,8 v 1 l -17,-8 1,-1 m 75,2 -1,1 1,-1 m -95,2 10,5 -11,-4 1,-1 m 47,0 2,4 -2,-4 m -188,1 -1,1 1,-1 m 100,0 -1,1 1,-1 m 34,0 -1,1 1,-1 m 98,0 -2,2 2,-2 m -181,1 v 1 l -6,2 6,-3 m -101,1.33337 c 0.7735,0 0.16,0.49768 -0.3333,0.33326 l 0.3333,-0.33326 m 93,-0.33337 -7,4 v -1 l 7,-3 m 59,0.33337 c 0.7734,0 0.16,0.49768 -0.3333,0.33326 l 0.3333,-0.33326 m 40,-0.33337 -1,1 1,-1 m 6,0 1,1 -1,-1 m 81,0 -3,3 1,-3 h 2 m -219,1.33337 c 0.7734,0 0.1601,0.49768 -0.3333,0.33326 l 0.3333,-0.33326 m 5,-0.33337 v 1 h -3 l 3,-1 m 76,0 -2,3 2,-3 m 9,0 v 1 l -4,1 4,-2 m 55,2 -3,-1 3,1 m 49,-1.66663 0.3333,0.33326 c -0.4936,0.16455 -1.1065,-0.33326 -0.3333,-0.33326 m -170,0.66663 -1,1 1,-1 m 46,0 -1,1 1,-1 m 28,0 -1,1 1,-1 m -60,1 -1,1 1,-1 m 109,0.33337 c 0.7734,0 0.1602,0.49768 -0.3333,0.33326 l 0.3333,-0.33326 m -122,1.66663 v 1 l -12,3 12,-4 m 84,-1 -1,1 1,-1 m 43,0 -1,1 1,-1 m 46,0.33337 c 0.7733,0 0.1602,0.49768 -0.3333,0.33326 l 0.3333,-0.33326 m -9,0.66663 -1,1 1,-1 m -119,1 -1,1 1,-1 m -2,3 v 1 l -8,2 8,-3 m 90,-1 8,2 v 1 l -9,-2 1,-1 m -146.3333,1.66663 -0.3334,0.66674 0.3334,-0.66674 m 163.3333,-0.66663 -1,1 1,-1 m -173,1 -1,1 1,-1 m 8,0 v 1 l -4,1 4,-2 m 187,0 2,1 v 1 l -2,-2 m 30,0 -1,1 1,-1 m -223,2 v 1 l -11,2 11,-3 m 224,0 v 1 l -4,1 4,-2 m -248,2 -12,7 12,-7 m 2,0.33337 c 0.7734,0 0.1601,0.49768 -0.3333,0.33326 l 0.3333,-0.33326 m -46,0.66663 -1,1 1,-1 m 31,0.33337 0.3333,0.33326 c -0.4935,0.16442 -1.1067,-0.33326 -0.3333,-0.33326 m 25,-0.33337 v 1 l -5,2 v -1 l 5,-2 m 144,0 -1,1 1,-1 m 20,0 -1,1 1,-1 m -222,1 v 1 h -4 l 4,-1 m 60,0 -1,1 1,-1 m 144,0 -1,1 1,-1 m 60,0 v 2 h -2 v -2 h 2 m -270,1.33337 0.3333,0.33326 c -0.4935,0.16442 -1.1066,-0.33326 -0.3333,-0.33326 m 38,-0.33337 v 1 l -9,3 9,-4 m 134,0 -3,2 3,-2 m 152,0 v 1 h -5 l 5,-1 m -266,1 v 1 l -3,1 3,-2 m 100,2 -3,-1 3,1 m -130,1 -6,3 v -1 l 4,-3 2,1 m 272,-1 -1,1 1,-1 m -279,1 -1,1 1,-1 m 18,0 -1,1 1,-1 m 49,0 -1,1 1,-1 m 66,0 -1,1 1,-1 m 159,6 -11,-5 c 4.7297,-0.95813 8.2939,1.18396 11,5 m -338.99999,-5 -1,1 1,-1 m 34.99999,0 v 1 l -4,1 4,-2 m 77,0 v 1 h -3 l 3,-1 m -116.99999,1 -1,1 1,-1 m 142.99999,0 v 1 l -3,1 3,-2 m -126.99999,1 -1,1 1,-1 m 6.99999,0 -1,1 1,-1 m 11,0.33337 c 0.7734,0 0.1601,0.49768 -0.3333,0.33326 l 0.3333,-0.33326 m 18,-0.33337 v 1 l -4,1 4,-2 m 13,0 -1,1 1,-1 m 74,0 -1,1 1,-1 m -144.99999,1 -1,1 1,-1 m 3,0.33337 c 0.77347,0 0.16003,0.49768 -0.33334,0.33326 l 0.33334,-0.33326 m 23.99999,-0.33337 -1,1 1,-1 m 11,0 -10,5 10,-5 m 59,0 -5,3 5,-3 m 234,0.33337 0.3333,0.33326 c -0.4935,0.16442 -1.1065,-0.33326 -0.3333,-0.33326 m 24,-0.33337 -1,1 1,-1 m -214,1.33337 c 0.7735,0 0.16,0.49768 -0.3333,0.33326 l 0.3333,-0.33326 m 193,-0.33337 2,3 -2,-3 m 18,0 5,4 -5,-4 m -355.99999,1 -1,1 1,-1 m 110.99999,0 -1,1 1,-1 m 32,0 v 1 l -6,2 6,-3 m 187,0 3,2 v 1 l -3,-3 m -331.99999,1 -1,1 1,-1 m 256.99999,0 v 1 l -11,3 11,-4 m 47,2 -3,-1 3,1 m -305.99999,-1 v 1 l -4,2 4,-3 m 23,0 -2,2 2,-2 m 74.99999,0.33337 0.3333,0.33326 c -0.4934,0.16442 -1.1067,-0.33326 -0.3333,-0.33326 m 249,-0.33337 v 2 l -2,-2 h 2 m -312,1 -1,1 1,-1 m 23,0 v 1 l -11,5 v -1 l 3,-2 8,-3 m 36,0.33337 c 0.7734,0 0.1601,0.49768 -0.3333,0.33326 l 0.3333,-0.33326 m 46,-0.33337 v 1 l -5,1 5,-2 m 84,0 -1,1 1,-1 m -205.99999,1 -9,4 9,-4 m 2,0 -1,1 1,-1 m 226.99999,0 -1,1 1,-1 m 58,0 3,3 1,6.99999 h -1 l -3,-9.99999 m 17,0 -1,1 1,-1 m -289,1 v 1 l -4.99999,1 1,2 h -4 l 7.99999,-4 m 101,0 v 1 l -3,1 3,-2 m 139,0 -3,2 3,-2 m -73,1.33337 0.3333,0.33326 c -0.4935,0.16442 -1.1066,-0.33326 -0.3333,-0.33326 m 122,0.66663 3,15.99999 h -1 l -2,-15.99999 m 26,0 -1,1 1,-1 m -302,1 -4,4 4,-4 m 38,0 v 2 h -2 v -2 h 2 m 43,0 v 1 l -7,2 7,-3 m 55,0 -1,1 1,-1 m 10,0 -8,5.99999 8,-5.99999 m 123,0 6,19.99999 c -3.9482,-6.15979 -6.2686,-12.62659 -6,-19.99999 m -240,1 -1,1 1,-1 m 220,0 4,42.99999 h -1 l -3,-42.99999 m -291.99999,1 -1,1 1,-1 m 2,0 -1,1 1,-1 m 255.99999,0 -1,1 1,-1 m -238.99999,1.33337 0.33334,0.33326 c -0.49347,0.16442 -1.10672,-0.33326 -0.33334,-0.33326 m 163.99999,-0.33337 1,1 -1,-1 m -200.99999,1 v 0.99999 l -4,1 4,-1.99999 m 15,0 v 0.99999 l -5,2 5,-2.99999 m 20,0 v 0.99999 l -4,1 v -1 l 4,-0.99999 m 20.99999,0 -1,0.99999 1,-0.99999 m 300,0 12,16.99999 -12,-16.99999 m 24,0 3,4.99999 h -1 l -2,-4.99999 m -183,0.99999 c -0.5129,2.47498 -0.6038,2.57458 -3,2 l -1,3 h -1 l 5,-5 m 54,0 -1,1 1,-1 m -255.99999,1 -1,1 1,-1 m 24,0 -2,2 2,-2 m 34.99999,0 -1,1 1,-1 m 61,0 -1,1 1,-1 m 4,0 -1,1 1,-1 m 235,0 2,4 h -1 l -1,-4 m 87.6667,0.33337 0.6666,0.33326 -0.6666,-0.33326 m -448.66669,0.66663 -3,2 v -1 l 3,-1 m 36,0 -1,1 1,-1 m 294.99999,0 1,6 h -1 v -6 m -273,1 -1,1 1,-1 m 118,0 -1,1 1,-1 m 22,0 -5,5 5,-5 m 27,0 -1,1 1,-1 m -228.99999,1 -4,4 4,-4 m 18,0 -1,1 1,-1 m 5,0 -3,2 v -1 l 3,-1 m 154.99999,0 -3,2 v -1 l 3,-1 m 204,0 13,22 h -1 l -12,-22 m -371.99999,1 -1,1 1,-1 m 240.99999,0 -1,1 1,-1 m 54,0 c -3.9298,22.28101 -2.5535,42.94678 2,65 h -1 c -6.8702,-21.37708 -10.0228,-43.6377 -1,-65 m -132,1 -1,1 1,-1 m 76,0 c -10.9712,18.68665 -31.0473,37.5531 -29,61 23.8185,-8.10767 40.0117,-35.33191 60,-50 l -29,35 39,-35 c -3.7656,26.41492 3.0803,65.02637 29,79 5.4927,18.58215 3.4091,39.85278 8.8596,59 0.8937,3.13977 5.5364,21.38049 10.1404,16 h 1 c -0.1594,20.06653 -3.1387,39.78662 -1.7212,59.93921 0.689,9.79553 2.6811,20.49811 14.7212,18.06079 v 10 c 7.8324,-6.52521 12.2121,-15.69586 18.8527,-23.31494 13.9187,-15.96973 30.7532,-31.21179 50.1473,-40.1742 6.959,-3.21582 14.3935,-5.82031 22,-6.93652 5.6519,-0.82934 11.4377,-0.7196 16.9995,0.64697 42.0604,10.33472 30.6314,62.12647 22.0005,91.77869 -12.3771,-4.75269 -23.7613,-10.54102 -36.9398,-11.0741 -3.1325,-0.12671 -11.5287,0.26306 -12.0602,-2.9259 l -9,1 v -1 l 7,-6 26,-24 c -12.6982,10.66974 -25.5374,22.51208 -41,29 v -1 c 13.165,-9.39447 50.1998,-54.46021 51.6036,-15.00836 0.1661,4.66632 -0.3399,9.35296 -0.6036,14.00836 h 3 c 1.507,-7.92688 4.5722,-15.86536 4.5612,-24 -0.034,-25.15369 -24.4356,-28.09521 -42.5613,-19.52673 -26.1942,12.38281 -53.0556,41.06982 -59.9999,69.52673 3.4102,-2.82471 7.916,-8.42438 12.7343,-8.34863 12.2639,0.19275 11.1279,20.09918 6.9183,26.94153 -5.1672,8.39874 -14.4384,10.73596 -23.6526,11.4071 15.2424,19.89166 44.2767,-4.53058 55,-18 l 5,3 -6,10 h -1 l 3,-6 -6,10 h -1 l -2,-2 1,3 -3,1 v 4 l -5,5 h 1 l 22,-22 c -8.2646,13.65344 -20.0701,25.22736 -34,33 v 1 l 13,-7 h 3 l -1,-3 h 1 l 1,2 c 5.4878,-5.69324 14.4547,-18.67596 23.1256,-18.62799 5.2526,0.029 10.5083,4.10583 14.8744,6.62799 -13.9006,21.49109 -42.6783,46.40887 -70.4656,44.15668 -10.8634,-0.8805 -19.8983,-7.81037 -29.5344,-12.15668 v -13 h -1 c -18.6885,58.03998 -51.1451,105.69873 -103,139.22394 -25.9746,16.79315 -56.537,29.14142 -88,27.61712 -30.8219,-1.49322 -61.7525,-17.63867 -88,-32.59594 -22.49801,-12.82062 -42.69988,-28.70099 -57.49282,-50.24512 -20.81785,-30.31866 -24.72766,-68.54565 -17.61416,-104 4.02597,-20.0658 12.19082,-39.25977 13.91085,-59.79468 1.89386,-22.61017 -5.71975,-46.16052 -7.3869,-68.73962 -3.29437,-44.61731 3.99442,-86.23657 25.58304,-125.4657 25.8837,-3.18945 48.42689,-25.03955 71.99999,-35 -8.286,14.93237 -23.1052,30.79822 -20,49 11.6126,-4.3302 20.3012,-13.07983 30,-20.50488 16.6429,-12.74109 34.131,-26.22913 54,-33.49512 v 1 l -2,2 c -6.8543,4.39319 -12.9398,11.7113 -16.1407,19.22937 -1.6814,3.94934 -2.5489,10.00977 3.5465,9.38989 11.7524,-1.19507 23.6762,-11.2998 33.5942,-17.0719 21.351,-12.4259 43.527,-23.33484 65,-35.54736 m 109,0 -1,1 1,-1 m -337.99999,1 -1,1 1,-1 m 12,1 v 1 l -5,1 5,-2 m 336.99999,0 -1,1 1,-1 m 45,0 2,3 -2,-3 m -419.99999,1 -1,1 1,-1 m 14,0 -5,2 v -1 l 5,-1 m -16,1 -35,28 c 9.13872,-12.07275 21.93681,-20.61023 35,-28 m 124.99999,0 -16,8 16,-8 m 253,0 -1,1 1,-1 m -344.99999,1 -2,2 2,-2 m 237.99999,0 -1,1 1,-1 m 73,0 1,3 h -1 v -3 m -332.99999,1 -3,3 3,-3 m 252.99999,0 -1,1 1,-1 m 96,0 -1,1 1,-1 m 9.6667,0.66663 -0.3334,0.66674 0.3334,-0.66674 m 9.3333,-0.66663 -1,1 1,-1 m -348.99999,1 -2,2 2,-2 m 330.99999,1 1,3 h -1 v -3 m -353.99999,1 v 1 l -6,3 v -1 l 6,-3 m 20,0 -3,2 v -1 l 3,-1 m 173.99999,0 -1,1 1,-1 m 57.6667,0.66663 -0.3334,0.66674 0.3334,-0.66674 m 112.3333,-0.66663 v 3 l -2,-3 h 2 m -49.3333,1.66663 -0.3334,0.66674 0.3334,-0.66674 m 30.3333,-0.66663 4,8 h -1 l -3,-8 m 33,0 1,2 -1,-2 m -128,2 -1,1 1,-1 m 105,0 1,4 h -1 v -4 m -341.99999,1 -1,1 1,-1 m 301.99999,0 1,24 h -1 -1 l 1,-24 m 50,0 -1,1 1,-1 m -373.99999,1 -1,1 1,-1 m 19,0 -1,1 1,-1 m 238.99999,0 -1,1 1,-1 m -259.99999,1 1,2 h -2 l 1,-2 m 375.99999,1 -1,1 1,-1 m -377.99999,1 -1,1 1,-1 m 368.99999,0 2,6 -2,-6 m 2,0 -1,1 1,-1 m -110,1 -1,1 1,-1 m 99,0 -1,1 1,-1 m -361.99999,1 -1,1 1,-1 m 93.99999,0 -10,7 10,-7 m 6,0.33337 c 0.7734,0 0.1602,0.49768 -0.3333,0.33326 l 0.3333,-0.33326 m 161,-0.33337 -3,7 -6,5 -2,8 h -1 c 2.3214,-7.88672 6.0769,-14.27759 12,-20 m 143,0 -1,1 1,-1 m -372.99999,1.33337 c 0.77338,0 0.16013,0.49768 -0.33334,0.33326 l 0.33334,-0.33326 m 333.99999,-0.33337 v 2 l -2,-2 h 2 m -367.99999,1 -1,1 1,-1 m 30,1 v 1 l -4,2 4,-3 m 377.99999,0 8,16 h -1 l -7,-16 m -41,1 -1,5 1,-5 m -371.33332,1.66663 -0.33334,0.66674 0.33334,-0.66674 m -8.66667,0.33337 -22,24 h -1 c 5.91449,-9.53271 14.21916,-17.12488 23,-24 m 398.99999,0 -1,1 1,-1 m -244,1 -1,1 1,-1 m 235,0 1,9 -1,-9 m -290,1 v 1 l -8,5 8,-6 m 314,0 -1,1 1,-1 m -34,2 1,3 -1,-3 m -308.99999,2 -1,1 1,-1 m 332.99999,0 2,4 h -1 l -1,-4 m -314,1 -2.99999,3 1,-3 h 1.99999 m 326,0 1,3 -1,-3 m -34,1 4,25 h -1 l -5,-25 h 2 m -25,1 v 5 h -1 l 1,-5 m -273.99999,2 -1,1 1,-1 m 306.99999,0.33337 c 0.7734,0 0.16,0.49768 -0.3333,0.33326 l 0.3333,-0.33326 m 28,-0.33337 -1,1 1,-1 m -337.99999,2 -1,1 1,-1 m 266.99999,0 -1,12 1,-12 m 60,0 1,3 h -1 v -3 m 12,0 -1,1 1,-1 m -340.99999,1 -1,1 1,-1 m 186.99999,1 -2,4 h -1 l 1,-4 h 2 m 126,0 1,4 h -1 v -4 m 10,0 -1,1 1,-1 m -325.99999,1 -1,1 1,-1 m 282.99999,0 -1,1 1,-1 m 47,0 -1,1 1,-1 m -331.99999,1 -3,3 3,-3 m 335.99999,0 1,3 -1,-3 m -51,1 -1,1 1,-1 m 9,0 -1,1 1,-1 m 64,0 -1,1 1,-1 m -9,1 -1,1 1,-1 m -29,1 -1,1 1,-1 m 15,1 -1,1 1,-1 m 3,0 1,3 h -1 v -3 m -129,1 v 2 l 2,-2 h -2 m 110,1 -1,1 1,-1 m -415.99999,1 -1,1 1,-1 m 510.99999,0 2,3 v -3 h -2 m -418.99999,1 -1,1 1,-1 m 312.99999,0 -1,1 1,-1 m 31,0 3,8 h -1 l -2,-8 m -436.99999,1 -1,1 1,-1 m 372.99999,1 -1,1 1,-1 m 63,0 v 2 l -2,-2 h 2 m -50,1 -1,1 1,-1 m -13,1 -1,1 1,-1 m 64,1 v 3 h -1 l 1,-3 m -443.99999,1 -2,4 h -1 l 3,-4 m 399.99999,0 -1,1 1,-1 m -19.3333,1.66663 -0.3334,0.66674 0.3334,-0.66674 m 33.3333,-0.66663 -1,1 1,-1 m 11,0 -1,1 1,-1 m 66,1 -1,1 1,-1 m -65,1 -1,1 1,-1 m 21,0 -1,1 1,-1 m -32,1 -1,1 1,-1 m 30,0 -1,1 1,-1 m 3,1 -1,1 1,-1 m 43.6667,0.66663 -0.3334,0.66674 0.3334,-0.66674 m -75.6667,0.33337 1,4 -1,-4 m 29,0 -1,1 1,-1 m -44.3333,1.66663 -0.3334,0.66674 0.3334,-0.66674 m 83.3333,-0.66663 1,3 -1,-3 m -38.3333,1.66663 -0.3334,0.66674 0.3334,-0.66674 m 46.3333,-0.66663 -1,1 1,-1 m -422.99999,1 -2,2 2,-2 m 349.99999,0 -1,1 1,-1 m 29,0 -1,1 1,-1 m 45,1 v 3 h -1 l 1,-3 m -101,1 -1,1 1,-1 m 25,0 1,5 -1,-5 m 68,0 -1,1 1,-1 m -417.99999,1 -32,52 h -1 l 11,-23 22,-29 m 380.99999,0 -1,1 1,-1 m -1,2 h 1 1 v 1 h -3 l 1,-1 m -48,1 -1,10 h -1 v -10 h 2 m 87,0 -1,1 1,-1 m -39,2 1,5 h -1 v -5 m -30,1 2,7 h -1 l -1,-7 m 44,3 1,5 h -1 v -5 m 26,0 -1,1 1,-1 m 0,2 v 3 h -1 l 1,-3 m -81,1 -1,1 1,-1 m 42,1 -1,1 1,-1 m -50,1 -2,27 h -1 l 1,-27 h 2 m 64,1 1,6 h -1 v -6 m 25,0 1,2 h -2 l 1,-2 m -67,6 -1,1 1,-1 m 12,2 v 3 h -1 l 1,-3 m 0,4 -1,1 1,-1 m -233,4 c -13.2756,20.68298 -12.0502,55.29321 14,65 l -9,-10 10,3 v -1 c -20.1828,-16.69629 -12.2535,-34.74341 -15,-57 m 234,1 -1,1 1,-1 m 72.6667,1.66663 -0.3334,0.66674 0.3334,-0.66674 m -462.66669,0.33337 1,1 -1,-1 m 389.99999,0 -1,1 1,-1 m 12,1 -2,7 h -1 l 3,-7 m 14,1 -1,1 1,-1 m -272,71 1,-1 c -8.3018,-16.2699 -13.3907,-29.49158 -12.0922,-48.06531 0.1987,-2.84155 3.7016,-15.83423 -0.014,-17.12951 -5.0348,-1.75538 -6.7035,17.57934 -6.879,20.19482 -1.1695,17.4314 2.6608,35.81226 17.9847,46 m 136.3333,-64.33337 0.3334,0.66674 -0.3334,-0.66674 m 72.6667,-0.66663 v 6 h -1 l 1,-6 m 29,0 -1,1 1,-1 m -104,1 c -15.2589,3.98499 -30.0124,9.01514 -44.9999,13.8999 -13.5347,4.41126 -28.5916,8.84156 -43.0001,8.15967 -6.806,-0.32214 -15.3665,-6.84265 -21.8719,-5.01807 -5.286,1.48267 -3.0442,9.57984 -1.7033,13.06775 3.669,9.54346 12.3897,16.89466 22.5763,18.32215 30.1676,4.22741 64.149,-35.65992 92.7138,-16.19263 6.1148,4.16724 10.8338,9.93872 15.2851,15.76123 h 2 c 1.9221,-19.80518 -16.7673,-33.25977 -34,-38 v -1 l 19,-3 v -1 h -15 l 10,-4 -1,-1 m 124,0 -3,5 3,-5 m -133,5 -1,1 1,-1 m 145.6667,5.66663 -0.3334,0.66674 0.3334,-0.66674 m -47.6667,2.33337 v 15 h -1 l 1,-15 m 32,1 -1,1 1,-1 m 34.6667,2.66663 -0.3334,0.66674 0.3334,-0.66674 m -0.6667,2.66674 0.3333,0.33326 c -0.4935,0.16442 -1.1065,-0.33326 -0.3333,-0.33326 m 2,3.66663 -5,19 h -1 l 6,-19 m -243,1 -1,1 1,-1 m 221,0 -1,1 1,-1 m -375.99999,20 8,-5 c -6.69528,7.46838 -11.04691,13.69299 -10,24 h 3 c 16.04868,-21.89844 33.76138,-19.00598 55.99999,-8.75757 7.501,3.45667 20.5605,9.63391 23,-2.24243 l 6,4 -4,-30 -2,12 h -1 c -3.9538,-5.96667 -8.3236,-8.86987 -13,-2 -22.7881,-11.99329 -50.08849,-17.58911 -65.99999,8 m 184.99999,-19 1,2 h -2 l 1,-2 m 164.6667,0.66663 -0.3334,0.66674 0.3334,-0.66674 m 22.3333,-0.66663 -1,1 1,-1 m -43,5.33337 0.3333,0.33326 c -0.4935,0.16442 -1.1065,-0.33326 -0.3333,-0.33326 m -297.99999,2 c 0.77344,0 0.1601,0.49768 -0.33334,0.33326 l 0.33334,-0.33326 m 355.66669,0.33326 -0.3334,0.66674 0.3334,-0.66674 m -371.66669,2.33337 v 1 l -7,3 7,-4 m 370.99999,0 -2,2 2,-2 m -311,4 2,6 h -1 l -1,-6 m 253.6667,1.66663 -0.3334,0.66674 0.3334,-0.66674 m -204.6667,0.33337 v 2 l -2,-2 h 2 m 270.6667,0.66663 -0.3334,0.66674 0.3334,-0.66674 m -29,1 -0.3334,0.66674 0.3334,-0.66674 m 27.3333,0.33337 -1,1 1,-1 m -64,1.33337 c 0.7734,0 0.1602,0.49768 -0.3333,0.33326 l 0.3333,-0.33326 m 50,-0.33337 -2,3 2,-3 m -14,1.33337 0.3333,0.33326 c -0.4935,0.16442 -1.1065,-0.33326 -0.3333,-0.33326 m -287,0.66663 -1,1 1,-1 m 314,1 -2,7 h -1 l 1,-7 h 2 m -30,1 -1,1 1,-1 m 14,1 -1,1 1,-1 m -45,1 -1,1 1,-1 m 30,0 -5,8 5,-8 m 14,1 -3,6 h -1 l 2,-6 h 2 m 5,5 -1,1 1,-1 m 13,0 -1,1 1,-1 m -5.3333,1.66663 -0.3334,0.66674 0.3334,-0.66674 m 4,2 -0.3334,0.66674 0.3334,-0.66674 m -5,1 -0.3334,0.66674 0.3334,-0.66674 m 4.3333,1.33337 -1,1 1,-1 m -348,112 c -11.1881,8.34204 -22.70897,0.28656 -32.99999,-6 6.72556,8.90625 14.2016,13.49695 25,16 -20.04843,42.85266 32.30029,71.80579 68.99999,67 l -7,3 v 1 l 14,-4 v 1 l -10,7 24,-15 -15,14 24,-17 -3,1 c 9.8515,-9.633 20.7026,-17.2688 22.3407,-31.9978 0.9365,-8.42102 -1.5461,-15.98352 -10.3407,-18.0022 6.6105,19.20978 -6.0232,36.44 -26,39 v 1 h 2 v 1 c -18.0394,1.96564 -29.9317,-0.86731 -47,-7 v 1 l 18,7 v 1 c -24.5528,-1.68701 -65.70974,-27.26501 -37.6902,-53.45752 13.0381,-12.18799 37.1931,-11.72913 47.6902,-25.54248 h -11 c 4.5996,-12.1864 7.4078,-24.93518 6.8287,-38.02283 -0.4322,-9.77002 -3.1236,-19.46338 -7.9637,-27.97509 -3.5716,-6.28089 -8.2488,-12.17127 -14.0232,-16.5625 -19.9349,-15.15967 -47.54635,-6.58155 -60.29006,13.57238 -17.29529,27.35205 -8.32651,82.85706 29.44826,86.98804 m 116,-109 c -7.8727,15.06396 -21.657,41.05225 -13,58 -1.2763,5.31732 -2.5531,12.69385 3.0713,16.0929 5.2649,3.18182 13.1486,1.45306 18.9287,1.10272 14.9305,-0.90497 30.177,-0.30622 45,-2.19562 v -1 c -20.5255,-3.46924 -39.3682,-5.57898 -60,-1 24.4569,-25.52283 54.7447,-19.95557 86,-19 -17.9983,-26.89746 -50.4231,-14.81018 -73,-1 11.8789,-11.20752 26.149,-19.02673 42,-23 v -1 c -24.2088,-2.92432 -43.8482,11.51428 -60,28 0.459,-19.03638 7.3319,-37.03345 13,-55 h -2 m 193,0 -2,5 h -1 l 3,-5 m 37.6667,2.66663 -0.3334,0.66674 0.3334,-0.66674 m -2,3 -0.3334,0.66674 0.3334,-0.66674 m -53.6667,3.33337 1,4 -3,-1 2,-3 m 11,0 -1,1 1,-1 m -254,53 h -1 c -0.61,-3.75507 -1.2895,-7.46643 -3.3343,-10.75366 -5.6369,-9.06165 -16.2035,-8.07068 -21.9826,0.19299 -5.2736,7.54096 -5.8058,18.40076 -1.2226,26.4115 3.1037,5.42493 8.9868,9.68787 15.2989,6.86932 2.8655,-1.27954 5.0389,-3.56451 7.2406,-5.72015 -1.7427,15.91138 -32.2501,27.49304 -46.14742,22.18439 -18.3656,-7.01551 -26.90591,-27.84949 -26.63702,-46.35553 0.38311,-26.36621 27.12414,-56.96289 54.74544,-40.32581 16.559,9.974 22.0533,29.37537 23.039,47.49695 m 296,-52 -1,1 1,-1 m -47,7 -2,2 2,-2 m 8,10 -1,4 h -1 l 2,-4 m 10.6667,6.66663 -0.3334,0.66674 0.3334,-0.66674 m -14.6667,4.33337 -5,6 5,-6 m -173,1 -1,1 1,-1 m 86,5 v 1 l 18,-1 h -18 m 170,-1 -1,1 1,-1 m 8,0 v 1 l -38,26 10,-7 c 7.6499,-8.58545 17.4177,-15.48706 28,-20 m 8,4 -34,19 c 6.9426,-6.79742 23.5988,-23.8772 34,-19 m -19,-2 -1,1 1,-1 m -266,3 -1,1 1,-1 m -176.99999,48 c -11.32289,-10.729 -27.78905,-35.23621 -43.75681,-16.65454 -2.50418,2.91412 -4.3424,6.33746 -6.24319,9.65454 6.07726,-4.625 20.78891,-15.21484 24.74426,-1.70032 1.87201,6.39618 -5.339,15.16065 -6.3365,21.706 -2.23645,14.67505 5.33289,27.35125 14.59224,37.99432 -8.19505,-17.21478 -6.69167,-25.55109 2,-42 h -1 l -5,9 h -1 l 10,-15 c 11.7572,20.3631 -3.69368,51.03339 -4,74 -27.84576,-14.87225 -38.09433,-50.47241 -37.98608,-80 0.0472,-12.87286 2.07866,-28.19391 13.29947,-36.43298 15.30415,-11.23731 36.22557,0.26666 41.94503,16.43707 2.72208,7.69604 0.84906,15.4151 -1.25842,22.99591 m 184.99999,-45 -9,9 9,-9 m 94,4 v 1 l 17,2 -17,-3 m -183,1 -1,1 1,-1 m 70,0 -1,1 1,-1 m 8,3 -1,1 1,-1 m 268,0 -1,1 1,-1 m -332.3333,4.66669 -0.3334,0.66662 0.3334,-0.66662 m 340.3333,1.33331 -2,2 2,-2 m -23,1 -5,4 v -1 l 5,-3 m 6,0 -1,1 1,-1 m 4,0 -24,18 24,-18 m -19,7 -5,5 5,-5 m 24,1 1,1 -1,-1 m -334,1 -1,1 1,-1 m 64,2 c 11.8177,16.78589 34.5196,17.32928 53,14 v -1 c -19.0941,-0.44019 -35.368,-6.5011 -53,-13 m 264,8 10,-8 -10,8 m -24,-7 -5,4 5,-4 m 21,0 -1,1 1,-1 m -3,3 -1,1 1,-1 m -462.99999,2 c -6.685,5.70117 -11.58656,11.43219 -14,20 h 1 l 13,-20 m 458.99999,0 v 1 l -3,1 3,-2 m 6,0 1,1 -1,-1 m -477.99999,5 -1,2 1,-2 m 4,24 h 1 l 14,-24 c -7.33711,6.62958 -12.25958,14.50684 -15,24 m 214.99999,-24 v 1 c 10.3385,7.20825 21.369,11.93286 34,13 v -1 l -34,-13 m 235,4 v 1 l -4,3 h -1 l -2,-1 7,-3 m 3,1 v 1 l -3,1 3,-2 m -426.99999,1 2,4 -10,21 h -1 l 9,-25 m 414.99999,0 v 2 l -2,-2 h 2 m 17,0 c -3.3597,2.62854 -5.7434,4.11578 -10,3 l 10,-3 m 42,4 -2,2 1,3 -5,6 h -4 l 2,10 c -12.1145,3.41241 -23.1831,-8.07166 -33,-14 l 4,-9 c 10.441,0.37292 27.0225,-2.46362 37,2 m 148,67 v 1 c -19.279,-1.83685 -38.3353,-12.85132 -56,-20.27283 -30.4563,-12.79565 -61.1959,-24.8208 -92,-36.72717 l 4,-3 1,-7 97.9502,40.7757 45.0498,25.2243 m -614.99999,-57 -11,25 h 1 l 12,-25 h -2 m 422.99999,10 h -2 v -7 l 2,7 m 187,50 c -7.0945,2.75787 -14.2975,-1.23077 -21.0001,-3.6983 -15.3323,-5.64447 -30.257,-12.85761 -45.9999,-17.3017 v 1 l 61,23 -8,3 c -10.8312,4.37274 -25.9686,-5.28174 -36,-9.27417 -20.9508,-8.3382 -41.7833,-16.96875 -63,-24.6084 -12.5577,-4.52173 -28.2511,-8.10034 -39,-16.11743 9.8613,-5.27869 18.0714,-1.4989 28,1.96838 16.413,5.73188 32.2544,13.29322 49,18.03162 v -1 l -73,-26 1,-6 c 33.6293,11.36536 66.1343,25.70142 99,39.04639 15.1831,6.16504 31.7219,15.71405 48,17.95361 m -181,-53 -2,3 h 7 v 2 l -18,12 3,-7 8,-10 h 2 m 3,4 1,1 -1,-1 m 259,91 h -1 c -12.6173,-20.88879 -24.1764,-49.58044 -52,-50 v -1 h 3 c -15.7877,-10.52509 -41.9028,1.32898 -53.0451,-20.21503 -4.7286,-9.14294 2.1747,-18.64447 12.0936,-17.88116 9.7321,0.7489 19.424,4.74512 28.9515,6.78985 13.1653,2.82551 27.5975,3.8642 39.7299,10.18555 7.7924,4.06018 10.4121,12.15918 12.6203,20.12152 4.6451,16.74909 8.653,34.62305 9.6498,51.99927 m -264,-89 1,1 -1,-1 m 38,2 v 1 c 30.3457,13.40277 62.1009,24.07617 93,36.14282 10.1914,3.97992 25.9492,14.53583 37,11.85718 l -33,-13.27692 -97,-35.72308 m -29,2 1,1 -1,-1 m 9,2 -10,13 10,-13 m 2,5 -3,4 3,-4 m -28,1 -1,1 1,-1 m 6,4 1,1 -1,-1 m 18,0 1,1 -1,-1 m -9,4.33331 c 0.7733,0 0.1603,0.49793 -0.3333,0.33338 l 0.3333,-0.33338 m -2,1.66669 -2,2 2,-2 m 105,27 c -5.0702,5.05878 -10.6119,10.11829 -13.1254,17.01855 -6.6222,18.18012 13.1567,38.24939 14.1107,56.98145 1.535,30.14069 -15.1516,58.78979 -7.7931,89 6.3687,26.14679 26.41,40.20239 39.7822,62 10.6604,17.37714 13.6605,40.40649 18.0256,60 h -1 c -8.1689,-11.05499 -16.6686,-21.69427 -28.0019,-29.685 -7.5149,-5.29846 -17.2284,-8.11981 -23.9105,-14.44739 -8.3822,-7.93737 -13.4838,-19.30108 -21.3902,-27.85223 -19.2549,-20.82495 -44.8992,-36.96735 -72.6974,-43.30878 -27.6387,-6.30505 -52.8265,11.30487 -79.452,1.22675 -8.3914,-3.17627 -11.8696,-14.34522 -14.8483,-21.93335 -6.433,-16.38715 -14.0972,-30.24957 -33.6997,-30 0.1921,-17.25885 11.451,-26.6698 21.2983,-39.78131 13.6648,-18.19421 28.2019,-38.55817 35.7017,-60.21869 9.6184,3.40686 19.6251,7.3418 30,6.97949 30.754,-1.07397 60.7987,-28.22809 76,-52.97949 20.8474,5.94336 42.9403,14.99908 61,27 m -2,-26 v 1 l 8,2 v -1 l -8,-2 m -116,4 -2,3 2,-3 m -4,4 1,1 -1,-1 m -276,7 1,1 -1,-1 m -5,1 v 1 l 13,4 v -1 l -13,-4 m -11,2 19,5 -19,-5 m -11,0 v 1 c 8.6037,3.76959 16.5717,5.82776 26,5 l -26,-6 m 36,2 1,1 -1,-1 m 404,485.99999 -4,13 h -3 l -1,8 c 13.892,-20.4299 20.4748,-44.3594 43,-58 -11.9864,15.6941 -18.6222,31.6035 -22,51 h 1 c 2.579,-10.7684 6.5823,-20.6125 10.3333,-31 1.0968,-3.0374 2.9437,-10.5684 6.6667,-8 l 11,-17 h 1 c -3.7989,31.1781 -6.8776,74.402 18,98 -3.4933,-11.0414 -8.0501,-21.4031 -9.5276,-33 -4.57,-35.8691 3.3342,-73.0128 4.4303,-108.99999 1.281,-42.06097 -4.285,-85.89191 -12.7964,-127.02283 -3.552,-17.16455 -8.1751,-35.2998 -18.0916,-49.97705 -16.1137,-23.84936 -38.3584,-40.68719 -37.9172,-72.00348 0.3649,-25.89599 12.326,-49.79907 9.5762,-76.0672 -1.6209,-15.48419 -12.9902,-26.31115 -16.1214,-40.92932 -1.9042,-8.88965 3.6665,-17.20709 11.5065,-21.13635 10.1015,-5.06281 27.8741,2.73486 28.092,15.14825 0.2498,14.23243 -24.7241,38.92127 0.8492,46.98798 -8.3443,13.95172 -11.1279,23.52277 -5,39 l -14,15 5,-6 14,-5 -3,-1 -15,36 h 1 l 17,-29 h 1 v 16 l -3,-1 -12,22 16,-18 c 3.5947,8.50604 0.8513,13.66736 -4,21 l 10,-10 c 7.889,11.04022 -1.6292,22.45856 -4.3044,34 -5.0424,21.75348 6.7564,40.85645 27.3044,48 -5.1072,-5.48926 -10.8865,-10.51233 -14.6782,-17.06494 -10.2485,-17.71112 -4.9847,-36.85486 3.6782,-53.93506 13.0043,3.70093 21.9106,1.47015 34,-4 v 1 l -2,7 7,-19 c 9.0745,1.21228 16.2617,0.71045 23,-6 -16.3996,0.84222 -23.1298,-6.91534 -26,-22 l -25,19 16,-2 c 5.0616,27.0766 -28.3082,18.07587 -35.358,0.06 -6.8295,-17.4527 14.0323,-32.51325 25.3581,-42.20606 6.0339,-5.16382 12.5769,-10.25409 20.9999,-8.81457 18.4685,3.15631 31.3716,23.953 47,32.96063 -7.2285,-18.60645 -35.1327,-50.64996 -58.0973,-42.20831 -12.6039,4.63311 -20.7379,16.51367 -30.8974,24.60742 -4.0945,3.26196 -10.0044,6.13971 -13.7949,0.81842 -5.2852,-7.41968 0.18,-17.28857 5.2891,-23.05811 9.8812,-11.15838 22.9511,-19.95996 35.5005,-27.81408 5.3462,-3.34595 11.4437,-7.7544 17.9772,-8.02906 7.5989,-0.31945 13.7943,5.90107 18.9201,10.71051 11.7381,11.0138 21.3814,23.94336 33.1027,34.97321 -0.2527,-11.03821 -6.9219,-18.75146 -13.6871,-26.92914 -4.8208,-5.82739 -9.7713,-11.52521 -15.4082,-16.58649 -5.0942,-4.57397 -10.9925,-9.64276 -17.9047,-11.01849 -21.9434,-4.36743 -45.7286,23.90985 -63,33.53412 -14.6209,-28.75488 18.0563,-47.26489 40,-57.62946 8.7435,-4.12976 19.0143,-9.58728 28.994,-7.42584 9.3808,2.03174 15.7306,10.53516 20.7848,18.05799 11.91,17.72699 23.1296,37.51007 31.8782,56.99542 10.2233,22.76959 1.4921,41.95685 -8.5937,63.00189 -9.3279,19.4635 -19.3005,38.63574 -30.6607,57 -6.2407,10.08838 -16.4008,22.06921 -18.4287,34 -1.2669,7.45349 2.696,15.84485 4.4687,23 4.3259,17.461 9.5318,34.69238 14.4225,52 16.7045,59.11609 41.1947,121.10249 43.2047,183.04979 0.9104,28.058 0.7824,69.9391 -22.4368,90.0585 -13.0922,11.3443 -29.1935,4.3644 -42.633,-2.3803 -26.6236,-13.3613 -50.9479,-31.1242 -73,-51.0447 -6.2885,-5.6806 -18.7237,-13.1424 -21.4432,-21.4958 -2.3838,-7.3224 5.0675,-16.1112 9.4432,-21.1875 m -428,-479.99999 v 1 h -4 l 4,-1 m 43,3 -4,4 5,-3 -1,-1 m -23,3 -1,1 1,-1 m 15,1 v 1 l -4,1 4,-2 m -26,8.33331 c 0.7733,0 0.1603,0.49793 -0.3333,0.33338 l 0.3333,-0.33338 m 7,0 c 0.7733,0 0.1603,0.49793 -0.3333,0.33338 l 0.3333,-0.33338 m 443,-0.33331 -1,1 1,-1 m -475,2 v 1 h 4 l -4,-1 m 9.6667,3.33331 0.6666,0.33338 -0.6666,-0.33338 m 4,0 0.6666,0.33338 -0.6666,-0.33338 m 5.3333,2.66669 -10,5 v 1 c 3.3466,-0.59467 10.1065,-1.90167 10,-6 m 587,15 -1,2 h 4 l 5,3 v 1 l -19,-3 -1,-7 12,4 m -95,-1 -1,1 1,-1 m -520,44 c 5.5343,-3.11798 10.7987,-7.27362 17.0237,-8.90558 11.3861,-2.98505 23.408,-1.44848 34.9763,-4.78631 26.345,-7.60144 60.1081,-33.29224 86.8151,-12.87671 4.5543,3.48144 7.9463,7.89819 11.1849,12.5686 l -4,-3 h -1 c -0.9066,4.61304 -0.5296,7.11298 4,9 -11.6074,5.76251 -24.4392,-1.4527 -36.5343,-2.57721 -21.1482,-1.96619 -40.6143,2.1452 -60.4657,9.04504 -8.6614,3.0105 -17.8868,5.28455 -24,12.53217 18.6585,1.46796 35.5714,-9.28186 53.8289,-11.67834 19.1858,-2.51838 35.571,2.79968 54.1711,5.69042 13.3085,2.06836 27.7494,-5.69586 23.4493,-21.01208 -2.7959,-9.95856 -11.2938,-18.36511 -20.4556,-22.71741 -30.7286,-14.59759 -63.3431,8.4607 -91.9937,17.05976 -11.466,3.44134 -22.6202,0.29608 -33.9833,2.54986 -10.1689,2.01697 -14.0246,9.41937 -13.0167,19.10779 m 623,-35 v 5 c -6.0384,-1.49207 -16.7418,-1.36859 -19,-8 l 19,3 m -17,3 c 5.2436,1.34668 15.2147,0.89142 17,7 l -17,-3 v 2 l 16,4 -1,4 -3,-1 2,-1 v -1 l -15,-2 2,-6 -1,-3 m 3,19 -1,1 1,-1 m -458,1 -1,1 1,-1 m -30,11 -1,1 1,-1 m 85,24 -1,1 1,-1 m -1.3333,4.66669 -0.3334,0.66662 0.3334,-0.66662 m 257.3333,6.33331 -1,1 1,-1 m -259,1 c -1.0474,15.8609 4.45,37.17896 -1.8083,52.06018 -4.0392,9.60468 -13.6167,17.46985 -20.5917,24.93982 -20.2858,21.72546 -45.5037,38.46356 -63.6,62 l -14.0448,-26 -3.9552,-40 38,-15 -1,-3 10,-5 -8,5 v 1 l 2,1 -30,15 v 1 h 2 v 1 l -10,4 29,-13 c -7.1213,6.9502 -15.7431,11.52344 -25,15 v 1 c 18.2176,-6.26312 33.1274,-19.49298 49,-30 -9.1392,14.6059 -26.9749,25.4248 -43,31 v 1 c 19.0624,-5.4212 35.8032,-19.67609 49,-34 l -4,2 4,-5 3,1 v -3 l 1,-1 2,1 8,-9 1,-6 3,1 c 3.3851,-5.76117 7.2292,-11.29779 14,-13 v -3 l 10,-14 m -5,3 -1,1 1,-1 m -2,2 -1,1 1,-1 m 258,2 1,1 -1,-1 m -268,1 -1,1 1,-1 m 14,0 -1,2 1,-2 m -0.6667,3.66669 0.3334,0.66662 -0.3334,-0.66662 m -1.3333,2.33331 1,1 -1,-1 m -4,181 c -17.248,-13.36115 -25.7961,-34.93109 -40.4416,-50.67072 -10.2034,-10.96582 -21.6957,-9.30871 -27.5584,4.67072 5.8092,-1.47052 12.1943,-6.79919 16,0 l -17,19 c -9.5353,-5.77069 -17.3602,-4.66968 -28,-4 l -3,2 v -1 l 2,-1 -7,-15 -3,1 v -1 l 1,-7 15,8 c -3.2194,-12.49573 -16.1165,-20.10553 -27.9981,-13.5426 -16.5003,9.11419 -26.9509,27.29571 -41.0019,39.5426 6.1595,-30.07806 11.4094,-60.27338 19.0377,-90.00006 4.0579,-15.81317 11.0845,-30.46851 28.9623,-31.99994 -8.7858,20.01593 -11.2753,39.1712 1.8255,58 10.9423,15.72662 28.0389,26.17651 32.1745,46 h 3 l 1,-10 c 22.0518,-26.27808 51.1187,-44.92419 74.1961,-70.60406 10.3056,-11.46772 24.8512,-27.04072 25.3261,-43.39576 0.2012,-6.927 -2.4822,-13.50036 -4.5222,-20.00018 18.7576,1.883 21.631,21.36096 28.0477,36 2.5251,5.76062 6.0181,11.63501 6.6611,18 1.2534,12.40649 -6.7178,27.64331 -11.0488,39 -11.775,30.87604 -29.6806,58.25671 -43.66,88 m 3,-179 -1,2 1,-2 m -16,1 -1,1 1,-1 m 10,0 -2,3 2,-3 m 3,2 -3,5 3,-5 m -6,2 -2,3 2,-3 m -4,4 v 2 l 2,-2 h -2 m 5,0 -5,10 h 1 l 4,-10 m -12,5 -2,2 v 1 l 2,-3 m 6,0 -1,4 h 1 v -4 m -12,2 -27,26 h -1 c 7.199,-10.7027 17.7022,-18.46606 28,-26 m -26,3 -1,1 1,-1 m 8,1 -1,1 1,-1 m 9,22 -33,21 v 3 c 20.4888,-11.34033 37.8975,-26.17456 53,-44 h -2 v -1 h 2 c -8.2053,4.67694 -15.2203,12.95465 -20,21 m 10,-21 1,1 -1,-1 m 8,1 -1,1 1,-1 m 279,1 v 3 h 1 l -1,-3 m -290,1 -1,2 1,-2 m -4,4 1,1 -1,-1 m -22,3 -1,1 1,-1 m 7,0 -1,1 1,-1 m 12,0 1,1 -1,-1 m -14.3333,1.66669 -0.3334,0.66662 0.3334,-0.66662 m -6.6667,0.33331 -1,1 1,-1 m -4,1 -6,5 6,-5 m -41,2.33331 c 0.7733,0 0.1603,0.49793 -0.3333,0.33338 l 0.3333,-0.33338 m 27,2.66669 v 1 l -6,3 v -1 l 6,-3 m 6,0 -5,4 5,-4 m -31,2 -1,1 1,-1 m 36,1 1,1 -1,-1 m -19,1 -4,3 4,-3 m -34,2 -1,1 1,-1 m 21,1 v 1 l -3,5 3,-3 8,-1 v 1 l -12,5 -1,-9 5,1 m 21,-1 v 1 l -20,10 20,-11 m 14,0 -2,2 2,-2 m -29,1 -1,1 1,-1 m -10,1 1,1 -1,-1 m 36,0 -2,2 2,-2 m 284,59 -5,-2 1,-3 c -17.3844,-13.64392 -29.8713,-30.93066 -51,-39.5575 -18.5597,-7.57794 -38.0178,-4.92974 -57,-9.4425 43.2506,-15.20007 90.9803,18.00507 112,54 m -336,-55 1,31 h -1 c -3.5053,-10.90863 -3.8168,-20.12439 0,-31 m 194,5 c -45.132,71.25995 -45.9311,149.61267 -37,231 l -82,-4 v 1 c 27.6102,4.9408 55.0386,8.27269 83,4 5.9774,42.39359 21.7085,88.53659 46,123.99999 v 1 c -13.0242,25.4303 13.4404,46.1219 16.3239,70 0.817,6.765 -4.349,13.3859 -7.4385,19 -8.4731,15.3972 -17.5801,31.3154 -29.8854,44 v 1 c 7.6599,-2.0989 12.1898,-8.9473 16.7996,-15.0039 9.9137,-13.0252 19.3078,-27.2487 24.2004,-42.9961 h 1 c 3.3301,12.1859 -2.4322,19.7015 -8.3901,30 -10.922,18.8794 -24.5899,35.4073 -38.6099,52 18.8994,-16.4739 45.6985,-42.1869 50,-68 h 1 c 10.2358,24.0063 13.1007,51.403 17,77 h -3 c -11.2744,30.6992 -64.1401,35.9958 -92,41 v -1 l 16,-7 -34,9.3784 -45,5.6216 v -1 c 21.5047,-6.7732 47.1956,-11.1367 66,-24 l -7,3 c -23.1821,2.792 -45.767,10.6648 -68.9907,14.0537 -35.6336,5.1996 -69.481,3.7206 -105.0093,-1.0537 -2.7565,-11.4258 -6.153,-29.5613 0.3566,-40.3403 3.1242,-5.1734 9.1584,-8.3787 13.6489,-12.232 13.6207,-11.6878 41.1012,-30.0824 45.0373,-48.4277 5.5771,-25.9937 0.9572,-57.4441 0.9572,-84 0,-53.6188 1.2347,-107.3982 -0.071,-160.99999 -0.3742,-15.3658 -4.7124,-32.83356 -2.4355,-48 1.4427,-9.61017 8.9085,-17.98523 13.5975,-26.21869 5.4855,-9.63214 8.6959,-25.32214 16.5296,-33.01257 4.5945,-4.5105 12.6173,-6.12451 18.379,-8.76874 6.7452,8.86475 18.8648,29.52246 31.9369,28.46082 11.7126,-0.95124 19.8689,-20.68647 24.923,-29.46082 18.5373,-32.18188 35.6147,-66.68927 44.1401,-103 l 14,3 m 55,1 32,7.43762 24,13.56238 -1,3 8,4 v 1 l -2,-1 v 1 l 4,1 13,16 -15,-15 11,15 -15,-5 c -1.9832,-23.23431 -41.6739,-34.20605 -60,-40 l 1,-1 m -29,8 -21,25 5,-4 -16,23 -11,26 h 1 l 3,-4 -5,5 -2,13 h 1 l 8,-16 c 2.5589,-11.14252 9.2937,-21.65881 17,-30 v -1 l -8,9 h -1 l 19,-29 -5,3 c 4.3508,-5.82642 9.7372,-14.05341 16.7308,-16.86224 8.8404,-3.55054 20.7975,2.29724 29.2692,4.86224 l -1,3 c 2.723,-1.21539 4.2666,-2.33527 5,1 h 1 6 c -40.2241,46.6676 -56.4916,110.99591 -57.0201,171.9658 -0.1357,15.6516 -2.0936,31.5249 1.0201,47.03419 l 1.0211,31.9772 -9.0211,41.0228 10,-39 h 1 l 4,30 -3,-1 -3,25 h 2 l 3,-23 h 1 l 11,43 -7,3 c -10.6074,-15.402 -27.7307,-38.5227 -27.9101,-58 -0.1652,-17.9314 10.6776,-35.8271 14.9101,-53 h -1 l -9,24 h -1 l 10,-34.99999 h -1 l -15,60.99999 h -1 l -2,-22 h -1 l -1,9 h -1 c -2.9421,-18.2003 6.4903,-41.2957 11,-58.99999 h 1 l -5,18.99999 c 8.6973,-14.51969 13.8892,-38.20799 15,-54.99999 h -1 l -8,30 h -1 l 5,-26 h -1 l -2,6 h -1 l 7,-28 h -1 l -18,57 h -1 l 4,-29 h -1 l -10,49.99999 c -7.4515,-13.42529 -8.1686,-33.00999 -9.6118,-48.07059 -4.2521,-44.37276 -0.751,-92.34236 12.769,-134.9294 5.4627,-17.20709 19.1369,-57.68536 42.8428,-50 m -197.3333,-1.66669 0.6666,0.33338 -0.6666,-0.33338 m 22.3333,0.66669 -10,8 11,-5 -1,-3 m -16,3 1,1 -1,-1 m 194,1 v 2 l 2,-2 h -2 m 7,0 c -13.9548,16.60284 -27.0843,34.09204 -36,54 h -1 v -3 h -1 l -13.0833,23.61108 -5.9167,6.38892 1,4 -3,7 14,-24 h 1 l -11,27 1,2 h -2 l -1,5 9,-12 -11,46 -3,6 2,-3 h 1 l -3,34 h 1 l 2,-13 h 1 l -1,18 h 1 c 2.3272,-23.6004 8.7891,-41.89636 17,-64 h 1 l -7,52 h 1 l 2,-21 3,-3 c -3.7198,6e-5 -1.2111,-7.20013 -0.6667,-10 1.9427,-9.99097 3.9227,-19.21521 6.3334,-29 0.6343,-2.57434 -0.667,-3.1178 -2.6667,-4 l -5,14 -14,35 h -1 l 3,-20 c 5.0865,-1.08997 7.1227,-13.36578 9,-18 5.51,-13.60175 12.8525,-36.34991 24,-46 l -15,34 h 1 l 11,-23 h 1 l -12,48 h 1 c 2.3917,-15.88824 7.5124,-31.32147 14,-46 -1.4018,-8.29529 3.4163,-16.31165 6,-24 l 3,1 12,-21 2,-1 6,-4 -5,4 12,-18 c -20.8618,17.6875 -40.2153,45.91467 -53,70 l 3,-2 -3,3 v 5 l -1,-2 h -1 l -14,39 h -1 c 5.5499,-29.24121 23.1028,-52.06384 34,-79 13.4432,-8.16431 26.3238,-30.46619 34,-44 -11.2263,11.53174 -24.0425,24.32959 -29,40 h -1 v -3 h -1 l -27,45 13.161,-36 25.839,-41 4,-6 c 2.3906,0.0123 3.1165,-0.68726 2,-3 m 0,2 -1,1 1,-1 m -10,2 1,1 -1,-1 m 10,1 1,1 -1,-1 m 7,0 1,1 -1,-1 m -2,1 -2,3 2,-3 m 14,2 -3,5 3,-5 m 5,1 -6,7 6,-7 m -44,5 6,-3 -6,3 m 22,-4 1,1 -1,-1 m -2,1 -21,31 c 8.2419,-8.5379 17.0135,-19.71869 21,-31 m 73,0 1,1 -1,-1 m -35,2 v 1 l -3,1 h -1 l 1,-3 3,1 m -312,1 c -3.3129,21.76392 -8.2968,43.29034 -11.9745,65.00189 -0.9986,5.8952 -4.7214,18.31055 0.047,23.2926 2.9983,3.13263 7.9199,0.7627 10.9366,-1.04254 6.556,-3.92321 15.2671,-15.7254 23.4024,-15.44281 5.3857,0.18708 8.4685,7.93994 9.8243,12.19519 2.9393,9.22492 1.2073,19.51728 2.8976,29.02185 1.3463,7.57105 5.5586,15.1969 5.1282,22.97382 -0.5261,9.50708 -6.293,19.27667 -9.7488,28 -5.572,14.0646 -9.8637,28.5477 -14.2895,43 -14.2303,46.46799 -23.8477,94.43229 -33.5348,141.99999 -5.1733,25.4031 -13.8165,54.9177 -11.3604,81 2.4345,25.8531 28.5953,39.7283 38.3819,61.2186 3.1019,6.8114 -1.0764,15.3269 -1.6057,22.3835 -0.6212,8.2819 2.1428,15.1867 5.8958,22.3979 -33.2044,-5.7587 -62.5254,-18.7946 -94.00003,-30 17.75093,13.4873 38.16563,22.416 59.00003,30 v 1 c -23.3543,-5.9952 -46.13,-12.7474 -66.99893,-25.1746 -9.53839,-5.6798 -20.21884,-13.1244 -24.41452,-23.8789 -4.96933,-12.7376 1.13577,-30.3051 4.27066,-42.9465 6.45407,-26.0258 10.78302,-52.5056 14.82504,-79 13.2909,-87.1177 22.22986,-175.23269 47.56205,-259.99999 10.6679,-35.69714 21.6888,-76.68921 45.7557,-106 m -11,2 -1,1 1,-1 m -5,1 -21,24 21,-24 m 328,1 -1,3 h -1 l 2,-3 m -326,2 -1,1 1,-1 m 64,0 -1,1 1,-1 m -73,1 -3,2 v -1 l 3,-1 m 265,1 -14,23 14,-23 m 216,162 c -43.999,1.8912 -81.3268,39.98119 -100.3376,76.99999 -7.0717,13.7703 -10.6136,28.8154 -16.6624,43 10.3342,-13.9852 14.7816,-31.9083 23.4172,-47 20.2973,-35.47219 52.2844,-64.53699 93.5828,-70.99999 v 30 c -13.381,3.1876 -25.6223,11.77449 -35.7583,20.83679 -28.0216,25.0533 -65.1739,71.5382 -55.2417,112.1632 l 7,-10 -4,12 18,-13 v 1 l -17,16 c 11.9935,-8.907 22.4969,-21.3102 37,-26 v 1 c -8.7639,7.5562 -21.3361,25.4502 -33.9816,25.4048 -10.1717,-0.036 -15.5565,-12.1209 -20.2298,-19.406 -12.9299,-20.1569 -26.2485,-40.1371 -39.6272,-59.9988 -8.8358,-13.1174 -18.095,-26.2085 -27.8972,-38.6235 -1.4529,-1.8401 -8.3495,-11.3953 -11.4866,-8.0093 -2.0942,2.2602 0.134,7.3472 1.0403,9.6522 3.0034,7.6382 9.1283,14.7406 10.3366,22.9806 1.6271,11.0958 -9.0322,23.1913 -13.1545,33 -8.1173,-19.7717 -9.417,-45.8228 -10.0723,-67 -1.4995,-48.45809 2.3089,-98.09038 19.1507,-143.99999 5.9513,-16.22272 12.3086,-31.71686 22.2414,-45.98828 3.4605,-4.97205 8.1779,-12.48602 14.8026,-13.27954 13.8116,-1.65436 30.9557,18.62286 38.0075,28.2699 16.6514,22.77923 27.3481,49.51519 45.9704,70.92681 17.1311,19.69696 43.8692,35.78351 54.8997,60.07111 m -485,-161 -26,39 3,-2 -5,7 h 1 l 2,-2 -4,2 1,3 -10,17 c 7.3533,-23.15363 18.2636,-48.7359 38,-64 m 311,1 -2,3 2,-3 m -303,1 c -19.466,32.98517 -30.8438,68.42444 -41.4778,105 -8.78696,30.2226 -17.20713,60.5919 -20.52219,92 l -3,-4 h 1 v 2 h 1 v -20 l 2,1 v -1 l 1,-4 1,-4 h -2 l 4,-15 2,-6 -1,-3 3,-9 3.99999,-24 5,-7 3,-16 h -1 v 2 h -1 l 11,-29 -10,21 h -1 c 3.4363,-10.40875 7.6497,-21.71326 15,-30 l 17,-33 h -1 l -18,30 h -1 l -1,-2 -9.4074,24 -4.5926,8 1,3 -2,-1 v 1 l -3.99999,19 -3,10 h 2 l 7.99999,-20 -7.99999,21 c -6.98422,-3.20471 -1.98245,-12.42584 -0.49396,-18 3.55155,-13.29993 9.33655,-25.65375 15.21515,-38 2.6288,-5.521 3.7108,-11.72424 9.2788,-15 l 5,-9 c 4.4721,-11.2688 14.4958,-22.53479 23,-31 m 268,3 1,1 -1,-1 m -287,2 c -15.0961,25.18695 -26.0033,47.97571 -34.99999,76 h 1 l 1,-3 h 1 l -14,45 3,-23 2,3 h 1 l 1,-6 -2,2 h -1 l 7,-31 h 1 l 1,2 1,-9 c 9.28109,-20.67755 14.31319,-40.49792 31.99999,-56 m 284.3333,1.66669 0.3334,0.66662 -0.3334,-0.66662 m -2,1 0.3334,0.66662 -0.3334,-0.66662 m 53.6667,4.33331 -1,1 1,-1 m -23,4 -13,18 h 1 l 12,-18 m -305,1 1,1 -1,-1 m 281,1 1,1 -1,-1 m 14,1 -1,1 1,-1 m -32,1.33331 c 0.7733,0 0.1604,0.49799 -0.3333,0.33338 l 0.3333,-0.33338 m 17,-0.33331 1,1 -1,-1 m 6,0 -2,2 2,-2 m -297,1 -1,1 1,-1 m 289.6667,1.33331 0.6666,0.33338 -0.6666,-0.33338 m 8.3333,-0.33331 1,1 -1,-1 m -300,1.33331 0.3333,0.33338 c -0.4935,0.16455 -1.1067,-0.33338 -0.3333,-0.33338 m 270,-0.33331 1,1 -1,-1 m 36,0 -2,5 h -1 l 3,-5 m -301,1 -3,5 h 1 l 2,-5 m 282,5 5,-5 -5,5 m 94.3333,-4.33331 0.3334,0.66662 -0.3334,-0.66662 m -381.3333,0.33331 -1,1 1,-1 m 297,1 1,1 -1,-1 m 19,158 h 1 c 7.1865,-51.97644 19.1116,-122.48633 63,-157 -16.5286,3.94543 -26.7677,22.94971 -33.8389,37 -18.3849,36.53003 -30.143,78.9707 -30.1611,120 m 101,-158 c 27.8522,16.23804 38.5007,39.64313 47,70 -13.2755,-10.57391 -13.4967,-28.83594 -19,-44 h -1 l 2,9 h -1 l -1,-11 -3,-1 h -1 l 12,34 h -1 c -11.7297,-17.58209 -26.2819,-37.31757 -34,-57 m -105,1 -18,38 h 1 l 6,-13 h 1 l -7,23 h 1 l 16,-48 m -315,2 -1,1 1,-1 m 283,1 -6,13 h -1 l 7,-13 m 1,7 6,-6 -6,6 m -159,-6 -1,1 1,-1 m -150.99999,2 c -12.53842,34.59229 -23.31003,69.82513 -24,107 h -2 l 2,-60 h -1 c -7.23886,26.23181 -4.02844,52.18805 -3.3038,78.9027 0.40078,14.7758 -2.31497,29.3117 -0.6962,44.09729 l -9,-35.99999 -3,-31 h -1 l 20,139.99999 c -25.61139,-13.5325 -49.90617,-22.1891 -72,-42 17.31569,22.953 43.98831,37.7136 72,43 l -5,36 c -25.4079,-6.7255 -47.14474,-16.3171 -68.99971,-30.9968 -7.68175,-5.1598 -19.01096,-12.0469 -22.29175,-21.2299 -2.30595,-6.4545 2.40665,-12.8309 5.55861,-18.1066 7.5181,-12.5832 14.21938,-25.6271 20.90312,-38.6667 17.50981,-34.16039 33.05568,-68.56176 47.74752,-103.99999 10.77117,-25.98114 18.67767,-51.62427 44.08221,-67 m 22.99999,0 -1,1 1,-1 m 305,0 -3,6 h -1 l 2,-6 h 2 m -300,1 1,1 -1,-1 m 270,1 -1,1 1,-1 m 34,0 -7,16 h 1 l 8,-16 h -2 m -336.99999,2 -1,2 1,-2 m 22.99999,0 1,1 -1,-1 m 102,1 -1,1 1,-1 m 189,0 1,1 -1,-1 m 150,0 5,11 3,4 h 1 l -9,-15 m 16,0 c 28.824,13.38373 28.821,46.55963 34,74 h -1 l -6,-8 -7,-28 -6,-20 h -1 l 6,18 h -1 l -18,-36 m -169,2 -1,1 1,-1 m 2,1 -1,1 1,-1 m -3,1 -4,14 h -1 l 5,-14 m -283,1 1,1 -1,-1 m 159,2 -1,1 1,-1 m -164,1 -1,1 1,-1 m 10,0 -1,5 h 1 v -5 m -10,2 -5,12 h -1 l 4,-12 h 2 m 5,1 -1,1 1,-1 m 293,1 -1,1 1,-1 m 17,0 -1,1 1,-1 m 154,1 1,5 h 1 l -2,-5 m -462,1 -1,3 1,-3 m 290,0 -3,4 1,-4 h 2 m -186,2 -1,1 1,-1 m 373,1 c 19.9783,22.45532 24.8678,48.27771 29,77 l -9,-16 c 1.5359,-13.48346 -5.3392,-28.6311 -10,-41 h -1 l 12,49 c -14.2893,-11.14581 -11.6202,-24.76038 -14.7909,-41 -1.8295,-9.37006 -5.6775,-18.4223 -6.2091,-28 m -479,1 -1,4 h 1 v -4 m 278,1 -2,4 2,-4 m -9,4 -2,2 2,-2 m 11,1 -2,5 h -1 l 3,-5 m -294,1 -4,7 4,-7 m 291,0 -1,1 1,-1 m 177,0 -1,1 1,-1 m 28,0 4,9 h 1 l -5,-9 m -354,1 -1,1 1,-1 m -138.6667,1.66669 0.3334,0.66662 -0.3334,-0.66662 m -10.33329,0.33331 -1,1 1,-1 m 124.99999,0 -1,1 1,-1 m 189,1 -4,7 h 1 l 3,-7 m -191,1 -9,10 9,-10 m 12,0 -1,1 1,-1 m 151,0 1,1 -1,-1 m 4,0 1,1 -1,-1 m 9,0 -2,2 2,-2 m 22,0 -1,3 1,-3 m -167,1 -1,1 1,-1 m -26,2 -1,1 1,-1 m 26.6667,0.66669 -0.3334,0.66662 0.3334,-0.66662 m 130.3333,-0.66669 1,1 -1,-1 m -286.99999,1 1,1 -1,-1 m 4.99999,0 -0.99999,1 0.99999,-1 m 135,0 -1,1 1,-1 m 181.3333,0.66669 0.3334,0.66662 -0.3334,-0.66662 m -22.3333,0.33331 -1,1 1,-1 m 211.3333,0.66669 0.3334,0.66662 -0.3334,-0.66662 m -506.33329,0.33331 -1,1 1,-1 m 283.99999,1 1,1 -1,-1 m 36,2 v 3 h 1 l -1,-3 m 173,0 -1,1 1,-1 m -210,1 1,7 -3,2 7,-9 h -5 m 41,0 -22,37 h 1 l 17,-31 4,-6 m -210,1 -2,3 v -3 h 2 m 170.6667,0.66669 -0.3334,0.66662 0.3334,-0.66662 m -289.33335,3 0.33332,0.66662 -0.33332,-0.66662 m 11.66665,0.33331 -1,1 1,-1 m -13.66665,1.66669 0.33332,0.66662 -0.33332,-0.66662 m 16.66665,-0.66669 -1,3 h 1 v -3 m 125,1 -1,1 1,-1 m -142.99999,2 v 2 l 2,-2 h -2 m 13.99999,0 -1,1 1,-1 m 118,0 -1,1 1,-1 m 157,1 -2,8 h 1 l 1,-8 m 83,0 -1,1 1,-1 m -371.99999,2 -1,6 h 1 v -6 m 119.66669,0.66669 -0.3334,0.66662 0.3334,-0.66662 m 380.3333,-0.66669 -1,1 1,-1 m -171,5 -12,36 h 1 l 4,-11 h 1 l -1,7 h 1 l 2,-9 h -1 l -1,2 6,-25 m 33,94 h 1 c 17.4757,-37.8666 41.6518,-84.36432 88,-91 v -2 c -44.5316,4.1413 -82.9496,50.22491 -89,93 m 156.3333,-92.33331 0.3334,0.66662 -0.3334,-0.66662 m -231.3333,0.33331 1,1 -1,-1 m 26,3 v 3 h 1 l 1,-3 h -2 m 10,0 1,1 -1,-1 m -198,1 -1,1 1,-1 m 171,1 -1,1 1,-1 m 26,0 1,1 -1,-1 m 107,1 -1,1 1,-1 m -417,1 -1,5 h 1 v -5 m 283,0 -1,1 1,-1 m 26,0 -11,32 -5,9 -11,35 h -1 l 10,-53 h -1 c -8.5135,18.86121 -10.3349,37.6446 -10,58 h 1 c 12.5358,-25.7539 21.7527,-53.6062 30,-81 h -2 m 106,0 -1,1 1,-1 m -429.99999,3 1,1 -1,-1 m 424.99999,0 -1,1 1,-1 m -424.99999,2 1,1 -1,-1 m 297.66669,1.66669 -0.3334,0.66662 0.3334,-0.66662 m -285.6667,0.33331 c -0.5703,4.67017 -0.95525,13.52435 -5.99999,15 l -3,22 -3,12 h -1 l 6,-36 h -1 l -1,7 h -1 l 7,-19 -3,13 5.99999,-14 m 460,3 v 1 l 9,-3 -9,2 m 10,-3 1,1 -1,-1 m -477.33333,1.66669 -0.33332,0.66662 0.33332,-0.66662 m 290.33333,-0.66669 -1,1 1,-1 m -293.99999,1 -1,1 1,-1 m 295.99999,1 -1,1 1,-1 m 173,0 -15,8 -2,-2 c -20.6532,11.68793 -41.4962,22.39874 -57,41 20.1389,-8.1281 35.2086,-27.83655 56,-36.22839 4.3716,-1.76447 18.1542,-5.04157 18,-10.77161 m -466.33333,1.66669 -0.33332,0.66662 0.33332,-0.66662 m 288.66663,3 0.3334,0.66662 -0.3334,-0.66662 m 2.6667,2.33331 -1,1 1,-1 m 111,0 -1,1 1,-1 m -111,2 v 2 h -2 l 2,-2 m -297.99999,1 c -1.27426,27.5966 -6.1203,56.4426 -3,83.99999 -4.06381,-7.5963 -3.01321,-16.63589 -2.99661,-24.99999 0.0384,-19.3238 0.51227,-40.36121 5.99661,-59 m 299.99999,0 v 6 -6 m -287.99999,6 1,1 -1,-1 m 128.99999,0 -2,7 h -1 l 1,-7 h 2 m -6.3333,1.66669 -0.3334,0.66662 0.3334,-0.66662 m 165.3333,-0.66669 -3,2 3,-2 m -3,3 -1,1 1,-1 m -292.99999,2 -1,3 h -1 l 2,-3 m 323.99999,1 -3,12 h 1 l 2,-12 m 2,0 1,1 -1,-1 m -192,2 -1,1 1,-1 m -128.99999,1 -1,1 1,-1 m -23.33334,1.66669 -0.33332,0.66662 0.33332,-0.66662 m 151.33333,-0.66669 v 4 h -1 l 1,-4 m 174,1 -1,2 h 2 l -1,-2 m -175.3333,6.6667 -0.3334,0.6666 0.3334,-0.6666 m 172.3333,-0.6667 1,1 -1,-1 m -300.99999,1 1,1 -1,-1 m 287.66669,1.3333 0.6666,0.3334 -0.6666,-0.3334 m -163.6667,1 0.3333,0.3334 c -0.4935,0.1645 -1.1067,-0.3334 -0.3333,-0.3334 m 3.6667,0.3334 -0.3334,0.6666 0.3334,-0.6666 m -4.6667,1.3333 -1,1 1,-1 m 166,0 1,3 -1,-3 m -159,3 -1,1 1,-1 m 158,1 1,1 -1,-1 m 0,2 -1,6 h 1 v -6 m 25,0 -14,68.99999 h -1 c -5.6247,-23.6848 6.2218,-47.10029 15,-68.99999 m -319.33333,2.6667 -0.33332,0.6666 0.33332,-0.6666 m 379.33333,-0.6667 -1,1 1,-1 m -379.99999,7 -1,1 1,-1 m 294.99999,0 1,1 -1,-1 m -173,2 c -0.434,3.9729 -1.1289,11.4557 -5,13 l 5,-13 m -121.99999,1 -1,1 1,-1 m 147.99999,0 v 13 h -1 l 1,-13 m 147,1 1,1 -1,-1 m -295.99999,2 -1,1 1,-1 m 129.99999,0 -1,1 1,-1 m 166.3333,0.6666 0.3334,0.6668 -0.3334,-0.6668 m -167.3333,2.3334 -1,1 1,-1 m 201,2 -10,31.99999 h -1 l 3,-13 c -5.4918,8.1365 -11.1636,25.6804 -7,35 l -1,-3 c 2.6205,-1.4241 3.5885,-5.5754 2,-8 7.7241,-9.3738 10.0939,-22.7114 14,-33.99999 -2.8536,0 -1.6699,-1.6858 -1,-4 l 1,3 h 1 l -1,-8 m -210,5 -7,17.99999 5,-17.99999 h 2 m 7,0 -2,3 2,-3 m 22,2 -1,3 1,-3 m 150.3333,0.6666 0.3334,0.6668 -0.3334,-0.6668 m 56.6667,0.3334 -1,2 1,-2 m -230,1 -2,6 h -1 l 1,-6 h 2 m 71,1 c -3.6432,38.51509 -8.1285,79.66519 -1,117.99999 h 1 c -1.9564,-38.8115 -2.4363,-79.3306 2,-117.99999 h -2 m 131,0 -1,1 1,-1 m -178,2 v 3 h -1 l 1,-3 m 177,0 -1,1 1,-1 m 41,0 v 2 l 2,-2 h -2 m -134,2 -1,1 1,-1 m 88,2 1,1 -1,-1 m -320.99999,2.99999 -1,1 1,-1 m 148.66669,1.6666 -0.3334,0.6668 0.3334,-0.6668 m -148.66669,0.3334 v 3 h -1 l 1,-3 m 125.99999,0 v 3 h -1 l 1,-3 m -127.99999,1 2,3 v 1 l -2,-4 m 314.99999,2 -1,1 1,-1 m -313.33333,3.6666 -0.33332,0.6668 0.33332,-0.6668 m 118.33333,-0.6666 -1,1 1,-1 m 183,0 -1,1 1,-1 m 10,1 -1,1 1,-1 m -328.99999,2 -1,1 1,-1 m 18,0 -3,25 h -1 v -24 l 2,-1 h 2 m 317.99999,3 v 3 h -1 l 1,-3 m -192,1 -1,1 1,-1 m 205,1 c -7.4119,17.068 -9.5233,35.574 -10,54 h 1 l 9,-54 m -221,1 -1,1 1,-1 m 207,1 -1,1 1,-1 m -187,1 -1,1 1,-1 m -19,1 -1,1 1,-1 m 427,0 -4,6 4,-6 m -428.3333,3.6666 -0.3334,0.6668 0.3334,-0.6668 m 221.3333,-0.6666 -1,4 h 1 v -4 m 192,0 v 1 l -5,3 5,-4 m -413,3 v 2 h -2 l 2,-2 m 110,1 v 1 c 18.8612,4.0103 52.5481,12.0602 70,1 l -70,-2 m 313,0 -1,2 1,-2 m -424,2 -2,7 h -1 l 3,-7 m 221,0 v 3 h 1 l -1,-3 m 188,0 -18,26 -4,1 c 5.0111,-11.0474 12.2418,-19.791 22,-27 m -197,1 -1,1 1,-1 m 210,0 1,1 -1,-1 m -418,1 -1,1 1,-1 m 14.6667,1.6666 -0.3334,0.6668 0.3334,-0.6668 m 399.3333,-0.6666 1,1 -1,-1 m -207,1 -1,3 h -1 l 2,-3 m 9.6667,0.3334 0.6666,0.3332 -0.6666,-0.3332 m -229.6667,0.6666 -1,1 1,-1 m 266,1 -12,22 h 1 l 11,-20 h 1 l -4,9 3,-11 m 151,0 1,1 -1,-1 m 9,0 -1,2 1,-2 m -419.3333,2.6666 -0.3334,0.6668 0.3334,-0.6668 m 211.3333,-0.6666 -1,1 1,-1 m 197,0 1,1 -1,-1 m -10,1 -1,1 1,-1 m 9,2 1,1 -1,-1 m 3,0 1,1 -1,-1 m -375,2 -1,1 1,-1 m 231,1 -4,13 h 1 l 4,-10 h 1 l -9,27 h 1 l 11,-20 -3,64 c -12.8915,-7.3494 -16.6697,-25.0844 -17,-39 -1.9811,-11.4503 9.3885,-25.582 15,-35 m 139,0 -15,37 15,-27 v -10 m 4,0 1,1 -1,-1 m -376,2 -1,1 1,-1 m 363,0 -1,3 h 1 v -3 m 12,0 -3,6 h 1 l 2,-6 m -376,2 -1,1 1,-1 m 299,1 -1,1 1,-1 m -104,1 -7,35 h 1 c 3.0248,-10.9475 6.9082,-23.5748 6,-35 m 162,1 -11,27 c -4.1634,-9.8076 4.8764,-19.9097 11,-27 m -391,1 -1,1 1,-1 m 32,0 -1,1 1,-1 m 191,0 -1,4 h 1 v -4 m -2,5 v 3 h 1 l -1,-3 m 42,0 -10,22 h 1 l 9,-22 m -255,2 -1,1 1,-1 m 13,0 -1,1 1,-1 m -1,2 -1,1 1,-1 m 251,0 -10,21 1,1 9,-22 m -251,3 -2,6 h -1 l 3,-6 m 198,0 -1,1 1,-1 m 32.3333,2.6666 0.3334,0.6668 -0.3334,-0.6668 m -20.3333,0.3334 1,1 -1,-1 m -1,2 -1,7 h 1 v -7 m -187,5 -1,1 1,-1 m 218,0 -4,4 -2,8 h 1 l 5,-12 m -33,3 -1,8 h 1 l 2,-8 h -2 m 63,2 -1,1 1,-1 m -7,1 -1,1 1,-1 m 5,0 -1,1 1,-1 m 6,2 -1,1 1,-1 m -299,1 -1,1 1,-1 m 266,1 -5,11 h 1 l 6,-11 h -2 m -241,1 -3,3 3,-3 m 269,0 v 3 l -2,-1 v -1 l 2,-1 m -305,1 -1,1 1,-1 m 307.6667,0.6666 -0.3334,0.6668 0.3334,-0.6668 m -298,1 -0.3334,0.6668 0.3334,-0.6668 m 23.3333,1.3334 -1,1 1,-1 m 270.6667,0.6666 -0.3334,0.6668 0.3334,-0.6668 m -271.6667,2.3334 -1,1 1,-1 m 146,48 v 1 l 7,-1 c 16.9019,-13.9685 29.296,-27.7961 40,-47 -16.6873,15.5038 -26.8733,34.7729 -47,47 m 127,-47 -1,1 1,-1 m -274,1 -2,5 h -1 l 3,-5 m 219,1 1,1 -1,-1 m 53,0 -1,1 1,-1 m 2,0 -2,3 2,-3 m 12,0 -1,7 h -1 l 2,-7 m 71,0 -2,3 2,-3 m -133,1 1,1 -1,-1 m 66,0 -1,1 1,-1 m 57,0 -1,1 1,-1 m -379,1 -1,1 1,-1 m 250,0 -1,3 1,-3 m 72,1 -1,4 h -1 v -4 h 2 m -317,1 -2,3 2,-3 m 250,0 1,1 -1,-1 m 51,0 -3,7 h -1 l 4,-7 m -275,1 -2,3 2,-3 m 293,0 -2,5 h -1 l 3,-5 m -324,1 -1,1 1,-1 m 15,1 -1,1 1,-1 m 239,0 1,1 -1,-1 m 64,1 -8,30 h -1 l 9,-30 m -303,1 -1,1 1,-1 m 13.6667,0.6666 -0.3334,0.6668 0.3334,-0.6668 m 22.3333,-0.6666 v 2 h -2 l 2,-2 m 3,0 -1,1 1,-1 m 266,1 -1,3 1,-3 m 56,0.3334 c 0.7734,0 0.1602,0.4978 -0.3333,0.3332 l 0.3333,-0.3332 m -51,0.6666 -1,1 1,-1 m 4,0 1,2 h -2 l 1,-2 m -327,1.3334 c 0.7734,0 0.1602,0.4978 -0.3333,0.3332 l 0.3333,-0.3332 m 299,-0.3334 v 7 h -1 l 1,-7 m 108,1 c -7.8399,9.1091 -16.8144,20.3672 -29,23 v -1 c 5.3008,-1.767 14.6592,-10.3633 14,-13 l 15,-9 m -152.6667,0.6666 0.3334,0.6668 -0.3334,-0.6668 m 2.6667,0.3334 -1,3 1,-3 m 61,0 -1,1 1,-1 m 10,0 c -0.7051,3.729 -0.9202,13.0846 -5,13 l 3,-13 h 2 m -333,2 -1,1 1,-1 m 110,0 1,1 -1,-1 m 276,0 -4,4 4,-4 m -79,2 -1,1 1,-1 m 21,0 -1,1 1,-1 m 48,0 -1,1 1,-1 m 42,0 -14,11 14,-11 m -362,1 -2,3 2,-3 m 247,1 -1,6 h -1 l 2,-6 m 33,0 -3,15 h -1 l 4,-15 m -308,1 -2,3 2,-3 m 278,0 -1,1 1,-1 m 68,0 -1,1 1,-1 m 7,0 -1,1 1,-1 m 40,0 -5,3 5,-3 m -577.99999,1 31,16 v 1 c -9.87198,-1.5054 -30.29785,-4.3396 -31,-17 m 271.99999,0 c 14.0442,16.8354 34.5253,25.0803 56,26 v -2 c -20.7194,-4.3267 -37.6382,-14.098 -56,-24 m 204.6667,0.6666 -0.3334,0.6668 0.3334,-0.6668 m -266.6667,0.3334 -2,2 v -2 h 2 m 272,0 -1,1 1,-1 m 13,0 -1,1 1,-1 m -315,1.3334 c 0.7733,0 0.1603,0.4978 -0.3333,0.3332 l 0.3333,-0.3332 m 293,-0.3334 1,1 -1,-1 m 2.6667,2.6666 -0.3334,0.6668 0.3334,-0.6668 m 3.3333,-0.6666 -1,1 1,-1 m -19,1 -2,2 v -2 h 2 m 38,0 1,8 5,-3 -4,7 h 1 l 1,-3 -2,5 1,7 h -1 v -2 h -1 l -6,47 -5,7 2,-12 -2,1 3,-2 -1,-8 v -1 c 6.7399,-12.986 5.4984,-26.9514 8,-41 h -1 v 3 h -1 l 2,-13 m 47,0 1,1 -1,-1 m 15,0 -7,5 7,-5 m -127,1 c 0.2515,10.1692 -10.6119,16.5627 -18,22 -1.0737,-11.3204 9.7305,-16.4341 18,-22 m 118,0 1,1 -1,-1 m -366,1 -1,1 1,-1 m 24,0 -1,1 1,-1 m 276,0 v 3 h -1 l 1,-3 m -310,1 -1,1 1,-1 m 312,0 -1,1 1,-1 m 8,0 -3,22 h -1 l 4,-22 m -496.99999,1 c 18.89912,8.4382 33.51434,18.1029 55,18 v 3 c -17.40613,1.4321 -45.41321,-4.7765 -55,-21 m 475.66669,0.6666 -0.3334,0.6668 0.3334,-0.6668 m -443.66669,0.3334 -1,1 1,-1 m 445.99999,0 -1,1 1,-1 m 11,0 -1,1 1,-1 m -454.99999,1.3334 c 0.77338,0 0.16022,0.4978 -0.33334,0.3332 l 0.33334,-0.3332 m 3,0.6666 -1,1 1,-1 m 123.99999,0 -2,3 2,-3 m 317,0 -1,5 h -1 l 2,-5 m -437.99999,1.3334 c 0.77338,0 0.16022,0.4978 -0.33334,0.3332 l 0.33334,-0.3332 m 2.66666,0.3332 -0.33332,0.6668 0.33332,-0.6668 m 144.33333,-0.6666 -2,5 h -1 l 3,-5 m 34,0 -2,2 2,-2 m 197,0 -1,1 1,-1 m 70,0 v 8 l -2,-1 v 1 l -1,9 -3,-1 v 9 l -4,1 5,-21 5,-5 m 12.3333,0.6666 0.3334,0.6668 -0.3334,-0.6668 m 83.6667,-0.6666 -36,71 h -1 l 19.5562,-39.9294 17.4438,-31.0706 m -109,1 -2,7 h -1 l 3,-7 m 110,1 -1,18 h -1 v -3 h -1 c -0.6771,15.165 -11.2118,28.4021 -17.0753,42 -2.1939,5.0876 -3.4578,12.6428 -8.9247,15 l -5,17 h 1 c 9.6008,-22.6493 26.1272,-45.8188 31,-70 h 1 1 c -1.2382,10.5905 -6.4939,19.4678 -10.8918,29 -7.0516,15.2843 -13.5261,31.7432 -24.1082,45 l 1,-4 h -1 l -8,23 c -6.6966,9.2416 -11.2463,19.9495 -14,31 h 1 l 6,-19 6,-9 h 1 l -13,30 -2,-2 -18,46 -11,12 12,-28 h -1 l -3,4 c 18.7192,-61.8441 51.945,-118.7526 79,-177 m -528.99999,6 c -12.33746,5.9084 -25.9498,0.1649 -38,-4 l 38,4 m 407.99999,-5 -1,1 1,-1 m -255,1 -1,3 h -1 l 2,-3 m 302,0 1,1 -2,5 h -1 l 2,-6 m 85,0 1,5 h -1 v -5 m -377,1 -1,1 1,-1 m 196,0 -1,1 1,-1 m 55.6667,0.6666 -0.3334,0.6668 0.3334,-0.6668 m 105.3333,-0.6666 -43,94 h 1 l 9,-17 -10,23 h -1 l 1,-6 h -1 l -6,11 12.5909,-44.9658 20.8097,-36 16.5994,-24.0342 m -135,1 v 1 l -11,8 11,-9 m -283,1 -1,1 1,-1 m 27,0 -2,5 h -1 l 3,-5 m 273,0 -1,1 1,-1 m 41,0 1,1 -1,-1 m 106,0 -1,1 1,-1 m -445,1 -1,1 1,-1 m 324,0 v 3 l 2,-1 v -1 l -2,-1 m 29,0 -1,6 h -1 l 2,-6 m -306,1 -1,3 h -1 l 2,-3 m 12,0 -1,1 1,-1 m 243,0 -1,1 1,-1 m 10,0 1,1 -2,1 -5,29 h -1 l 1,-15 h 2 v -14 -1 l 4,-1 m 134,1 -3,14 h -1 l -1,-15 5,1 m -285,0 -1,1 1,-1 m 156,0 -1,1 1,-1 m 21,0 -1,1 1,-1 m 98,0 v 8 h -1 l 1,-8 m 7,0 v 3 h 1 l -1,-3 m -384,1 -1,1 1,-1 m 295.6667,0.6666 -0.3334,0.6668 0.3334,-0.6668 m -507.66669,0.3334 c 9.97145,11.7661 21.5871,17.7141 37,18 v -1 l -37,-17 m 148.99999,0 -1,1 1,-1 m 7.6667,0.6666 -0.3334,0.6668 0.3334,-0.6668 m 167.3333,-0.6666 1,1 -1,-1 m 152,0 v 3 h 1 l 1,-3 h -2 m 27,0 -1,1 1,-1 m 102,1 -2,6 h -1 l 1,-6 h -1 v 2 h -1 l 1,-3 3,1 m -591.99999,0 v 1 h -3 l 3,-1 m 540.99999,0 -5,11 -3,-1 -13.3309,29.0005 -19.6691,47.9995 h -1 l 1,-3 h -1 v 5 l -4.3333,7 -7.6667,23 h -1 l 11,-48 13,-21 -2,4 5,-6 -3,1 2,-4 h 1 l 1,3 c 3.7186,-17.0664 9.882,-39.9309 27,-48 m 5,0 -6,12 h -1 l 7,-12 m 35,0 -1,1 1,-1 m -158,1 -15,12 15,-12 m 26,0 -2,2 v -2 h 2 m 47,0 -1,1 1,-1 m 2,0 -3,14 h -1 l 4,-14 m 96,0 -3,15 h -1 l 2,-14 2,-1 m -458,1 -1,1 1,-1 m 273,0 -1,1 1,-1 m 153.6667,0.3334 0.6666,0.3332 -0.6666,-0.3332 m -67.6667,0.6666 -2,2 2,-2 m 9,0 -9,23 h -1 l 8,-23 h 2 m 24,0 -2,9 c -14.8409,20.2634 -23.5283,45.3271 -34,68 h -1 l 24,-60 2,1 3,-8 -1,-3 9,-7 m 53,0 -1,21 h -1 l 2,-21 m -438,1 -1,1 1,-1 m 333,0 v 15 h -2 l 2,-15 m -38.3333,1.6666 -0.3334,0.6668 0.3334,-0.6668 m 26.3333,-0.6666 -1,4 h -1 v -4 h 2 m 4.6667,0.6666 -0.3334,0.6668 0.3334,-0.6668 m 40.3333,-0.6666 -10,21 16,-21 -14,26 h 1 l 1,-3 h 1 l -8,18 5,-15 h -1 l -3,3 -2,5 c 1.223,-12.405 6.184,-23.111 12,-34 h 2 m 8,0.3334 c 0.7734,0 0.1602,0.4978 -0.3333,0.3332 l 0.3333,-0.3332 m 71,-0.3334 -1,13 h 2 l -2,10 h -1 l 2,-23 m -147,1 -1,1 1,-1 m 53,0 -1,1 1,-1 m -352,1 -1,1 1,-1 m 347,0 -2,2 2,-2 m 29,0 -19.1273,49 -8.8727,14 v 1 l -2,8 v 1 l 3,2 v 1 l -4,7 h -1 l 1,-18 h 1 v 3 h 1 l 3,-21 h 1 l -1,9 2,-11 h 1 v 2 h 1 l 20,-47 h 2 m -78,1 -1,1 1,-1 m 15,0 -1,1 1,-1 m 18,0 v 5 h -1 l 1,-5 m 103,0 -1,1 1,-1 m -377,1 v 2 h -2 l 2,-2 m 239,0 -1,1 1,-1 m 2,1 -1,1 1,-1 m 27,0 v 7 h -1 l 1,-7 m -13,1 -1,1 1,-1 m 37,0 -1,7 h -1 l 2,-7 m 65,0 1,1 -1,-1 m 40,0 c -0.3285,13.0613 -3.6796,25.4348 -13,35 l 11,-25 v -1 l -2,-2 4,-7 m -456,1 -1,1 1,-1 m 276,0 -1,1 1,-1 m 11,0 -14,12 14,-12 m 105,0 -3,5 3,-5 m -398,1 -1,1 1,-1 m 7.6667,0.6666 -0.3334,0.6668 0.3334,-0.6668 m 265.3333,-0.6666 -4,5 4,-5 m 138,0 1,1 -1,-1 m 10,0 -5,11 5,-11 m 28,0 -1,1 1,-1 m -586.99999,1 c 8.35371,8.6379 19.59109,12.0168 30,5 -11.64825,3.2 -19.5424,0.4604 -30,-5 m 192.99999,0 -3,3 3,-3 m 7,0 -1,1 1,-1 m 264,0 -1,6 h -1 v -6 h 2 m -2,1 1,1 -1,-1 m 6,0 -2,4 -6,26 h -1 l 4,-20 v -1 l 4,-3 v -1 l 1,-5 m 9,0 v 2 h -2 l 2,-2 m -62,1 -1,1 1,-1 m 30,0 -1,1 1,-1 m 16,1 v 1 h -3 l 3,-1 m 86,-1 -1,2 h 2 l -1,-2 m -403,1 -1,1 1,-1 m 16,0 -1,1 1,-1 m 429,0 -1,1 1,-1 m -400,1 -2,3 2,-3 m 246,0 c -4.3232,7.7194 -11.7148,12.3126 -19,17 3.9997,-7.8108 11.7173,-12.4913 19,-17 m 36,0 -1,1 1,-1 m 61,0 v 2 h 2 v -2 h -2 m -388,1 -1,1 1,-1 m 332,0 -1,1 1,-1 m 19,0 -2,14 h 1 l 1,-3 h 1 l -4,27 h -1 l 5,-25 h -1 l -3,11 h -1 l 4,-24 m 50,0 -3,3 3,-3 m 24,0 -1,6 h 1 v -3 h 1 l -14,40 h -1 v -5 h -1 l -2,8 h 2 c -13.3614,33.0093 -33.2447,62.6726 -45.9169,96 -5.3524,14.0767 -12.1875,33.4443 -28.0831,38 l 72,-134 -20,28 23,-44 3,1 10,-23 h -1 l -1,4 h -1 l 4,-12 m 20,0 -3,17 h -1 l 4,-17 m -131,1 -1,1 1,-1 m 2,1 -4,14 h -1 l 5,-14 m 5,0 -1,1 1,-1 m 66,0 1,1 -1,-1 m -82,1 1,1 -1,-1 m 32,0 1,1 -1,-1 m -72,1 -1,1 1,-1 m -267,1.3334 c 0.7734,0 0.1602,0.4978 -0.3333,0.3332 l 0.3333,-0.3332 m 31,-0.3334 -1,1 1,-1 m 10,0 -1,1 1,-1 m -25.3333,1.6666 -0.3334,0.6668 0.3334,-0.6668 m 311.3333,-0.6666 -1,1 1,-1 m 4.6667,0.6666 -0.3334,0.6668 0.3334,-0.6668 m 60.3333,-0.6666 -4,7 h -1 l 5,-7 m 6,0 -4,8 h 1 l 3,-8 m 13,0 v 3 h 1 l -1,-3 m -411,1 -1,1 1,-1 m 273,0 -1,1 1,-1 m 169,1 v 3 h -1 l 1,-3 m -427.3333,1.6666 -0.3334,0.6668 0.3334,-0.6668 m -15.6667,0.3334 -1,1 1,-1 m 4.6667,0.6666 -0.3334,0.6668 0.3334,-0.6668 m 356.3333,-0.6666 1,1 -1,-1 m 49,0 -1,4 h 1 v -4 m -84,1 -3,12 h -1 l 4,-12 m 6,0 -1,1 1,-1 m 25,0 -1,1 1,-1 m -291,1 -1,1 1,-1 m 273.3333,0.6666 0.3334,0.6668 -0.3334,-0.6668 m -336.3333,0.3334 -1,1 1,-1 m 272,0 1,1 -1,-1 m 149,0 -6,13 h -1 l 7,-13 m 17.6667,0.6666 -0.3334,0.6668 0.3334,-0.6668 m 16.3333,-0.6666 -1,1 1,-1 m -457,1 -2,5 h -1 l 3,-5 m 459,0 v 6 h -1 l 1,-6 m -121,1 -1,2 1,-2 m 69,0 1,1 -1,-1 m 49,0 c -0.062,5.0681 -2.1362,19.1656 -8,20 v 5 h -1 v -3 h -1 l -7,21 h -1 c 4.5326,-15.1003 9.3986,-29.6475 18,-43 m -445,1 -1,1 1,-1 m 24.6667,0.6666 -0.3334,0.6668 0.3334,-0.6668 m 23.3333,-0.6666 -3,7 3,-7 m 369,0 -1,1 1,-1 m -112,1 -2,7 h -1 l 1,-7 h 2 m 13,0 -2,3 2,-3 m 5,0 -1,1 1,-1 m 7,0 -2,15 2,4 -5,9 h -1 l 4,-13 h -1 v 2 h -1 l 4,-17 m 65,0 -5,11 h 1 l 4,-11 m 41,0 -1,1 1,-1 m -149,1 v 4 h -3 v -1 l 3,-3 m 129,0 -1,14 h 1 v -2 h 1 c -0.054,39.6427 -4.4286,102.983 -41,127 l 10,-17 5,-11 9,-22 h 1 l 1,2 -1,-5 10,-24 -20,43 h -1 v -3 h -1 l -21,41 h 1 l 12,-19 -6,17 -22,12 24,-45 c -13.4895,16.567 -18.6312,41.4551 -39,51 l 22,-34 -4,3 c 9.5008,-27.3762 22.9743,-59.8163 42,-82 l 5,-13 -2,1 v -1 l 3,-1 12,-32 m 16,0 -1,1 1,-1 m -447,1 -1,1 1,-1 m 297,0 -8,22 h 1 l 4,-10 1,2 -5,15 h -1 l 1,-23 -6,8 c 1.0504,-7.1925 7.2903,-10.4103 13,-14 m 98,1 1,1 -1,-1 m 50,0 -1,1 1,-1 m 2,0 -1,1 1,-1 m -435,1 -1,1 1,-1 m 320,0 -7,21 2,-12 2,1 1,-10 h 2 m 30,0 -1,1 1,-1 m 101,0 c -0.6305,13.1986 -5.0739,24.3157 -11,36 l -1,-2 h -1 l -9,16 c 5.2258,-16.6089 13.1361,-34.9866 22,-50 m -536.99999,1 1,1 -1,-1 m 518.99999,0 -1,1 1,-1 m -434,1 -2,2 v -2 h 2 m 292,0 6,22 c 4.572,7.1577 9.3571,17.3512 8,26 l 1,6 h 1 v -4 h 1 l 5,24 h -1 l 1,-4 -14,31 5,-5 -1,15 h 1 l 6,-17 -1,4 5,-11 -2,1 4,-10 -3,1 2,-6 h 1 c 2.2061,9.89 1.9924,17.3025 -1,27 l 5,-11 h 1 c 1.8326,9.2979 2.2947,17.0406 -5.5798,23.692 -2.6725,2.2573 -6.9414,5.1629 -10.26,2.4382 -16.4987,-13.5454 1.2088,-37.2944 6.8398,-51.1302 h -1 l -5,10 h -1 l 3,-20 h -1 c -0.6376,4.0973 -1.264,8.5065 -6,9 l -1,3 h -1 l 2,-7 -2,1 6,-15 h -1 l -3,8 h -1 v -23 h -1 l -5,14 h -1 l 1,-6 h -1 l -2,8 2,-1 v 5 l 3,-9 c 1.1336,5.2454 -0.7958,8.9077 -4,13 l 1,-3 -1,4 v 1 l -2,4 h 1 c 0.5057,-2.5286 0.4943,-2.5286 1,0 h 1 l 4,-10 h 1 l -2,13 h -1 l -1,-2 -1,4 2,-1 -2,5 3,-4 h 1 l -2,19 h -1 l -2,-15 -2,1 3,-5 -5,2 c -1.2421,-7.4719 0.027,-13.1018 3,-20 l 4,-19 2,1 v -1 -6 h -1 l -10,31 h -1 l 9,-39 h -1 l -9,20 h -1 l 7,-22 2,-5 h -1 l -8,21 h -1 c 0.6324,-8.8129 4.8946,-15.9822 10,-23 l -4,2 3,-7 m 33,0 -1,1 1,-1 m -408.99999,1 c 6.24994,25.0714 24.72629,49.3131 43.99999,66 l -27.3941,-39 -16.60589,-27 m 296.99999,0 c -23.6864,19.2661 -48.7555,36.9015 -76,50.7679 -16.4511,8.3731 -38.5723,14.1231 -53,25.2321 31.9622,-8.201 61.8419,-22.3667 89,-41.2051 10.7213,-7.4367 22.5219,-14.8916 30,-25.7949 l 10,-9 m 73,0 -4,6 4,-6 m 3,0 -1,1 1,-1 m 25,0 -3,10 h -1 l 4,-10 m 55,0 -1,1 1,-1 m 14.3333,0.6666 0.3334,0.6668 -0.3334,-0.6668 m -402.6666,1 -0.3334,0.6668 0.3334,-0.6668 m 326.3333,-0.6666 -1,1 1,-1 m 36,0 -1,1 1,-1 m -344,1 -2,4 h -1 l 1,-4 h 2 m 289,0 -1,1 1,-1 m -244,1 -1,1 1,-1 m 365,0 -1,1 1,-1 m -428.3333,1.6666 -0.3334,0.6668 0.3334,-0.6668 m 6.3333,-0.6666 -1,1 1,-1 m 338,0 -2,10 h -1 l 1,-10 h 2 m 114,0 -1,3 h -1 l 2,-3 m -60,1 1,1 -1,-1 m 14,0 v 5 l -1,4 h 1 l 2,-9 h -2 m 42,0 -1,1 1,-1 m -455,2 -2,6 2,-6 m 307,0 -1,1 1,-1 m 63,0 -1,1 1,-1 m 28,0 1,1 -1,-1 m 29,0 -2,6 2,-6 m -413,1 -1,1 1,-1 m 440,0 -1,1 1,-1 m 3,0 -1,4 h -1 l 2,-4 m -162,1 -1,1 1,-1 m 6,0 1,1 -1,-1 m 48,0 -1,1 1,-1 m 47,0 -3,6 h 1 l 4,-3 -2,-3 m 43,0 -47,97 h 1 c 9.9337,-21.7642 20.8286,-42.7429 31.7551,-64 5.3509,-10.4098 13.2123,-21.0686 14.2449,-33 m -370,1 -1,1 1,-1 m 277,0 -2,3 2,-3 m 122,0 -4,8 h 1 l 3,-8 m -455,2 -1,1 1,-1 m 49,0 -1,1 1,-1 m 287,0 -2,9 h -1 l 3,-9 m 34,0 -1,2 1,-2 m -328,1 -2,2 2,-2 m 285,0 -1,7 h -1 l 2,-7 m 14,0 -2,10 2,-1 -4,13 h -1 v -5 h -2 l -3,15 h -1 l 11,-32 m 101,0 -1,1 1,-1 m 17,0 c -0.2038,26.0568 -7.0102,43.8062 -22,65 h -1 l -1,-3 v -1 l 3,-1 -3,-4 15,-26 h 1 l -4,14 h 1 l 5,-19 5,-18 1,-7 m -473,1 -2,11 h -1 l 3,-11 m 346,0 -1,1 1,-1 m 51,0 -1,3 h 1 v -3 m -6,1 c -4.1672,13.5111 -8.1671,27.1405 -11.0792,40.9852 -2.3095,10.98 -3.3087,22.5971 -9.9208,32.0148 l -8,24 h -1 c 3.2832,-31.8958 11.5106,-69.9513 30,-97 m 21,0 2,2 -2,-2 m -109,1 -1,1 1,-1 m 152,0 -2,10 h -1 l 3,-10 m -439,1 -1,1 1,-1 m 61,0 -1,5 h -1 l 2,-5 m 221,0 1,1 -1,-1 m 18,0 -2,7 2,-7 m -273,1 -1,1 1,-1 m 302,1 -2,19 2,-19 m 119,0 -3,12 h 1 l 2,-12 m -414,1 v 3 h -1 l 1,-3 m 253,0 -1,1 1,-1 m 124,0 -1,1 1,-1 m -197,1 1,1 -1,-1 m 109,0 -1,1 1,-1 m 28,0 1,1 -1,-1 m 103,0 c -2.2614,16.3448 -11.7237,31.4189 -19,46 h -1 l 3,-13 -2,1 v -1 l 4,-7 -1,5 h 1 l 15,-31 m -70,1 -1,1 1,-1 m -62.3333,1.6666 -0.3334,0.6668 0.3334,-0.6668 m 14.3333,-0.6666 -2,7 h 1 l 1,-7 m -342,1 -1,1 1,-1 m 217.3333,0.6666 0.3334,0.6668 -0.3334,-0.6668 m -179.3333,0.3334 -1,1 1,-1 m 254,0 v 7 h -1 l 1,-7 m 10,0 -1,1 1,-1 m 8.3333,0.6666 0.3334,0.6668 -0.3334,-0.6668 m 27.6667,0.3334 -1,1 1,-1 m -301,1 -1,1 1,-1 m 179,0 -48,34 -19,13 -12,8 c 22.6476,-10.064 44.0536,-21.7974 63,-38.1296 3.4638,-2.9859 16.8016,-12.4761 16,-16.8704 m 152,0 v 2 l 2,-2 h -2 m -365,1 -1,1 1,-1 m 23,0 -1,1 1,-1 m 40,0 v 2 h -2 l 2,-2 m 124,0 -1,1 1,-1 m 119,0 -1,4 h 1 v -4 m -121,1 -1,1 1,-1 m 156,1 -5,24 h -1 l 6,-24 m 23.6667,0.3334 0.6666,0.3332 -0.6666,-0.3332 m -340.6667,0.6666 -1,3 h -1 l 2,-3 m 9,0 -1,1 1,-1 m 392,0 -15,32 c -9.8491,13.1812 -12.952,30.6423 -18,46 h 1 c 8.6931,-15.8193 13.5788,-33.5996 21.3461,-49.9294 4.2592,-8.9545 11.3142,-17.7439 10.6539,-28.0706 m -135,2 1,2 -1,-2 m 61.3333,0.6666 0.3334,0.6668 -0.3334,-0.6668 m 13.6667,-0.6666 1,1 -1,-1 m -62,1 v 3 h 1 l -1,-3 m -255.3333,1.6666 -0.3334,0.6668 0.3334,-0.6668 m 315.6666,1 0.3334,0.6668 -0.3334,-0.6668 m -316.3333,1.3334 -1,1 1,-1 m 339.6667,0.3334 0.6666,0.3332 -0.6666,-0.3332 m -91.6667,0.6666 1,1 -1,-1 m 67,0 1,1 -1,-1 m 23,1 -1,2 1,-2 m -397,1 -1,5 h -1 v -5 h 2 m 56,0 -2,6 h -1 l 3,-6 m 122,0 -1,1 1,-1 m 169,0 -1,1 1,-1 m 118,0 -1,1 1,-1 m -35.3333,1.3334 0.6666,0.3332 -0.6666,-0.3332 m 26.3333,0.6666 -1,1 1,-1 m 16,2 -2,2 2,-2 m -440.3333,1.6666 -0.3334,0.6668 0.3334,-0.6668 m 278,1 -0.3334,0.6668 0.3334,-0.6668 m -343.6667,0.3334 -1,1 1,-1 m 396,0 v 3 h -1 l 1,-3 m 109,0 c -2.8837,22.8447 -11.3913,39.2438 -31,52 l 24,-41 h 1 c -2.957,9.0007 -7.3279,17.2118 -14,24 l -8,12 c 16.08,-12.3373 20.7994,-29.0995 28,-47 m -459,1 -1,1 1,-1 m 19,0 -2,4 h -1 l 3,-4 m 281,0 1,1 -1,-1 m -3,1 -1,1 1,-1 m 78,0 -1,1 1,-1 m -382.3333,1.6666 -0.3334,0.6668 0.3334,-0.6668 m 399.3333,-0.6666 -5,8 5,-8 m -52,1 -2,10 h -1 l 3,-10 m 20,0 -1,1 1,-1 m 14,0 -7,13 2,-10 h 1 l 1,2 3,-5 m 66.3333,0.6666 0.3334,0.6668 -0.3334,-0.6668 m -126.3333,0.3334 -3,9 h 1 1 l 1,-9 m 108.3333,0.6666 0.3334,0.6668 -0.3334,-0.6668 m -406.3333,1.3334 -1,1 1,-1 m 295,0 -1,3 h 1 v -3 m -314,2 -1,1 1,-1 m 450,0 -4,10 h 1 l 3,-10 m -436.3333,1.6666 -0.3334,0.6668 0.3334,-0.6668 m 287.3333,0.3334 v 6 h 1 l 2,-6 h -3 m 20,0 1,1 -1,-1 m -317,1 -2,2 2,-2 m 387,0 -1,1 1,-1 m -352,2 -3,3 3,-3 m 315,1 1,1 -1,-1 m -346,1 -1,1 1,-1 m 310,0 -7,16 h -1 l 6,-16 h 2 m -197,2 -1,1 1,-1 m 229.6667,0.6666 -0.3334,0.6668 0.3334,-0.6668 m -379.6667,0.3334 3,3 -3,-3 m 55,0 -1,1 1,-1 m 137,1 -1,1 1,-1 m 143,0 1,1 -1,-1 m 35,0 -1,1 1,-1 m -328,1 -1,1 1,-1 m 293,1 -1,2 h 2 l -1,-2 m 137,0 -1,2 1,-2 m -418,1 -1,3 h -1 l 2,-3 m 316,0 -1,1 1,-1 m 10,0 -1,1 1,-1 m 89,0 -1,1 1,-1 m -210,1 -4,5 6,-4 -2,-1 m 140,0.3334 0.3333,0.3332 c -0.4935,0.1646 -1.1067,-0.3332 -0.3333,-0.3332 m -46,1.6666 -1,1 1,-1 m 25.6667,0.6666 -0.3334,0.6668 0.3334,-0.6668 m 20.3333,-0.6666 -1,1 1,-1 m -281,3 5,-1 -5,1 m -2.3333,-0.6666 0.6666,0.3332 -0.6666,-0.3332 m 60.3333,-0.3334 -1,1 1,-1 m 169,0 -3,6 h -1 l 4,-6 m -7,1 -1,1 1,-1 m 15,0 -4,14 h -1 l 5,-14 m 28,0 -1,1 1,-1 m 4.3333,0.6666 0.3334,0.6668 -0.3334,-0.6668 m 12.6667,-0.6666 -1,1 1,-1 m -51,1 1,1 -1,-1 m 32,0 v 5 h -1 l 1,-5 m 89,0 -1,1 1,-1 m -113,1 -1,1 1,-1 m 112,1 -1,1 1,-1 m -83.6667,2.6666 0.3334,0.6668 -0.3334,-0.6668 m -42.3333,0.3334 -2,3 2,-3 m 17,0 -2,8 h 1 l 1,-8 m -21.3333,1.6666 -0.3334,0.6668 0.3334,-0.6668 m 40.3333,-0.6666 -1,1 1,-1 m 55,2 -1,1 1,-1 m -94,1 -1,4 h -1 v -4 h 2 m 91,1 -2,4 2,-4 m 13,1 -1,1 1,-1 m -91.3333,1.6666 -0.3334,0.6668 0.3334,-0.6668 m 52.3333,1.3334 -1,1 1,-1 m -58,1.3334 0.3333,0.3332 c -0.4935,0.1646 -1.1067,-0.3332 -0.3333,-0.3332 m 80,0.6666 -4,8 4,-8 m -173,1 -2,4 2,-4 m 130,1 v 2 l 2,-2 h -2 m -16,2 v 5 h -1 l 1,-5 m -118,1 1,1 -1,-1 m 107,0 -1,8 h 1 l 3,-8 h -3 m 25,4 -1,1 1,-1 m 21,1 -7,15 h 1 l 6,-15 m 8,5 -5,10 h 1 l 4,-10 m 15.3333,1.6666 0.3334,0.6668 -0.3334,-0.6668 m -473.33329,0.3334 1,1 -1,-1 m 474.99999,3 -1,1 1,-1 m 0,2 -1,1 1,-1 m -47,2 c -4.0041,11.5853 -10.3088,22.4525 -18,32 l 18,-32 m -60,4 -1,1 1,-1 m -87,4 -1,2 1,-2 m 95.6667,0.6666 -0.3334,0.6668 0.3334,-0.6668 m 39.3333,1.3334 -10,12 10,-12 m 45,1 1,1 -1,-1 m -52,1 c -5.3962,7.9047 -10.5449,19.1918 -19,24 l -6,7 10,-13 -2,5 h 1 c 4.3699,-8.7112 8.4354,-16.6302 16,-23 m -10,2 -1,1 1,-1 m 59,0 -1,2 1,-2 m -162,1 -4,3 v 1 l 4,-4 m 148,0 -1,1 1,-1 m 11,0 -1,2 h 2 l -1,-2 m -204,3 -1,1 1,-1 m -264.99999,1 -1,1 1,-1 m 398.99999,1 -3,2 v -1 l 3,-1 m 11,0 -1,1 1,-1 m 63,0 1,1 -1,-1 m -106.3333,1.6666 -0.3334,0.6668 0.3334,-0.6668 m 3,0 -0.3334,0.6668 0.3334,-0.6668 m 57.3333,-0.6666 -1,1 1,-1 m -415.99999,1.3334 c 0.77338,0 0.16022,0.4978 -0.33334,0.3332 l 0.33334,-0.3332 m 4,0.6666 -1,3 h -1 l 2,-3 m 338.66669,0.6666 -0.3334,0.6668 0.3334,-0.6668 m 42.3333,-0.6666 -6,11 h -1 l 7,-11 m 30,0 c -3.9543,8.2828 -8.8397,15.1974 -16,21 l 16,-21 m -350,1 -1,1 1,-1 m 35,0 -1,1 1,-1 m 290,0.3334 c 0.7733,0 0.1602,0.4978 -0.3333,0.3332 l 0.3333,-0.3332 m 0,1.6666 -2,4 h -1 l 1,-4 h 2 m 5,0 -8,12 h -1 l 9,-12 m 5,0 -1,1 1,-1 m -124,1 -1,1 1,-1 m 38,0.3334 c 0.7733,0 0.1602,0.4978 -0.3333,0.3332 l 0.3333,-0.3332 m -231,0.6666 -1,1 1,-1 m 314,0 -1,1 1,-1 m 26,0 c -1.412,5.9789 -3.7474,9.7212 -9,13 l 9,-13 m 2,2 -1,1 1,-1 m -422.99999,1 -2,3 v -3 h 2 m 75.99999,0 -2,5 h -1 l 3,-5 m 340,0 -6,11 h -4 l 10,-11 m -258,10 v 1 c -4.2338,2.0614 -2.9107,5.8169 -3.0417,10 -0.3047,9.7332 -0.3073,19.3079 -0.9583,29 l -50.001,-3.9586 -30.999,-5.0414 c -1.1483,-10.0602 -1.8946,-21.4308 2,-31 l -1,-3 c 6.7209,-7.4309 15.3803,-2.6418 24.019,-1.3799 19.932,2.9119 39.8538,4.3799 59.981,4.3799 m 253,-8 -2,4 h -1 l 1,-4 h 2 m -81,1.3334 0.3333,0.3332 c -0.4936,0.1646 -1.1065,-0.3332 -0.3333,-0.3332 m -331.99999,0.6666 -3,3 1,-3 h 2 m 380.99999,0 -1,1 1,-1 m 13,0 1,1 -1,-1 m -298,2 c -10.0137,4.3579 -13.1381,24.6874 -3.2391,31.1523 12.4655,8.1413 41.2144,9.2082 55.2391,5.8477 1.589,-6.8035 6.0102,-20.0089 1.4229,-26.3264 -3.0536,-4.2053 -10.8037,-4.0759 -15.4241,-4.4863 -13.5821,-1.2066 -27.4131,-4.1813 -40.9988,-2.1873 l 4,-3 -1,-1 m 212,0 -1,1 1,-1 m 48.3333,0.6666 0.3334,0.6668 -0.3334,-0.6668 m 47.6667,-0.6666 1,1 -1,-1 m -124,1 -1,1 1,-1 m 5,0 -1,1 1,-1 m 100,0 v 1 l -6,5 6,-6 m 9,0 -1,1 1,-1 m -131,1 -1,1 1,-1 m 10,0 v 1 h -3 l 3,-1 m -267.99999,1 -1,1 1,-1 m 85.99999,0 -1,1 1,-1 m 235,0.3334 0.3333,0.3332 c -0.4936,0.1646 -1.1066,-0.3332 -0.3333,-0.3332 m 3,-0.3334 -1,1 1,-1 m -62,1 -7,6 -2,-4 9,-2 m 86,0 -1,1 1,-1 m 39,0 -1,1 1,-1 m -95,1 -1,1 1,-1 m 59,0 1,1 -1,-1 m -355.99999,1 v 2 h -2 l 2,-2 m 294.99999,0 v 1 l -7,5 7,-6 m -288.99999,1 -1,1 1,-1 m 303.99999,1 -1,3 h -1 l 2,-3 m 29,0 -5,6 5,-6 m 9,0 -1,1 1,-1 m -335.99999,1 v 2 h -2 v -2 h 2 m 320.99999,1 -5,6 v -1 l 1,-3 4,-2 m -141,1 -1,1 1,-1 m -195.99999,2 4,2 -8,12 4,-10 v -4 m 114.99999,2 -1,1 1,-1 m 139,0 -1,1 1,-1 m 17,0 1,1 -1,-1 m 52,0.3334 0.3333,0.3332 c -0.4935,0.1646 -1.1065,-0.3332 -0.3333,-0.3332 m 6.6667,0.3332 -0.3334,0.6668 0.3334,-0.6668 m -176.6667,0.3334 -1,1 1,-1 m -139.99999,3 -18,17 11,-19 7,2 m 307.99999,-2 -1,1 1,-1 m -253,1 -1,1 1,-1 m 185,0 -1,1 1,-1 m 74,0 -1,1 1,-1 m -465.99999,1 -1,1 1,-1 m 443.99999,0 -6,6 6,-6 m 9,0 -2,2 v -2 h 2 m 6,0.3334 c 0.7734,0 0.1602,0.4978 -0.3333,0.3332 l 0.3333,-0.3332 m -258,0.6666 -1,1 1,-1 m 91,1 -1,1 1,-1 m 119,0 -1,4 h 1 v -4 m 69,0 -1,1 1,-1 m -276,1 -1,1 1,-1 m 204,1 1,3 -1,-3 m 22,1 -1,1 1,-1 m 47,0 -1,1 1,-1 m 7,18 -1,5 16,-22 -15,17 m -78,-16 1,1 -1,-1 m -242,1 -2,2 v -2 h 2 m 161,0 -1,1 1,-1 m 137,1 -4,3 1,-2 h -1 l -4,6 -10,7 10,-13 -2,1 10,-2 m 6,-1 1,1 -1,-1 m -188.3333,1.6666 -0.3334,0.6668 0.3334,-0.6668 m 130.3333,-0.6666 1,1 -1,-1 m 49,0 1,1 -1,-1 m 45,0 -9,20 -4,5 -10,13 8,-8 14,-22 1,-8 m -226,1 v 1 h -4 l 4,-1 m 105,0 -1,1 1,-1 m -23,1 -2,2 v -2 h 2 m 1.6667,0.6666 -0.3334,0.6668 0.3334,-0.6668 m 2.3333,-0.3332 c 0.7733,0 0.1602,0.4978 -0.3333,0.3332 l 0.3333,-0.3332 m 13,-0.3334 v 1 h -5 l 5,-1 m 35,2 h 3 l -1,-2 -2,2 m 33,-2 -1,1 1,-1 m -89,1 -1,1 1,-1 m 49,1 -2,3 2,-3 m -218,1 -2,2 2,-2 m 134,0 -1,1 1,-1 m 107,0 -3,2 v -1 l 3,-1 m 3,0 -1,1 1,-1 m 25,0 -1,1 1,-1 m -45.6667,1.6666 0.3334,0.6668 -0.3334,-0.6668 m 41.6667,-0.6666 1,1 -1,-1 m -19,1 1,1 -1,-1 m -31,1 -2,2 v -2 h 2 m 22,0 -2,2 2,-2 m 18,0 -1,1 1,-1 m 54,0 -1,2 1,-2 m 10,0 -3,4 3,-4 m -199,1 -1,1 1,-1 m 141,0 v 2 l 2,-2 h -2 m -267,1 -10,9 10,-9 m 233,1 -5,8 h -1 l 4,-8 h 2 m -6.6667,1.6666 0.3334,0.6668 -0.3334,-0.6668 m -19.3333,1.3334 -10,16 -12,12 -3,-1 1,3 -13,12 c 9.8946,-3.2982 22.8471,-17.7961 29,-26 2.7255,-3.6339 5.4466,-11.6383 8,-11 v -5 m 92,0.3334 c 0.7734,0 0.1602,0.4978 -0.3333,0.3332 l 0.3333,-0.3332 m 22,-0.3334 -11,19 c 6.8731,-4.3669 11.7802,-10.5391 11,-19 m -44,2 -2,2 2,-2 m 48,0 1,1 -1,-1 m -348.99999,1 -1,1 1,-1 m 196.99999,0 -1,1 1,-1 m 12,0 -17,18 1,3 -4,4 -8,5 -6,2 v 1 c 15.5506,-5.723 27.723,-16.488 41,-26 v -1 l -5,2 5,-8 h -1 l -22,20 16,-20 m 13,0 -5,6 h 1 l 4,-6 m -216.6667,1.6666 0.3334,0.6668 -0.3334,-0.6668 m 5.6667,-0.6666 -1,1 1,-1 m 47,0.3334 0.3333,0.3332 c -0.4935,0.1646 -1.1066,-0.3332 -0.3333,-0.3332 m 3,-0.3334 -1,1 1,-1 m 287,0 1,1 -1,-1 m -180,1 1,1 -1,-1 m 11,0 -19,16 4,-6 -9,8 11,-5 c 7.3166,-2.4287 12.2519,-7.0601 17,-13 h -4 m -176,1 -1,4 h 1 v -4 m 246,0 -3,3 3,-3 m 63,0 v 2 h -2 l 2,-2 m -145,1 -2,4 h 1 l 1,-4 m 13,0 -1,1 1,-1 m 143,0 -6,8 8,-8 h -2 m -343.99999,1 -1,2 1,-2 m 3,0 -4,5 4,-5 m 283.99999,0 -1,1 1,-1 m 26,0 -23,22 c 8.7884,-5.73 17.6014,-12.8746 23,-22 m -322.99999,1 -1,1 1,-1 m 337.99999,0 h 3 l -11,10 8,-10 m -207,3 -14,14 c 0.4734,-10.8016 2.7382,-15.0238 14,-14 m 134,-2 1,1 -1,-1 m 5,0 1,1 -1,-1 m 29,1 1,1 -1,-1 m -104,1 -1,2 1,-2 m 67,0 1,1 -1,-1 m -120,2 -1,1 1,-1 m 15,0 v 2 l 2,-2 h -2 m 140,0 1,1 -1,-1 m -2,1 -1,2 1,-2 m -94,1.3334 0.3333,0.3332 c -0.4935,0.1646 -1.1067,-0.3332 -0.3333,-0.3332 m -185.99999,0.6666 -5,3 v 1 l 5,-4 m 3,0 1,1 -1,-1 m 180.99999,0 -1,1 1,-1 m 70,0 -1,1 1,-1 m 23,0 -1,2 1,-2 m -233,2 -1,1 1,-1 m 204,0 -1,1 1,-1 m 102,1 -1,3 1,-3 m -297,1 1,3 h 1 l -2,-3 m 179,0 -1,1 1,-1 m 9,1 -4,5 6,-4 -2,-1 m -189,1 -2,1 v 1 l 2,-2 m 14,0 2,2 -2,-2 m 103,0 -4,4 4,-4 m 37,0 1,1 -1,-1 m -75,2 -1,2 1,-2 m 114,1 -5,10 h 1 l 6,-10 h -2 m 10,1 1,1 -1,-1 m -20,1 1,1 -1,-1 m -162,3 v 1 l 5,-2 -5,1 m 166,0 3,-1 -3,1 m 13,-2 1,1 -1,-1 m -18,4 3,-1 -3,1 m -50,-1 1,1 -1,-1 m 63,0 1,1 -1,-1 m -66,2 -1,2 h 2 l -1,-2 m -59,2 -2,1 v 1 l 2,-2 m 56,1 1,1 z"
       id="path1" />
  </g>
</svg>
